<svg
    viewBox="0 0 78 100"
    width="100%"
    height="100%"
    fill="#000"
    preserveAspectRatio="none"
    xmlns="http://www.w3.org/2000/svg">
    <path
        d="M11.431 23.095c-.364.861-.68 1.505-1.259 2.385-.608.743-.762.862-2.154 1.723-.63.762-1.468 1.555-2.286 2.585.795-3.48 1.657-5.368 2.12-6.329 1.227-.861 1.856-.696 2.42-.199.198-.364.828-.43 1.16-.165m4.076-6.528c1.16-.132-.093.894-.564 1.425-2.12-.1-2.385.166-3.512 1.491-.596 1.59-.91 2.394-2.85 2.883 1.36-3.015 3.115-5.799 5.468-7.356 1.458.331 1.193.53 1.458 1.557M7.753 32.604c-.596.497-1.391 2.022-1.391 2.32-.426.499-.53.662-1.028 1.226-.132.994-.762 1.656-.994 1.988 0 0-.012.182 0 .298.961-1.06 1.525-1.524 1.525-1.524s.33-.166.662-1.16c-.082-.165.358-.86.564-1.226.198-.132.265-.596.397-.861.133-.265.24-.512.265-1.06m9.08-19.085c-1.459.232-1.56.617-2.486.828 2.147-1.915 3.13-2.983 4.672-4.034 0 0 .729 0 1.325.29.895-.497.895 0 1.26-.133.392-.222.53-.364.728-.894-.53-1.226.512-1.362 1.458-1.79.2.299.265.763-.762 2.088-.497 1.955-1.458 2.021-4.241 4.109-.785-.001-.994-.829-1.955-.464m14.943-8.715c-3.049.63-3.446.928-5.136 1.657-.904.778-.829 1.79-1.16 2.518-1.855 1.326-1.988 1.425-1.988 1.723 2.982-1.391 4.606-2.684 8.45-3.147-.166-1.094-.166-1.094-.166-2.75m34.67 18.318c.364.862.68 1.505 1.258 2.386.608.743.763.861 2.154 1.723.63.762 1.469 1.554 2.286 2.584-.795-3.479-1.656-5.367-2.12-6.328-1.226-.862-1.856-.696-2.419-.2-.199-.364-.828-.43-1.16-.165m-4.076-6.527c-1.16-.133.092.894.563 1.425 2.12-.1 2.386.165 3.512 1.49.597 1.591.911 2.395 2.85 2.883-1.359-3.015-3.115-5.798-5.467-7.356-1.458.332-1.193.53-1.458 1.558m7.753 16.037c.597.497 1.392 2.021 1.392 2.32.426.498.53.662 1.027 1.225.133.994.762 1.657.994 1.988 0 0 .012.183 0 .299-.96-1.06-1.524-1.525-1.524-1.525s-.332-.165-.663-1.16c.083-.164-.358-.86-.563-1.225-.199-.133-.265-.597-.398-.862-.132-.265-.24-.511-.265-1.06m-9.079-19.086c1.458.232 1.56.618 2.486.829-2.147-1.915-3.131-2.983-4.672-4.035 0 0-.73 0-1.326.29-.894-.497-.894 0-1.259-.132-.392-.222-.53-.364-.729-.895.53-1.226-.511-1.361-1.458-1.789-.199.298-.265.762.762 2.088.497 1.955 1.458 2.02 4.241 4.108.785 0 .995-.828 1.955-.464M46.101 4.832c3.048.63 3.446.928 5.136 1.657.903.778.828 1.789 1.16 2.518 1.855 1.325 1.987 1.425 1.987 1.723-2.982-1.392-4.605-2.684-8.449-3.148.166-1.093.166-1.093.166-2.75" />
</svg>
