<svg
    viewBox="0 0 78 100"
    fill="#000"
    width="100%"
    height="100%"
    preserveAspectRatio="none"
    xmlns="http://www.w3.org/2000/svg">
    <path
        d="M10.437 21.438c-.574.555-1.126.696-1.822.928-.28.304-.526.483-.563.894.662-.33 1.391-.596 2.319 0 .265-.364.663-.364 1.093-.232 1.127-1.855 2.717-3.843 3.347-5.036-1.822-.232-2.418.398-3.347 1.425-.563 1.027-.463 1.358-1.027 2.021M4.64 40.689c-.09.166-.332.199-.332.331v.73c.73-.961 1.392-1.757 1.69-2.254.298-.762.63-.994 1.027-1.656.004-.156.012-.249-.033-.398-.662.265-.63 1.093-1.027 1.226-.307.237-.497 0-.861.497-.232.762-.265 1.16-.464 1.524m3.048-8.085c-.895.564-1.955.895-2.883 1.79 0-.332.067-.53.133-.928.154-.343.497-.43.63-.73-.19-.059-.3.103-.498.1 0-.662.232-1.292.431-2.352 1.226-1.226 1.624-1.359 2.75-2.088.265-.596.663-1.16 1.293-1.425-.365 1.127-1.16 3.745-1.856 5.633m9.344-17.097c-.96-.033-2.087-.895-2.816-.596.497.33 1.226.53 1.292 1.59.253.053.298 0 .662 0 .299-.298.398-.464.862-.994m3.347-4.87c-.431-.3-.796-.133-1.16-.3.861-.562.994-.86 2.32-1.39-.2.364.066.463.066 1.026-.133.53-.829.265-1.226.663M67.44 21.465c.574.555 1.127.695 1.823.927.28.304.526.484.563.895-.663-.331-1.392-.596-2.32 0-.264-.365-.662-.365-1.093-.232-1.126-1.856-2.717-3.844-3.346-5.036 1.822-.232 2.418.397 3.346 1.424.564 1.027.464 1.359 1.027 2.022m5.799 19.25c.09.166.331.2.331.332v.729c-.729-.96-1.391-1.756-1.69-2.253-.298-.762-.629-.994-1.027-1.657-.004-.156-.012-.248.033-.398.663.266.63 1.094 1.028 1.227.307.237.497 0 .861.497.232.762.265 1.16.464 1.524m-3.048-8.084c.894.563 1.955.895 2.882 1.79 0-.332-.066-.531-.132-.929-.155-.343-.497-.43-.63-.729.189-.06.3.102.497.1 0-.663-.232-1.292-.43-2.353-1.226-1.226-1.624-1.358-2.75-2.087-.266-.597-.663-1.16-1.293-1.425.365 1.127 1.16 3.744 1.856 5.633m-9.344-17.097c.96-.034 2.087-.895 2.816-.597-.497.331-1.226.53-1.292 1.59-.253.053-.298 0-.663 0-.298-.298-.397-.463-.861-.993M57.5 10.664c.43-.298.795-.133 1.16-.298-.862-.564-.994-.862-2.32-1.392.2.364-.066.464-.066 1.027.133.53.828.265 1.226.663" />
</svg>
