<svg
    viewBox="0 0 78 100"
    width="100%"
    height="100%"
    fill="#000"
    preserveAspectRatio="none"
    xmlns="http://www.w3.org/2000/svg">
    <path
        d="M23.16 9.675c.531-.596.929-1.093.697-1.988.894-.53 1.955-.894 2.617-1.093-.662.795-.662 1.69-1.093 2.485-1.26.696-1.59 1.657-2.585 1.988.133-.53.232-.762.365-1.392m-7.421 4.142c-.663.298-.961.265-1.856 1.06.928-.099 1.226.067 1.856.299.53.195.828.497 1.458.265.53-.431.53-.431.894-.795-.398-.597-.63-.73-.994-1.127-.33-.165-.692-.002-1.348.293zM7.853 27.336c-.994.994-1.16 1.458-2.12 2.452a7 7 0 0 0-.167.729c.895-1.292 2.154-1.624 2.717-2.187.245-.305.277-.562.564-.828.331-.398.43-.332.596-.398.365-.663.53-.729.53-1.425-1.292 1.027-.828.994-2.12 1.657M6.56 36.614c-.294.504-1.15 1.694-.695 1.325.265-.298.331-.464.497-.63.236-.236.596-.596.828-.596 0-.364.166-.53 0-1.093-.199.298-.398.597-.63.994M21.637 8.88c-.431.332.43 1.027-.299 1.425.163.124.227.114.431.1.298-.299.398-.332.597-.83-.2-.463-.431-.463-.1-.927-.253-.068-.422.072-.63.232m33.079.823c-.53-.597-.928-1.094-.696-1.988-.895-.53-1.955-.895-2.618-1.094.663.795.663 1.69 1.094 2.485 1.259.696 1.59 1.657 2.584 1.988-.132-.53-.232-.762-.364-1.391m7.422 4.142c.663.298.96.265 1.855 1.06-.927-.1-1.226.066-1.855.298-.53.195-.828.497-1.458.265-.53-.43-.53-.43-.895-.795.398-.596.63-.729.994-1.127.33-.164.692-.001 1.348.294zm7.886 13.518c.994.995 1.16 1.458 2.12 2.452.048.166.143.558.166.73-.895-1.293-2.154-1.624-2.717-2.187-.244-.306-.276-.563-.563-.829-.332-.398-.43-.331-.597-.398-.364-.662-.53-.728-.53-1.424 1.292 1.027.829.994 2.12 1.656m1.292 9.278c.295.505 1.15 1.694.696 1.326-.265-.299-.331-.464-.497-.63-.237-.237-.597-.597-.828-.597 0-.364-.166-.53 0-1.093.198.298.397.597.63.994M56.24 8.908c.43.332-.43 1.027.298 1.424-.162.124-.226.114-.43.1-.299-.299-.398-.332-.597-.829.199-.464.43-.464.1-.927.253-.068.422.071.629.232" />
</svg>
