<svg
    viewBox="0 0 78 100"
    width="100%"
    height="100%"
    fill="#000"
    preserveAspectRatio="none"
    xmlns="http://www.w3.org/2000/svg">
    <path
        d="M31.875 7.62V4.905C16.7 7.886 5.6 20.709 4.307 36.846c-.364 8.15-.066 55.964-.066 59.443 4.639 0 18.887-.033 29.225-.033.165-.696.066-1.06 1.391-3.082-7.72 0-26.772.033-27.8.033 0-1.656-.033-48.972.166-56.361C9.08 20.543 20.311 9.742 31.875 7.62m14.126.028V4.931C61.177 7.913 72.277 20.737 73.57 36.873c.365 8.151.067 55.964.067 59.443-4.64 0-18.887-.033-29.225-.033-.166-.696-.066-1.06-1.392-3.081 7.72 0 26.773.033 27.8.033 0-1.657.033-48.973-.166-56.362C68.798 20.571 57.565 9.77 46.001 7.648" />
</svg>
