<svg
    viewBox="0 0 78 100"
    width="100%"
    height="100%"
    fill="#000"
    preserveAspectRatio="none"
    xmlns="http://www.w3.org/2000/svg">
    <path
        d="M7.223 65.341c-.43-.033-1.292.32-2.12.133-1.756-.398-1.823-2.386-1.491-3.148 0-.696 1.226-1.16.563-1.988 1.127.73.73 1.193.663 1.491 1.822-.066 1.06 1.624.232 1.756.199-.43.132-1.027-.762-.762-.53.53-.53 1.624.662 1.756 1.028 0 1.525-.994 1.326-2.12.43.132.96.497.662 1.557.497-.265.763.1.763.298 1.027.928-.464 1.723-.663 1.79.298-.365.331-.63.165-.763" />
    <path
        fill-rule="evenodd"
        clip-rule="evenodd"
        d="M3.976 67.495v.895s.398-.331.862-.497c.171-.114.31-.181.422-.236.215-.104.341-.165.44-.427.096-.26-.02-.582-.088-.775a.7.7 0 0 1-.045-.153c1.27.875.688 1.63.468 1.917-.038.05-.066.085-.07.105.794 0 1.06.364 1.06.861 0 .777-.53 1.193-1.193 1.59.861-1.325-.464-1.888-1.226-.96-.564.894-.464 1.59.232 2.485.299-.641 1.342-.869 2.161-1.048.45-.098.833-.181.986-.31.327-.202.158-.517.029-.76a1 1 0 0 1-.095-.202c1.26.464.563 1.79.133 1.889.397.43.894.762 1.524.232 0 .762-.63 1.889-1.326 1.292.232.928-.364 1.657-1.226 2.022 0 .264 0 .364.365.563-.365.265-.895.165-1.027-.066.425 1.542-.174 2.124-.7 2.636-.13.126-.256.248-.36.379.401-.201.743-.15 1.023-.109.227.034.413.062.558-.057.115-.162.173-.322.25-.538l.057-.158c.663 1.491 0 2.419-1.093 2.452.662.563.53 1.06-.53 1.06.33-.53 0-.927-.796-.795-1.458.994-1.126 1.922-.795 2.552v1.192c-.861-.994-1.442-2.217-.994-3.876.424-1.158.883-1.45 1.348-1.748.334-.213.672-.43 1.005-.97.331-.828.257-1.893-.564-2.385-.63-.377-1.988-.364-2.187.365.1.496.266.563.862.695-.189.27-.246.276-.511.305q-.09.009-.218.027c.02.028.023.027.032.026.012-.002.036-.005.134.073-.217.093-.34.041-.55-.047l-.047-.02c-.464-.132-.696-1.424-.331-1.921.364-1.325 1.889-1.657 2.32-1.657-.63-.662-2.188-.762-1.989.365-1.226-.298-.894-2.187.829-2.12-.53-.697-.597-1.028-.464-2.42.43-1.259 1.325-1.723 1.325-1.723m2.916 5.733c-.066-.265-.497-.464-.696-.1-.232.166 0 .464.365.464.331 0 .336-.172.331-.364" />
    <path
        d="M7.058 88.039c.232-.398.165-.995.165-1.326.166.365.53.829.464 2.021-.364 1.226-1.193 1.59-1.888 2.088-2.452 1.49-1.988 2.916-1.525 3.446.597.331.763-.464.73-1.226.33.139.451.77.38 1.005.237-.188.57.03.48.088-.364.133-.894.762-1.39.994-2.188.564-2.883-1.789-1.923-2.85-1.756.663-2.253-.463-2.518-2.02.365.397.597.563 1.127.563.795.066 2.087-1.491 3.346-1.359-.066-.165-.165-.695 0-1.524.796 1.79 2.287.829 2.552.1" />
    <path
        fill-rule="evenodd"
        clip-rule="evenodd"
        d="M11.83 92.46c.076-.062.154-.125.231-.213-.49-.378-.38-.637-.248-.943.1-.232.21-.49.082-.847.388.16.509.367.6.523a.6.6 0 0 0 .13.173c.027-.19.054-.308.076-.406.033-.14.056-.24.056-.455-.072-.116-.082-.15-.1-.178-.022-.037-.059-.066-.265-.253 1.458-.166 2.121 1.127 1.16 1.855 1.695.025 2.417 1.43 2.838 2.248.155.302.27.524.376.569 1.094-.365-.232-2.088-.63-2.32.73-.629 1.492.034 1.856.995.166-1.79.862-2.287 2.419-2.353-.356.376-.553 1.109-.725 1.748-.1.374-.192.716-.302.936.96-.762 1.723-.795 2.551-.663.597-1.193 2.12-1.259 3.082-.132.596.232 1.192-.232 1.16-.63.43.199.33.895-.034.928H24.52c-.597-.829-1.823-.762-2.121.033 2.32 1.458 2.584 4.97-1.458 5.633-.971.184-1.007.68-1.029.993-.006.082-.01.152-.031.2-.796-.265-.398-1.127.199-1.292-2.022-.431-3.248-3.215.762-4.772-.547-.58-1.261-.034-1.989.523-.683.523-1.377 1.055-1.954.67.46.442.63.861.298 2.154.166.63-.232.265-.464.033-.767.672-2.054.96-2.485-.663 1.889 1.094 2.187-1.06.96-2.551-.64-.885-1.628-1.53-2.816-.961h-1.027c.155-.331.31-.457.464-.582m9.476 4.36c.333-.327.265-.962.033-1.194-.597.232-.829.696-.994 1.359.364.033.63.1.96-.166" />
    <path
        d="M27.688 96.554H26.11s.199.497.1.762c-.1.398-.862.398-1.293.232.563.696 1.226.696 1.491.464 0 .53.497 1.16 1.359.597-.166-.1-.663-.265-.564-.763.862-.695.485-1.292.485-1.292m42.974-31.146c.43-.033 1.292.32 2.12.132 1.757-.397 1.823-2.385 1.492-3.148 0-.662-1.113-.994-.616-1.955-1.127.73-.677 1.16-.61 1.459-1.823-.067-1.06 1.623-.233 1.756-.198-.431-.132-1.028.763-.763.53.53.53 1.624-.663 1.757-1.027 0-1.524-.994-1.326-2.121-.43.133-.96.497-.662 1.557-.497-.265-.762.1-.762.299-1.027.927.464 1.722.662 1.789-.298-.365-.33-.63-.165-.762" />
    <path
        fill-rule="evenodd"
        clip-rule="evenodd"
        d="M73.909 67.562v.894s-.398-.331-.862-.497a3 3 0 0 0-.422-.236c-.215-.103-.341-.164-.439-.427-.097-.26.018-.582.088-.775.025-.072.045-.125.045-.152-1.27.875-.69 1.63-.469 1.916.039.05.066.085.071.105-.795 0-1.06.364-1.06.861 0 .777.53 1.193 1.192 1.59-.861-1.325.464-1.888 1.227-.96.563.895.463 1.59-.233 2.485-.299-.641-1.342-.869-2.161-1.047-.45-.099-.833-.182-.986-.311-.327-.201-.158-.517-.028-.759.04-.077.078-.146.094-.202-1.26.463-.563 1.789-.132 1.888-.398.431-.895.762-1.525.232 0 .762.63 1.889 1.326 1.292-.232.928.364 1.657 1.226 2.022 0 .265 0 .364-.365.563.365.265.895.166 1.027-.066-.425 1.542.174 2.124.7 2.636.13.126.256.248.36.379-.401-.201-.743-.15-1.022-.108-.228.033-.414.061-.559-.058-.115-.161-.172-.322-.25-.538q-.026-.075-.057-.157c-.663 1.49 0 2.418 1.093 2.451-.662.564-.53 1.06.53 1.06-.33-.53 0-.927.796-.795 1.458.995 1.126 1.922.795 2.552v1.193c.861-.994 1.442-2.218.994-3.877-.424-1.157-.882-1.45-1.348-1.748-.334-.213-.672-.43-1.005-.969-.33-.828-.257-1.894.564-2.386.63-.377 1.988-.364 2.187.365-.1.497-.265.563-.862.696.189.27.246.275.511.304q.09.01.218.027c-.02.028-.023.027-.031.026-.013-.002-.037-.005-.135.073.217.093.34.042.55-.046l.047-.02c.464-.132.696-1.425.331-1.922-.364-1.325-1.889-1.657-2.32-1.657.63-.662 2.188-.762 1.989.365 1.226-.298.894-2.187-.829-2.12.53-.696.597-1.028.464-2.42-.43-1.259-1.325-1.722-1.325-1.722m-2.916 5.732c.066-.265.497-.464.696-.1.232.166 0 .464-.364.464-.332 0-.337-.172-.332-.364" />
    <path
        d="M70.828 88.105c-.232-.398-.166-.994-.166-1.326-.166.365-.53.829-.464 2.022.364 1.226 1.193 1.59 1.889 2.087 2.452 1.491 1.988 2.916 1.524 3.446-.597.331-.762-.464-.73-1.226-.33.14-.451.771-.38 1.006-.237-.188-.57.029-.48.088.364.132.894.762 1.391.994 2.187.563 2.883-1.79 1.922-2.85 1.756.663 2.253-.464 2.518-2.021-.365.397-.596.563-1.127.563-.795.066-2.087-1.49-3.346-1.358.066-.166.165-.696 0-1.525-.795 1.79-2.286.829-2.552.1" />
    <path
        fill-rule="evenodd"
        clip-rule="evenodd"
        d="M66.056 92.526a2 2 0 0 1-.232-.213c.49-.378.38-.637.248-.943-.1-.232-.21-.49-.082-.847-.388.16-.509.367-.6.523a.6.6 0 0 1-.13.173c-.026-.19-.054-.308-.076-.406a1.7 1.7 0 0 1-.056-.455c.072-.115.082-.15.1-.178.022-.037.059-.066.265-.253-1.458-.166-2.12 1.127-1.16 1.856-1.695.024-2.417 1.428-2.838 2.247-.155.302-.269.525-.376.57-1.093-.365.232-2.088.63-2.32-.73-.63-1.492.033-1.856.994-.166-1.79-.861-2.287-2.419-2.353.356.377.553 1.11.725 1.748.1.374.192.716.302.936-.96-.762-1.723-.795-2.551-.663-.596-1.192-2.12-1.259-3.082-.132-.596.232-1.192-.232-1.16-.63-.43.2-.33.895.034.928h1.624c.596-.828 1.822-.762 2.12.033-2.32 1.458-2.584 4.97 1.458 5.633.972.184 1.007.68 1.029.993.006.082.01.152.031.2.796-.265.398-1.127-.198-1.292 2.02-.431 3.247-3.214-.763-4.772.547-.58 1.262-.034 1.989.523.683.523 1.377 1.055 1.954.67-.46.442-.63.862-.298 2.154-.165.63.232.265.464.033.767.673 2.054.96 2.485-.663-1.889 1.094-2.187-1.06-.96-2.551.64-.885 1.628-1.53 2.816-.96h1.027c-.155-.332-.31-.457-.464-.583m-9.476 4.36c-.334-.326-.265-.962-.034-1.193.597.231.829.695.995 1.358-.365.033-.63.1-.961-.166" />
    <path
        d="M50.197 96.62h1.578s-.199.498-.1.762c.1.398.862.398 1.293.233-.563.695-1.226.695-1.491.463 0 .53-.497 1.16-1.359.597.166-.1.663-.265.564-.762-.862-.696-.485-1.293-.485-1.293" />
</svg>
