<svg
    viewBox="0 0 512 512"
    width="100%"
    height="100%"
    fill="#000"
    preserveAspectRatio="xMidYMid meet"
    xmlns="http://www.w3.org/2000/svg">
    <path
        d="M192.409 34.43c.12 2.512 1.327 2.695 7.429 1.147 8.17-2.186 14.739-.22 16.665 4.965.974 2.832-1.55 10.267-5.96 17.13-3.459 5.44-8.006 10.693-30.659 34.85-22.705 24.339-27.713 29.972-34.128 38.79-8.718 12.105-19.122 29.086-23.577 38.77-5.772 12.265-13.003 35.451-16.257 51.493-4.257 21.427-5.17 56.424-1.986 79.236 5.605 40.925 25.168 77.83 53.619 101.183 4.433 3.687 7.879 6.821 7.708 7.009-.114.126-1.23.598-2.415.894s-3.932 1.805-6.074 3.406c-4.757 3.343-7.828 8.105-9.988 15.642-1.852 6.443-1.687 19.986.307 26.606 3.908 12.825 15.644 23.841 29.357 27.268 7.161 1.819 18.157 1.058 25.336-1.801 5.412-2.175 6.632-3.012 10.677-7.461 3.304-3.634 4.757-5.861 5.367-8.168 1.254-5.156.753-13.166-1.093-17.935-.895-2.416-1.658-4.598-1.726-4.775-.137-1.612 20.026-5.026 25.336-4.319 5.731.748 23.296-.564 29.751-2.249 7.464-1.913 18.528-6.275 24.772-9.868 5.083-2.819 6.513-3.007 6.131-.95-.627 3.207 5.224 12.763 11.764 19.168 1.253 1.139 2.381 3.424 2.7 5.088.262 1.726 1.288 4.376 2.319 5.886 2.592 4.074 10.368 8.741 15.433 9.341s12.421-2.328 17.246-6.753c11.492-10.498 15.441-34.607 7.545-45.565-.9-1.276-2.045-3.92-2.495-5.817-.592-2.37-1.766-4.353-3.583-6.006-1.504-1.368-2.644-2.633-2.53-2.758.171-.188 2.257-1.726 4.752-3.463 2.496-1.737 7.407-5.627 10.916-8.731 3.573-3.047 10.979-8.675 16.5-12.354 33.923-22.952 49.329-49.463 48.442-83.237-1.018-39.043-30.056-79.756-72.921-102.366-4.797-2.53-9.463-4.827-10.198-5.152-1.464-.53-1.35-.656 1.464-1.988 3.755-1.737 6.661-4.933 9.743-10.715 5.003-9.53 5.943-20.007 2.844-32.211-5.047-20.386-21.642-35.248-41.013-36.608-5.418-.462-15.155 1.558-19.599 3.927-2.165 1.122-6.797 3.32-10.443 4.812l-6.581 2.83-4.734-4.992c-8.83-9.174-19.422-13.769-35.579-15.64-4.763-.554-10.329-1.61-12.346-2.413-4.888-1.927-8.192-5.847-8.449-9.972l-.148-3.111 10.045-10.669c8.677-9.164 10.313-11.34 12.324-15.693 4.9-10.425 3.801-19.666-3.155-25.991-6.455-5.87-14.163-6.583-29.575-2.855-8.888 2.22-19.456 9.436-19.28 13.145m11.526-4.743c5.823-2.375 15.548-3.375 19.268-2.053 4.022 1.368 8.05 5.374 9.56 9.38.689 1.886 1.544 3.464 1.84 3.39.718-.034.143-9.6-.643-12.26-.502-1.715-.319-1.664 1.811.273 5.19 4.49 6.022 10.627 2.575 18.825-1.237 2.996-4.33 7.28-11.031 15.152-5.048 6.055-9.617 12.087-10.039 13.306-1.63 4.814 1.555 12.517 6.301 15.23l2.222 1.334-4.929 1.013c-23.98 5.094-45.499 21.582-57.328 43.907-6.324 11.991-9.236 28.917-7.112 42.066 1.966 12.318 6.967 21.674 16.111 29.874 7.771 7.067 19.029 11.809 29.677 12.563 3.367.201 3.857.417 2.569 1.078-12.015 5.786-14.91 7.961-26.413 19.478-6.239 6.232-13.082 12.372-15.116 13.727-7.976 4.995-17.354 6.998-24.219 5.106-13.423-3.621-22.765-27.341-20.394-51.855 1.299-13.012 4.718-25.585 10.655-39.417 9.345-21.607 19.982-36.201 45.98-63.155 37.313-38.641 44.105-47.117 46.697-58.152 1.351-5.64.764-9.15-2.153-12.489-2.603-3.054-8.238-4.286-13.576-3.074-3.675.894-8.552.466-7.583-.6.342-.375 2.683-1.566 5.27-2.647m-12.333 84.822c18.329-14.239 42.252-19.27 62.808-13.169 26.39 7.742 35.225 30.886 20.628 54.242-3.96 6.243-10.809 13.523-16.329 17.202-1.801 1.224-1.294.541 1.806-2.364 11.879-11.176 16.825-26.939 12.775-40.237-1.419-4.609-5.936-11.35-10.192-15.105l-3.447-3.134 2.108 3.977c3.429 6.552 6.135 14.278 6.756 19.765 1.68 15.149-11.675 35.627-27.497 42.073-3.589 1.429-16.38 2.276-20.265 1.261-4.49-1.107-10.084-6.537-12.249-11.711-2.102-5.116-2.609-11.987-1.213-16.67 1.659-5.475 8.758-13.785 13.293-15.499 7.247-2.682 16.129-1.244 23.142 3.759 1.926 1.408 3.646 2.286 3.874 2.035.627-.689-1.863-5.128-3.68-6.781-2.005-1.823-1.031-2.769 1.43-1.446 3.259 1.704 2.609-.604-1.088-3.966-2.131-1.937-5.959-4.274-9.754-5.893-9.73-4.155-14.129-4.606-20.607-2.141-5.771 2.192-9.913 5.866-13.679 12.4-10.097 17.146-6.656 40.306 7.672 51.618 10.278 8.087 24.823 8.836 40.331 2.106 5.937-2.5 16.067-8.856 18.346-11.362 2.108-2.318 19.957-2.685 32.463-.7 36.001 5.609 66.196 20.246 89.845 43.467 16.287 15.956 27.448 35.032 32.244 55.19 2.165 8.951 1.492 9.942-1.447 2.347-3.418-8.831-8.608-17.099-13.559-21.601-2.131-1.938-6.694-7.117-10.078-11.454-4.278-5.493-9.013-10.484-15.342-16.24-16.043-14.588-29.232-22.117-48.511-27.858-9.788-2.834-15.417-3.946-14.038-2.693.188.171 5.509 2.377 11.747 4.959 14.853 5.952 21.877 9.935 32.89 18.347 10.448 7.899 23.369 21.136 30.377 31.056 11.507 16.303 20.389 37.885 23.123 56.282.518 3.333.341 9.697-.274 14.403-1.038 7.184-1.778 9.257-4.844 14.139-5.35 8.528-24.425 28.498-24.385 25.558.034-.541 1.219-3.355 2.758-6.306 9.999-19.18 10.775-44.459 1.968-68.263-3.367-9.014-11.046-24.239-16.492-32.854-8.819-13.972-31.408-31.307-54.636-41.898-13.548-6.253-27.489-9.429-46.615-10.681-14.795-.977-35.505 3.542-47.595 10.29-6.598 3.73-11.173 4.607-21.337 3.949-18.647-1.274-33.289-11.612-39.219-27.879-5.577-15.144-3.411-33.893 5.796-49.559 3.601-6.226 14.467-18.552 20.192-22.961m-75.053 84.679c-2.172 16.111-2.469 30.035-.674 40.022 4.425 24.972 23.015 41.418 39.304 34.711 5.703-2.369 9.053-5.046 19.89-15.453 14.449-13.875 14.568-13.881 9.224-1.456-12.689 29.44-13.448 53.818-2.482 76.382 5.783 11.897 16.818 23.305 28.32 29.415 17.155 8.96 37.528 8.713 54.353-.598 5.606-3.143 7.452-4.67 12.87-10.503 4.159-4.574 7.145-8.612 8.906-11.933 8.899-17.09 8.359-36.011-1.457-49.515-4.62-6.376-23.227-20.663-29.87-22.926-5.908-1.939-6.364 1.081-.729 4.831 1.304.957 3.008 2.735 3.788 4.017 1.043 1.749.997 2.051 0 1.259-.746-.564.684 1.766 3.185 5.185 5.714 7.943 10.123 18.706 10.584 25.879.41 7.355-1.983 12.505-10.13 21.465-7.92 8.709-12.951 11.346-22.465 11.737-10.176.362-14.887-1.633-24.789-10.636-6.836-6.331-8.169-7.887-10.87-12.975-4.215-7.954-6.158-14.757-6.989-24.671-.826-9.793.502-20.948 3.738-31.054 3.955-12.659 6.177-16.361 16.21-27.269 8.034-8.835 9.418-9.98 15.139-13.249 8.118-4.521 19.074-7.379 31.626-8.214 12.368-.886 6.358-2.459-9.11-2.446-6.957-.03-6.854-.394.216-1.749 18.004-3.431 36.07-.51 49.128 8.044 9.468 6.206 20.959 15.854 24.85 20.766 4.211 5.316 12.847 23.014 16.071 32.814 8.163 25.394 9.541 51.829 4.008 76.674-1.789 7.759-5.419 15.905-12.455 28.05-5.043 8.693-6.399 10.436-18.535 23.782-12.306 13.533-13.571 14.673-20.203 18.944-15.189 9.653-28.293 13.992-44.685 14.769-28.594 1.355-58.368-9.465-87.241-31.599-38.028-29.315-58.189-75.005-58.335-132.256.041-13.012 2.03-39.248 4.002-50.733 1.875-11.001 6.809-28.262 5.607-19.511m184.351-88.54c5.64-2.426 17.77-3.301 24.076-1.801 10.073 2.521 18.835 9 24.122 18.043 3.059 5.071 3.469 7.39.422 2.558-4.028-6.524-14.454-13.944-23.393-16.578-7.116-2.121-21.211-.974-23.775 1.846-.228.251 2.832.286 6.837.036 11.896-.744 21.724 2.927 31.249 11.589 4.142 3.881 6.307 6.536 8.534 10.507 3.475 6.251 6.033 15.903 5.628 21.258-.347 5.293-4.153 12.248-8.928 16.491-6.102 5.326-6.638 5.411-12.825 2.647-3.059-1.294-8.5-3.494-12.158-4.76-6.039-2.172-6.962-2.668-11.565-7.426-7.121-7.277-8.881-12.769-6.346-19.964 3.71-10.249 15.754-15.436 23.439-10.165 8.244 5.665 10.505 21.686 3.537 25.194-4.392 2.187-10.995-.498-11.189-4.566-.171-2.33 1.943-3.27 5.401-2.414 3.156.809 3.379.439 1.886-3.207-1.698-4.177-2.626-4.792-6.096-4.628-9.036.368-10.392 14.702-1.864 20.054 6.615 4.183 16.072 2.596 19.987-3.346 5.697-8.784 3.037-23.107-5.617-31.091-13.411-12.195-34.97-1.58-35.324 17.443.012 2.758.473 6.153 1.14 7.561 1.469 3.168 1.014 3.669-2.279 2.506-1.465-.53-5.191-.713-8.353-.384-3.042.324-5.617.387-5.566.204-.011-.239.974-2.204 2.137-4.238 4.398-8.363 6.222-19.181 4.519-27.254-.536-2.433-.547-5.191.068-6.119 1.824-3.264 7.772-8.043 12.296-9.996M197.312 231.993l2.524-1.139-2.746 4.027c-2.473 3.475-3.225 4.05-5.663 4.465l-2.855.495 3.077-3.383c1.772-1.823 4.313-3.862 5.663-4.465m6.164 11.099c-13.429 21.441-17.077 50.633-8.839 71.287 6.665 16.592 18.486 28.143 33.567 32.584 9.731 2.896 20.533.586 30.982-6.625l4.643-3.217-5.726 5.667c-7.099 7.052-13.263 9.802-24.014 10.671-12.244 1-21.644-2.511-31.677-11.749-17.678-16.189-22.457-38.506-14.468-67.184 3.487-12.396 11.629-29.03 17.105-34.926 1.139-1.253.547.154-1.573 3.492m78.711-79.635c3.92-.786 8.94.116 16.272 3.006 2.689 1.071 2.512 1.14-6.996.391-3.852-.297-9.19-.343-11.697-.105-4.119.375-4.421.33-3.225-.986.741-.815 3.271-1.834 5.646-2.306m-116.462 251.46c3.15-1.828 6.027-1.844 9.064.23 2.535 1.619 2.535 1.619.461 4.655-1.572 2.233-2.085 4.056-1.726 6.557.091 1.914.66 3.806 1.162 4.262.564.512-.029 1.919-1.835 4.283-5.361 7.03-5.567 12.795-.616 19.815 3.276 4.581 7.269 6.61 12.277 6.013 2.205-.284 4.746-1.064 5.675-1.708.986-.706 2.49-1.856 3.475-2.563 3.014-2.181.724-2.432-3.68-.485-5.105 2.341-5.669 1.828-.877-.797 3.68-2.033 7.862-6.129 7.441-7.428-.143-.473-1.858.028-3.852.962-4.974 2.574-8.711 2.152-11.565-1.131-6.609-7.84 3.652-17.74 15.013-14.621 16.408 4.618 23.665 28.617 11.484 38.487-6.41 5.16-17.628 7.551-26.647 5.76-16.584-3.291-27.887-16.545-28.69-33.415-.597-13.821 3.699-23.078 13.436-28.876m16.277 5.644c.592-.148 4.443 1.408 8.557 3.431 4.113 2.024 11.519 5.21 16.522 7.012l9.035 3.409-2.45 1.435c-2.449 1.435-2.512 1.378-7.127-2.36-6.426-5.272-13.234-7.227-20.846-5.907-3.088.626-6.147.591-6.711.078-1.818-1.653.177-6.364 3.02-7.098m183.971-153.215c5.686 7.345 12.938 19.892 16.601 28.832 3.794 9.173 7.964 26.243 7.724 31.291-.285 6.608-3.994 18.116-8.444 26.661-5.823 11.188-17.275 23.782-30.077 33.202-8.114 5.901-31.769 20.332-31.815 19.375.051-.182 3.436-4.66 7.561-9.951 14.643-18.621 25.491-40.12 31.845-62.845 3.738-13.427 5.676-36.962 4.098-49.958-.997-8.346-2.808-18.693-3.919-21.878-1.247-3.538.997-1.726 6.426 5.271M314.469 417.28c4.051-1.811 11.834-5.837 17.264-8.913 9.11-5.108 9.993-5.45 12.38-4.424 3.487 1.454 3.555 1.631.61 1.47-2.405-.125-2.342-.068 4.17 5.738 6.512 5.807 6.574 5.864 7.582 10.673 3.002 13.947-5.373 31.971-17.07 36.903-5.173 2.163-8.484 1.901-12.648-1.2-2.421-1.743-3.322-3.02-4.045-5.624-1.071-3.606-.404-5.976.707-2.791 1.521 4.245 10.705 3.21 15.268-1.683 2.735-3.008 5.653-9.741 5.829-13.587.171-5.224-1.674-8.734-5.332-9.999-3.601-1.329-6.381-.537-13.32 3.569-9.908 5.985-12.757 6.6-16.141 3.523-1.253-1.14-3.623-9.361-2.939-10.113.114-.126 3.572-1.788 7.685-3.542m4.273 20.482c1.714-.501 5.931-2.619 9.491-4.647 7.589-4.316 9.789-4.721 10.529-1.758.291 1.066.165 3.47-.291 5.23-.757 2.974-.871 3.099-2.102 2.438-2.04-1.282-5.207-1.072-8.905.602-4.113 1.754-10.557 2.419-11.873 1.222-1.316-1.196-.57-1.891 3.151-3.087" />
    <path
        d="M123.084 195.4c-5.34 23.876-2.395 45.441 7.649 57.436 3.874 4.552 4.654 3.316 1.333-2.222-5.156-8.809-7.127-16.21-7.793-28.949-.376-6.638-.136-16.722.491-22.447 1.351-11.935 1.368-12.836.57-11.958-.285.313-1.31 3.959-2.25 8.14m39.657 179.488c3.971 6.587 8.158 11.425 16.31 18.952l8.404 7.756-6.951-4.947c-3.845-2.695-10.876-8.058-15.496-11.916-9.981-8.16-9.674-6.736 1.014 4.928 23.842 26.03 62.737 39.536 86.261 29.907 5.703-2.369 11.76-6.133 11.008-6.817-.188-.171-3.436.882-7.207 2.26-12.022 4.407-23.405 4.587-37.38.692-6.746-1.898-16.089-5.472-17.223-6.618-.376-.342 1.083.069 3.407 1.038 10.335 4.247 24.418 6.637 32.332 5.362 2.256-.466 4.273-.922 4.444-1.11.228-.25-2.968-.638-7.065-1.044-13.366-1.165-27.278-6.261-40.951-15.146-3.897-2.513-12.802-9.466-19.923-15.484-11.685-9.938-12.739-10.668-10.984-7.813" />
</svg>
