<svg
    viewBox="0 0 512 512"
    width="100%"
    height="100%"
    fill="#000"
    preserveAspectRatio="xMidYMid meet"
    xmlns="http://www.w3.org/2000/svg">
    <path d="M325.761 70.068c-6.5 3-16 41.5-28.5 66 7.975-.185 11.5-7.5 19.5-11.5 7-16.153 1-35.5 9-54.5" />
    <path
        d="M325.761 70.068c-3 16-3.5 25.5-3 39.5 6 2.5 13.408 5.005 19.5 2.501 3-1.001 5.5-3.001 9-11-3-16.5-23-33.501-25.5-31.001" />
    <path
        d="M319.261 125.568c-5.979.503-14.5 13.5-22 10.5-1 4.5 14 12 27.5 47.5 1 5.5 6.5 1.5 6.5 1.5l20-18.5c-3.514-6.834-5.845-9.5-9-17.499-.5-6 10-32.5 9-48-1 7.499-4.5 11.499-9 12.999-8.284 2.761-16 .499-20-1.5-2.5 8.5 1.5 16-1 34 3 1 9 8 17.5 12-5.5 6.5-10.5 23-10.5 23s1.5-13.5 7-22.5c-5-4-13.5-11-15.5-11 0-6 1.5-22.668-.5-22.5m-89.472-74.583c1 17.5 4.5 23.5 10 42 24-33 50.267-46.5 45.5-53-5.5-7.501-44 8.5-55.5 11" />
    <path
        fill-rule="evenodd"
        clip-rule="evenodd"
        d="M96.261 283.568c-21 48 0 36 2 81.001 22.735 37.499 26.633 64.999 26.633 64.999s47.867 48 132.867 44.5c0-8.803 3.115-1.14 5.025-6 0 0-62.025-10.5-79.525-10.5-13-12.5-51.212-40.897-36-30.5 18.288 12.5 19.451 17.935 36 24.31 29.552 11.384 84.273 8.69 84.273 8.69 2.883-3.406 6.372-5.952 10.126-8.69 8.706-6.352 18.833-13.739 26.101-35.309 19.879-5.344 29.249-20.649 40.221-38.569 14.693-23.998 32.259-52.688 81.779-68.431-9.443-3.829-14.62-7.234-17.5-10.29 0 0-9 8.289-10 4.289-1.835-7.341-28-8.033-40.5-1.5-2.907-2.5-2.418 9-4 11-2.733 3.455-11 7-11 7s4.657-2.38 6.5-5c1.991-2.829 7.488-14.044 4.5-15.789-5.5-3.211-14.944-17.1-10.5-12.211 5 5.5 2.5 4.211 14.5 12.211 14.198-5.066 19.5-5.5 42 0 0 4.289 8.5 0 8.5 0-3.324-3.528-3.589-6.591-3.824-9.305-.358-4.148-.646-7.479-11.676-10.405-29.5 3.999-39.731-2.224-46.334.986-1.533.746-2.724 1.325-3.666 1.513-3.81-1.804-6.976-5.94-11.434-11.763-6.658-8.698-16.198-21.16-35.066-35.237-.848-4.239-1.293-10.26-1.804-17.167-.995-13.461-2.239-30.284-7.196-43.832 0-9.614-.361-21.303-.758-34.147-.923-29.907-2.04-66.072.758-96.853-6.153 7.343-12.778 13.662-19.313 19.895-9.928 9.47-19.649 18.742-27.187 31.105 1.024 5.635 2.691 11.562 4.5 17.999 3.489 12.412 7.512 26.722 8.5 44.501-6.191-31.21-8.913-48.111-13.972-63.084-4.747-14.052-12.028-26.765-12.028-37.416-8.343 40.169-22.414 69.645-35.606 97.277-8.154 17.082-15.973 33.459-21.894 51.223 2 11.5 4.5 31.921 4.5 57.499 0 35.5-4.5 48-15.5 75.001 1.683-8.413 4.071-15.235 6.288-21.569 5.03-14.368 9.179-26.222 2.212-48.432-4.603 3.069-7.182 3.842-9.236 4.457-5.31 1.591-7.109 2.13-31.264 38.543-1.588 3.748-1.942 8.988-2.367 15.294-.89 13.209-2.095 31.092-15.633 49.707 1.141-3.766 2.178-6.855 3.034-9.403 2.893-8.617 3.711-11.054-.534-12.597 6.673-5.971 7.672-12.929 9.235-23.82.663-4.613 1.426-9.932 2.765-16.18 18.866-37.732 25.682-40.86 36.478-45.815 2.938-1.349 6.171-2.832 10.022-5.186 1-9 2-20.5-2.5-52-20.788 36.262-30.631 43.794-37.9 49.356-4.358 3.335-29.29 16.961-33.6 24.644m195.5 53.001c-21-30.001-38-119.5-33.5-148 1.306 8.818 2.124 17.583 2.932 26.243 1.666 17.854 3.29 35.258 9.068 51.756 4.05 25.286 6.729 32.039 12.989 47.819 2.282 5.75 5.039 12.7 8.511 22.182m-21-238c3.433-7.65 6.591-14 10-19 2.713-3.98 1.574-1.509-1.035 4.153-4.603 9.987-13.782 29.9-14.465 41.847-.913 15.982 2.656 29.566 6.234 43.181 4.258 16.2 8.526 32.443 5.266 52.819 1.385-12.186-2.446-28.668-6.565-46.386-3.317-14.269-6.82-29.34-7.935-43.614-.871-11.145 3.923-22.802 8.5-33m-24.5 305.499 67-16.5-70 25-37.5-25z" />
    <path
        d="M346.261 190.568c1.113-3.908 10.97-20.489 14.5-22.5-8.5 13.5-2.5 28.5 5.5 32 2-2 6.5-3.5 8.5-5 1-1 1-1-7.5 2-11.42-3.471-11-22-2-31.5 4-8.5 23 23.5 11 35.5-5 3-14.501 10-16.5 9-8-4-6.5-10-13.5-19.5m-23 26.804c-1-3.804 2-7.304 3.5-10.804 1-3 7-6 10-6 6 0 7 2.5 3.5 4.5-5.5 2 0 14.5-9 13 10.5 4.5 5-12 11-11.5 5.5 11 3.5 9 5 14.5-2.5 8.5-3 9-7 16.804-6-1.304-18.5-14.304-17-20.5m-15.5-172.804c-8.5 8.5-11.505 10.169-11.5 17 .5 10.5 3.5 10 6 14.5 4.5-1 5.5-7 9-11 3.982-7.772 5.5-16.5-3.5-20.5" />
    <path
        fill-rule="evenodd"
        clip-rule="evenodd"
        d="M126.064 135.814c-2.21 4.516-4.896 10.003-8.803 16.255-1.973 2.536 2.249 8.725 7.742 16.777 4.253 6.234 9.267 13.585 12.758 21.222 10.5-1 29-19 28-28-1.381-5.525.576-11.528 2.744-18.172.97-2.975 1.983-6.08 2.756-9.327 1.646-6.913-5.456-13.031-9.847-16.814-1.644-1.417-2.909-2.506-3.191-3.186-5.691-5.314-12.409.063-18.496 4.935-1.36 1.089-2.688 2.152-3.966 3.065-3.961 1.523-6.25 6.201-9.697 13.245m9.697-9.746c-4 1 .015 4.689-1 6.5 13 10 12.982 4 3 49.5 10.859-49.5 15.47-43.018 19-40.5 1.87 4 1.834 11.971 7.5 14.501-2.169-6-5.744-8.001-6.038-17.001-9.462-3.254-11.462 8-15.962-2.5-4.5-5-8.5-1.293-6.5-10.5" />
</svg>
