<svg
    viewBox="0 0 512 512"
    width="100%"
    height="100%"
    fill="#000"
    preserveAspectRatio="xMidYMid meet"
    xmlns="http://www.w3.org/2000/svg">
    <path
        d="M95.307 103.569c-26.65 16.811-20.857 46.377-11.587 53.914 2.998 2.437 16.222 6.956 26.072-2.319s7.532-8.49-4.635-9.276c-17.96-1.159-16.802-33.624-9.85-42.319m40.557 150.727c-2.897 20.29-12.288 25.969 2.317 32.464 10.429 4.638 31.286-8.696 31.286-19.71-33.024 20.29-28.389-15.653-33.603-12.754m68.945 60.291c16.802-7.537 28.39-25.968 35.921-24.928 16.802 2.319 20.858 19.71 5.215 33.044-8.691-22.03-22.596 0-41.136-8.116m247.393-147.829c-20.278 18.551-29.125 43.479-12.167 64.349 12.167 6.377 20.278-1.739 15.643-15.652-9.27-20.87-12.746-35.363-3.476-48.697M91.252 334.297c-10.429-1.159-13.905-3.478-15.064-6.377-32.445-1.159-22.016 30.146-5.794 33.624-7.532-27.827 9.27-11.015 20.858-27.247" />
    <path
        fill-rule="evenodd"
        clip-rule="evenodd"
        d="M217.555 342.413c-31.977 21.511-50.286 56.639-35.342 92.176 11.588 19.71 43.702 42.899 85.997 34.203 30.458-9.814 38.569 8.201 60.006 0 19.699-7.536 13.905-15.073 20.857-20.29 10.043-7.536 19.699-9.855 23.755 4.058 9.849-8.116-11.008-19.71 1.738-32.464 38.818-30.725 55.644-53.283 67.786-103.19 4.636-69.567-51.564-103.77-20.857-145.51 10.098-8.696 48.667-37.102-15.064-70.726 10.429 27.247 1.159 35.363-15.643 35.363-34.183 2.319-8.69-63.19-42.874-77.103 19.12 40.001-12.166 35.943-12.166 64.349 0 16.232 25.492 33.044 37.08 49.277-33.025-11.015-46.35-5.798-48.088-9.856-9.27-17.971 1.158-57.255-41.136-96.234-11.952-11.014-70.684-41.74-111.819-14.492-15.643 15.652-8.691 35.942-6.953 48.696-4.055 49.856-85.747 117.103-101.97 36.523-15.643 49.276 20.858 55.653 28.39 55.653-20.858 23.188-23.175 35.362-20.858 51.595C74 269.692 98.02 284.59 104.577 292.557c32.445 39.421 4.056 59.132-19.119 55.074 35.342 23.188 69.839-16.668 50.406-40.001-2.897-3.478-19.838-25.432-15.064-43.479 5.214-19.71 16.222-20.87 27.23-37.682 8.112-22.029 49.044-50.346 85.169-51.595 50.405 1.739 58.516 40.581 46.929 61.451 1.738 7.536 13.325 14.492 29.548 23.768-15.064-31.305 5.794-56.233 40.556-46.957 31.286 22.609-11.587 23.188-11.587 56.812 0 17.972 13.325 37.102 26.071 46.378 5.215 7.536-7.531 20.869-16.801 12.754-1.739-42.32-47.509-73.432-98.494-48.117 56.199 16.232 53.882 35.362 39.977 49.856-22.596 19.131-36.501-5.797-71.843 11.594m12.167 72.465c-8.114-15.073-1.158-29.566 9.27-35.942 19.12-5.798 19.699 1.159 36.501 4.637 11.587-1.159 9.849-11.594 11.587-20.29 15.064 20.87-8.111 40.001-11.587 53.334-8.691 15.653-36.865 14.804-45.771-1.739m84.009-17.971c-17.381 5.217-15.707 13.333-15.063 16.232.765 3.444 5.794 2.319 8.111 1.159 18.54-9.275 8.111-8.695 19.699-13.416 3.28-1.336-4.635-5.953-12.747-3.975m45.771-125.759c-.682-11.543 3.476-16.852 10.429-25.548 4.95 11.015 0 18.551 4.95 25.548 7.181 10.151 10.113 12.134 6.058 31.265-2.318-11.595-20.58-16.755-21.437-31.265M256.953 86.177c-49.826-35.363-79.374 28.986-71.263 52.175 6.952-12.174 4.055-47.537 66.628-23.189 15.643 0 18.54-11.594 4.635-28.986" />
</svg>
