<svg
    viewBox="0 0 512 512"
    width="100%"
    height="100%"
    fill="#000"
    preserveAspectRatio="xMidYMid meet"
    xmlns="http://www.w3.org/2000/svg">
    <path
        d="M265.025 4.11c-1.121 6.887-.784 11.109.896 11.775 2.13.889 2.914-1.555 2.914-9.331 0-4.777-.448-6.554-1.569-6.554-.896 0-1.793 1.666-2.241 4.11m-88.75 7.554c-.336.889.336 4.444 1.457 7.998 1.681 4.888 2.689 6.443 4.37 6.443 2.69 0 2.69-3.777.112-10.886-.448-1-1.008-2.666-1.344-3.555-.673-2.11-3.81-2.11-4.595 0m87.405 9.998c-1.008 2.333.336 4.999 2.353 4.999q1.681 0 1.681-3.333c0-3.555-2.913-4.777-4.034-1.666m-80.905 8.22c-2.242 1.333-.449 6.776 2.129 6.776 2.801 0 3.81-2.555 2.129-5.443-1.345-2.555-2.017-2.777-4.258-1.333m80.457 2.888c0 1.778.672 2.777 1.681 2.777.896 0 1.681-.444 1.681-1 0-.555.336-1.777.672-2.776.448-1.334 0-1.778-1.681-1.778-1.793 0-2.353.667-2.353 2.777m-2.017 22.44c-1.793 23.883-1.793 24.771.784 24.771 2.354 0 2.802-3.11 4.147-29.215.672-12.33.56-12.997-1.457-12.997s-2.241 1.444-3.474 17.44M186.024 39.88c-2.129 1.333-.672 4.554 2.129 4.554 2.354 0 2.69-.888 1.569-3.777-.784-2-1.457-2.11-3.698-.777m154.64 4.776c-.56 1.444-2.017 5.221-3.362 8.443-2.241 5.554-2.353 7.998-.112 7.998 1.457 0 8.068-16.44 7.172-17.996-1.009-1.666-2.69-.888-3.698 1.555m44.823 3c-1.793 3.11 1.121 5.22 3.026 2.221 1.456-2.221 1.008-4.332-.897-4.332-.56 0-1.569 1-2.129 2.11m-197.109.001c-2.13 1.333 10.197 40.101 12.662 40.101.896 0 1.681-.555 1.681-1.221 0-1.222-5.043-19.662-6.724-24.328-.56-1.555-1.792-5.666-2.801-9.22-1.793-6.443-2.241-6.998-4.818-5.332m190.274 10.553c-3.698 6.443-4.147 8.442-1.905 8.442 1.12-.11 8.628-10.886 8.628-12.552 0-.334-.784-.778-1.681-1.111-1.008-.444-2.689 1.222-5.042 5.22M103.214 56.32c-1.121.445-1.009 1 .448 2.666 1.793 2 4.93 2.889 4.93 1.445 0-1.222-2.353-4.888-3.137-4.777-.448 0-1.457.333-2.241.666" />
    <path
        d="M227.374 57.653c0 1.222 4.258 34.214 4.93 37.88.448 2.777.224 2.888-9.749 4.777-5.715 1-11.43 2.222-12.775 2.555-2.017.555-2.577.222-2.577-1.333 0-3.11-1.569-4.888-3.137-3.888-1.121.666-1.121 1.666-.225 3.888.897 2.444.785 3.11-.896 3.666-1.009.333-6.163 2.332-11.318 4.332-5.267 2.111-9.637 3.666-9.749 3.444-.224-.111-3.81-7.665-8.18-16.663-5.155-10.664-8.404-16.33-9.525-16.33-1.009 0-1.793.223-1.793.556s3.81 8.109 8.516 17.329c4.707 9.22 8.293 16.885 8.069 16.996-.112.222-2.802 1.777-5.939 3.444-3.026 1.777-7.732 4.554-10.198 6.221l-4.594 3.11-5.491-7.776c-8.18-11.553-16.809-23.44-19.386-26.55-1.905-2.332-2.241-2.554-2.913-1-.561 1.556 10.309 17.33 24.54 35.326.897 1.111.112 2.333-3.249 4.999-2.466 1.888-6.836 5.554-9.637 8.109l-5.155 4.777-3.138-3.333c-1.793-1.888-4.034-3.333-4.93-3.333-1.121 0-.336 1.445 2.353 4.111l4.146 3.999-5.827 6.776c-3.25 3.777-6.835 8.22-8.068 9.886l-2.241 3-6.948-4.666c-3.698-2.666-11.205-7.887-16.696-11.775-5.38-3.888-10.422-6.776-11.318-6.443-2.241.889-1.009 2.333 5.603 6.776 3.25 2.111 10.757 7.11 16.808 11.109l10.982 7.221-2.913 4.776c-1.569 2.555-4.259 7.332-5.939 10.553-3.026 5.888-3.474 6.11-8.405 4.11-3.025-1.222-2.353 2.444.673 4.111l2.689 1.444-3.922 10.997-3.922 10.886-3.474-.666c-1.905-.333-6.275-1.444-9.637-2.333-9.749-2.777-22.635-6.11-23.756-6.11-.448 0-.897.667-.897 1.445 0 .888 2.354 2.11 5.38 2.777 18.377 4.665 30.703 7.776 31.04 8.109.223.222-.337 3.999-1.121 8.22-.897 4.333-1.793 9.665-2.242 12.109l-.672 4.221-7.732-.667c-4.258-.444-8.852-.999-10.31-1.222-1.456-.222-6.835-.666-12.101-1.111-5.267-.333-10.646-.999-11.99-1.333-2.018-.444-2.578-.111-2.578 1.778 0 2.11.672 2.333 7.06 2.444 3.81.111 9.189.333 11.99.666 2.801.222 9.637.778 15.128 1.222l10.085.778v12.441l.112 12.442-5.379.666c-7.06 1-6.947 2.777.224 2.777 3.698 0 5.603.445 5.603 1.334.112.777.785 5.443 1.681 10.33 2.353 12.997 2.802 12.109-6.948 14.33-4.818 1-12.55 2.778-17.144 4-4.595 1.11-9.75 2.443-11.43 2.777-2.914.555-4.595 3.888-2.017 3.888 1.232 0 23.644-5.666 33.393-8.554 3.362-.889 6.387-1.222 6.835-.778.897 1 7.957 20.773 7.957 22.106 0 .334-1.233 1.111-2.802 1.667-1.569.555-2.801 1.666-2.801 2.332 0 1.222 1.793 1 5.827-.666 1.232-.444 2.017-.111 2.465 1.333.336 1.111 2.913 5.999 5.715 10.886l5.154 8.887-3.025 2.222c-3.81 2.888-16.248 10.775-23.084 14.663-5.043 2.888-6.5 4.999-4.482 6.332.448.222 7.62-4.221 15.912-9.998 8.292-5.665 15.464-10.442 15.912-10.442.672 0 14.68 17.107 15.24 18.885.224.444-6.948 7.554-15.912 15.774-8.965 8.109-16.361 15.107-16.361 15.441 0 3.332 5.043-.334 18.938-13.553l16.136-15.441 5.155 4.777c2.802 2.555 7.06 6.221 9.413 8.109l4.258 3.444-2.801 3.444c-1.681 1.777-2.914 4.221-2.914 5.332.112 1.555 1.121.888 4.37-2.777 2.69-3.111 4.483-4.444 5.043-3.666.448.666 4.818 3.666 9.637 6.554 4.93 2.888 8.965 5.776 8.965 6.332 0 .999-13.111 25.994-16.921 32.437-1.905 2.999-1.905 3.665-.56 4.887 1.456 1.111 3.137-1.666 11.205-17.551l9.525-18.885 11.654 4.555 11.654 4.665-1.008 3.333c-1.121 4.11-1.121 3.888.112 3.888.56 0 1.569-1.555 2.241-3.444.896-2.666 1.681-3.332 3.138-2.666 1.12.445 6.499 1.778 12.102 2.889 5.491 1.221 10.085 2.332 10.197 2.443s-1.009 8.443-2.465 18.441c-2.129 14.441-2.466 18.44-1.345 19.217 1.569.889 2.577-3.999 5.267-26.327l1.457-11.108 11.878.333c6.611.222 12.214.666 12.438.888.224.223.672 10.443 1.009 22.662.448 19.773.784 22.328 2.353 21.995 2.129-.445 2.129-2 .784-27.549l-.896-17.219 11.878-1.444c6.611-.777 12.438-1.111 12.998-.777.449.333 1.233 2.555 1.681 4.999.449 2.443 1.233 4.443 1.793 4.443 1.233 0 1.233-1.555 0-6.887l-1.008-4.222 4.706-1.11c2.465-.667 7.844-2.222 11.654-3.555 3.922-1.222 7.508-1.778 7.956-1.333.785 1 2.466 5.221 10.534 27.105 2.465 6.554 4.594 10.664 5.715 10.886 1.008.222 1.793 0 1.793-.555 0-.445-3.474-9.554-7.732-20.218l-7.732-19.218 10.757-5.332 10.87-5.332 2.017 2.666c3.025 3.888 4.594 3.333 2.241-.777-1.905-3.222-1.905-3.444 0-4.444 1.121-.666 5.379-3.666 9.525-6.776s8.068-5.665 8.74-5.777c.673-.111 4.146 3.333 7.732 7.554 12.663 15.33 18.042 20.662 19.386 19.329.897-.889-2.241-4.999-11.766-15.552L361.507 380.8l8.74-8.665c5.491-5.443 9.301-8.442 10.197-7.998 1.233.778 11.094 8.998 26.446 22.106 6.051 5.332 8.74 6.443 8.74 3.666 0-.444-7.395-6.776-16.472-13.997-9.189-7.109-17.033-13.33-17.593-13.885-.448-.445 1.12-3.444 3.474-6.776 2.353-3.222 5.491-7.776 6.947-10.109 1.345-2.222 2.914-4.11 3.25-4.11.448 0 2.465.999 4.482 2.221s4.146 2.222 4.707 2.222c2.241 0 1.008-2.222-1.905-3.777-6.388-3.444-6.276-2.888-.897-14.33 2.914-5.887 5.715-10.775 6.275-10.775 1.009 0 12.887 4.443 29.808 10.997 6.499 2.555 8.404 2.888 9.301 1.778 1.568-1.889 1.568-1.889-15.24-7.665-22.3-7.554-23.42-7.998-23.196-9.665.112-.888 1.344-6.22 2.801-11.886l2.578-10.331 3.585.334c2.017.222 3.81-.223 3.922-.778.225-.667-1.344-1.222-3.473-1.444-3.474-.333-3.698-.556-3.026-3.777.336-1.888 1.009-7.665 1.457-12.886l.672-9.331 19.498.444c14.904.222 19.386 0 19.386-1.111 0-.999-4.706-1.333-19.61-1.333h-19.61v-5.332c0-2.888-.336-8.553-.672-12.552l-.785-7.221 22.3-3.332c17.257-2.555 22.299-3.666 22.299-4.888 0-2.111-5.267-1.889-20.17 1-6.163 1.222-12.439 2.443-14.007 2.777-1.569.222-4.595.777-6.836 1.222l-4.034.777-2.353-9.886c-1.345-5.332-2.69-10.776-3.026-12.109-.56-1.888 0-2.555 3.922-3.777 2.466-.777 4.819-1.999 5.267-2.443 1.233-2.111-.897-2.333-5.379-.556-4.706 1.778-6.611 1.666-6.611-.555 0-.556-2.017-5.443-4.483-10.664s-4.37-9.554-4.258-9.665c.336-.222 14.904-7.887 28.911-15.219 7.732-4.11 8.629-4.998 6.948-6.665-1.009-.999-1.793-.888-3.25.445-1.121.888-5.267 3.443-9.301 5.554s-10.869 5.999-15.352 8.554c-4.482 2.443-8.516 4.554-8.964 4.554-.448-.111-3.922-4.666-7.508-10.22l-6.611-10.109 2.465-1.999c1.232-1 2.353-2.444 2.353-3.11 0-2-2.801-1.445-4.931.888-1.905 2.111-2.129 2-7.059-3.555-2.69-3.221-6.5-7.109-8.404-8.775l-3.474-3 3.81-4.443c2.129-2.444 7.956-8.887 12.998-14.33 7.508-8.109 8.965-10.22 7.732-11.22-1.12-.999-2.129-.444-4.482 2.666-1.681 2.222-4.258 4.999-5.603 6.443-1.345 1.333-5.603 5.999-9.525 10.331l-6.947 7.998-9.861-7.331-9.974-7.332 2.914-4.554c4.818-7.665 12.662-19.773 17.145-26.55 3.137-4.665 4.034-6.998 3.249-7.776-1.68-1.666-3.361.667-15.351 20.773-5.379 8.998-10.31 16.219-10.982 16.108-.56-.222-5.827-2.777-11.542-5.666l-10.309-5.221 1.681-3.999c1.904-4.665 2.129-5.998.672-5.998-.56 0-1.681 1.777-2.353 3.888s-1.681 4.11-2.129 4.332c-.449.333-5.155-.889-10.646-2.777-5.379-1.778-10.421-3.222-11.318-3.222-2.241 0-2.129-2.221.673-12.774 3.698-14.33 5.715-23.106 5.939-25.994.112-3.555-2.466-4.333-3.138-1-.336 1.444-2.129 9.775-4.034 18.662-4.594 20.884-4.37 20.329-6.387 19.551-.897-.333-6.388-1.222-12.215-2l-10.533-1.221v-3.777c0-2-.336-3.666-.784-3.666-2.017.111-3.474 1.777-3.81 4.443-.449 2.778-.673 2.778-11.766 3.11l-11.43.334-.785-6.776c-1.344-11.22-1.569-13.553-2.241-21.662-1.008-10.886-1.457-12.775-3.362-12.775-.896 0-1.68.445-1.68 1m49.865 48.433c65.218 10.442 115.756 58.098 129.427 121.972 10.645 49.322-5.379 103.42-41.462 139.634-31.6 31.77-72.949 48.1-117.66 46.323-17.145-.667-28.015-2.555-44.487-7.999-21.179-6.998-40.565-18.662-57.598-34.769-13.559-12.775-23.084-25.661-31.824-42.99-12.663-25.217-16.809-44.656-15.912-74.427.672-19.996 2.913-32.548 8.964-48.433 15.016-39.547 47.177-72.872 85.388-88.758 10.87-4.443 26.11-8.775 37.54-10.553 12.886-1.999 35.298-1.999 47.624 0m-168.31-42.99c-1.121.667-.337 2.444 2.577 6.666 3.81 5.332 7.172 7.442 7.172 4.554 0-1-7.62-12.108-8.181-12.108-.112 0-.896.444-1.568.888m44.486-.333c0 .223.897 2.222 1.905 4.444 1.793 3.666 4.819 5.332 4.819 2.777 0-2.444-3.474-7.776-5.043-7.776-.896 0-1.681.222-1.681.555m178.62 2.889c-.336.666-.112 1.777.561 2.443 1.008 1 1.569.89 2.353-.333.56-.889 1.121-2 1.121-2.555 0-1.222-3.138-.888-4.035.445m39.221 4.888c-1.121 2.776.784 4.443 2.577 2.221.784-1.222 1.457-2.444 1.457-3 0-1.554-3.362-1-4.034.778" />
    <path
        d="M329.458 72.428c-.56 1.444-2.353 5.776-3.922 9.664-1.905 4.777-2.577 7.554-1.793 8.332 1.121 1.11 8.965-14.442 8.965-17.663 0-2.777-2.241-3-3.25-.333m-168.647 1.666c-1.344 1.333-.672 3.666 1.009 3.666.896 0 1.681-.667 1.681-1.555 0-1.889-1.569-3.11-2.69-2.111m205.85 3.555c-.784 1.222-.896 2.555-.224 3.555.784 1.221 1.233 1.11 2.577-.667 2.13-2.777 2.13-3.555.337-4.221-.785-.334-2.017.333-2.69 1.333m-246.863 1.777c0 1.778 3.026 3.555 4.146 2.333.785-.778-1.793-4-3.137-4-.561 0-1.009.778-1.009 1.667m138.952 6.221c0 1.666.56 2.221 2.465 1.888 3.81-.555 4.146-4.221.448-4.221-2.241 0-2.913.556-2.913 2.333m-134.021 0c-.897 1.555 2.353 4.776 3.922 3.888.784-.556.784-1.444-.224-2.888-1.457-2.556-2.578-2.778-3.698-1m76.199 7.221c.336 1 .672 1.888.672 2.221 0 .222.785.111 1.681-.222 2.577-1 2.017-3.777-.672-3.777-1.681 0-2.129.444-1.681 1.778m120.014 1.666c-.448.666-.56 1.444-.224 1.777.784.778 3.025-.666 3.025-2 0-1.332-1.905-1.332-2.801.223m76.311 3.332c-2.241 2.444-2.801 3.777-1.905 4.666 1.569 1.555 6.836-3.11 6.836-6.11 0-2.888-1.457-2.444-4.931 1.444M83.492 96.422c-.785 1.222 12.886 14.774 14.119 13.997 2.017-1.222.56-3.555-5.715-9.109-7.06-6.11-7.508-6.332-8.404-4.888m367.1 4.888c-5.266 4.11-5.714 4.776-4.258 6.221 1.457 1.555 2.353 1.11 7.956-3.111 6.051-4.554 7.172-6.887 3.81-7.443-.896-.222-4.258 1.778-7.508 4.333m-60.623 4.665c-1.008 1.111-1.008 1.778-.112 2.333 1.457.889 4.707-1.555 3.81-2.888-.896-1.444-2.241-1.222-3.698.555m48.633 5.11c-3.025 3.333-.56 5.443 3.362 2.888 2.353-1.555 2.689-2.221 1.569-3.554-1.681-2.111-2.466-2-4.931.666M100.86 112.64c-1.12 1.333-1.008 1.889.897 2.778 2.913 1.555 4.482-.556 2.129-2.778-1.457-1.444-1.793-1.444-3.026 0m330.57 3.889c-1.568.999-1.008 4.554.785 4.554 1.681 0 3.81-3.11 3.025-4.443-.896-1.333-1.793-1.444-3.81-.111m-325.639 1.222c-1.009 1.666 14.231 15.663 15.688 14.33.672-.667-1.681-3.666-6.163-8.221-7.508-7.442-8.292-7.998-9.525-6.109m305.245 15.107c-14.904 11.997-18.265 15.441-14.792 15.441 1.233 0 13.559-8.998 20.507-14.997 1.793-1.555 5.267-4.221 7.732-5.998 4.482-3.222 5.603-5.443 3.586-6.665-.56-.334-8.18 5.221-17.033 12.219m-287.316 1.555c-1.12 1.889 1.345 4.11 2.802 2.666.896-.888.672-1.666-.449-2.555-1.12-.999-1.792-.999-2.353-.111m265.465 15.663c-.336.667-.224 1.666.224 2.111 1.345 1.333 4.258-.556 3.362-2.111-1.009-1.555-2.578-1.555-3.586 0M14.8 151.631c-.336 1-.448 1.889-.224 2s3.474 1.666 7.06 3.444c6.499 2.999 6.835 2.999 8.292.999 1.345-1.777.896-2.221-5.043-4.998-7.507-3.555-9.076-3.777-10.085-1.445m18.378 8.221c-.56 2.221 3.025 4.665 5.715 3.777 2.353-.889 1.456-3.666-1.57-4.777-3.697-1.444-3.473-1.444-4.145 1m9.637 4.11c-.56 1.666 1.232 3.666 3.361 3.777 1.681 0 2.241-3.555.673-4.555-2.241-1.444-3.25-1.222-4.034.778m7.283 3.443c-.336 1.556 3.474 3.777 18.714 10.553 13.11 5.888 19.386 8.221 20.17 7.443 1.793-1.888 0-2.888-29.807-16.44-8.74-4-8.628-4-9.077-1.556m415.622 17.774c-4.146 1.555-7.396 3.444-7.171 4.11.56 1.667 1.232 1.556 10.645-1.555 4.482-1.444 8.068-3.332 8.068-4.11 0-2.111-2.801-1.666-11.542 1.555m-373.6 1c-.672 1.888 1.68 4.11 3.25 3.11 1.456-.999 1.008-3.554-.785-4.221-1.008-.333-2.017.111-2.465 1.111m359.929 4.221c-2.129 1.555-2.129 1.666-.224 2.444 2.465.889 3.362.111 2.801-2.333-.336-1.555-.56-1.555-2.577-.111m-15.912 4.999c-7.508 2.555-10.982 5.776-6.163 5.554 3.362-.111 18.713-5.998 18.713-7.109 0-2-4.37-1.444-12.55 1.555m-14.343 5.776c-1.121 1.667.112 2.555 2.241 1.667 1.008-.334 1.457-1.111 1.12-1.778-.896-1.444-2.465-1.444-3.361.111M38.78 202.62c-.448.999.113 1.888 1.233 2.221 6.387 1.667 7.844 1.667 8.517.111.448-1.11-.337-1.888-2.466-2.332-1.68-.334-3.81-.889-4.818-1.111-1.009-.333-2.13.222-2.465 1.111m13.222 2.888c-.448.666-.336 1.555 0 2.221 1.009 1.667 3.922 1.333 3.922-.444 0-1.888-3.025-3.221-3.922-1.777m448.455 11.997c-3.138.666-1.793 4.221 1.457 3.777 1.457-.111 2.913-.556 3.25-.778 1.008-1.111-2.69-3.554-4.707-2.999m-15.576 2.888c-2.465.667-4.258 1.778-4.258 2.666 0 1.333 1.232 1.444 6.387.778 7.844-1 9.301-1.444 9.301-3.444 0-1.777-4.37-1.666-11.43 0m-10.645 1.444c-2.354.778-1.681 3.666.784 3.666 1.233 0 2.241-.666 2.241-1.555 0-2-1.233-2.777-3.025-2.111m-10.31 2.888c-1.568 2-.672 2.778 2.69 2.222 1.681-.333 2.465-1.111 2.017-2.11-.785-2-3.026-2-4.707-.112M.569 236.056c-1.009 2.777-1.009 2.777 2.801 2.777 2.69 0 3.362-.444 3.026-1.999-.448-2.555-4.93-3.111-5.827-.778m8.516 1.222c.224 1.555 1.57 2.222 5.379 2.666 5.715.667 10.085.111 10.085-1.111s-2.24-1.888-9.413-2.777c-5.939-.777-6.499-.666-6.05 1.222m18.824 2.111c0 1.222.785 1.666 2.578 1.444 1.345-.222 2.465-.889 2.465-1.444 0-.667-1.12-1.222-2.465-1.444-1.793-.223-2.577.222-2.577 1.444m9.189.444c.448 2 4.37 2.444 5.042.555.224-.666-.896-1.555-2.465-1.777-2.241-.444-2.801-.222-2.577 1.222m421.112 20.995c0 1.555 1.233 2.333 2.914 1.666 2.353-.888 1.905-2.555-.673-2.555-1.232 0-2.241.445-2.241.889m7.844.222c0 1.111.785 1.333 3.922 1.333 4.483 0 6.164-.333 6.164-1.333 0-.666-2.242-1.11-5.043-1.11s-5.043.444-5.043 1.11M54.805 273.27c-4.483.444-6.276 1-6.5 2.333-.336 1.999-.448 1.999 13.56.555 5.154-.555 7.507-1.333 7.507-2.333 0-1.555-2.801-1.666-14.567-.555m18.153.222c.672 2 3.138 2.333 3.138.444 0-.999-.785-1.777-1.793-1.777s-1.569.555-1.345 1.333m-48.745 1.777c-5.49.334-6.5.667-6.163 2.222s1.457 1.888 7.06 1.555c9.86-.444 12.886-1.222 12.214-2.999-.336-.889-1.905-1.444-3.586-1.333s-5.94.333-9.525.555m17.145.889c0 1 .784 1.555 1.905 1.333 2.801-.555 3.137-3.11.448-3.11-1.345 0-2.353.666-2.353 1.777m383.461 13.997c.336.777 1.457 1.666 2.465 1.777 1.345.333 1.905-.111 1.569-1.111-.336-.777-1.456-1.666-2.465-1.777-1.345-.333-1.905.111-1.569 1.111m7.62 1.333c0 1.777.224 1.777 19.61 5.221 21.739 3.666 21.851 3.666 21.851 1.888 0-1.222-4.37-2.332-18.713-4.665-10.422-1.667-19.722-3.333-20.731-3.555-1.345-.444-2.017 0-2.017 1.111m44.039 7.776c0 .888 1.232 1.777 2.689 2.11 1.905.334 2.578 0 2.578-1.555 0-1.444-.785-2.11-2.578-2.11-1.569 0-2.689.666-2.689 1.555m8.852 1.444c.449 2.555 6.5 3.443 6.5 1.111 0-.889-1.121-1.889-2.466-2.333-3.922-1-4.482-.778-4.034 1.222m10.646 1c-2.241 2.221.784 3.443 10.757 4.554 4.146.444 5.267.222 5.267-1.111 0-.888-1.121-1.888-2.465-2.221-5.827-1.333-12.775-2-13.559-1.222M92.68 328.59c-2.241.445-2.577 1.889-.784 3.111 1.344.777 3.698-1.111 3.137-2.555-.224-.556-1.344-.778-2.353-.556m-13.223 5.555c-3.473 1.666-8.516 3.999-11.205 5.109-15.016 6.443-19.05 8.554-19.05 10.109 0 .889.336 1.666.896 1.666 2.242 0 38.324-17.218 37.988-18.218-.672-1.888-2.353-1.666-8.629 1.334m328.89 12.33c-.673 1.222 2.241 3.666 3.137 2.666.449-.333.785-1.111.785-1.555 0-1.222-3.25-2.111-3.922-1.111m-365.42 3.999c-1.57 1.111-1.793 1.888-.897 2.777 1.457 1.444 4.93.333 4.93-1.666 0-2.333-1.68-2.888-4.033-1.111m371.023-.555c-.337.555.56 1.666 1.905 2.555 1.456.888 5.266 3.221 8.516 5.11 3.698 2.332 6.499 3.443 7.732 2.888 1.793-.556 1.681-.889-.785-2.777-1.568-1.222-3.137-2.222-3.585-2.222-.449 0-3.362-1.555-6.5-3.333-6.387-3.777-6.387-3.777-7.283-2.221m-380.772 4.554c-1.57.889-1.681 1.555-.785 2.666 1.569 1.889 6.724 0 6.724-2.444 0-1.666-3.138-1.888-5.94-.222m-13.895 6.11c-5.827 2.555-7.283 4.443-4.482 5.554 2.13.778 14.232-4.999 14.232-6.887 0-2.222-2.914-1.778-9.75 1.333m415.398 1.444c0 .555.673 1.555 1.569 2.221 1.793 1.445 3.586-.222 2.353-2.11-.896-1.333-3.922-1.444-3.922-.111m7.396 4.443c-.56.889 14.231 10.109 16.248 10.109.561 0 1.009-.666 1.009-1.555s-3.25-3.333-7.172-5.554c-7.508-4.222-9.076-4.666-10.085-3m-362.17 5.777c-1.12 1.888 1.456 3.999 3.025 2.443 1.345-1.333.448-3.665-1.232-3.665-.56 0-1.345.555-1.793 1.222m-8.853 5.887c-2.353 1.889-3.025 3.111-2.241 3.888 1.457 1.444 8.404-2.888 8.404-5.221 0-2.11-2.465-1.555-6.163 1.333m347.043 14.886c-1.121.333-1.009.888.448 2.555 2.241 2.444 3.362 2.666 4.146.666.672-1.777-2.465-3.999-4.594-3.221m6.499 6.776c0 1.555 3.138 3.666 4.37 2.999 1.793-1.111.112-3.999-2.241-3.999-1.121 0-2.129.444-2.129 1m-279.808 1.777c-.896 2.444.672 3.666 1.905 1.666 1.457-2.221 1.345-3.332 0-3.332-.672 0-1.457.777-1.905 1.666m-48.969 3.777c-1.345 1.444-1.569 2.333-.672 2.888 1.456.889 4.482-1.333 4.482-3.443 0-2.222-1.569-1.889-3.81.555m335.5-.666c0 .888 2.466 3.554 5.491 6.109 4.483 3.777 5.715 4.333 6.724 3.111 1.008-1.222.112-2.444-4.258-6.11-5.715-4.777-7.957-5.554-7.957-3.11m-296.168 8.775c-5.715 7.332-6.723 9.776-4.146 9.776 1.121 0 12.326-15.108 12.326-16.663 0-2.555-2.353-.666-8.18 6.887m207.643-6.109c0 1.555 2.129 4.221 2.801 3.554.897-.888-.56-4.332-1.793-4.332-.56 0-1.008.333-1.008.778m-253.25 4.221c-.785 1-1.12 1.999-.785 2.333 1.12 1.222 4.146-.556 4.146-2.333 0-2.111-1.569-2.111-3.361 0m257.284 1.555c-.56.889 4.818 10.553 13.447 23.994 1.905 3 4.37 7.221 5.379 9.221 1.68 3.221 3.698 4.332 4.37 2.332.224-.555-21.739-36.547-22.3-36.547-.224 0-.56.445-.896 1m40.789.222c-1.457.889-1.457 1.111 0 2.111 2.129 1.333 3.026 1.333 3.81.111 1.008-1.666-2.017-3.444-3.81-2.222m58.27 2.111c-1.345.777-1.233 1.444.448 3.221s2.466 2 3.698 1.111c1.905-1.666 1.905-2.444-.56-3.999-1.233-.667-2.69-.889-3.586-.333m-366.428 4.999c-3.586 3.666-4.595 5.332-3.698 6.221.896.888 2.577 0 6.387-3.444 5.042-4.666 6.611-7.776 3.698-7.776-.785 0-3.698 2.222-6.388 4.999m313.202-1.667c-.897 1.333 3.922 7.776 5.715 7.776 2.801 0 2.465-1.888-.785-5.332-3.698-3.888-3.922-3.999-4.93-2.444m-192.628 6.221c-1.008 2.444.337 3.555 1.569 1.555 1.345-2.11 1.345-3.332.112-3.332-.56 0-1.344.777-1.681 1.777m-74.518.889c-.896 1.111-.896 1.777.224 2.666s1.793.666 2.69-.778c2.017-3.221-.449-4.776-2.914-1.888m-56.141 3.444c-1.12 1.333-1.12 2.11-.224 2.999 1.457 1.444 4.707-.667 4.707-3.111 0-2.11-2.69-1.999-4.483.112m46.728 8.997c-4.818 6.332-5.827 9.332-3.137 9.332 1.456 0 11.43-14.441 10.757-15.552-1.232-1.889-2.129-1.111-7.62 6.22m81.802-6.554c-.784 1.333-6.275 17.441-9.749 28.883-2.353 7.887-2.801 10.33-1.568 10.33.896 0 3.137-5.332 6.051-14.774 2.577-7.998 5.378-16.885 6.275-19.551.896-2.777 1.569-5.11 1.569-5.332 0-.666-2.129-.333-2.578.444m91.103 1.889c0 1.888 1.569 3.221 2.578 2.222.896-.889-.337-3.777-1.569-3.777-.561 0-1.009.666-1.009 1.555m1.569 8.665c.448 1.999 1.233 6.331 1.681 9.553.896 5.665 2.689 9.109 4.146 7.665.336-.333-.224-5.221-1.345-10.664-1.456-6.999-2.577-10.109-3.586-10.109-1.232 0-1.456.889-.896 3.555m79.673 9.775c-.784 1.333 1.233 4.443 2.914 4.443 1.568 0 1.12-2.888-.561-4.332-1.12-1-1.793-1-2.353-.111m4.482 7.776c-.896 1.333 1.793 5.554 3.586 5.554 1.905 0 1.793-2.221-.112-4.776-1.681-2.111-2.465-2.333-3.474-.778m-150.717 2.555c0 2.111 1.12 2.999 2.801 2.222 1.905-.667.897-3.666-1.232-3.666-.897 0-1.569.666-1.569 1.444m70.596.444c0 .556.448 1.555 1.009 2.444 1.232 1.889 3.586.556 2.689-1.555-.56-1.666-3.698-2.333-3.698-.889m85.724 5.888c-.896 1.555 7.284 14.663 8.853 14.107 1.681-.666 1.12-2.554-3.026-9.331-3.586-5.998-4.594-6.776-5.827-4.776m-157.665 4.443c-.224 2.666.112 4.555.897 4.888 2.017.778 2.689-.444 2.689-5.11 0-5.888-3.026-5.776-3.586.222m37.203-.555c0 1.777.673 2.777 1.681 2.777s1.681-1 1.681-2.777-.672-2.777-1.681-2.777-1.681.999-1.681 2.777M297.298 475c.784 5.888 2.465 13.664 3.137 14.33.224.223 1.121 0 1.905-.444 1.233-.777 1.121-2.444-.56-9.664-2.465-9.998-5.603-12.997-4.482-4.222m-113.627-.777c0 .555-.336 1.777-.672 2.777-.448 1.111-.112 1.777 1.008 1.777 1.569 0 3.026-2.221 3.026-4.554 0-.555-.785-1-1.681-1-.897 0-1.681.445-1.681 1m76.199 7.332c0 1.555.673 2.777 1.457 2.777 2.353 0 3.026-1.222 1.793-3.444-1.569-2.999-3.25-2.555-3.25.667m-79.449 2.999c-1.008 2.666.112 4.888 1.905 3.777.561-.333 1.345-1.889 1.569-3.444.785-3.555-2.129-3.777-3.474-.333m80.234 3.888c-1.233 1.222-.897 13.441.448 14.33 2.465 1.444 3.474-1.555 2.689-8.332-.784-6.443-1.456-7.776-3.137-5.998m-84.268 7.22c-2.577 6.332-3.249 11.553-1.344 12.331 1.232.444 2.129-1.111 3.585-6.221 1.009-3.666 2.13-7.443 2.466-8.22 1.232-3.333-3.25-1.222-4.707 2.11m84.604 13.108c0 3.444 1.008 4.111 3.025 2.111 1.569-1.555.561-5.443-1.456-5.443-1.009 0-1.569 1.222-1.569 3.332M256 180.924l20.946 50.582 43.45 24.384-43.45 24.384L256 330.856l-20.946-50.582-43.45-24.384 43.45-24.384z" />
</svg>
