<svg
    viewBox="0 0 512 512"
    width="100%"
    height="100%"
    fill="#000"
    preserveAspectRatio="xMidYMid meet"
    xmlns="http://www.w3.org/2000/svg">
    <path
        fill-rule="evenodd"
        clip-rule="evenodd"
        d="M194.423 385.973c-4.849 21.237-18.321 80.604-15.627 98.027 2.205 0 6.069-25.314 9.543-48.083 2.469-16.175 4.742-31.066 6.084-34.684-4.31 27.446-7.544 70.567-5.388 79.281 1.902.321 4.993-20.777 8.422-44.188 2.399-16.375 4.963-33.88 7.403-45.982-5.845 35.392-5.048 84.401-1.276 82.221.563-43.575 2.156-71.332 4.85-71.332-2.155 20.692.029 32.658 2.694 38.648 1.939 4.356 9.724 9.257 10.801 5.99-8.059-1.649-15.101-31.512-7.539-44.638 3.772-6.547 10.21-17.425 10.21-17.425 3.233 1.635 8.622-.543 9.161-3.812 4.311 2.18 12.933-2.722 12.933-10.346 7.544.545 12.394-7.621 7.005-22.325 0-.777.009-1.527.018-2.255.059-4.895.106-8.809-2.683-13.549-.306-1.855-.645-5.949-.233-7.626.233.813 2.115 2.247 4.599 4.089l.504.373.001.001c5.72 4.236 14.095 10.437 13.422 16.232-1.078 9.272 8.083-13.069 2.694-21.34-9.237-14.177-17.31-5.289-20.035-1.416 1.065-1.64 2.513-3.661 4.947-5.741a724 724 0 0 0 4.373-3.787l.002-.002.003-.003c3.686-3.207 8.529-7.421 13.926-11.944-2.067 2.219-4.662 6.625-3.216 14.032 3.772 19.326 34.141 22.228 40.416 20.412 1.807-.523-1.088-5.215-4.427-10.628-1.639-2.655-3.384-5.484-4.734-8.08-7.544-14.505-25.866-17.549-25.866-17.549 13.567-11.26 29.991-23.829 40.415-27.45 2.967-1.031 5.344-2.013 7.177-2.9a84 84 0 0 0 4.679-2.159s2.881 22.843 12.932 32.509c11.294 10.861 43.593-.963 61.303-7.447 5.787-2.118 10.016-3.667 11.445-3.667 23.299 0 20.971-1.18 7.703-7.905-5.757-2.919-13.575-6.881-22.252-12.245-18.597-11.494-27.132-11.428-36.679-11.355-5.172.04-11.814 1.166-19.341-.627 3.259-2.163-.419-13.446-3.072-14.204-13.223-3.783-22.552 4.887-35.75 8.762-13.198 3.874-28.56 2.725-28.56 2.725l30.716-43.638c2.206 2.865 5.848 6.902 9.699 8.244 31.255 10.89 73.53-5.992 63.049-5.992-18.327 0-17.848-4.163-30.019-9.02-9.207-3.675-15.028-6.693-20.728-4.251a8 8 0 0 1-.447.202q.224-.107.447-.202c8.523-4.18 36.457-34.139 50.747-36.281 14.549-2.18-29.639-7.621-35.566-7.621-11.325 0-28.282 1.614-39.338 23.959-4.311 8.713-3.772 20.148 0 27.906-4.807 6.814-8.981 12.5-12.928 17.878-7.286 9.926-13.8 18.801-22.099 31.77-13.665 21.355-32.332 56.331-32.332 56.331 8.59-18.021 17.551-34.364 26.118-49.986 17.666-32.219 33.653-61.375 41.241-95.879 0 0 14.608-12.346 23.71-15.245 11.95-3.807 28.06-11.372 15.628-9.802-4.481.566-8.306.572-11.754.578-6.504.011-11.665.02-17.345 3.778-5.441 3.6-9.764 17.627-9.764 17.627s3.192-11.948 3.297-14.904c1.591-1.167 3.609-3.265 5.943-5.691 1.573-1.637 5.117-5.172 5.117-5.172 4.146-6.081 11.562-15.103 12.377-15.973.238-.254.81-.985 1.617-2.018 1.96-2.509 5.308-6.795 8.629-10.319a147 147 0 0 0 8.349-15.824c2.929-6.468 6.365-12.56 9.013-17.257 5.164-9.155 7.334-13.003-3.085-3.98-6.96 6.03-16.49 9.462-25.879 12.845-8.704 3.136-17.288 6.228-23.594 11.305-5.946-.292-12.965 2.48-22.197 9.064-.135.096-.045.019.226-.212 1.889-1.611 12.547-10.703 16.479-20.477 5.309-13.2 17.502-61.163 8.622-50.096C300.77 47.422 293.744 49.08 287.52 50.55c-3.279.774-6.335 1.495-9.571 3.823-28.022 20.15-11.317 58.808-11.317 58.808-17.531 47.243-30.757 90.232-38.586 129.476-1.364-1.118-2.705-2.511-3.985-4.236-1.455-1.962-2.491-2.387-3.123-1.79.635-14.39 1.572-29.035 2.648-42.998 10.352-3.995 19.184-9.12 11.483-9.12-5.506 0-8.103-.527-10.592-1.936.99-11.757 2.051-22.81 3.076-32.545 5.15 1.257 10.685 2.765 15.908 5.624 7.44 4.073-.105-16.367-13.311-28.204.926-7.281 1.705-12.463 2.207-14.816 0 0 .865 16.338 15.954 17.427 4.03.291 9.128-5.882 11.316-13.068 1.24-4.071-1.103-3.555-4.332-2.845-2.387.525-5.257 1.157-7.523.122-7.322-3.341-11.187-4.067-13.218-3.83 6.219-6.41 23.466-25.649 22.918-41.365-.548-15.668 9.341-26.775 15.042-33.179 5.714-6.417 7.221-8.11-10.193-4.937a89.4 89.4 0 0 0-17.804 5.2c-6.49 3.516-15.449 5.553-19.436 12.931-3.465 6.413-1.193 32.902 1.225 38.02 2.596 5.492 2.868 10.316 3.844 13.062.975 2.746.202 5.546.147 5.82-.604 3.036-1.734 9.787-3.105 19.228-3.341-2.311-8.012-4.909-11.753-5.507-12.095-1.934-14.618 1.18-15.066 3.141.258-4.551 7.028-22.118 25.459-35.291-3.037-8.695-4.542-30.638-1.491-37.991 3.1-7.468 14.614-11.13 20.176-13.412-1.447-6.392-4.243-9.803-6.984-7.379-7.536 6.663-19.622 9.116-31.468 11.52-15.913 3.23-31.393 6.372-34.827 19.515-8.527 32.628 6.711 43.816 16.496 51 4.422 3.247 7.731 5.676 7.228 8.897-1.616 10.349-1.962 28.081-1.073 51.054-11.911 8.044-15.864 13.285-16.965 16.419-.237-4.834-.247-9.757-.257-14.751-.017-8.329-.034-16.855-1.104-25.496-.225-1.815.017-3.158.259-4.501.338-1.878.676-3.756-.259-6.931 0 0-9.161-40.294-46.343-28.859-12.993 3.995-28.197-5.141-38.424-11.286-6.887-4.138-11.516-6.92-11.691-3.42-2.695 53.911 47.421 66.82 59.815 64.257 10.936-2.262 36.322-6.437 25.35-4.359-14.78 2.799-20.068 8.388-27.349 16.085a254 254 0 0 1-3.9 4.062c-8.489 8.601-26.124-2.722-30.206-5.988-5.389-4.311 13.081 31.071 33.41 29.406 33.41-2.738 35.013-29.406 35.013-29.406 1.324 21.516 2.806 38.002 4.499 51.183 0 0-5.433-8.164-26.579 0-2.106.814-4.37 2.867-6.903 5.165-4.525 4.106-9.912 8.993-16.807 8.993-16.167 0 19.41 10.129 30.715 7.079 16.048-4.331 19.787-11.31 20.27-16.077 3.134 22.06 6.965 34.272 11.789 46.538-5.274-5.204-17.453-8.539-45.53 2.212-10.21 3.909-20.477 25.046-12.933 25.046 4.195 0 7.867.265 11.327.515 7.66.554 14.272 1.033 23.184-1.617 12.096-3.596 27.957-16.32 27.957-16.32.797 1.927 1.697 3.916 2.639 5.996 1.446 3.194 2.989 6.604 4.407 10.34-2.694-1.089-8.622.544-9.161 2.178-7.544-1.091-16.705 7.077-14.01 14.702-5.389 1.633-12.759 10.852-8.622 22.87-2.695 7.623-1.617 9.798 2.694 13.066a511 511 0 0 0-5.916 3.877l-.637.424-.001.001c-4.145 2.755-5.748 3.82-11.2 6.575-18.322 9.257-21.526 8.7-26.944 7.623 0 5.446 18.322 1.102 28.561-3.254-11.167 9.948-18.999 10.799-23.413 11.279-2.829.308-4.255.463-4.255 2.761 3.418 1.207 17.968-3.812 26.59-8.608-3.898 5.321-9.997 9.922-17.503 15.585l-.008.006-.078.059q-1.154.87-2.349 1.775c0 4.598 14.288-6.526 24.095-14.161 2.969-2.311 5.527-4.303 7.154-5.442-1.232 4.164-4.802 7.691-9.206 12.041a206 206 0 0 0-4.261 4.295c-2.199 2.302-6.528 6.225-11.543 10.771-9.222 8.359-20.766 18.823-25.668 25.18 10.86-5.102 31.699-25.143 48.958-41.741l.001-.001.021-.021c3.039-2.922 5.966-5.737 8.709-8.346-6.466 6.535-41.499 53.908-41.499 68.066 2.7-5.446 40.397-66.976 49.014-70.244-4.056 10.109-12.31 22.958-19.189 33.666-6.832 10.635-12.307 19.159-10.964 20.787 9.738-10.235 14.564-20.78 23.803-32.811 7.373-9.601 12.894-25.358 14.481-28.108 4.399-7.62-8.162 18.312-12.754 28.55-3.572 7.965-7.895 17.604-9.903 23.112-2.076 5.695-7.551 16.865-12.704 27.377-4.208 8.585-8.201 16.731-9.952 21.098 4.139 1.902 16.949-26.198 26.87-47.963 4.288-9.405 8.036-17.627 10.312-21.734-3.339 9.347-6.659 17.888-9.617 25.497-7.64 19.652-12.867 33.094-9.759 38.197.467.766 5.703-12.83 12.3-29.96 7.474-19.404 16.693-43.342 22.703-56.074-12.394 34.864-35.003 99.116-28.021 101.294zM305.97 149.119c-8.551 45.74-40.724 109.739-70.901 156.021 2.36-8.163 5.233-18.343 8.434-29.683l.001-.003.001-.002c4.752-16.835 10.225-36.227 15.813-55.374a41 41 0 0 0 3.003-.169c11.856-1.089 25.528-38.663 20.478-35.396-7.548 4.883-11.925 6.544-14.973 6.992 7.035-23.055 13.756-43.43 18.925-55.412 4.08 1.906 8.228 3.413 11.675 3.77.647.066 1.696.07 2.622.073.96.003 1.451.093 1.517.176-.252-.526-6.889-14.415-6.836-22.723-.042-.955.025-1.744.229-2.311q.053-.26.113-.52c.926-3.954 3.286-7.879 5.612-11.01 1.659-2.499 3.587-4.763 5.707-6.534 0 0-2.828 2.66-5.707 6.534-2.835 4.269-4.228 7.369-5.725 11.53l-.052.271a12 12 0 0 0-.177 2.04c.259 5.825 4.596 17.794 6.836 22.723q.006.008.008.015c3.209 4.938 3.397 8.992 3.397 8.992m-95.891 198.193c-9.936-7.713-13.471-10.346-40.954-12.511 17.244-.557 31.794 4.736 39.338 9.789 8.112 5.432 24.788 18.526 24.788 34.849-3.233-15.791-11.316-23.669-23.172-32.127m36.105 20.692c-2.723-21.768-18.889-34.888-21.584-37.027-.975-.775-2.041-1.696-3.214-2.709-2.399-2.073-5.246-4.533-8.678-6.912-4.218-2.665-8.772-5.158-13.708-6.967-5.801-1.936-12.638-3.036-20.743-2.523 7.589-.966 14.473.226 20.743 2.523 5.409 1.805 9.916 4.337 13.708 6.967 3.171 2.003 6.151 4.103 8.96 6.083l.005.003.004.004c1.194.841 2.357 1.661 3.491 2.441 9.161 7.624 21.583 22.311 21.016 38.117m-22.123-54.984c-10.347-7.389-19.201-10.905-32.871-15.247 14.18 3.503 23.172 8.713 31.255 13.614 1.043.632 22.632 17.424 30.177 34.849-4.867-8.712-14.764-23.363-28.561-33.216m.029 69.686c-9.132-11.994-14.039-17.969-22.661-23.959-7.897-4.62-9.366-5.028-19.019-7.716l-.015-.004a869 869 0 0 1-11.114-3.157l1.247.268.91.196c13.453 2.893 18.556 3.991 25.864 8.78 9.161 6.002 15.059 10.89 24.788 25.592m2.127-75.676c-8.995-6.077-13.706-8.71-26.61-11.978 12.365 2.166 17.409 5.173 26.639 11.421 10.509 7.114 21.554 18.076 24.249 24.504-4.311-7.079-13.628-16.751-24.278-23.947m-21.357-11.978c-15.974-26.868-24.438-62.402-27.693-104.005 0 0 8.676 4.043 18.067 6.097 2.36 38.301 6.477 79.397 9.626 97.908m-4.509-170.792s2.156 10.16 9.161 18.327c2.893 3.373 7.697 4.899 13.319 6.301a1746 1746 0 0 0-3.467 30.012c-2.981-2.293-7.193-5.426-14.504-9.633-2.062-1.187-4.24-1.31-6.431-.702-.746-16.255.696-31.312 1.523-39.951v-.001l.001-.003v-.005c.164-1.715.304-3.178.398-4.345m56.582 185.651s20.477-41.539 15.088-36.638l-.641.582c-5.523 5.005-15.069 13.658-16.603 24.689-1.429 10.277-.736 12.851.23 13.002-2.333 1.99-5.444 4.675-9.93 8.599 6.847-23.841 17.303-44.746 28.644-63.059 3.659 4.287 13.857 13.144 36.56 14.782-13.917 7.905-32.889 20.618-44.726 30.808-2.032 1.749-3.386 2.871-4.89 4.118l-.001.001-.002.002a487 487 0 0 0-3.729 3.114m-10.118-63.971a9217 9217 0 0 0 8.149-26.059c-11.519-1.326-14.28-8.686-14.28-8.686a570 570 0 0 0-7.2 34.594c7.124 2.594 13.331.151 13.331.151m-20.036 59.2c4.418-11.02 10.036-27.812 16.132-46.889-3.199 2.275-7.188 2.708-11.687 1.409-3.589 23.955-4.445 40.669-4.445 45.48m-6.123-9c.895-13.061 2.576-26.588 4.993-40.605-2.561-3.282-4.25-7.829-5.005-11.669-.698 18.866-.82 37.01.012 52.274m-8.45 0c-.489-28.368 2.101-65.997 5.441-100.403-3.624 1.166-7.087 2.051-9.752 2.389-2.39.303-5.022.217-7.709-.119 2.292 31.541 6.203 67.823 12.02 98.133m56.836-170.433c-12.795 29.417-21.788 58.444-28.081 84.345.823-2.928 3.787-10.85 12.738-16.282 4.902-2.974 7.106-2.679 9.578-2.347q.279.038.565.074c7.232-22.934 14.036-43.786 19.3-57.195-7.598-3.976-14.1-8.595-14.1-8.595m-76.304-38.944c-.027 6.368.133 23.139 4.273 30.339-5.743-4.329-4.823-20.609-4.346-29.05l.047-.827zc.014-3.58.228-6.051.122-3.379-.01.254-.022.631-.035 1.052-.025.795-.055 1.747-.087 2.327m-25.984 60.178c.735-.515-2.484-6.814-25.994-19.489-1.445-.779 1.533 1.299 5.301 3.912l.763.529.001.001c2.769 1.92 5.822 4.036 7.813 5.489q1.067.778 2.085 1.513c3.939 2.852 7.316 5.296 10.031 8.045m-24.499 25.496c.946.852 7.171-.641 24.499-13.434-1.944 3.187-4.75 4.767-12.208 10.264-6.502 4.791-12.269 4.46-12.291 3.17m62.605 13.109c-11.627-1.033-23.871 1.653-23.708 1.642 5.805-.398 10.888-.8 14.082-1.191 2.938-.36 15.649.085 9.626-.451m-32.192 34.532c-11.487 1.817-18.818 5.214-21.048 6.686zm-1.387 53.143c9.132 0 11.659-1.251 16.941 0l-30.808 3.036c-.417-.267 6.961-3.036 13.867-3.036m136.227-16.422c10.562-5.67 18.132-3.344 23.28 2.326 0 0-6.7-4.608-11.777-4.91-4.295-.256-11.503 2.584-11.503 2.584m67.377 20.732c-6.293-10.251-22.312-15.651-34.898-15.651 0 0 11.758 2.272 18.689 5.4 6.818 3.077 16.209 10.251 16.209 10.251m-139.412-174.05s13.264-26.646 9.806-32.082c1.043 6.711-9.806 32.082-9.806 32.082m37.041-20.096c-.346 1.126-.978 8.114-.738 27.057 1.05-10.907 2.939-32.36 2.1-30.905-.84 1.455-1.258 3.171-1.362 3.847m44.087 93.302c-6.98 2.818-9.568 13.789-9.093 27.547 0 0 .66-14.045 2.773-18.496 2.737-5.762 1.865-7.252 6.32-9.051m-.916 33.365c1.485 1.109 16.573-.129 19.754-1.109z" />
    <path
        d="M317.825 271.094s-7.453 11.142-7.544 19.753c-.158 15.066 22.094 13.354 22.094 31.464 0 17.647 11.902-18.549 0-31.464-6.939-7.53-14.55-19.753-14.55-19.753m2.977-133.924s28.506-11.447 37.978-23.989c2.731-3.617-5.128-3.923-14.176-4.275l-1.179-.046z" />
</svg>
