<svg
    viewBox="0 0 512 512"
    width="100%"
    height="100%"
    fill="#000"
    preserveAspectRatio="xMidYMid meet"
    xmlns="http://www.w3.org/2000/svg">
    <path
        fill-rule="evenodd"
        clip-rule="evenodd"
        d="M284.836 382.334c-22.231 23.438-40.101 14.784-52.798 21.599-8.348 4.482-11.524 10.608-20.841 12.408-12.804 2.476-22.844-8.163-35.662-10.569-17.136-3.217-42.7.801-39.83 18.842 2.779 17.463 12.042 30.79 39.83 30.79 28.252 1.839 25.936.46 64.84 4.596 76.418 0 128.752-47.335 148.204-98.806 4.168-12.868 17.599-23.897 14.821-32.629-1.853-7.353-3.706-9.651-.927-24.816 6.947-22.059 3.705-33.549 7.411-54.229 1.389-4.136 7.41-18.382-2.316-29.412 10.189-4.136 3.705-17.463-2.316-17.463s-4.631 11.029-4.631 11.029-9.263-41.36-49.556-67.096c-55.114-32.169-104.206-1.838-132.458 10.57 3.705-7.353 6.021-11.489 11.579-17.463 17.136-13.328 30.771-10.79 47.24-22.979 11.279-8.347 13.894-15.165 24.546-26.195 20.566-21.294 54.187-28.493 68.545-22.518 13.377 5.566 13.894 19.76 7.873 20.68-11.902 1.817-36.846-7.353-35.662 17.923.927 19.761 41.22 6.893 51.409-5.974 7.41-18.383 3.705-22.519-2.316-34.927 0-7.813-2.316-12.868-17.136-11.49-56.04-8.73-81.976 11.03-100.964 14.707-27.325.92-37.515-5.515-54.187 26.655-12.042 4.595-16.673 3.676-24.547 7.812-9.015 4.736-12.505 11.03-17.136 19.761-14.82 14.247-22.231 8.732-28.715 23.438-27.429 28.298-38.903 52.39-38.903 92.832-6.947-1.379-15.284 16.084-11.115 49.633 6.02 21.599 13.43 23.897 28.714 46.415s47.042 50.437 80.123 53.31c37.051 3.217 58.356-.46 76.881-6.434m15.747-184.285c-5.558-43.658-49.556-62.041-81.976-10.11-6.484 12.408-4.631 22.059-2.315 38.143 0 9.192-2.316 18.383-18.526 22.519-26.862.919-23.62-31.25-19.452-42.739-6.107-1.012-8.336 5.055-22.694 4.136-16.673 5.055-21.304 11.948-21.304 17.463 7.41 11.489 6.021 31.25 1.389 34.927 11.116 37.684 70.861 33.548 53.261 57.905-34.272 24.357-47.24-2.758-56.966-6.434 20.378 52.39 88.46 77.207 124.585 28.493-1.39-5.515 3.705-6.434 12.041-3.217 17.136-43.199 15.747-24.817 35.662-50.092 16.673-35.387-30.567-40.902-30.567-62.961 3.242-17.003-43.535-33.088-21.768-41.82 12.042-.919 5.095 8.732 49.556 31.25 13.431 8.732 7.641 34.869 12.042 38.144-.927-10.11 5.094-21.14 18.525-18.842 10.097 2.635 12.968 17.464 6.484 25.736-9.263 16.084 10.652 28.493 10.652 43.199 13.895 18.842 8.337 34.926-21.767 59.743-12.042 12.408-29.641 42.28-47.24 59.283 61.597 0 97.259-38.143 108.374-143.843 2.534-24.091-33.11-27.574-35.198-76.287-24.084 9.191-46.314 12.408-52.798-4.596m-139.405-58.364c7.41-10.57 34.689-19.817 33.809-16.545-1.852 6.894-8.476 20.378-11.115 17.923-7.41-6.893-30.104 9.192-22.694-1.378m36.588-31.71c-3.42 2.712-5.082 4.801-6.947 8.731-3.502 7.381 24.169-15.369 16.21-13.327-3.916 1.005-6.104 2.09-9.263 4.596m36.125-25.736c-4.087 4.97-2.424 9.785-5.095 15.625-2.671 5.841-31.03 17.464-33.809 34.927 5.143-6.512 6.841-10.294 13.894-14.706 21.305-13.327 25.01-11.489 32.883-14.706 12.423-5.075 14.821-12.868 23.62-24.816 4.062-5.515-23.664-5.844-31.493 3.676m22.694 13.328c-6.021 12.408 1.389 10.11-9.263 28.952-2.942 5.203 10.189-2.757 11.578-8.732 19.452-16.084 13.687-17.295 14.821-20.22 4.631-11.95 20.378-12.409 20.378-20.221-3.705-4.596-30.282 5.315-37.514 20.22M378.39 65.695c-12.505-5.515-43.998-11.49-96.333 34.927 15.441-21.478 27.789-42.74 48.167-40.327 15.746 0 68.544-11.604 54.65 4.48 0 9.192 17.136 20.221 8.412 25.736-5.756 3.639-19.657 17.806-31.569 21.14-22.231 8.272-12.505-24.357 8.337-13.787 16.209-4.595 35.661-5.055 8.336-32.17m-66.692 122.244c-27.84-17.708-6.342-35.55 9.263-42.74 25.936-11.948 40.756 19.302 44.461 32.17 12.968 1.838 7.41 9.651 12.968 17.923-11.578-2.298-13.698-9.945-20.841-5.515-18.526 11.489-27.788 9.651-45.851-1.838m-25.936-41.361c-.343-4.643 1.986-4.517 6.021-6.893 5.47-3.222 22.381 3.524 16.21 5.055-11.115 2.757-21.594 10.444-22.231 1.838m-148.667 35.386c-10.131 11.364-7.41 29.412-3.933 33.548 14.585-35.386 69.235-31.25 77.109-66.177 13.894-25.735 38.44-32.169 32.883-33.548-6.484-5.055-16.673 5.515-20.379 7.353 3.242-5.514 9.726-5.974 14.821-10.57-5.095-1.378-16.21 1.379-21.304 4.136-4.066 2.201-14.426 9.724-21.305 27.574-6.021 15.625-28.714 9.651-39.367 9.651-12.041 11.03-7.873 16.085-18.525 28.033m266.768 30.332c-.985-2.554.236-5.381 2.779-6.434 3.602-1.493 6.21 9.372 2.315 9.65-2.352.169-4.252-1.031-5.094-3.216m-31.031-1.839c-8.336 0-15.249-9.06-10.189-15.165 5.104-6.157 17.6 9.271 17.6 10.57 0 4.595 8.241 20.68 6.02 18.842-8.062-6.675-5.719-14.247-13.431-14.247m31.031 21.6c-3.242-1.379-9.856-10.435-4.169-11.949 4.941-1.315 7.784 4.332 9.263 9.191 1.436 4.718 1.196 15.893-2.315 12.409-2.779-2.758.129-8.415-2.779-9.651m-12.505 1.378c-3.649-7.011-3.242-17.923-3.242-26.195 0-8.923 5.911 15.263 7.41 19.762 1.96 5.883 5.095 16.544.926 11.948-2.868-3.162-2.224 0-5.094-5.515m2.316 29.412c-2.885-13.549-21.061-43.709-11.579-33.548 11.579 12.409 9.263 19.242 11.579 17.464 1.318-1.013 2.628-4.48 3.705-3.217 5.094 5.974 4.706 10.676 2.315 17.004-5.035 13.327 7.667 16.084-3.242 43.199-5.981 14.868.556-25.238-2.778-40.902m-5.558 72.611c1.906-7.038-3.476-13.179 3.705-14.706 6.484-1.378 10.229 7.474 7.873 12.868-6.02 13.787-8.336 5.515-17.599 20.221-3.669 5.825 4.225-11.749 6.021-18.383m-31.493 65.718c-.558-1.626 24.083-50.552 16.209-29.872-2.59 6.804.823 11.745-3.705 17.464-5.094 6.434-11.947 14.034-12.504 12.408M201.008 449.43c-4.956-2.95 8.115-4.595 13.894-4.595 12.042 0 23.509 2.757 31.494 2.757 40.293 0 62.523-20.221 91.238-28.033 16.21 0-30.168 25.719-20.841 17.923 4.04-3.378 7.044-4.444 10.652-8.273 4.631-4.914-10.652 3.677-38.441 13.328-20.148 6.997-28.983 12.281-48.629 12.867-15.546.464-32.42-1.838-39.367-5.974m-53.261-20.221c.484-7.857 9.633-11.535 16.673-15.165 14.974-7.721 30.093 19.473 44.924 15.165 14.832-4.307 14.358-20.68 29.178-14.246s13.431 9.651 3.242 14.246c-6.953 3.137-40.756 1.839-58.355 11.489-10.513 5.765-36.394.407-35.662-11.489m123.195-23.437c-10.687 4.241-38.991-1.833-29.178 4.136 5.051 3.072 8.902 2.947 14.821 3.217 10.87.495 16.469-4.153 26.862-7.353 13.431-4.136 15.746-15.626 27.788-34.468-18.526-6.058-22.481 27.398-40.293 34.468m-6.021-51.931c-16.185 1.492-4.631 19.761-34.272 23.438-6.858.85 11.435 4.939 17.599 1.838 4.586-2.307 3.731-5.845 8.337-10.11 6.947-6.434 9.349-1.979 15.283-4.596 4.168-1.838 3.424-9.608 8.337-13.787 4.003-3.405 7.712-2.872 12.504-5.055 11.869-5.406 18.517-8.91 28.715-17.004 9.089-7.214 29.023-15.534 24.546-26.195-4.731-11.266-16.995 25.126-29.177 23.438-14.189-1.966 20.378-15.166 24.083-26.655 4.52-14.016-10.652-23.897-6.947-36.306.981-3.287-5.095 8.273-4.168 4.596 1.373-5.45 4.168-5.871 4.168-11.489 0-8.732-3.544-13.07-9.263-11.029-6.467 2.308-7.873 13.327-3.242 19.301 10.785 13.913 7.284 29.854-12.505 43.199-3.242 2.186-3.321 5.055-7.463 5.055-3.056 0 10.242-6.434 4.221-5.055-4.018.92-6.394 1.153-10.189 2.757-17.786 7.52-10.652 32.17-22.694 43.659-2.216 2.115-4.811-.282-7.873 0m21.768 8.732c-18.058-12.015 26.862-17.464 39.366-34.008 9.271-12.265 5.558 21.599-9.262 31.25-9.118 5.938-21.046 8.785-30.104 2.758m48.166-19.762c-6.674 3.403 11.115-28.952 12.505-25.735 1.383 3.203 1.852 5.974 1.852 8.732 0 5.379-10.205 14.887-14.357 17.003m-34.805-39.062c22.32-21.066 8.362-31.71 11.141-35.387 5.002-6.618 15.221 2.52 11.179 16.144-1.654 5.577-25.315 22.068-22.32 19.243m-9.193-68.935c-1.853-18.382-11.4-9.867-15.747-19.302-7.41-16.084 27.305 4.6 28.252 9.192 4.168 20.221 1.013 38.143-1.853 26.654-1.376-5.514-.307-1.948-3.242-4.595-5.094-4.596-7.132-9.191-7.41-11.949m-29.178-34.927c-2.213-5.019-11.947-8.825-7.41-11.948 4.34-2.988 2.316 7.353 10.652 8.272 1.911.21 0 11.029-3.242 3.676m-77.807 15.625c-6.021 6.894 1.852 25.736 7.873 25.736s7.52-7.188 5.095-10.11c-12.968-15.626 7.873-29.872 7.873-38.144 0-2.9-4.048-2.391-6.947-2.758-10.616-1.343-7.873 18.383-13.894 25.276m13.894 5.056c5.094-12.409 5.5-26.116 10.189-17.004 7.095 13.787 3.972 20.05.926 29.871-1.852 5.975-14.188-5.382-11.115-12.867m-6.947-40.901c8.336-2.298 22.103-29.454 21.767-18.383-.165 5.465-4.148 3.906-5.557 9.191-2.083 7.813-22.658 10.969-16.21 9.192m25.473-11.03c8.21-7.328 13.894-14.706 24.083-14.706 16.21 0-13.894 3.677-21.768 17.923-3.669 6.639-19.673 18.901-15.747 12.408 4.169-6.893 7.422-10.261 13.432-15.625M202.86 382.334c-22.23-1.286-45.387-19.761-42.608-20.221 10.39-1.718 23.62 11.744 33.346 11.03 56.343-4.136 54.65-4.136 37.051 0-12.619 2.965-28.252 7.812-38.904 4.136-1.879-.649 13.102 5.17 11.115 5.055m-63.913-39.982c-2.81-4.747-9.377-5.621-6.947-10.57 3.249-6.617 8.83 8.879 14.358 13.787 8.276 7.348 19.451 11.489 24.083 15.625 2.016 1.801-8.419-4.297-11.116-4.596-11.618-1.286-14.455-4.244-20.378-14.246m-27.325-32.17c-1.389-5.055-8.336-28.952-4.168-18.842s15.048 26.177 18.062 28.953-11.553-1.594-13.894-10.111m5.558-85.938c-.319-17.772 10.652-50.133 10.652-39.982 0 19.302-7.873 38.144 4.168 59.743 4.043 7.252-6.484 24.817-6.484 20.221 0-24.816-8.084-25.905-8.336-39.982m-11.115 52.39c-2.316-1.838-1.832-21.3 7.41-22.518 10.232-1.348 3.705 11.489 5.094 25.735 1.02 10.455 11.116 17.464 9.263 30.331-.522 3.624-7.858.168-9.263-3.216-6.484-15.626-2.433-22.337-12.504-30.332m43.071 40.442c-18.788-17.923-25.425-56.662-14.82-42.28 13.894 18.842 37.379 16.266 46.314 39.063 3.242 8.272-22.58 11.719-31.494 3.217" />
    <path
        fill-rule="evenodd"
        clip-rule="evenodd"
        d="M381.169 164.041c4.92-6.383 15.985.809 18.989 8.272 2.57 6.389 1.878 14.639-4.632 17.004-6.982 2.538-8.165-3.617-10.652-10.57-1.694-4.735-6.782-10.714-3.705-14.706m5.094 9.651c-2.496-1.184-3.345-6.331-1.389-8.272 6.484-6.434 22.231 12.408 10.652 19.761-3.507 2.227 1.39-6.434-9.263-11.489m-59.281-89.155c-11.25 0-30.823 17.097-25.01 26.655 3.753 6.171 15.715 2.504 19.452-3.677 5.558-9.191 20.841-22.978 5.558-22.978m-20.378 24.357c-4.944-3.24 1.852-15.625 9.725-15.625 4.004 0-.463 3.216 3.242 9.651 2.244 3.895-9.194 8.446-12.967 5.974m13.894-9.651c-1.53-1.781.041-5.675 2.315-5.055 1.501.409 4.265-2.46 4.169-.92-.142 2.266-5.001 7.703-6.484 5.975m-92.165 127.758c-9.473 1.204-7.444 13.743-14.82 19.762-20.841 17.004 2.658 55.077 24.083 50.092 13.807-3.212 29.653-16.502 22.231-28.493-2.765-4.466-8.467-3.5-10.653-8.272-2.315-5.055.845-27.071-11.578-31.71-3.424-1.278-5.635-1.839-9.263-1.379m-12.041 25.276c7.41-11.489 4.631-26.654 16.209-15.165 8.337 8.272 9.726 12.931 2.779 31.25-3.54 9.336 6.715 19.699-2.779 22.978-5.8 2.004-10.224-2.519-15.283-5.974-7.356-5.023-7.389-23.068-.926-33.089m25.935 32.17c-2.071-2.791-.185-7.603 3.242-8.272 3.523-.688 2.577-.145 1.39 3.217-1.209 3.425-2.463 7.978-4.632 5.055m9.263 16.544c-5.63 6.668-13.29 13.504-8.336 20.68 5.79 8.388 20.306.065 24.546-9.191 4.631-10.11-1.853-28.493-16.21-11.489m-4.631 14.247c0-8.907 6.02-8.273 12.968-14.247 4.647-3.996 4.976 12.041 0 15.625-4.122 2.969-12.968 3.676-12.968-1.378m-102.817-98.347c-3.505-.222-6.106 1.82-7.41 5.055-1.305 3.236-.759 6.402 1.852 8.732 4.332 3.864 14.015-8.349 12.042-13.787-1.091-3.006-3.27.203-6.484 0m-4.168 8.732c-2.645-.602 2.846-7.866 4.168-5.515.705 1.254.705 2.423 0 3.677-.868 1.543-2.432 2.233-4.168 1.838m-1.853 153.034c-5.08-7.332-23.339 2.806-19.915 11.03 2.797 6.717 8.504 9.944 15.747 11.029 5.365.805 15.895-.643 20.378-3.676 6.575-4.449 6.943-19.024 0-15.166-11.579 6.434-11.115 4.136-16.21-3.217m-9.954 18.383c-4.708-2.774-7.544-7.899-5.329-12.868 2.959-6.639 11.424 1.011 18.525 2.757 3.666.902 11.9.076 9.263 2.758-1.563 1.589-3.401.79-5.558 1.379-6.755 1.844-10.876 9.523-16.901 5.974" />
</svg>
