<svg
    xmlns="http://www.w3.org/2000/svg"
    width="100%"
    height="100%"
    fill="#000"
    preserveAspectRatio="xMidYMid meet"
    viewBox="0 0 38 37">
    <path
        d="M8.315 21.901c3.369 0 6.364 1.639 8.228 4.163-.826-4.424-2.667-9.87-6.755-11.24a2.09 2.09 0 0 1-2.047 2.535 2.094 2.094 0 0 1-2.093-2.095c0-1.153 1.05-2.093 2.084-2.093l.013-.003c4.171 0 7.626 3.33 9.411 9.63.476 1.68.787 3.343.993 4.795.119-4.581.026-12.844-3.585-17.16 0-1.272.53-2.257 1.213-3.197a5.3 5.3 0 0 1 1.324 1.297c.239.324.432.683.592 1.035.076.176.132.355.198.523.069.166.092.334.137.485.09.304.113.568.143.75l.041.291.015-.293c.006-.185.034-.455.006-.777-.014-.162-.005-.342-.041-.524-.032-.184-.053-.383-.099-.584a6.4 6.4 0 0 0-.414-1.236 6.4 6.4 0 0 0-1.252-1.81C17.62 4.904 18.952 3.35 18.952.76c0 2.59 1.33 4.144 2.525 5.633a6.4 6.4 0 0 0-1.252 1.81c-.189.408-.32.834-.414 1.236-.046.201-.067.4-.1.584-.036.182-.026.362-.042.524-.028.322 0 .592.007.777l.015.293s.014-.106.042-.29c.03-.183.054-.447.142-.751.045-.15.068-.319.138-.485.064-.168.12-.347.196-.523a6 6 0 0 1 .592-1.035c.235-.328.503-.622.778-.869.185-.167.368-.304.546-.428.687.94 1.214 1.925 1.214 3.197-3.611 4.316-3.704 12.579-3.583 17.16.204-1.452.515-3.116.992-4.794 1.787-6.3 5.239-9.631 9.41-9.631l.014.003c1.035 0 2.084.94 2.084 2.093a2.095 2.095 0 1 1-4.141-.44c-4.088 1.37-5.93 6.816-6.755 11.24a10.22 10.22 0 0 1 8.23-4.163c4.583 0 8.314 3.73 8.314 8.315A6.793 6.793 0 0 1 31.119 37a5.567 5.567 0 0 1-5.56-5.56 4.586 4.586 0 0 1 4.581-4.581 3.8 3.8 0 0 1 3.797 3.797.665.665 0 1 1-1.329 0 2.47 2.47 0 0 0-2.468-2.468 3.255 3.255 0 0 0-3.252 3.252 4.237 4.237 0 0 0 4.23 4.23 5.46 5.46 0 0 0 5.457-5.454c0-3.852-3.135-6.985-6.986-6.985-4.66 0-8.494 3.601-8.866 8.165-.024.453-.03 5.604-.03 5.604h-3.477s-.012-5.15-.035-5.604c-.373-4.564-4.208-8.165-8.866-8.165a6.993 6.993 0 0 0-6.986 6.985 5.46 5.46 0 0 0 5.455 5.455 4.236 4.236 0 0 0 4.23-4.231 3.255 3.255 0 0 0-3.251-3.252 2.47 2.47 0 0 0-2.468 2.468.665.665 0 1 1-1.33 0 3.8 3.8 0 0 1 3.798-3.797 4.586 4.586 0 0 1 4.581 4.581A5.567 5.567 0 0 1 6.784 37 6.79 6.79 0 0 1 0 30.216c0-4.585 3.73-8.315 8.315-8.315" />
</svg>
