<svg
    xmlns="http://www.w3.org/2000/svg"
    width="100%"
    height="100%"
    fill="#000"
    preserveAspectRatio="xMidYMid meet"
    viewBox="0 0 52 39">
    <path
        d="M26.855 6.775C26.817 4.407 25.516 0 25.516 0s-1.301 4.407-1.34 6.775c-.816-.922-2.032-1.218-3.713-1.218 3.11 1.142 5.053 7.242 5.053 7.242q0-.918 0 0s1.943-6.1 5.052-7.242c-1.681 0-2.897.296-3.713 1.218" />
    <path d="M25.516 11.075a1.474 1.474 0 1 0 0 2.947 1.474 1.474 0 0 0 0-2.947" />
    <path
        d="M29.155 20.925c-.722 1.074-2.299 3.627-3.251 6.74v-9.233c.755 1.127 1.973 2.196 3.25 2.493m13.308.586c-7.424 0-14.304 5.456-16.559 12.34v-1.366c0-5.849 4.208-11.578 4.252-11.634a.39.39 0 0 0-.313-.621c-1.962 0-3.939-2.635-3.939-3.845v-3.634a.388.388 0 0 0-.777 0V38.6q.002.077.029.143c.005.016.016.028.024.043q.023.04.052.076c.013.014.03.024.043.036l.069.046q.028.013.057.022c.018.005.031.014.047.017q.033.005.067.005h.001a.4.4 0 0 0 .136-.028l.039-.018a.4.4 0 0 0 .077-.052q.018-.015.033-.032a.4.4 0 0 0 .055-.082l.02-.033q.003-.005.004-.012c.027-.072 2.448-6.648 7.179-7.419a1.4 1.4 0 0 0-.062.266 1.33 1.33 0 0 0 .619 1.258c1.09.676 1.883-1.037 2.764-.305.087.072.221.01.204-.101-.093-.579-.685-1.543-1.713-1.87a2 2 0 0 0-.394-.077c-.01-.001-.018-.007-.028-.008-2.581-.184-5.012 1.15-7.03 3.863a17 17 0 0 0-1.348 2.137c1.165-7.66 8.452-14.188 16.392-14.188 4.805 0 7.79 2.887 7.79 7.533a6.16 6.16 0 0 1-6.154 6.155 4.85 4.85 0 0 1-4.847-4.847 3.803 3.803 0 0 1 3.799-3.798 2.965 2.965 0 0 1 2.962 2.962 2.29 2.29 0 0 1-.988 1.882c.076-.752-.536-1.328-1.36-1.414-1.073-.11-2 .535-2.317 1.03-.06.094.039.205.145.174 1.042-.301 1.139 1.367 2.218 1.394l.01.002a3.07 3.07 0 0 0 3.068-3.068 3.743 3.743 0 0 0-3.738-3.74 4.58 4.58 0 0 0-4.575 4.576 5.63 5.63 0 0 0 5.623 5.624 6.94 6.94 0 0 0 6.932-6.932c0-5.048-3.364-8.31-8.568-8.31" />
    <path
        d="M27.721 16.952a.387.387 0 0 0 .388-.388c0-4.152 3.379-7.53 7.53-7.53a5.954 5.954 0 0 1 5.946 5.947 4.683 4.683 0 0 1-4.68 4.678 3.67 3.67 0 0 1-3.665-3.664 2.86 2.86 0 0 1 2.856-2.855c1.216 0 2.205.99 2.205 2.205 0 .554-.27 1.04-.682 1.348-.014-.565-.499-.989-1.139-1.054-.896-.092-1.67.446-1.933.858-.051.079.032.172.121.146.888-.258.955 1.201 1.913 1.16.012.001.02.006.032.006a2.466 2.466 0 0 0 2.464-2.464 2.986 2.986 0 0 0-2.981-2.982 3.636 3.636 0 0 0-3.632 3.632 4.447 4.447 0 0 0 4.441 4.441 5.46 5.46 0 0 0 5.456-5.455A6.73 6.73 0 0 0 35.64 8.26c-4.58 0-8.306 3.726-8.306 8.305 0 .215.174.388.388.388m-5.845 3.972c1.278-.297 2.495-1.366 3.25-2.493v9.233c-.952-3.113-2.528-5.666-3.25-6.74m3.639-8.562a.39.39 0 0 0-.39.388v3.634c0 1.21-1.975 3.844-3.938 3.844a.389.389 0 0 0-.31.622c.042.056 4.249 5.778 4.249 11.634v1.366c-2.255-6.884-9.135-12.34-16.559-12.34C3.364 21.51 0 24.773 0 29.82a6.94 6.94 0 0 0 6.933 6.932 5.63 5.63 0 0 0 5.623-5.624 4.58 4.58 0 0 0-4.576-4.576 3.743 3.743 0 0 0-3.739 3.74 3.07 3.07 0 0 0 3.068 3.068l.012-.002c1.078-.027 1.175-1.695 2.216-1.394.107.031.206-.08.146-.174-.316-.495-1.244-1.14-2.316-1.03-.823.086-1.438.662-1.362 1.414a2.29 2.29 0 0 1-.988-1.882A2.965 2.965 0 0 1 7.98 27.33a3.803 3.803 0 0 1 3.799 3.798 4.85 4.85 0 0 1-4.846 4.847A6.16 6.16 0 0 1 .777 29.82c0-4.646 2.987-7.533 7.791-7.533 7.94 0 15.227 6.527 16.392 14.188-.35-.65-.793-1.393-1.348-2.137-2.019-2.714-4.452-4.047-7.03-3.863-.01.001-.018.007-.027.008a2 2 0 0 0-.395.077c-1.028.327-1.619 1.291-1.713 1.87-.016.11.118.173.205.101.881-.732 1.675.981 2.763.305.422-.264.674-.762.62-1.258a1.6 1.6 0 0 0-.062-.264c4.723.772 7.151 7.346 7.178 7.417l.005.012q.007.017.019.033a.4.4 0 0 0 .054.082q.016.017.034.032.036.03.077.052.018.01.04.018a.4.4 0 0 0 .135.028h.001q.033 0 .067-.005c.017-.003.029-.012.046-.017q.03-.009.058-.022l.069-.046c.013-.012.03-.022.043-.036q.03-.036.05-.076.016-.02.026-.043a.4.4 0 0 0 .029-.143V12.75a.39.39 0 0 0-.388-.388" />
    <path
        d="M14.125 20.436a4.447 4.447 0 0 0 4.442-4.441 3.636 3.636 0 0 0-3.631-3.632 2.986 2.986 0 0 0-2.983 2.982 2.467 2.467 0 0 0 2.464 2.464c.012 0 .022-.005.032-.006.96.041 1.027-1.418 1.915-1.16.088.026.17-.067.121-.146-.265-.412-1.038-.95-1.934-.858-.64.065-1.126.489-1.138 1.054a1.68 1.68 0 0 1-.684-1.348c0-1.216.99-2.205 2.207-2.205a2.857 2.857 0 0 1 2.855 2.855 3.67 3.67 0 0 1-3.666 3.664 4.684 4.684 0 0 1-4.678-4.678 5.953 5.953 0 0 1 5.945-5.946c4.152 0 7.53 3.377 7.53 7.529a.388.388 0 0 0 .775 0c0-4.579-3.725-8.305-8.305-8.305a6.73 6.73 0 0 0-6.723 6.722 5.46 5.46 0 0 0 5.456 5.455" />
</svg>
