<svg
    xmlns="http://www.w3.org/2000/svg"
    width="100%"
    height="100%"
    fill="#000"
    preserveAspectRatio="xMidYMid meet"
    viewBox="0 0 77 25">
    <path
        d="M6.405 9.829c2.653 0 5.475 1.403 5.638 5.283.01.072.01.146.01.224 0 .042.006.08.006.125 0 .012-.007.023-.007.036a2 2 0 0 1-.064.359c-.413 1.597-2.2.95-2.08 2.414.013.142-.147.23-.255.138-.63-.542-1.08-1.72-.734-3.058.234-.902.868-1.504 1.686-1.485-.711-2.481-3.08-2.795-4.2-2.795-2.484 0-5.164 2.004-5.164 5.246 0 2.896 2.165 6.013 6.917 6.013 6.548 0 11.078-4.03 15.873-8.295 1.204-1.07 2.42-2.146 3.679-3.178q-.383.038-.773.04c-1.7 0-3.465-.514-4.794-1.843-.903-.903-1.48-2.325-1.545-3.807-.07-1.616.446-3.061 1.455-4.07.798-.8 2.142-1.246 3.513-1.167 1.349.076 2.54.648 3.27 1.568 1.036 1.305 1.003 3.61.015 4.92a1.2 1.2 0 0 1-.19.252q-.013.01-.024.021c-.009.008-.014.02-.022.027-.014.015-.032.019-.046.032-1 .867-1.952-.416-2.447.61-.05.103-.195.1-.233-.009-.215-.63-.047-1.624.735-2.405.504-.504 1.147-.665 1.69-.377.138-.791.024-1.703-.45-2.3-.51-.643-1.373-1.044-2.37-1.102-1.008-.056-2.016.259-2.564.807-.76.76-1.149 1.875-1.092 3.139.05 1.18.493 2.294 1.182 2.985 2.1 2.097 5.927 1.647 7.686.413 3.736-2.562 8.03-4.437 13.656-4.437h30.796a.621.621 0 0 1 0 1.241H55.586c-3.24 0-5.416 1.872-5.416 4.659a3.606 3.606 0 0 0 3.603 3.601 2.76 2.76 0 0 0 2.758-2.757c0-1.15-.934-2.083-2.082-2.083-.85 0-1.543.692-1.543 1.542a.621.621 0 1 1-1.24 0 2.785 2.785 0 0 1 2.783-2.782 3.327 3.327 0 0 1 3.323 3.323 4.004 4.004 0 0 1-4 3.999 4.85 4.85 0 0 1-4.842-4.843c0-1.979.89-3.615 2.378-4.659h-6.946c-6.622 0-11.247 4.014-11.247 9.758 0 4.237 3.447 7.684 7.682 7.684a6.03 6.03 0 0 0 6.023-6.023 4.7 4.7 0 0 0-4.693-4.693 3.635 3.635 0 0 0-3.632 3.629c0 .881.42 1.659 1.06 2.168.101-.917.88-1.46 1.885-1.46 1.38 0 2.405.73 2.77 1.475.063.128-.062.258-.197.212-1.343-.47-1.05 1.504-2.701 1.62-.012 0-.023.008-.036.008l-.036-.003c-.026.001-.048.005-.076.005-.05 0-.094-.012-.142-.016a4.02 4.02 0 0 1-3.767-4.01 4.88 4.88 0 0 1 4.872-4.87 5.94 5.94 0 0 1 5.933 5.935c0 4.004-3.257 7.261-7.263 7.261-4.92 0-8.922-4.001-8.922-8.922 0-3.098 1.185-5.742 3.218-7.664-3.903 1.854-7.105 4.689-10.238 7.474-4.977 4.427-9.677 8.607-16.697 8.607-5.356 0-8.158-3.65-8.158-7.253 0-3.576 2.873-6.487 6.405-6.487" />
    <path
        d="M73.404 4.774a1.755 1.755 0 1 1 3.51-.002 1.755 1.755 0 0 1-3.51.002" />
</svg>
