<svg
    xmlns="http://www.w3.org/2000/svg"
    width="100%"
    height="100%"
    fill="#000"
    preserveAspectRatio="xMidYMid meet"
    viewBox="0 0 81 31">
    <path
        d="M80.944 14.172c0 9.75-8.026 16.828-19.082 16.828H8.294c-.012 0-.02-.007-.032-.007l-.018.002c-3.682 0-7.665-2.526-8.228-3.803-.106-.243.328-.421.654-.285 3.322 1.404 4.316-1.451 7.906-1.451 3.064 0 4.064 1.53 4.064 2.659 0 .237-.04.464-.1.685h28.136c5.744 0 9.603-3.32 9.603-8.26a6.395 6.395 0 0 0-6.388-6.387 4.894 4.894 0 0 0-4.89 4.89 3.696 3.696 0 0 0 3.692 3.692A2.737 2.737 0 0 0 45.427 20a1.1 1.1 0 1 1 2.199 0 4.94 4.94 0 0 1-4.933 4.934 5.9 5.9 0 0 1-5.893-5.892c0-3.91 3.182-7.091 7.091-7.091 4.735 0 8.587 3.853 8.587 8.588 0 3.508-1.579 6.41-4.218 8.26h13.602c9.94 0 16.882-6.016 16.882-14.628 0-6.33-5.15-11.48-11.48-11.48-4.944 0-8.966 4.021-8.966 8.965a6.96 6.96 0 0 0 6.952 6.952 5.35 5.35 0 0 0 5.343-5.341c0-1.248-.58-2.35-1.467-3.095-.235 1.278-1.38 2.024-2.836 2.024-2.09 0-3.644-1.106-4.198-2.236-.094-.192.096-.393.3-.321 1.826.639 1.65-1.708 3.4-2.325.198-.184.456-.302.746-.302a6.26 6.26 0 0 1 6.253 6.255c0 4.157-3.382 7.54-7.541 7.54-5.045 0-9.15-4.104-9.15-9.15C56.1 5.5 61.106.491 67.262.491c7.543 0 13.681 6.137 13.681 13.68" />
</svg>
