<svg
    xmlns="http://www.w3.org/2000/svg"
    width="100%"
    height="100%"
    fill="#000"
    preserveAspectRatio="xMidYMid meet"
    viewBox="0 0 90 27">
    <path
        d="M.128 26.435c6.744.13 13.22-.618 18.474-5.23-.329 2.726 1.14 5.402 4.049 5.757 1.385.171 2.843-.229 3.654-1.429.702-1.035.86-2.613-.017-3.597-.814-.917-2.273-1.09-3.27-.375-.46.331-.844.861-.858 1.45-.015.666.635 1.281 1.285.803.445-.323.211-.926.84-1.061.569-.122.94.34.973.857.047.715-.464 1.383-1.103 1.631-1.254.487-2.818-.179-3.504-1.274-.65-1.035-.561-2.364-.255-3.5.793-2.953 3.643-4.135 6.523-3.729 3.221.455 5.63 3.017 7.967 5.05 2.205 1.919 4.589 3.684 7.451 4.467 3.368.92 7.307.753 10.395-.951 3.439-1.895 5.727-5.388 6.505-9.192 3.492 7.71 12.875 12.598 21.097 9.62 7.5-2.718 12.156-12.17 7.902-19.422-2.02-3.446-5.76-5.677-9.756-5.782-4.032-.107-7.788 2.367-9.216 6.155-1.466 3.888-.11 8.41 3.727 10.308 3.745 1.852 8.553.223 9.616-4.03.555-2.219-.196-4.587-2.117-5.893-1.474-1.003-3.454-1.384-4.735.05-.468.522-.83 1.204-1.653.913-.238-.083-.597-.602-.689-.279-.086.303.465 1.01.63 1.208 1.276 1.523 5.19 2.145 5.505-.563 2.792 1.868 1.616 6.006-1.08 7.299-2.713 1.302-6.068-.223-7.44-2.748-1.43-2.628-.672-6.001 1.263-8.164C74.324 2.51 77.4 1.74 80.33 2.39c6.241 1.38 9.148 7.964 7.239 13.778-1.911 5.823-7.702 9.3-13.716 8.711-5.96-.585-11.231-4.582-13.435-10.145a16 16 0 0 1-1.05-4.34c-.056-.57.127-1.597-.236-2.071-.465-.614-1.26-.292-1.452.352-.213.721.062 1.761.14 2.498.094.898.142 1.797.087 2.7a13.3 13.3 0 0 1-1.364 5.134c-1.566 3.11-4.464 5.463-7.94 6.01-2.782.435-6.013-.16-7.896-2.41-1.404-1.679-2.078-4.312-1.285-6.401.908-2.398 5.025-4.615 6.821-1.812.681 1.06.083 2.907-1.381 2.828-.807-.044-.65-.57-.898-1.13-.282-.639-1.129-.757-1.488-.112-.718 1.298.992 2.739 2.127 2.857 1.384.146 2.75-.784 3.303-2.022 1.499-3.355-2.341-5.69-5.248-5.181-2.87.502-4.988 3.008-5.176 5.891a8.93 8.93 0 0 0 1.384 5.318c-4.916-3.29-9.964-10.487-16.768-6.984-1.148.592-1.83 1.488-2.643 2.445a24 24 0 0 1-3.36 3.27c-2.11 1.677-4.528 2.86-7.13 3.549-1.878.497-3.814.74-5.749.888-.809.06-1.617.1-2.428.13-.093.005-.589-.047-.66.026-.049.05-.264.261 0 .267" />
</svg>
