<svg
    width="100%"
    height="100%"
    fill="#000"
    preserveAspectRatio="xMidYMid meet"
    viewBox="0 0 84 38"
    xmlns="http://www.w3.org/2000/svg">
    <path
        d="M9.82 8.842a1 1 0 0 1 .183-.023c-.062 0-.122.018-.183.023m15.741 20.215a1 1 0 0 1 .156-.02c-.053 0-.104.018-.156.02M37.868 6.69c-.052-.005-.101-.022-.155-.022q.07 0 .155.022" />
    <path
        d="M10.067 2.816c6.192 0 10.781 5.521 15.642 11.367a218 218 0 0 0 2.406 2.859c-.588-1.63-.911-3.32-.911-5.006C27.204 4.724 31.928 0 39.24 0c4.9 0 8.595 3.479 8.595 8.09 0 3.764-2.727 6.713-6.21 6.713a4.557 4.557 0 0 1-4.546-4.434c-.002-.026-.01-.05-.01-.077 0-.01.004-.014.004-.025l-.001-.02c0-.016.01-.028.01-.045.066-1.529 1.625-1.647 1.625-2.483 0-.638-.495-.953-.84-1.03 1.453.103 2.658 1.665 2.662 3.47.002.807-.513 1.526-1.318 1.728a2.92 2.92 0 0 0 2.414 1.281c2.61 0 4.576-2.181 4.576-5.077 0-3.682-2.992-6.458-6.961-6.458-6.416 0-10.404 3.986-10.404 10.403 0 7.421 7.007 15.37 17.436 15.37 6.043 0 10.86-2.34 15.959-4.814 5.57-2.704 11.328-5.499 19.141-5.499a.816.816 0 1 1 0 1.633c-7.437 0-13.024 2.713-18.427 5.334-5.274 2.56-10.254 4.98-16.673 4.98-.448 0-.89-.035-1.332-.061-.024.001-.043.013-.065.013-.186 0-.363-.023-.546-.028-.025.002-.046.014-.07.014-3.335 0-6.206-1.19-8.98-2.34-2.906-1.205-5.914-2.451-9.615-2.451-5.467 0-8.999 2.662-8.999 6.787 0 2.58 1.907 4.452 4.535 4.452 1.121 0 2.176-.503 2.833-1.23-.697-.258-1.134-.925-1.133-1.668.004-1.807 1.21-3.365 2.661-3.47-.342.075-.838.392-.838 1.029 0 .832 1.54.956 1.621 2.46.001.015.01.028.01.043l-.002.017c.001.019.008.035.008.056 0 .07-.013.141-.025.213-.182 2.259-2.502 4.183-5.135 4.183-3.516 0-6.168-2.615-6.168-6.085 0-4.193 3.288-8.42 10.632-8.42 2.52 0 4.7.512 6.725 1.206-2.925-2.517-5.506-5.609-7.937-8.534C19.844 9.685 15.493 4.45 10.067 4.45c-5.123 0-8.434 2.732-8.434 6.962 0 2.65 1.779 4.575 4.227 4.575.899 0 1.748-.39 2.36-.977-.953-.24-1.561-1.093-1.56-2.046.004-2.144 1.436-3.997 3.16-4.121-.41.091-.995.466-.995 1.221 0 .994 1.855 1.134 1.928 2.957.002.016.01.03.01.044v.017c0 .015.005.026.005.04 0 .045-.012.09-.016.134-.116 2.347-2.35 4.364-4.892 4.364-3.34 0-5.86-2.67-5.86-6.208 0-4.279 3.112-8.595 10.067-8.595" />
    <path d="M79.367 17.91a2.006 2.006 0 1 1 4.011 0 2.006 2.006 0 0 1-4.011 0" />
</svg>
