<svg
    xmlns="http://www.w3.org/2000/svg"
    width="100%"
    height="100%"
    fill="#000"
    preserveAspectRatio="xMidYMid meet"
    viewBox="0 0 85 35">
    <path
        d="M6.178 6.463c4.152 0 7.278 2.412 9.761 5.541.112-2.844 1.563-5.344 4.507-5.94 2.538-.513 5.094.635 5.846 3.24.283.976.194 1.707-.205 2.603-.284.64-.237.694.128 1.255.159.24.51.265-.237.24-1.027-.035-1.952-.923-2.251-1.866-.336-1.059.312-2.401 1.601-2.09-1.089-1.933-3.174-2.598-5.238-1.85-2.134.773-2.875 3.053-2.688 5.158.445 5.03 6.572 6.822 10.76 6.589a20.9 20.9 0 0 0 7.32-1.759c2.332-1.032 4.473-2.438 6.688-3.693 4.234-2.398 8.741-3.877 13.606-4.222 5.01-.356 9.882.063 14.376 2.502-1.221-2.687-1.378-5.998.202-8.576C71.887 1.097 75.003-.1 77.815.808c2.508.81 4.479 3.676 3.27 6.277-.554 1.192-1.694 2.034-3.042 1.907-1.336-.125-1.77-.85-2.263-1.944-.14-.31-.248-.527-.598-.612-.079-.02-.74.076-.715.112-.225-.288.821-.873 1.04-.964 1.259-.517 3.639.021 3.492 1.76 1.15-.67 1.127-2.284.576-3.324-.608-1.148-1.776-1.819-3.037-1.988-3.046-.407-5.354 1.883-5.782 4.761-.41 2.755.726 5.898 2.886 7.673 2.37 1.946 4.477 4.122 6.194 6.673 1.564 2.321 2.822 4.88 3.567 7.585a18.2 18.2 0 0 1 .65 3.79c.026.471.155 1.153-.31 1.457-.413.27-.807.041-1.064-.296-.433-.568-.74-1.28-1.13-1.884a38 38 0 0 0-2.873-3.861c-3.121-3.675-7.177-6.985-12.029-7.902.092 1.65-1.595 2.318-2.904 1.708-.352-.164-.728-.503-1.136-.498-.317.003-1.147.8-1.073.838-.664-.35.813-2.473 1.052-2.727 1.025-1.08 2.233-1.098 3.64-.942 6.81.753 12.329 6.36 16.005 11.735-2.577-11.615-14.995-21.965-27.167-18.393-4.596 1.348-7.984 4.937-8.572 9.755-.6 4.91 1.663 10.907 7.062 11.894 2.645.482 5.873-.389 7.045-3.029.548-1.235.613-2.758-.107-3.94-.808-1.322-2.741-1.99-3.737-.463 1.701.577.795 2.818-.279 3.528-.2.131-1.472.713-1.65.335-.044-.096.385-.256.462-.35.298-.368.138-.67-.028-1.041-1.264-2.867 1.734-5.835 4.627-4.476 2.91 1.366 3.215 5.24 1.67 7.738-1.655 2.676-5.062 3.652-8.045 3.19-3.684-.572-6.502-3.389-7.757-6.809-.788 2.729-2.517 5.147-5.208 6.235-2.697 1.092-5.836.898-8.196-.87-2.277-1.704-3.652-5.091-1.62-7.532.907-1.091 2.45-1.777 3.873-1.5 1.302.255 2.523 1.554 2.431 2.946-.041.624-.761 1.233-.563 1.85.152.469 1.154.843-.142.625-1.455-.245-3.151-2.695-1.476-3.755-1.287-.826-3.01.379-3.466 1.61-.484 1.307.083 2.765.96 3.76 1.818 2.062 4.72 2.5 7.243 1.64 2.259-.769 3.797-2.623 4.57-4.835.958-2.75.474-5.64 1.138-8.432.787-3.303 2.87-6.119 5.764-7.883-4.91 1.207-8.893 4.053-13.315 6.342-4.154 2.149-9.265 3.449-13.916 2.313-2.12-.517-4.161-1.559-5.69-3.133-1.455-1.498-2.428-3.45-3.766-5.06-2.144-2.578-4.969-4.66-8.485-4.454-1.987.116-3.71 1.427-4.255 3.356-.478 1.701.344 4.734 2.724 4.12-1.249-1.056-.157-2.98.982-3.6.225-.124 1.397-.581 1.592-.273.081.128-.604.479-.648.86-.067.565.524 1.108.573 1.687.048.574-.205 1.205-.537 1.666-.759 1.05-2.051 1.374-3.266 1.064C.255 16.113-.528 12.992.33 10.522c.862-2.485 3.241-4.06 5.848-4.06" />
</svg>
