<svg
    xmlns="http://www.w3.org/2000/svg"
    width="100%"
    height="100%"
    fill="#000"
    preserveAspectRatio="xMidYMid meet"
    viewBox="0 0 102 15">
    <path
        d="M101.809.321c-3.824-.073-7.497.35-10.475 2.965.186-1.546-.648-3.062-2.296-3.265-.786-.096-1.611.13-2.072.81-.398.589-.487 1.483.01 2.04.462.52 1.288.62 1.853.214.262-.188.48-.49.488-.823.008-.377-.36-.725-.729-.456-.251.184-.12.523-.474.602-.324.072-.535-.192-.554-.486-.027-.405.262-.784.625-.925.71-.276 1.598.103 1.987.723.37.588.318 1.341.145 1.985-.45 1.673-2.067 2.344-3.7 2.115-1.826-.259-3.192-1.711-4.517-2.864-1.25-1.088-2.602-2.09-4.225-2.532-1.91-.522-4.143-.428-5.894.537-1.95 1.075-3.247 3.056-3.69 5.213-2.35-5.193-9.415-7.941-14.193-4.22-2.143 1.67-3.411 4.436-3.115 7.16.296 2.726 2.331 5.048 4.992 5.707 2.663.657 5.495-.545 6.57-3.14 1.083-2.617-.208-5.775-3.11-6.37-1.36-.278-2.769.138-3.667 1.22-.87 1.047-1.131 2.607-.426 3.811a3.02 3.02 0 0 0 1.376 1.227c.266.117.921.337 1.325.23.93-.11 1.029-1.083 1.574-1.083.245 0 .434.09.536.24.013.02.037.037.051.037.032 0 .067-.013.05-.079-.186-.748-.947-1.432-2.111-1.432-.683 0-1.289.423-1.367 1.062a2.08 2.08 0 0 1-.918-1.707c-.013-1.33 1.03-2.496 2.34-2.668 1.312-.172 2.647.539 3.325 1.653 1.5 2.467-.451 5.654-3.083 6.18-2.712.543-5.479-1.301-6.302-3.876-.836-2.61.29-5.589 2.35-7.3 4.456-3.7 11.235-.805 13.166 4.21a9 9 0 0 1 .523 2.026c.061.446-.133 1.718.547 1.718.776 0 .414-1.375.371-1.799-.083-.797-.087-1.59.05-2.383.556-3.244 3.302-5.822 6.69-5.517 2.28.205 4.253 2.096 3.838 4.516-.218 1.276-1.333 2.276-2.648 2.25-.594-.013-1.23-.31-1.468-.886-.242-.581.137-1.384.817-1.41.734-.029.353.957 1.016.95.826-.01.357-1.208.014-1.516-1.021-.921-2.593.021-2.821 1.212-.298 1.548 1.237 2.633 2.639 2.57a3.56 3.56 0 0 0 3.076-2.087c.626-1.375.346-3.08-.455-4.322 2.788 1.864 5.65 5.944 9.508 3.959.651-.335 1.037-.844 1.498-1.387a14 14 0 0 1 1.905-1.854 11 11 0 0 1 4.042-2.011c1.066-.283 2.164-.42 3.261-.504q.688-.05 1.376-.073c.053-.003.335.026.376-.016.026-.027.148-.148 0-.151" />
    <path
        d="M.072.321c3.824-.073 7.496.35 10.475 2.965-.186-1.546.648-3.062 2.296-3.265.786-.096 1.612.13 2.073.81.397.589.486 1.483-.01 2.04-.462.52-1.289.62-1.854.214-.261-.188-.48-.49-.487-.823-.008-.377.36-.725.728-.456.251.184.119.523.474.602.324.072.535-.192.554-.486.027-.405-.262-.784-.625-.925-.71-.276-1.598.103-1.988.723-.367.588-.318 1.341-.144 1.985.45 1.673 2.066 2.344 3.7 2.115 1.826-.259 3.192-1.711 4.517-2.864 1.25-1.088 2.602-2.09 4.225-2.532 1.91-.522 4.142-.428 5.894.537 1.95 1.075 3.247 3.056 3.689 5.213 2.352-5.193 9.416-7.941 14.194-4.22 2.143 1.67 3.411 4.436 3.115 7.16-.297 2.726-2.331 5.048-4.992 5.707-2.663.657-5.495-.545-6.57-3.14-1.084-2.617.208-5.775 3.11-6.37 1.36-.278 2.769.138 3.666 1.22.87 1.047 1.132 2.607.426 3.811a3.02 3.02 0 0 1-1.375 1.227c-.266.117-.921.337-1.325.23-.93-.11-1.029-1.083-1.574-1.083-.244 0-.434.09-.536.24-.013.02-.036.037-.05.037-.033 0-.068-.013-.051-.079.185-.748.946-1.432 2.111-1.432.683 0 1.29.423 1.367 1.062.567-.382.91-1.02.918-1.707.013-1.33-1.03-2.496-2.34-2.668-1.312-.172-2.647.539-3.326 1.653-1.499 2.467.452 5.654 3.083 6.18 2.713.543 5.48-1.301 6.303-3.876.835-2.61-.29-5.589-2.35-7.3-4.456-3.7-11.235-.805-13.166 4.21a9 9 0 0 0-.522 2.026c-.062.446.133 1.718-.548 1.718-.776 0-.415-1.375-.371-1.799.083-.797.087-1.59-.05-2.383-.556-3.244-3.302-5.822-6.69-5.517-2.28.205-4.252 2.096-3.838 4.516.219 1.276 1.333 2.276 2.648 2.25.594-.013 1.23-.31 1.469-.886.241-.581-.137-1.384-.818-1.41-.734-.029-.352.957-1.016.95-.826-.01-.357-1.208-.014-1.516 1.021-.921 2.593.021 2.821 1.212.298 1.548-1.237 2.633-2.64 2.57a3.57 3.57 0 0 1-3.075-2.087c-.627-1.375-.346-3.08.456-4.322-2.789 1.864-5.651 5.944-9.509 3.959-.65-.335-1.038-.844-1.498-1.387a14 14 0 0 0-1.905-1.854 11 11 0 0 0-4.042-2.011C4.018.782 2.92.645 1.823.561A34 34 0 0 0 .448.488C.395.485.113.514.072.472.046.445-.076.324.072.32" />
</svg>
