<svg
    width="100%"
    height="100%"
    fill="#000"
    preserveAspectRatio="xMidYMid meet"
    viewBox="0 0 122 40"
    xmlns="http://www.w3.org/2000/svg">
    <path
        d="M59.6975 11.3947C59.8162 11.4507 59.9549 11.444 60.0682 11.376C60.1815 11.3093 60.2522 11.1893 60.2589 11.0573C60.2615 10.9787 60.3282 9.26532 59.4322 8.42399C59.6989 7.69999 60.4109 5.67999 60.8615 3.56133C61.3135 5.67999 62.0255 7.69999 62.2922 8.42399C61.3962 9.26532 61.4629 10.9787 61.4655 11.0573C61.4722 11.1893 61.5429 11.3093 61.6562 11.376C61.7695 11.444 61.9095 11.4507 62.0269 11.3947C62.5909 11.1267 63.1469 11.008 63.6309 10.9653C62.4109 11.936 61.3922 13.8547 60.8615 15.892C60.3322 13.8533 59.3122 11.9333 58.0909 10.964C58.5749 11.0053 59.1309 11.1253 59.6975 11.3947ZM56.4322 11.0933C58.2802 11.0933 60.4682 15.264 60.4682 18.788C60.4682 19.0067 60.6455 19.1813 60.8615 19.1813C61.0789 19.1813 61.2549 19.0067 61.2549 18.788C61.2549 15.264 63.4442 11.0933 65.2922 11.0933C65.4882 11.0933 65.6535 10.9507 65.6815 10.7573C65.7095 10.5653 65.5935 10.38 65.4055 10.324C65.3402 10.304 63.9255 9.89065 62.2735 10.448C62.3335 9.88931 62.5135 9.17332 62.9682 8.88932C63.1295 8.78932 63.1962 8.58931 63.1282 8.41331C63.1082 8.36531 61.2549 3.53599 61.2549 0.393327C61.2549 0.175993 61.0789 0 60.8615 0C60.6455 0 60.4682 0.175993 60.4682 0.393327C60.4682 3.53333 58.6149 8.36531 58.5962 8.41331C58.5282 8.58931 58.5949 8.78932 58.7549 8.88932C59.2109 9.17332 59.3909 9.88931 59.4495 10.448C57.8015 9.89198 56.3842 10.304 56.3189 10.324C56.1322 10.38 56.0149 10.5653 56.0429 10.7573C56.0709 10.9507 56.2362 11.0933 56.4322 11.0933Z" />
    <path
        d="M110.851 39.0773C111.879 38.5386 112.396 37.8413 112.644 37.3747C113.268 37.772 114.587 38.5 116.639 39.0773H110.851ZM64.4202 16.972L64.9562 17.3413C65.0575 17.412 65.1869 17.4306 65.3015 17.392C64.5922 18.0653 63.9829 18.8627 63.4762 19.7627C63.7682 18.648 64.0975 17.696 64.4202 16.972ZM65.5682 17.0747C65.6042 16.824 65.7015 16.1893 65.7429 15.9213C66.2735 15.4173 67.3868 15.384 68.5015 15.5253C67.4522 15.8213 66.4402 16.3787 65.5402 17.1733C65.5535 17.1413 65.5629 17.1093 65.5682 17.0747ZM121.359 39.0773C115.594 38.6773 112.743 36.4907 112.715 36.4693C112.611 36.388 112.472 36.3653 112.347 36.4067C112.222 36.4493 112.126 36.552 112.091 36.6786C112.064 36.7773 111.395 39.0773 107.078 39.0773H77.0362C71.8442 39.0773 67.7709 37.7173 65.2575 35.144C63.4522 33.296 62.5322 30.8946 62.5949 28.1973C62.6389 26.34 63.4029 24.6106 64.7469 23.328C66.0909 22.0453 67.8469 21.3667 69.7122 21.4067C70.9149 21.4347 72.0349 21.9293 72.8655 22.8C73.6869 23.6613 74.1269 24.788 74.1082 25.9773C74.1069 26.032 74.1029 26.0946 74.0989 26.1546C74.0335 27.0666 73.5455 27.8587 72.8282 28.3373C72.2082 28.588 71.8789 27.8733 71.1122 27.8733C70.6002 27.8733 70.2549 28.1413 70.2549 28.6546C70.2549 29.1013 70.5709 29.4747 70.9922 29.5627C71.0415 29.5867 71.0949 29.6027 71.1535 29.604C72.1202 29.6307 73.0215 29.28 73.7229 28.6307C73.3789 30.7653 73.2402 33.248 75.7375 33.7747C75.7655 33.7813 75.7922 33.784 75.8189 33.784C75.8495 33.784 75.8789 33.7747 75.9082 33.768C76.1935 33.7947 76.4429 33.648 76.5495 33.3933C76.6869 33.068 76.5349 32.6946 76.2095 32.5573C75.7082 32.3466 75.0695 32.576 74.6935 32.2293C74.1175 31.3253 74.3122 29.7773 74.6389 27.9413C74.7522 27.3013 74.8562 26.6986 74.8842 26.1906C74.8869 26.1386 74.8949 26.0867 74.8962 26.0333C74.8962 26.0173 74.8935 26.0026 74.8949 25.9853C74.8949 25.9733 74.8962 25.9573 74.8962 25.944C74.8962 25.9373 74.8935 25.932 74.8922 25.9253C74.9015 23.0586 72.6095 20.688 69.7309 20.62C67.6709 20.5693 65.7002 21.3306 64.2042 22.7586C63.5695 23.3653 63.0589 24.064 62.6682 24.8213C63.0655 21.9453 64.1602 19.544 65.8775 17.9293C67.4335 16.4667 69.3775 15.816 71.2189 16.148C71.4202 16.184 71.6175 16.0586 71.6695 15.86C71.7202 15.66 71.6095 15.4546 71.4135 15.3893C70.9189 15.2213 66.5269 13.7986 65.0749 15.484C65.0269 15.5386 64.9949 15.608 64.9842 15.68C64.9842 15.68 64.9349 16.0027 64.8829 16.336L64.4869 16.0627C64.3935 15.9987 64.2762 15.9773 64.1669 16.0053C64.0575 16.0333 63.9642 16.1067 63.9122 16.208C62.9269 18.1493 61.8189 22.2813 61.7162 26.764C61.7149 26.78 61.7162 26.796 61.7175 26.812C61.6909 27.8226 61.7402 28.8733 61.8669 29.956C61.8735 30.0186 61.8989 30.072 61.9309 30.1213C62.2495 32.2466 63.1855 34.148 64.6949 35.6933C67.3602 38.4213 71.6269 39.8626 77.0362 39.8626H121.331C121.544 39.8626 121.716 39.696 121.723 39.4826C121.731 39.272 121.57 39.092 121.359 39.0773Z" />
    <path
        d="M87.7242 33.148C87.8842 32.4053 87.7722 31.6707 87.4522 31.084C88.2202 31.468 88.6828 32.144 88.6828 32.6467C88.6828 33.3547 88.4282 33.94 87.9042 34.4333C87.4695 34.8427 86.8908 35.152 86.2495 35.3853C87.0842 34.7307 87.5548 33.9307 87.7242 33.148ZM96.6309 35.0227C97.2709 35.4547 98.2162 35.808 99.1842 36.084H95.4135C95.9882 35.72 96.3922 35.3067 96.6309 35.0227ZM80.5802 25.9587C81.1055 26.292 81.6149 26.2827 81.9949 26.8867C82.7242 28.5373 82.9668 30.792 82.2108 32.62C81.2842 34.856 79.1015 36.0493 75.8975 36.0813C70.1935 36.0173 66.2255 33.0933 66.2255 28.9253C66.2255 27.94 66.5668 27.04 67.1682 26.3787C68.1962 25.6733 68.9748 26.5094 69.8188 26.5094C70.3322 26.5094 70.7468 26.0947 70.7468 25.5813C70.7468 25.212 70.5308 24.8973 70.2188 24.7467C70.1708 24.7027 70.1149 24.6667 70.0469 24.6507C69.0295 24.4213 67.9388 24.6947 67.0562 25.4C66.0282 26.2213 65.4388 27.5067 65.4388 28.9253C65.4388 33.4413 69.7495 36.74 75.7388 36.8653C75.7482 36.8653 75.7575 36.8707 75.7682 36.8707C75.8082 36.8707 75.8442 36.868 75.8842 36.8667C75.9522 36.868 76.0188 36.8707 76.0882 36.8707H81.1762C81.2522 36.8707 81.3348 36.872 81.4242 36.872C81.4908 36.872 81.5655 36.8707 81.6388 36.8707H103.05C103.256 36.8707 103.428 36.7093 103.44 36.5027C103.455 36.296 103.304 36.1147 103.1 36.088C101.742 35.9093 97.9642 35.22 96.8215 34.1773C96.7348 34.0987 96.6188 34.064 96.5042 34.0787C96.3895 34.0933 96.2868 34.16 96.2242 34.2573C96.1762 34.332 95.0282 36.084 92.6655 36.084H90.0988C91.1148 35.416 91.9548 34.4133 92.7775 33.4267C94.1095 31.8307 95.3669 30.3227 97.2442 30.3227C98.3095 30.3227 99.1242 30.5787 99.7309 30.9613C100.558 31.628 100.323 32.644 100.323 33.428C100.323 33.884 100.691 34.2533 101.147 34.2533C101.555 34.2533 101.902 33.9827 101.968 33.5973C101.98 33.5613 101.992 33.5227 101.992 33.4813C101.992 31.956 100.703 29.5374 97.2442 29.5374C94.9989 29.5374 93.5629 31.2587 92.1735 32.9227C90.8175 34.548 89.5362 36.084 87.5842 36.084H86.6095C87.3082 35.82 87.9482 35.472 88.4415 35.0067C89.1228 34.3654 89.4682 33.5707 89.4682 32.6467C89.4682 31.4227 88.0242 29.9973 86.1628 29.9973C85.9762 29.9973 85.8162 30.1293 85.7788 30.312C85.7415 30.4947 85.8375 30.6787 86.0082 30.752C86.7668 31.0773 87.1642 32.0133 86.9548 32.9813C86.6202 34.5307 84.7722 36.156 80.6095 36.0653C80.6068 36.0653 80.6042 36.0653 80.6015 36.0653C80.5695 36.0653 80.5402 36.0773 80.5108 36.084H79.8722C81.5802 35.296 82.4722 34.0413 82.9375 32.9213C84.1202 30.064 83.1615 26.3893 81.5228 24.752C81.4615 24.6893 81.3828 24.6587 81.3015 24.648C80.9308 24.4853 80.5495 24.6013 80.3495 24.9147C80.1255 25.2667 80.2282 25.7333 80.5802 25.9587Z" />
    <path
        d="M56.4229 17.392C56.5375 17.4293 56.6669 17.4107 56.7682 17.3413L57.3042 16.972C57.6282 17.696 57.9562 18.648 58.2469 19.7627C57.7429 18.8627 57.1322 18.0653 56.4229 17.392ZM53.2429 15.5307C54.3509 15.396 55.4589 15.4266 55.9815 15.9226C56.0229 16.1893 56.1202 16.824 56.1562 17.0733C56.1615 17.108 56.1709 17.1413 56.1842 17.1733C55.2895 16.3827 54.2855 15.828 53.2429 15.5307ZM5.08553 39.0773C7.1362 38.5 8.45621 37.772 9.07888 37.3747C9.32821 37.8413 9.84554 38.5386 10.8735 39.0773H5.08553ZM59.8575 29.956C59.9842 28.8746 60.0322 27.8226 60.0069 26.8133C60.0082 26.7973 60.0095 26.7813 60.0082 26.764C59.9055 22.2827 58.7975 18.1507 57.8109 16.208C57.7602 16.1067 57.6682 16.0333 57.5575 16.0053C57.4469 15.9773 57.3309 15.9987 57.2375 16.0627L56.8402 16.3373C56.7895 16.0027 56.7402 15.68 56.7402 15.68C56.7295 15.608 56.6975 15.5386 56.6495 15.484C55.1962 13.7986 50.8055 15.2213 50.3095 15.3893C50.1149 15.4546 50.0042 15.66 50.0549 15.86C50.1069 16.0586 50.3029 16.1853 50.5055 16.148C52.3442 15.8173 54.2909 16.4667 55.8469 17.9293C57.5642 19.544 58.6589 21.9453 59.0562 24.8213C58.6655 24.064 58.1549 23.3653 57.5202 22.7586C56.0242 21.332 54.0575 20.568 51.9949 20.62C50.5815 20.6533 49.2669 21.2346 48.2909 22.2573C47.3389 23.2533 46.8269 24.5533 46.8309 25.9266C46.8309 25.932 46.8282 25.9373 46.8282 25.944C46.8282 25.956 46.8295 25.972 46.8295 25.984C46.8295 26.0013 46.8282 26.0173 46.8282 26.0333C46.8295 26.0867 46.8362 26.1386 46.8402 26.192C46.8682 26.7 46.9709 27.3013 47.0855 27.9413C47.4122 29.7773 47.6069 31.3253 47.0309 32.2293C46.6549 32.576 46.0162 32.3466 45.5149 32.5573C45.1895 32.6946 45.0375 33.068 45.1735 33.3933C45.2815 33.648 45.5309 33.7947 45.8162 33.768C45.8455 33.7747 45.8749 33.784 45.9055 33.784C45.9322 33.784 45.9589 33.7813 45.9869 33.7747C48.4842 33.248 48.3469 30.7653 48.0015 28.6293C48.7029 29.28 49.6082 29.624 50.5709 29.604C50.6295 29.6027 50.6842 29.5867 50.7335 29.5627C51.1535 29.4747 51.4682 29.1013 51.4682 28.6546C51.4682 28.1413 51.1242 27.8733 50.6109 27.8733C49.8509 27.8733 49.5215 28.5747 48.9095 28.3413C48.1895 27.868 47.6962 27.08 47.6269 26.168C47.6229 26.1013 47.6162 26.0333 47.6162 25.972C47.5989 24.7853 48.0389 23.66 48.8589 22.8C49.6895 21.9293 50.8095 21.4347 52.0122 21.4067C53.8669 21.368 55.6335 22.0453 56.9775 23.328C58.3215 24.6106 59.0855 26.34 59.1295 28.1973C59.1922 30.8946 58.2722 33.296 56.4669 35.144C53.9535 37.7173 49.8815 39.0773 44.6882 39.0773H14.6455C10.3295 39.0773 9.6602 36.7773 9.63353 36.6826C9.60153 36.5533 9.50555 36.4493 9.38021 36.4067C9.25354 36.364 9.11487 36.3867 9.00954 36.4693C8.98154 36.4907 6.13086 38.6773 0.365531 39.0773C0.154865 39.092 -0.00646732 39.272 0.000199351 39.4826C0.00819935 39.696 0.181542 39.8626 0.393542 39.8626H44.6882C50.0975 39.8626 54.3642 38.4213 57.0282 35.6933C58.5389 34.148 59.4749 32.2466 59.7935 30.1213C59.8255 30.072 59.8509 30.0186 59.8575 29.956Z" />
    <path
        d="M25.0949 35.0227C25.3322 35.3067 25.7362 35.72 26.3109 36.084H22.5415C23.5082 35.808 24.4535 35.4547 25.0949 35.0227ZM33.0429 32.6467C33.0429 32.144 33.5029 31.468 34.2722 31.084C33.9522 31.6707 33.8402 32.4053 34.0002 33.148C34.1695 33.9307 34.6389 34.732 35.4749 35.3867C34.8335 35.1533 34.2562 34.844 33.8215 34.4347C33.2975 33.94 33.0429 33.356 33.0429 32.6467ZM18.6762 36.8707H40.0855C40.1588 36.8707 40.2335 36.872 40.3002 36.872C40.3895 36.872 40.4708 36.8707 40.5495 36.8707H45.6362C45.7055 36.8707 45.7722 36.868 45.8402 36.8667C45.8802 36.868 45.9162 36.8707 45.9575 36.8707C45.9669 36.8707 45.9762 36.8653 45.9869 36.8653C51.9748 36.74 56.2855 33.4413 56.2855 28.9253C56.2855 27.5067 55.6962 26.2213 54.6668 25.4C53.7855 24.6947 52.6949 24.4213 51.6775 24.6507C51.6095 24.6667 51.5535 24.7027 51.5055 24.7467C51.1935 24.896 50.9762 25.212 50.9762 25.5813C50.9762 26.0947 51.3922 26.5094 51.9055 26.5094C52.7495 26.5094 53.5282 25.6733 54.5575 26.3787C55.1589 27.0413 55.4988 27.94 55.4988 28.9253C55.4988 33.0933 51.5309 36.0173 45.8269 36.0813C42.6229 36.0493 40.4402 34.856 39.5135 32.62C38.7575 30.792 38.9989 28.5373 39.7295 26.8867C40.1095 26.2827 40.6202 26.292 41.1442 25.9587C41.4949 25.7333 41.6002 25.2667 41.3749 24.9147C41.1762 24.6013 40.7935 24.4853 40.4229 24.648C40.3415 24.6587 40.2628 24.6893 40.2002 24.752C38.5628 26.3893 37.6042 30.064 38.7882 32.9213C39.2522 34.0413 40.1442 35.296 41.8522 36.084H41.2042C41.1749 36.0773 41.1455 36.0667 41.1148 36.0653C36.9468 36.1493 35.1042 34.5307 34.7695 32.9813C34.5602 32.0147 34.9575 31.0773 35.7162 30.752C35.8868 30.6787 35.9829 30.4947 35.9455 30.312C35.9082 30.1293 35.7469 29.9973 35.5602 29.9973C33.6989 29.9973 32.2562 31.4227 32.2562 32.6467C32.2562 33.5707 32.6015 34.3654 33.2815 35.0067C33.7762 35.472 34.4162 35.82 35.1148 36.084H34.1402C32.1882 36.084 30.9068 34.548 29.5508 32.9227C28.1615 31.2587 26.7255 29.5374 24.4789 29.5374C21.0215 29.5374 19.7322 31.956 19.7322 33.4813C19.7322 33.524 19.7442 33.5627 19.7562 33.6C19.8242 33.9827 20.1695 34.2533 20.5789 34.2533C21.0335 34.2533 21.4015 33.884 21.4015 33.428C21.4015 32.644 21.1669 31.628 21.9949 30.9613C22.6015 30.5787 23.4149 30.3227 24.4789 30.3227C26.3575 30.3227 27.6149 31.8307 28.9469 33.4267C29.7695 34.4133 30.6095 35.416 31.6269 36.084H29.0589C26.6949 36.084 25.5482 34.332 25.5002 34.2587C25.4388 34.16 25.3362 34.0933 25.2202 34.0787C25.1055 34.064 24.9895 34.0987 24.9028 34.1773C23.7602 35.22 19.9842 35.9093 18.6255 36.088C18.4189 36.1147 18.2708 36.296 18.2828 36.5027C18.2975 36.7093 18.4682 36.8707 18.6762 36.8707Z" />
    <path
        d="M60.8282 39.0307L59.1388 37.3427L60.8975 35.584L62.5855 37.272L60.8282 39.0307ZM61.1749 34.7493C61.0215 34.596 60.7722 34.596 60.6188 34.7493L58.3042 37.064C58.1508 37.2173 58.1508 37.4667 58.3042 37.62L60.5495 39.8653C60.6228 39.9387 60.7229 39.98 60.8282 39.98C60.9322 39.98 61.0308 39.9387 61.1055 39.8653L63.4188 37.5507C63.4935 37.476 63.5348 37.376 63.5348 37.272C63.5348 37.168 63.4935 37.068 63.4188 36.9947L61.1749 34.7493Z" />
</svg>
