<svg
    xmlns="http://www.w3.org/2000/svg"
    width="100%"
    height="100%"
    fill="#000"
    preserveAspectRatio="xMidYMid meet"
    viewBox="0 0 73 34">
    <path
        d="M36.106 7.713c0 4.168 2.7 7.711 6.439 8.994-3.74 1.284-6.439 4.826-6.439 8.996 0 4.252 3.46 7.713 7.714 7.713a6.28 6.28 0 0 0 6.27-6.272 5.124 5.124 0 0 0-5.117-5.117 4.2 4.2 0 0 0-4.195 4.194c0 1.812 1.406 3.287 3.182 3.43q.118.025.235.022l.04.004.025-.005c.776-.052 1.52-.863 2.143-.207.079.084.225.036.22-.078-.024-.606-.513-1.666-1.527-2.127-.867-.395-1.828-.113-2.044.815-.021.088-.02.177-.022.266a2.44 2.44 0 0 1-1.246-2.12 3.19 3.19 0 0 1 3.189-3.188 4.116 4.116 0 0 1 4.11 4.111 5.27 5.27 0 0 1-5.263 5.265 6.715 6.715 0 0 1-6.708-6.706c0-4.579 3.638-8.314 8.173-8.492.113.004.223.017.337.017 1.083 0 2.436-.007 3.952-.017 2.918.02 6.453.056 9.915.09 2.75.028 5.416.055 7.74.074-1.903 1.016-3.492 2.614-5.045 4.185-2.23 2.252-4.335 4.379-7.11 4.379a3.14 3.14 0 0 1-3.137-3.136c0-1.33 1.08-2.41 2.41-2.41 1.007 0 1.825.819 1.825 1.827a.503.503 0 0 0 1.007 0 2.836 2.836 0 0 0-2.833-2.833 3.42 3.42 0 0 0-3.415 3.416 4.15 4.15 0 0 0 4.143 4.144c3.195 0 5.549-2.379 7.826-4.68 2.161-2.184 4.393-4.43 7.414-4.871.798.005 1.523.007 2.142.007a.503.503 0 0 0 .465-.695.503.503 0 0 0-.465-.696c-.62 0-1.344.003-2.144.007-3.02-.44-5.251-2.686-7.412-4.871-2.277-2.3-4.631-4.679-7.826-4.679a4.15 4.15 0 0 0-4.143 4.144 3.42 3.42 0 0 0 3.415 3.416 2.836 2.836 0 0 0 2.833-2.833.503.503 0 0 0-1.007 0 1.83 1.83 0 0 1-1.826 1.827 2.41 2.41 0 0 1-2.409-2.41 3.14 3.14 0 0 1 3.137-3.137c2.775 0 4.88 2.128 7.11 4.38 1.553 1.57 3.14 3.17 5.044 4.184-2.324.02-4.99.047-7.74.075-3.46.033-6.996.069-9.914.089-1.516-.01-2.869-.017-3.952-.017-.114 0-.224.013-.337.017-4.535-.179-8.173-3.913-8.173-8.49a6.715 6.715 0 0 1 6.708-6.709 5.27 5.27 0 0 1 5.264 5.266 4.116 4.116 0 0 1-4.111 4.11 3.19 3.19 0 0 1-3.189-3.188c0-.91.507-1.697 1.246-2.12.001.09 0 .18.021.267.217.928 1.177 1.21 2.045.815 1.014-.462 1.503-1.52 1.527-2.126.005-.114-.141-.164-.22-.08-.622.656-1.365-.153-2.142-.206q-.013-.004-.027-.006l-.04.004a1 1 0 0 0-.23.023c-1.778.14-3.186 1.616-3.186 3.43a4.2 4.2 0 0 0 4.195 4.194 5.124 5.124 0 0 0 5.118-5.117A6.277 6.277 0 0 0 43.82 0c-4.253 0-7.714 3.46-7.714 7.713" />
    <path
        d="M22.87 6.27a5.124 5.124 0 0 0 5.117 5.118 4.2 4.2 0 0 0 4.194-4.195c0-1.813-1.408-3.288-3.185-3.429a1 1 0 0 0-.23-.023l-.042-.004-.026.006c-.776.053-1.52.861-2.14.206-.08-.084-.226-.034-.222.08.025.606.514 1.664 1.527 2.126.868.394 1.829.113 2.045-.815.021-.087.02-.177.022-.267a2.44 2.44 0 0 1 1.244 2.12 3.19 3.19 0 0 1-3.187 3.188 4.115 4.115 0 0 1-4.111-4.11 5.27 5.27 0 0 1 5.264-5.266c3.698 0 6.706 3.01 6.706 6.708 0 4.578-3.636 8.312-8.172 8.491-.112-.004-.222-.017-.336-.017-1.083 0-2.437.006-3.953.017-2.917-.02-6.453-.056-9.914-.09-2.75-.027-5.415-.054-7.74-.074 1.903-1.015 3.492-2.613 5.045-4.184 2.23-2.252 4.335-4.38 7.11-4.38a3.14 3.14 0 0 1 3.137 3.137c0 1.328-1.08 2.41-2.41 2.41a1.83 1.83 0 0 1-1.825-1.827.503.503 0 0 0-1.007 0 2.836 2.836 0 0 0 2.832 2.833 3.42 3.42 0 0 0 3.416-3.416 4.15 4.15 0 0 0-4.144-4.144c-3.195 0-5.548 2.379-7.824 4.679-2.163 2.185-4.394 4.43-7.415 4.87-.799-.003-1.523-.006-2.142-.006a.503.503 0 0 0-.465.696.503.503 0 0 0 .465.695c.619 0 1.342-.002 2.142-.007 3.02.441 5.252 2.687 7.415 4.87 2.276 2.302 4.63 4.68 7.824 4.68a4.15 4.15 0 0 0 4.144-4.143 3.42 3.42 0 0 0-3.416-3.416 2.836 2.836 0 0 0-2.832 2.833.503.503 0 0 0 1.007 0c0-1.008.818-1.827 1.825-1.827 1.33 0 2.41 1.08 2.41 2.41a3.14 3.14 0 0 1-3.138 3.136c-2.774 0-4.88-2.127-7.109-4.379-1.554-1.57-3.142-3.17-5.045-4.185 2.325-.019 4.99-.046 7.74-.074 3.462-.034 6.997-.07 9.914-.09 1.516.01 2.87.017 3.953.017.114 0 .224-.013.336-.017 4.536.178 8.172 3.913 8.172 8.492a6.714 6.714 0 0 1-6.705 6.706 5.27 5.27 0 0 1-5.265-5.265 4.116 4.116 0 0 1 4.11-4.11 3.19 3.19 0 0 1 3.188 3.187 2.44 2.44 0 0 1-1.244 2.12c-.002-.089 0-.178-.022-.266-.216-.928-1.177-1.21-2.045-.815-1.013.461-1.502 1.521-1.527 2.127-.004.114.142.162.221.078.622-.656 1.365.155 2.143.207l.024.005.04-.004A1 1 0 0 0 29 29.65c1.776-.142 3.181-1.616 3.181-3.428a4.2 4.2 0 0 0-4.194-4.194 5.124 5.124 0 0 0-5.118 5.117 6.28 6.28 0 0 0 6.272 6.272c4.252 0 7.712-3.461 7.712-7.713 0-4.17-2.698-7.712-6.438-8.996 3.74-1.283 6.438-4.826 6.438-8.994C36.853 3.46 33.393 0 29.14 0a6.28 6.28 0 0 0-6.27 6.27" />
</svg>
