<svg
    xmlns="http://www.w3.org/2000/svg"
    width="100%"
    height="100%"
    fill="#000"
    preserveAspectRatio="xMidYMid meet"
    viewBox="0 0 92 25">
    <path
        d="M40.425 13.723c-.04.005-.078-.003-.118-.002a.4.4 0 0 0 .118.002m27.051 3.197c-.04-.002-.079.007-.119.001a.4.4 0 0 0 .119 0M85.15 14.89c.02.033.047.062.066.097a.6.6 0 0 0-.065-.098m-27.926-.764c-2.028.962-3.704 2.75-4.845 4.658-.299.497-.727 1.145-.67 1.76.149 1.612 1.767.141 2.173-.47-.206 1.036-.334 3.087.722 3.803 1.599 1.081 2.064-2.468 2.04-3.284.268.61.874 1.684 1.635 1.792 1.175.167.647-1.778.496-2.356-.487-1.879-1.865-3.896-1.55-5.903-.343 2.183-3.211 1.523 0 0m-28.074-.107c-.472-2.045.393-4.228.52-6.271.025-.426.219-2.292-.65-2.062-.622.164-.917 1.435-1.02 1.926-.051-.576-.62-4.06-1.818-3.171-.925.685-.405 3.072-.183 3.917-.365-.57-1.714-1.855-1.673-.317.017.63.412 1.25.721 1.772.978 1.65 2.347 3.347 4.103 4.206-.497-2.151-2.561-1.254 0 0" />
    <path
        d="M.908 19.856c2.659-.154 5.05-.823 7.305-2.279 2.288-1.477 4.226-3.434 6.724-4.575-1.588 1.858-1.793 4.622-.049 6.451 1.625 1.702 5.29 2.236 6.501-.273-2.486 1.88-4.448.892-5.458.11-2.091-1.615-1.132-4.982.89-6.3 2.628-1.714 5.684-.25 8.027 1.216 2.363 1.474 4.544 3.233 6.95 4.638 4.662 2.725 10.377 2.874 15.071.146 5.802-3.37 9.903-9.033 15.212-13.055-2.237 3.066-3.121 7.181-1.75 10.797 1.06 2.799 3.498 4.663 6.413 5.2 3.201.59 6.803-.344 8.172-3.581 1.25-2.954-.12-6.935-3.563-7.455-1.858-.282-3.692.825-4.081 2.717-.176.86.008 1.308.563 1.95.416.478.529 1.268-.359 1.357 1.745.081 3.493-3.26 1.336-3.832 1.136-1.716 3.599-.99 4.61.445s.929 3.478.025 4.943c-1.879 3.045-6.412 2.924-9.17 1.232-2.842-1.747-3.773-5.341-3.19-8.48.686-3.697 3.374-6.82 6.684-8.488 1.738-.876 3.801-1.519 5.498-.181a3.6 3.6 0 0 1 1.27 2c4.73-2.012 10.796-1.05 13.565 3.626 2.125 3.592 3.072 11.29-2.364 12.55-1.248.29-2.67.161-3.67-.703-1.06-.912-1.418-2.563-.645-3.77.69.84 1.914.474 2.264-.46.111-.293.09-.718.29-.971.296-.377.886-.3 1.172.058-1.002-1.726-3.494-.883-4.496.326-1.174 1.413-1.151 3.489-.108 4.97 1.918 2.728 6.086 2.339 8.298.222 2.572-2.463 2.576-6.651 1.644-9.851-.917-3.147-3.01-5.815-5.733-7.61C81.744.955 78.12.063 74.539.001c-4.528-.08-8.827 1.815-12.455 4.402-1.757 1.253-3.392 2.67-4.972 4.137-1.437 1.334-2.784 3.008-4.801 3.422-1.59.325-3.56-.206-4.539-1.573-1.108-1.547-.523-4.343 1.667-4.45.858-.043 3.024.64 2.818 2.954 1.322-2.775-1.302-4.598-3.488-4.117-2.398.527-3.364 3.39-2.473 5.503.936 2.227 3.621 3.287 5.904 2.945-3.957 3.695-8.624 7.376-14.384 6.307-2.06-.383-4.053-1.41-5.175-3.237-1.085-1.774-1.341-4.293-.238-6.114 1.402-2.314 5.106-2.887 6.585-.296-2.176.55-.439 3.916 1.319 3.836-.396-.04-.779-.408-.719-.83.048-.34.43-.568.625-.819.496-.633.423-1.352.178-2.085-.719-2.147-3.035-3.331-5.207-3.02-5.057.723-5.81 7.04-3.161 10.564-2.792-1.71-5.32-3.846-8.219-5.388-2.403-1.28-5.141-1.458-7.735-.67-3.172.963-5.324 3.563-7.886 5.492C5.699 18.838 3.06 19.624 0 19.879zc.288-.016-.577.013 0 0" />
</svg>
