<svg
    xmlns="http://www.w3.org/2000/svg"
    width="100%"
    height="100%"
    fill="#000"
    preserveAspectRatio="xMidYMid meet"
    viewBox="0 0 87 25">
    <path
        d="M79.38 8.743c-4.15 0 7.205-.056-4.759-.11-8.256-.036-16.133-.072-20.189-.082 1.108-.407 2.128-.991 2.892-2.018 1.124-1.509 1.345-4.012-.228-5.584a3.24 3.24 0 0 0-4.58 0 2.68 2.68 0 0 0-.083 3.695 1 1 0 0 0 .058.07l.025.031.01.006c.369.374 1.026.532.886 1.118-.02.082.068.151.136.103.357-.255.807-.97.684-1.768-.103-.683-.653-1.155-1.303-.919-.061.023-.116.059-.17.094a1.74 1.74 0 0 1 .42-1.767 2.305 2.305 0 0 1 3.253 0c1.215 1.215 1.024 3.172.14 4.361-1.093 1.471-2.873 1.894-4.756 2.34-1.39.33-2.825.671-3.988 1.47-.013.009-.019.021-.03.032-2.585 1.55-4.323 4.373-4.323 7.601a7.195 7.195 0 0 0 7.188 7.188 5.85 5.85 0 0 0 5.845-5.844c0-2.63-2.14-4.77-4.77-4.77a3.914 3.914 0 0 0-3.91 3.91c0 1.688 1.312 3.063 2.967 3.195a1 1 0 0 0 .218.022l.038.004c.008 0 .014-.005.024-.005.722-.05 1.417-.804 1.996-.193.073.078.21.033.205-.074-.023-.565-.477-1.552-1.423-1.982-.809-.368-1.704-.106-1.905.76-.02.081-.02.165-.021.249a2.28 2.28 0 0 1-1.16-1.976 2.975 2.975 0 0 1 2.97-2.972 3.836 3.836 0 0 1 3.832 3.832 4.913 4.913 0 0 1-4.906 4.907 6.26 6.26 0 0 1-6.251-6.251c0-4.373 3.559-7.93 7.93-7.93 2.514 0 10.987.035 20.307.077-1.849.94-3.376 2.481-4.869 3.99-2.079 2.099-4.041 4.083-6.627 4.083a2.93 2.93 0 0 1-2.925-2.924 2.25 2.25 0 0 1 2.247-2.245c.938 0 1.702.764 1.702 1.702a.469.469 0 0 0 .938 0 2.644 2.644 0 0 0-2.64-2.641 3.187 3.187 0 0 0-3.184 3.184 3.866 3.866 0 0 0 3.862 3.861c2.978 0 5.172-2.216 7.294-4.36 2.246-2.269 4.569-4.617 7.905-4.617.03 0 .053-.012.081-.016 11.379.05-.996.1 2.947.1a.47.47 0 1 0 0-.937" />
    <path
        d="M39.547 9.803q-.013-.01-.02-.02c-1.164-.799-2.6-1.14-3.99-1.47-1.882-.446-3.661-.869-4.756-2.34-.884-1.19-1.074-3.146.14-4.361.868-.867 2.384-.868 3.252 0 .331.33.514.77.514 1.236 0 .183-.038.36-.092.53-.055-.034-.11-.07-.171-.093-.648-.236-1.199.236-1.303.919-.121.797.327 1.513.686 1.768.068.048.154-.021.136-.103-.14-.588.517-.744.886-1.118l.008-.006.026-.029a1 1 0 0 0 .056-.07A2.67 2.67 0 0 0 34.838.95 3.22 3.22 0 0 0 32.547 0c-.865 0-1.679.337-2.29.95-1.574 1.571-1.351 4.074-.227 5.583.762 1.027 1.782 1.611 2.89 2.018-4.078.01-12.028.046-20.357.082-12.073.054-.83.11-4.98.11a.468.468 0 1 0 0 .937c3.964 0-8.205-.05 3.34-.101.028.005.055.017.084.017 3.337 0 5.661 2.348 7.908 4.619 2.12 2.142 4.315 4.358 7.292 4.358a3.866 3.866 0 0 0 3.863-3.861 3.187 3.187 0 0 0-3.184-3.184 2.644 2.644 0 0 0-2.64 2.641.468.468 0 1 0 .937 0c0-.938.764-1.702 1.703-1.702a2.247 2.247 0 0 1 2.245 2.245 2.927 2.927 0 0 1-2.924 2.924c-2.585 0-4.548-1.983-6.625-4.083-1.495-1.51-3.022-3.05-4.872-3.99a8186 8186 0 0 1 20.308-.078c4.373 0 7.93 3.558 7.93 7.931a6.26 6.26 0 0 1-6.25 6.25 4.913 4.913 0 0 1-4.907-4.906 3.836 3.836 0 0 1 3.83-3.832 2.976 2.976 0 0 1 2.973 2.972 2.28 2.28 0 0 1-1.16 1.976c-.002-.084-.002-.168-.02-.25-.203-.865-1.099-1.127-1.907-.76-.945.431-1.4 1.418-1.423 1.983-.004.107.132.152.206.074.578-.611 1.272.144 1.996.193.009 0 .016.005.024.005l.037-.004a1 1 0 0 0 .219-.022 3.213 3.213 0 0 0 2.965-3.195 3.913 3.913 0 0 0-3.91-3.91 4.775 4.775 0 0 0-4.769 4.77 5.85 5.85 0 0 0 5.846 5.844c3.964 0 7.189-3.224 7.189-7.188 0-3.236-1.747-6.064-4.341-7.613m5.497-5.933c0 1.753-1.1 4.735-1.1 6.3 0-1.607-1.1-4.547-1.1-6.3 0-2.637 2.2-2.622 2.2 0m-.315 5.426c0-3.459 2.57-5.085 3.62-5.085.527 0 .87.269.87.745 0 1.503-4.49 2.1-4.49 4.34" />
    <path
        d="M45.481 9.265c0-1.308 2.898-2.418 3.758-2.418.497 0 .692.117.692.426 0 .808-4.45.68-4.45 1.992m-2.322.031c0-3.459-2.571-5.085-3.622-5.085-.526 0-.868.269-.868.745 0 1.503 4.49 2.1 4.49 4.34" />
    <path
        d="M42.404 9.265c0-1.308-2.897-2.418-3.756-2.418-.499 0-.693.117-.693.426 0 .808 4.449.68 4.449 1.992m44.56-.009s-2.272-1.208-5.112-1.208c-1.955 0-3.54.541-3.54 1.208s1.585 1.208 3.54 1.208c2.735 0 5.112-1.208 5.112-1.208M0 9.256s2.272 1.208 5.112 1.208c1.955 0 3.539-.541 3.539-1.208S7.067 8.048 5.112 8.048C2.377 8.048 0 9.256 0 9.256" />
</svg>
