<svg
    xmlns="http://www.w3.org/2000/svg"
    width="100%"
    height="100%"
    fill="#000"
    preserveAspectRatio="xMidYMid meet"
    viewBox="0 0 81 31">
    <path
        d="M42.059 4.086c0 3.633-1.756 9.813-1.756 13.054 0-3.33-1.758-9.421-1.758-13.054 0-5.463 3.514-5.432 3.514 0m-.503 11.244c0-7.168 4.107-10.538 5.784-10.538.843 0 1.388.559 1.388 1.544 0 3.116-7.172 4.352-7.172 8.995" />
    <path
        d="M42.761 15.267c0-2.71 4.627-5.012 6.002-5.012.794 0 1.106.244 1.106.884 0 1.672-7.108 1.408-7.108 4.128m-3.711.063c0-7.168-4.107-10.538-5.785-10.538-.842 0-1.389.559-1.389 1.544 0 3.116 7.173 4.352 7.173 8.995" />
    <path
        d="M37.843 15.267c0-2.71-4.627-5.012-6.002-5.012-.794 0-1.106.244-1.106.884 0 1.672 7.108 1.408 7.108 4.128M77.17 21.99c-1.454 0-2.726 1.126-2.866 2.46a1 1 0 0 0-.027.212v.009l-.001.018c0 .024.01.044.013.069.067 1.005 1.1 1.093 1.1 1.656 0 .431-.334.647-.569.7.987-.073 1.807-1.133 1.81-2.36a1.2 1.2 0 0 0-.666-1.091c.316-.29.75-.48 1.205-.48 1.3 0 2.244 1.025 2.244 2.437 0 2.297-1.809 3.781-4.61 3.781-2.996 0-5.832-3.273-8.834-6.74-1.55-1.789-3.192-3.682-4.981-5.24.97.285 2.012.48 3.184.48 4.228 0 6.12-2.447 6.12-4.874 0-2.03-1.55-3.561-3.607-3.561-1.516 0-2.841 1.092-3.004 2.392a1 1 0 0 0-.034.22l.004.032-.002.008c0 .01.007.02.007.03.05.882.953.955.953 1.443 0 .375-.292.56-.494.605.854-.061 1.562-.979 1.565-2.04a1.05 1.05 0 0 0-.457-.876 2.07 2.07 0 0 1 1.462-.622c1.4 0 2.418.995 2.418 2.369 0 2.237-1.936 3.682-4.931 3.682-2.056 0-3.733-.695-5.357-1.367-1.575-.654-3.203-1.328-5.106-1.328-.016 0-.03.008-.046.009-.102-.004-.199-.016-.3-.016-.014 0-.026.007-.039.007-.25-.016-.499-.034-.748-.034-7.285 0-12.572 4.547-12.572 10.812 0 4.008 2.497 5.8 4.973 5.8 2.07 0 3.63-1.474 3.63-3.432 0-1.412-1.059-2.652-2.342-2.853a1.3 1.3 0 0 0-.342-.04l-.016-.003-.011.003c-.444.008-.839.17-1.083-.075-.308-.306-.221-.696-.092-.897-.649.748-.477 2.077.39 2.948.454.457 1.198.519 1.71.007a1 1 0 0 0 .171-.231c.257.31.424.715.424 1.141 0 1.299-1.027 2.241-2.439 2.241-2.297 0-3.781-1.809-3.781-4.609 0-5.574 4.787-9.621 11.38-9.621 5.788 0 9.676 4.401 9.676 8.512 0 3.528-2.192 5.718-5.719 5.718-2.154 0-3.781-1.503-3.781-3.497 0-1.552 1.048-2.721 2.439-2.721.372 0 .709.14.974.365a1.28 1.28 0 0 0-.786 1.199c.004 1.31.877 2.442 1.93 2.517-.25-.055-.608-.284-.608-.745 0-.593 1.076-.693 1.17-1.733.005-.033.018-.062.018-.097l-.002-.029.001-.01a1 1 0 0 0-.021-.19 2.693 2.693 0 0 0-2.676-2.47c-2.035 0-3.631 1.72-3.631 3.914 0 2.674 2.139 4.688 4.973 4.688 4.198 0 6.911-2.71 6.911-6.91a8.6 8.6 0 0 0-.393-2.534c.68.75 1.35 1.524 2.017 2.294 3.187 3.678 6.195 7.15 9.735 7.15 4.008 0 5.802-2.496 5.802-4.972 0-2.068-1.477-3.63-3.436-3.63" />
    <path
        d="M57.31 27.264q.06.015.111.016c-.038 0-.074-.012-.112-.016M3.435 21.99c1.453 0 2.725 1.126 2.866 2.46a1 1 0 0 1 .027.212l-.001.009.002.018c0 .024-.01.044-.013.069-.068 1.005-1.101 1.093-1.101 1.656 0 .431.336.647.569.7-.987-.073-1.805-1.133-1.81-2.36a1.2 1.2 0 0 1 .667-1.091 1.8 1.8 0 0 0-1.206-.48c-1.3 0-2.244 1.025-2.244 2.437 0 2.297 1.809 3.781 4.61 3.781 2.996 0 5.832-3.273 8.835-6.74 1.55-1.789 3.192-3.682 4.98-5.24-.97.285-2.01.48-3.184.48-4.228 0-6.12-2.447-6.12-4.874 0-2.03 1.55-3.561 3.607-3.561 1.517 0 2.842 1.092 3.004 2.392a.8.8 0 0 1 .034.22l-.004.032.002.008c0 .01-.006.02-.007.03-.05.882-.95.955-.95 1.443 0 .375.289.56.491.605-.853-.061-1.561-.979-1.564-2.04a1.04 1.04 0 0 1 .458-.876 2.08 2.08 0 0 0-1.464-.622c-1.4 0-2.416.995-2.416 2.369 0 2.237 1.934 3.682 4.929 3.682 2.056 0 3.735-.695 5.357-1.367 1.575-.654 3.203-1.328 5.106-1.328.017 0 .03.008.048.009.1-.004.197-.016.298-.016.015 0 .026.007.039.007.25-.016.499-.034.748-.034 7.285 0 12.572 4.547 12.572 10.812 0 4.008-2.497 5.8-4.972 5.8-2.07 0-3.63-1.474-3.63-3.432 0-1.412 1.06-2.652 2.34-2.853q.176-.043.345-.04l.014-.003.011.003c.444.008.84.17 1.084-.075.307-.306.22-.696.092-.897.648.748.477 2.077-.39 2.948-.454.457-1.2.519-1.711.007a1 1 0 0 1-.171-.231c-.256.31-.423.715-.423 1.141 0 1.299 1.026 2.241 2.439 2.241 2.297 0 3.78-1.809 3.78-4.609 0-5.574-4.785-9.621-11.38-9.621-5.788 0-9.676 4.401-9.676 8.512 0 3.528 2.192 5.718 5.719 5.718 2.156 0 3.781-1.503 3.781-3.497 0-1.552-1.048-2.721-2.439-2.721-.372 0-.709.14-.972.365.486.198.786.674.784 1.199-.002 1.31-.877 2.442-1.929 2.517.25-.055.607-.284.607-.745 0-.593-1.075-.693-1.17-1.733-.005-.033-.017-.062-.017-.097l.003-.029-.002-.01q.001-.093.02-.19a2.693 2.693 0 0 1 2.676-2.47c2.036 0 3.631 1.72 3.631 3.914 0 2.674-2.139 4.688-4.973 4.688-4.198 0-6.908-2.71-6.908-6.91 0-.894.146-1.736.392-2.534-.682.75-1.352 1.524-2.019 2.294-3.185 3.678-6.195 7.15-9.735 7.15C1.793 30.592 0 28.096 0 25.62c0-2.068 1.476-3.63 3.435-3.63" />
    <path d="M23.296 27.264a.5.5 0 0 1-.113.016c.038 0 .076-.012.113-.016" />
</svg>
