<svg
    xmlns="http://www.w3.org/2000/svg"
    width="100%"
    height="100%"
    fill="#000"
    preserveAspectRatio="xMidYMid meet"
    viewBox="0 0 81 34">
    <path
        d="M65.326 24.635c-1.078 1.076-2.864 1.332-4.275 1.022 1.348-.34 2.088-1.415 2.088-3.134 0-1.976-1.66-3.356-4.036-3.356-1.883 0-3.34 1.212-4.883 2.496-2.048 1.704-4.37 3.636-8.41 3.636h-.374c2.75-1.173 4.798-3.178 6.68-5.025 2.498-2.448 4.656-4.563 7.892-4.563 1.61 0 2.902.415 4.019 1.072 1.521.92 2.476 2.272 2.684 3.831.197 1.479-.308 2.943-1.385 4.021m15.202-.952c-.932.948-2.05-.936-3.226-.028a1.55 1.55 0 0 0-.562 1.536c-3.753-.524-5.85-2.934-7.882-5.28-1.29-1.488-2.61-3.002-4.334-4.014-.045-.027-.085-.059-.132-.084-.013-.008-.028-.008-.041-.015-1.208-.673-2.61-1.103-4.343-1.103-3.652 0-6.057 2.358-8.602 4.854-2.886 2.826-5.87 5.75-11.062 5.75v1.016h5.467c4.408 0 6.988-2.146 9.059-3.87 1.458-1.214 2.717-2.262 4.233-2.262 1.807 0 3.02.942 3.02 2.34 0 1.532-.655 2.244-2.057 2.244-.812 0-1.202-.553-1.307-1.072-.015-.096-.03-.19-.03-.294l-.002-.008c.004-.376.156-.746.524-.839a.509.509 0 0 0-.25-.985c-.789.198-1.286.93-1.287 1.828l-.002.004.003.033c.001.09.001.181.013.275l.014.062c.14 1.14.914 2.078 2.185 2.604.655.272 1.45.426 2.272.426 1.373 0 2.824-.427 3.844-1.448 1.305-1.303 1.915-3.079 1.675-4.872-.02-.146-.054-.286-.084-.428q.229.261.456.525c2.445 2.821 4.973 5.737 10.193 5.737.019 0 .037-.009.057-.012.223-.018.452-.07.678-.169 1.148-.497 1.717-1.677 1.757-2.357.008-.128-.156-.186-.247-.094" />
    <path
        d="M34.964 25.3c-4.041 0-6.361-1.933-8.41-3.637-1.542-1.284-3-2.496-4.882-2.496-2.376 0-4.037 1.38-4.037 3.356 0 1.719.74 2.794 2.09 3.134-1.414.309-3.2.054-4.275-1.022-1.08-1.078-1.584-2.542-1.386-4.021.207-1.557 1.16-2.908 2.679-3.828 1.12-.66 2.412-1.075 4.023-1.075 3.237 0 5.394 2.115 7.893 4.563 1.883 1.845 3.93 3.852 6.68 5.025zm-5.594-5.753c-2.547-2.494-4.952-4.852-8.604-4.852-1.732 0-3.135.43-4.343 1.103-.013.007-.028.007-.041.015-.047.026-.088.057-.135.085-1.723 1.01-3.041 2.525-4.332 4.013-2.03 2.346-4.127 4.756-7.88 5.28l.004-.012a1.54 1.54 0 0 0-.568-1.524c-1.175-.908-2.293.976-3.225.028-.091-.092-.254-.034-.246.094.039.68.61 1.86 1.758 2.357.224.099.453.15.676.17.02.002.037.011.058.011 5.219 0 7.747-2.917 10.192-5.738l.455-.524c-.028.141-.063.282-.083.428-.24 1.793.37 3.569 1.675 4.872 1.02 1.021 2.472 1.448 3.844 1.448.823 0 1.617-.154 2.273-.426 1.272-.526 2.047-1.466 2.186-2.608.002-.02.009-.04.012-.058.01-.09.01-.175.013-.262l.004-.046-.001-.007c-.003-.896-.5-1.627-1.29-1.825a.507.507 0 1 0-.25.985c.369.093.522.463.525.839l-.001.008c0 .104-.016.198-.03.294-.105.518-.494 1.072-1.308 1.072-1.404 0-2.057-.712-2.057-2.244 0-1.398 1.213-2.34 3.021-2.34 1.516 0 2.775 1.048 4.232 2.262 2.072 1.724 4.652 3.87 9.06 3.87h5.467V25.3c-5.193 0-8.177-2.924-11.061-5.752m11.286-6.291c.187-.247.202-.728.311-1.05.208-.614 1.524-1.024 1.524-2.486 0-2.704-1.301-3.576-1.877-5.034a.29.29 0 0 0-.54 0c-.576 1.458-1.878 2.33-1.878 5.034 0 1.462 1.318 1.872 1.526 2.486.108.322.124.804.309 1.05z" />
    <path
        d="M44.55 22.035c-.38-2.42-1.752-4.118-3.43-5.302 2.135-1.09 4.495-1.49 5.65-1.628-.003.033-.012.064-.012.098 0 2.582-.951 5.004-2.208 6.832m-4.251 3.25c-1.035-.066-2.319-.9-3.473-2.238.012-2.758 1.485-4.573 3.336-5.765 2.25 1.441 3.409 3.43 3.468 5.924-1.118 1.243-2.338 2.016-3.331 2.079m-6.467-10.156c1.02.138 2.802.47 4.564 1.228q.404.175.782.365c-1.618 1.15-2.923 2.783-3.272 5.099-1.187-1.803-2.066-4.136-2.066-6.618 0-.025-.006-.049-.008-.074M40.23 1.085c5.744 3.172 6.582 10.988 6.702 12.978-1.174.126-4.194.575-6.793 2.048-2.559-1.448-5.47-1.91-6.615-2.042.119-1.984.947-9.806 6.706-12.984m11.997 13.613a5.54 5.54 0 0 0-3.207-1.072c-.41 0-.772.06-1.084.164a23.6 23.6 0 0 0-.916-5.025C45.787 4.65 43.52 1.64 40.464.058a.5.5 0 0 0-.468 0c-3.056 1.583-5.322 4.593-6.557 8.707a23.5 23.5 0 0 0-.913 4.977 3.6 3.6 0 0 0-.948-.116c-1.11 0-2.308.4-3.207 1.072-.79.592-1.733 1.668-1.733 3.437a.508.508 0 1 0 1.016 0c0-1.348.72-2.17 1.326-2.622a4.5 4.5 0 0 1 2.598-.871c.6 0 1.246.176 1.246.561 0 5.491 3.943 10.671 7.198 11.083.046.013.093.03.145.03.044 0 .088-.006.132-.007.044.001.088.006.132.006.052 0 .099-.016.147-.029 3.253-.413 7.196-5.592 7.196-11.083 0-.385.645-.561 1.246-.561.898 0 1.868.325 2.598.87.605.453 1.326 1.275 1.326 2.623a.508.508 0 1 0 1.016 0c0-1.769-.942-2.845-1.733-3.437" />
    <path
        d="M40.43 33.885a.51.51 0 0 1-.508-.508c0-3.048-2.604-3.727-5.362-4.447-2.658-.693-5.406-1.412-5.406-4.44a.507.507 0 0 1 1.016 0c0 2.092 1.754 2.701 4.646 3.456 2.184.57 4.59 1.197 5.615 3.153 1.025-1.956 3.43-2.584 5.613-3.153 2.892-.755 4.647-1.364 4.647-3.456a.508.508 0 0 1 1.016 0c0 3.028-2.747 3.747-5.406 4.44-2.758.72-5.362 1.399-5.362 4.447 0 .28-.228.508-.508.508" />
</svg>
