<svg
    xmlns="http://www.w3.org/2000/svg"
    width="100%"
    height="100%"
    fill="#000"
    preserveAspectRatio="xMidYMid meet"
    viewBox="0 0 71 44">
    <path
        d="M13.305 17.752C17.052 11.66 25.836 7.327 45.639 7.327c5.222 0 9.355-.32 12.605-.777-4.144 1.042-8.747 1.67-13.266 2.286-9.416 1.283-18.312 2.495-21.274 7.51-.932 1.576-1.22 3.416-.896 5.552a4.98 4.98 0 0 0-5.717.62 4.12 4.12 0 0 0-1.386 2.849 4.12 4.12 0 0 0 1.035 2.993.788.788 0 0 0 1.179-1.044 2.55 2.55 0 0 1-.64-1.854 2.54 2.54 0 0 1 .857-1.764 3.41 3.41 0 0 1 4.8.287 4.42 4.42 0 0 1 1.112 3.22 4.42 4.42 0 0 1-1.489 3.06 5.76 5.76 0 0 1-8.126-.49c-2.99-3.372-3.377-7.392-1.15-11.945.013-.026.012-.054.022-.078M0 40.44c.088.986.97 2.67 2.657 3.338.373.15.75.218 1.113.221l.01.001c6.918 0 6.918-9.765 6.918-15.013q0-1.2.076-2.385c.483 1.485 1.304 2.893 2.479 4.218a7.32 7.32 0 0 0 5.49 2.465 7.3 7.3 0 0 0 4.86-1.842c1.944-1.724 2.502-4.431 1.6-6.719l-.002-.016c-1.226-3.176-1.272-5.65-.142-7.561 2.575-4.359 11.103-5.52 20.13-6.75 2.727-.371 5.481-.748 8.16-1.218q-.894.274-1.784.544c-8.81 2.67-17.132 5.195-17.236 12.44-.001.044-.006.087-.005.13v.006l.001.005c.044 1.238 1.163 2.51.046 3.404-.147.118-.089.361.099.37.987.042 2.773-.606 3.66-2.19.76-1.355.434-2.955-1.043-3.432a2.1 2.1 0 0 0-.9-.087c1.47-4.782 8.468-6.906 15.835-9.138 5.537-1.677 11.231-3.408 15.254-6.399.37.222.798.358 1.261.358a2.468 2.468 0 1 0-2.467-2.47c0 .114.02.222.034.331-2.769 1.083-8.846 2.7-20.465 2.7-25.937 0-36.516 6.732-36.516 23.235 0 5.719-.438 11.08-3.177 12.833a2.26 2.26 0 0 0-.919-1.716c-1.747-1.262-3.28 1.522-4.674.19-.135-.13-.37-.04-.352.146" />
</svg>
