<svg
    xmlns="http://www.w3.org/2000/svg"
    width="100%"
    height="100%"
    fill="#000"
    preserveAspectRatio="xMidYMid meet"
     viewBox="0 0 100 16">
    <path d="M17.823 10.167c-.005-.032.002-.064 0-.099a.5.5 0 0 0 0 .099" />
    <path
        d="M41.32.023c-3.094 0-6.128 1.089-8.486 3.096-.146-1.603-1.474-2.612-3.04-2.434.908.238 1.72.664 2.05 1.603.304.859.05 1.607-.475 2.287-1.31 1.696-2.437 3.688-2.273 5.912-.526-.604-1.05-1.208-1.603-1.787-.373-.39-.796-.73-1.04-1.223-.493-.998-.337-2.254.83-2.608-1.169-.229-1.877.875-1.878 1.931-1.821-1.359-3.963-1.955-6.213-1.495-2.143.439-3.803 1.95-4.226 4.124-.84-1.068-2.197-1.488-3.516-1.468-1.985.031-3.54 1.324-4.817 2.715-.647.705-1.244 1.456-1.9 2.152-.564.596-1.244 1.297-2.095 1.43-.77.12-1.688-.195-1.978-.974-.259-.696.052-1.443.781-1.637-.977-.23-1.55.809-1.424 1.66.17 1.154 1.28 1.752 2.37 1.744 2.218-.016 3.74-2.683 5.105-4.09 1.521-1.568 3.713-2.864 5.894-1.725 1.878.98 2.063 4.1-.125 4.843-1.097.372-2.364-.206-2.552-1.412-.088-.563.127-1.142.624-1.455.344.67.984.443 1.424.076.296-.245.93-.335.848.279.162-1.202-1.352-1.694-2.276-1.382a2.35 2.35 0 0 0-1.573 2.216c-.002 1.282.948 2.415 2.196 2.675 1.517.315 3.072-.647 3.604-2.07 1.842 2.953 6.782 2.822 7.553-.938.335-1.633-.559-3.31-2.177-3.821-1.25-.396-3.204.23-3.11 1.821.029-.325.322-.655.671-.615.26.03.423.278.607.435.621.535 1.61.553 1.917-.363 1.47.758 1.45 2.78.356 3.858-1.036 1.021-2.627 1.021-3.83.309-2.807-1.661-2.003-5.94.77-7.143 3.437-1.49 6.532.647 8.793 3.095 2.068 2.239 4.607 6.463 8.24 5.287 1.494-.486 2.522-2.063 1.877-3.606-.31-.74-1.034-1.248-1.849-1.189-.429.03-.834.23-1.102.575-.058.073-.428.774-.27.832.106-1.026 1.428-1.362 2.156-.74.755.645.57 1.797.007 2.49-1.757 2.167-5.365.099-6.005-2.085-.626-2.136.61-4.479 1.958-6.07a11.9 11.9 0 0 1 5.302-3.56c4.008-1.334 9.333-.573 11.145 3.755.757 1.811.721 4.01-.468 5.627-1.204 1.64-3.452 2.43-5.424 1.93-2.248-.57-3.71-3.029-2.82-5.255.861-2.148 4.31-3.096 5.49-.678-1.231-.044-1.582 1.278-1.023 2.155.164.26.421.512.372.843-.06.404-.559.697-.944.577 1.441.447 2.885-1.144 2.812-2.507-.083-1.52-1.055-2.826-2.526-3.257-3.409-.999-6.113 2.479-5.154 5.653.988 3.271 4.852 4.299 7.741 2.928 2.933-1.39 3.995-4.789 3.013-7.769C48.478 2.068 44.9.023 41.32.023" />
    <path
        d="M99.45 12.344c-.231-.505-.76-.828-1.313-.697.73.194 1.041.942.781 1.637-.28.756-1.14 1.064-1.894.985-.887-.094-1.599-.828-2.177-1.44-.656-.698-1.254-1.448-1.9-2.153-1.247-1.355-2.771-2.648-4.704-2.71-1.355-.045-2.764.362-3.631 1.463-.421-2.173-2.081-3.686-4.225-4.124-2.251-.46-4.391.136-6.213 1.495 0-1.056-.713-2.16-1.877-1.93 1.164.358 1.324 1.606.828 2.607-.243.492-.668.834-1.04 1.223a51 51 0 0 0-1.601 1.787c.164-2.224-.965-4.216-2.273-5.912-.525-.68-.78-1.43-.477-2.287.333-.937 1.143-1.365 2.053-1.603-1.569-.178-2.895.831-3.043 2.435C63.59.435 58.819-.868 54.848.633 51.496 1.9 49.05 5.31 49.66 8.97c.616 3.71 4.83 6.098 8.317 4.524 3.439-1.553 4.122-6.929.35-8.562-1.807-.784-4.138-.138-4.978 1.721-.396.875-.49 1.845.02 2.687.49.81 1.481 1.496 2.463 1.193-.37.115-.848-.15-.936-.53-.08-.349.19-.617.364-.89.557-.877.21-2.199-1.023-2.155 1.004-2.058 3.956-1.7 5.119-.016 1.205 1.748.577 4.242-1.152 5.383-1.704 1.123-4.11.852-5.707-.34-1.64-1.227-2.236-3.277-1.893-5.248.801-4.587 5.663-6.31 9.79-5.601 4.093.701 8.723 4.004 9.151 8.456.14 1.445-.37 2.485-1.441 3.418-1.116.974-2.605 1.636-4.03.848-.887-.489-1.51-1.748-.947-2.696.575-.968 2.336-.885 2.45.382.115-.043-.141-.642-.173-.694a1.5 1.5 0 0 0-.882-.664c-.753-.212-1.565.155-1.985.795-.741 1.133-.308 2.768.775 3.507 3.33 2.27 6.292-1.58 8.23-3.799 2.228-2.552 4.86-5.197 8.557-4.49 1.57.298 2.895 1.229 3.43 2.775.493 1.428.31 3.063-.781 4.168-1.083 1.096-2.936 1.455-4.226.511-1.346-.99-1.602-3.281.04-4.127.307.916 1.295.898 1.918.363.182-.157.345-.405.605-.435.35-.04.643.29.672.615.097-1.663-1.983-2.24-3.248-1.773-1.57.581-2.39 2.249-2.021 3.854.845 3.695 5.71 3.783 7.534.858.535 1.43 2.086 2.376 3.606 2.07 1.248-.252 2.196-1.4 2.195-2.676 0-.985-.631-1.898-1.574-2.216-.922-.309-2.436.178-2.276 1.382-.082-.62.553-.519.848-.279.443.361 1.079.596 1.424-.076 1.235.78.528 2.592-.692 2.925-2.204.602-3.392-2.05-2.507-3.76.974-1.88 3.647-1.874 5.252-.906 1.863 1.124 2.987 3.078 4.582 4.502.86.77 1.867 1.275 3.043.991 1.113-.268 2.077-1.447 1.526-2.62.114.243-.23-.505 0 0" />
    <path d="M81.757 10.068c-.003.033.004.067 0 .099a.5.5 0 0 0 0-.099" />
</svg>
