<svg
    xmlns="http://www.w3.org/2000/svg"
    width="100%"
    height="100%"
    fill="#000"
    preserveAspectRatio="xMidYMid meet"
    viewBox="0 0 66 28">
    <path
        d="M15.517 9.948c.226-3.76 2.372-6.364 6.38-7.737.022-.008.037-.025.058-.036C27.771.79 35.523 3.422 47.227 15.125c3.084 3.086 5.716 5.34 7.908 6.99-3.065-1.834-6.157-4.181-9.19-6.49-6.324-4.806-12.298-9.347-17.012-8.134-1.483.381-2.74 1.296-3.811 2.752a4.17 4.17 0 0 0-3.745-3.012 3.43 3.43 0 0 0-2.503.865 3.44 3.44 0 0 0-1.159 2.38.658.658 0 0 0 1.315.079c.034-.57.29-1.095.717-1.474.43-.38.979-.57 1.55-.535a2.85 2.85 0 0 1 2.668 3.006 3.7 3.7 0 0 1-1.246 2.56 3.7 3.7 0 0 1-2.69.93 4.817 4.817 0 0 1-4.512-5.094M.28 11.265c.133.308.314.573.527.788l.004.007c4.09 4.09 9.862-1.682 12.963-4.784q.71-.71 1.455-1.365c-.592 1.163-.94 2.48-1.03 3.96a6.1 6.1 0 0 0 1.79 4.7 6.1 6.1 0 0 0 3.961 1.784 5.035 5.035 0 0 0 4.915-3.026q.005-.003.008-.01c1.155-2.603 2.59-4.092 4.385-4.552 4.099-1.053 9.824 3.298 15.887 7.907 1.83 1.391 3.682 2.797 5.542 4.102l-1.376-.732c-6.783-3.63-13.193-7.056-17.538-2.835q-.042.035-.08.074l-.003.002-.001.006c-.707.756-.796 2.17-1.987 2.037-.156-.016-.265.163-.16.277.559.61 1.998 1.28 3.459.87 1.25-.352 2.001-1.49 1.412-2.646a1.8 1.8 0 0 0-.482-.582c3.697-1.957 9.088.922 14.76 3.958 4.264 2.282 8.651 4.623 12.797 5.233.088.35.26.684.534.957a2.062 2.062 0 1 0 0-2.916c-.066.067-.12.14-.176.214-2.276-.997-6.822-3.633-13.69-10.5C32.83-1.136 22.598-3.409 12.844 6.346c-3.379 3.378-6.806 6.288-9.462 5.705.38-.412.562-.995.473-1.558-.287-1.778-2.839-1.038-2.876-2.65-.004-.155-.195-.24-.295-.121-.53.634-1.004 2.152-.402 3.543" />
</svg>
