<svg
    xmlns="http://www.w3.org/2000/svg"
    width="100%"
    height="100%"
    fill="#000"
    preserveAspectRatio="xMidYMid meet"
    viewBox="0 0 76 21">
    <path
        d="M.613 1.49c.772 0 1.679-.002 2.7-.005 4.024.466 9.019 3.619 12.104 3.619 2.9 0 3.339-3.603.299-3.673l5.808-.032c4.15.181 7.092 3.142 9.937 6.018 2.772 2.802 5.642 5.7 9.534 5.7a5.055 5.055 0 0 0 5.049-5.049 4.166 4.166 0 0 0-4.163-4.161 3.456 3.456 0 0 0-3.452 3.452.614.614 0 0 0 1.227 0c0-1.227.999-2.226 2.225-2.226a2.94 2.94 0 0 1 2.936 2.935 3.827 3.827 0 0 1-3.822 3.823c-3.38 0-5.947-2.592-8.662-5.336-1.934-1.956-3.91-3.952-6.3-5.183l3.812-.023c9.85-.058 19.152-.113 22.667-.113 5.48 0 9.97 4.277 10.332 9.667.007.244.016.485.035.724-.014 4.494-3.674 8.146-8.171 8.146a6.42 6.42 0 0 1-6.415-6.413 5.014 5.014 0 0 1 5.01-5.01 3.89 3.89 0 0 1 3.884 3.885c0 1.11-.616 2.069-1.516 2.584-.003-.111-.002-.22-.027-.327-.264-1.13-1.435-1.472-2.492-.992-1.235.563-1.83 1.853-1.86 2.592-.005.139.172.197.27.096.755-.799 1.662.187 2.609.252.01 0 .02.007.032.007.016 0 .032-.006.049-.006q.14.002.281-.028c2.166-.172 3.88-1.969 3.88-4.178a5.116 5.116 0 0 0-5.11-5.111 6.243 6.243 0 0 0-6.236 6.236c0 4.213 3.428 7.64 7.641 7.64 4.039 0 7.48-2.565 8.807-6.148.664 1.981 1.786 3.653 3.306 4.819.978.748 2.283 1.197 3.606 1.197 1.321 0 2.658-.447 3.701-1.492a4.2 4.2 0 0 0 1.241-2.993c0-1.13-.441-2.194-1.241-2.994-1.327-1.326-3.453-1.354-4.83-.106a1 1 0 0 0-.093.076c-.012.012-.026.018-.038.03l-.008.012c-.49.483-.695 1.343-1.462 1.16-.106-.025-.197.09-.133.178.332.468 1.268 1.054 2.31.896.893-.136 1.509-.856 1.2-1.704-.029-.08-.075-.151-.12-.223a2.28 2.28 0 0 1 2.307.55c.568.567.882 1.323.882 2.125 0 .804-.314 1.558-.882 2.126-1.589 1.592-4.193 1.338-5.694.188-1.987-1.524-3.215-4.057-3.463-7.058l.003-.038c0-.266-.023-.529-.04-.793-.003-.101-.015-.201-.015-.304l-.003-.01C63.491 4.622 58.532.01 52.512.01c-3.517 0-12.823.055-22.673.114L21.54.172c-.137-.007-.273-.019-.413-.019-.036 0-.067.015-.102.022C12.461.224 4.672.264.613.264a.614.614 0 0 0 0 1.227" />
</svg>
