<svg
    xmlns="http://www.w3.org/2000/svg"
    width="100%"
    height="100%"
    fill="#000"
    preserveAspectRatio="xMidYMid meet"
    viewBox="0 0 51 43">
    <path
        d="M20.9 36.095c1.77 1.192 5.983 3.793 11.122 5.364H16.787c1.86-1.245 3.621-3.255 4.113-5.364m.967-21.96c0 12.253 9.002 23.602 20.36 27.324h-2.253c-9.651 0-19.103-6.945-19.197-7.014a.641.641 0 0 0-1.023.514c0 3.237-4.35 6.5-6.345 6.5H7.413a.64.64 0 1 0 0 1.281h42.654a.6.6 0 0 0 .236-.048c.025-.01.045-.026.07-.04.044-.026.087-.05.125-.084.022-.021.04-.048.06-.072a1 1 0 0 0 .076-.113c.016-.033.025-.063.036-.096.008-.027.022-.05.027-.078a.64.64 0 0 0-.035-.334c-.009-.025-.02-.043-.031-.064a.7.7 0 0 0-.088-.13l-.051-.055a.7.7 0 0 0-.135-.089c-.02-.01-.036-.023-.056-.03q-.008-.006-.017-.01c-.12-.042-10.971-4.04-12.243-11.843.14.043.28.082.44.1.816.091 1.64-.323 2.075-1.02 1.116-1.797-1.711-3.108-.503-4.562.117-.141.014-.364-.168-.335-.956.154-2.545 1.13-3.084 2.827-.07.217-.107.435-.128.65-.002.016-.011.029-.013.045-.305 4.26 1.896 8.267 6.373 11.6a28 28 0 0 0 3.526 2.224C33.92 39.26 23.148 27.237 23.148 14.136c0-7.93 4.764-12.855 12.432-12.855 5.6 0 10.156 4.556 10.156 10.156 0 4.41-3.587 7.998-7.997 7.998a6.28 6.28 0 0 1-6.27-6.271 4.89 4.89 0 0 1 4.888-4.887c1.286 0 2.422.646 3.105 1.628-1.24-.124-2.192.888-2.331 2.247-.184 1.77.883 3.3 1.698 3.822.155.1.34-.063.288-.24-.498-1.717 2.255-1.878 2.3-3.656l.003-.02a5.07 5.07 0 0 0-5.063-5.062 6.175 6.175 0 0 0-6.168 6.168c0 4.164 3.386 7.552 7.55 7.552 5.116 0 9.278-4.162 9.278-9.279C47.017 5.13 41.887 0 35.58 0c-8.331 0-13.713 5.548-13.713 14.136" />
    <path
        d="M14.345 38.459a.64.64 0 0 0-.64-.64c-6.85 0-12.423-5.574-12.423-12.423 0-5.41 4.4-9.812 9.81-9.812 4.256 0 7.72 3.464 7.72 7.72a6.056 6.056 0 0 1-6.048 6.05 4.716 4.716 0 0 1-4.71-4.711 3.644 3.644 0 0 1 3.64-3.64c.912 0 1.716.446 2.224 1.126-.933.02-1.633.823-1.74 1.88-.154 1.476.736 2.752 1.417 3.188.129.084.283-.052.24-.2-.425-1.465 1.983-1.574 1.913-3.155.002-.02.01-.037.01-.055a4.07 4.07 0 0 0-4.064-4.066 4.927 4.927 0 0 0-4.922 4.922 5.997 5.997 0 0 0 5.992 5.99c4.042 0 7.33-3.288 7.33-7.329 0-4.962-4.039-9.001-9.002-9.001C4.975 14.303 0 19.28 0 25.396 0 32.952 6.148 39.1 13.705 39.1a.64.64 0 0 0 .64-.641" />
</svg>
