<svg
    width="100%"
    height="100%"
    viewBox="0 0 132 141"
    fill="#f8e6d3"
    opacity="0.5"
    preserveAspectRatio="meet xMidYMid"
    xmlns="http://www.w3.org/2000/svg">
    <path
        fill-rule="evenodd"
        clip-rule="evenodd"
        d="M10.79 94.16c-.113.028-.265.113-.298.208-.064.18-.056.387-.104.803-.244.526.351 1.022.576 1.62.027.072.287.146.337.102q.744-.648 1.441-1.347c.066-.066.073-.284.015-.366-.475-.677-1.018-1.257-1.967-1.02m-2.026 1.88c-.134-.448-.492-.76-1.036-.692-.119.038-.257.052-.348.125-.033.026.013.229.08.288.411.368.67.775.552 1.367-.05.249-.023.523.02.777.013.087.174.207.275.215.501.04 1.063-.631.806-1.006-.242-.35-.242-.713-.349-1.074m6.603 4.07c-.103-.133-.215-.364-.43-.237-.16.094-.4.379-.378.41.34.456-.15.813-.114 1.218.005.054.073.103.142.193l.441-.252c.732-.413.814-.719.34-1.332m-8.7-10.243c-.07-.016-.237.097-.252.172-.037.19-.012.393-.012.59h.035c0 .265-.019.532.007.793.017.17.136.233.24.167.36-.226.56-.537.528-.983-.019-.271-.28-.678-.546-.74m32.556 26.99c.01-.004-.006-.109-.035-.148-.417-.557-1.069-.664-1.616-.946-.122.178-.233.271-.246.376-.013.106.051.307.118.324.16.04.315.088.472.134.071.088.152.173.277.248.052-.062.034-.116 0-.168.234.08.465.175.686.301.071.04.231-.069.344-.121M9.746 98.967c-.217-.074-.507.142-.532.397-.047.477.082.737.378.759.207.015.706-.32.754-.508.045-.174-.298-.545-.6-.648m3.805-1.414c-.023-.05-.086-.081-.13-.121-.043.05-.119.098-.12.149a48 48 0 0 0-.01 1.522c0 .055.057.143.103.153s.113-.052.163-.092c.512-.406.527-.507.213-1.095-.088-.164-.139-.347-.219-.516m-2.367-4.775c-.007-.055-.084-.147-.122-.144-.304.026-.642.52-.597.873.007.057.075.105.115.158.274-.038.643-.57.604-.887m.113 8.401c-.05.166-.126.343.082.477.082-.048.25-.123.242-.147-.047-.16-.13-.309-.203-.462-.042.044-.106.081-.12.132m32.01 24.996c.112.001.226-.092.34-.143-.112-.055-.223-.15-.335-.152-.032-.001-.065.018-.097.03-.186-.112-.438-.223-.503-.107.103.057.141.126.086.211q.217.094.368.114a.3.3 0 0 0 .141.047M20.605 34.893c-.068.039-.09.157-.124.257.098-.025.21-.042.258-.105.077-.1-.023-.215-.134-.152m-.124.257-.054.015v.04l.038-.004zm-.301.3c.013.054.146.076.245.107l.001-.351c-.144.018-.299.04-.247.245m.247.106v.05l.024-.004.015-.034zM6.937 46.54c-.01.003-.024.12-.007.129.08.042.167.07.252.102-.017-.133-.03-.27-.245-.23m.245.229.011.067c.02.005.037.002.056.005-.002-.02-.014-.03-.014-.05zm-1.78 2.797.14-.131c-.072-.191-.168-.2-.265-.014-.01.02.081.095.125.145m-1.257 1.785c-.05.01-.076.149-.108.252h.343c-.025-.134-.035-.294-.235-.252m-.512.653-.053-.001-.01.068q.029-.011.056-.024c0-.017.006-.028.007-.043m.348-.352c-.208.027-.333.135-.348.352l.347.004zm-.411.419c-.08.032-.162.06-.237.102-.017.009-.005.119.003.12.2.03.218-.095.234-.222m23.51 62.037c.038-.037.107-.072.11-.111.001-.039-.063-.082-.097-.123l-.116.175zm6.267 1.879c.06.152.146.178.218.078.021-.03.01-.083.012-.125-.037-.022-.085-.07-.11-.061-.049.02-.127.089-.12.108m7.233 9.232c-.006.038.064.086.102.13l.14-.118-.122-.136c-.044.042-.115.078-.12.124m7.451.805c-.03-.038-.08-.13-.1-.124-.184.063-.19.159-.018.249.014.007.077-.08.118-.125m64.703-102.026c.197-.326.091-.786-.373-1.33-.347.276.314.894.373 1.33M67.18 7.416c-.795-.075.972-.21.021-.381.023.277-.804.02-1.137.077-.168.307.94.58 1.116.304M40.846 9.71c-.583.194-.643.45-.459.735.577-.192.638-.45.46-.734m34.471-1.692c-.416.036-.706.176-1.18.163.011-.28-2.815-.917-3.356-.472 1.47.214 2.811.377 4.164.634l2.077.36 2.227.45c-.308-.45-1.062-.594-1.846-.701-.787-.104-1.612-.123-2.086-.434m-5.133-1.133c-.76-.072-.815.339-1.622.233.286.317-.617.425-.039.507.293-.422 1.316-.346 1.661-.74M4.1 51.024c.228-.931.516-1.513.73-2.02-.16-.042-.398.51-.57 1.05-.177.538-.222 1.08-.16.97m30.343-27.788c.351-.236.504-.05.886-.354-.048-.292-1.118.145-.886.354M78.425 2.112l.491.116c.067-.148-.15-.228-.1-.372-.309-.062-.562-.075-.689.012.485.089.56.152.298.244m4.16 9.683.698.244c.185-.341-.652-.523-.698-.244m3.113-2.77c-.099-.12-.888-.508-1.036-.366.408.069.731.529 1.036.366m.6 3.821c-.43-.166-.789-.246-1.034-.194.337.055 1.034.535 1.034.194m1.835-.186c.18-.101-.134-.292-.423-.397-.297-.087-.565-.096-.269.1.213-.193.312.24.692.298m.272.124c.59.316.726.207 1.094.506.214-.238-1.074-.733-1.094-.506m7.095 3.342c-.295-.25-.406-.254-.528-.61-.055.098-.267-.066-.342-.004.086.16.555.698.87.614m4.25-5.854c-.36-.146-1.059-.81-1.099-.457.42.23.958.653 1.1.457m-.267 10.182a8 8 0 0 1 1.09 1.012c.084-.24-.775-.975-1.09-1.012m6.257.057c.306.258.59.458.814.495-.119-.322-.607-.552-.814-.495m1.694 4.835c-.298-.306-.813-.647-.663-.841.231.143.588.674.73.55-.518-.924-1.739-1.162-2.639-1.812.447.7 1.972 1.813 2.572 2.103m10.995 4.543c.278.392.575.196.536.01l-.299-.398c-.202.07.036.353-.237.388m2.752 7.368c-.712-.658-.489-1.086-1.159-1.741-.038.305.793 1.994 1.159 1.74m3.336 6.623c.13-.071.253-.075.369.014-.451-.812-.567-1.556-1.075-2.181.057.269-.492-.093-.658-.576-.078.067-.227.083-.157.258.57.958 1.352 1.123 1.521 2.485m.715-.5.296.763c.33.13-.149-1.105-.296-.763m-.212 2.04c.107-.074.31-.065.255-.282-.448.153-.007-.905-.505-.84.1.398.133.533.25 1.123m-5.035 60.813c-.289.166-.154.401-.55.826.112.335.722.024.664-.363-.134.148-.29.261-.425.321-.054-.155.443-.651.311-.784M94.88 128.775c.622-.392 1.258-.676 1.193-.91-.45.467-1.29.598-1.57.91.184-.082.361-.153.377 0m-15.338 5.842c.368-.125.672-.265.736-.456-.424.114-1.027.186-.736.456m-14.587 2.481c-1.228.165-1.844.108-2.834.17.817.177 1.954.306 2.675.006-.3-.026.067-.092.16-.176m-1.683-.556c.358-.185.982-.285 1.302-.528-.763.088-1.155.049-1.302.528m-1.322.043c.336-.197.68.306 1.158.038q.034-.316-.336-.435c-.454.091-.88.196-1.483.204.141.305.018.209.162.515-.269-.036-.45.098-.167.163.21-.225.977-.147 1.163-.383-.195-.021-.47-.002-.497-.102m-2.683.821c.827.521.037.114.672.032.394-.051.951.193 1.177-.122-.775.081-1.146-.081-1.849.09m-5.196-.498c.561.05 1.997.213 1.854.082-.746-.111-1.427-.183-1.854-.082m-2.231-1.099c.413.054.535-.079.827.125.207-.313-.936-.486-.827-.125m-1.579-1.629c.56.008.678.174.982.079-.108-.086-1.078-.401-.982-.079m-1.896-9.531c.428.109.855.42 1.244.31l.056-.249c-.557-.142-.838-.013-1.3-.061m-6.526 1.38c.512.063.736.312 1.02.275-.104-.057-.143-.126-.088-.211-.43-.156-.914-.38-.932-.064m-3.194 1.509c.155.091.19.189.225.287.696.068.921.16 1.444.174-.64-.299-.742-.243-1.144-.511.114.377-.509-.155-.525.05m-2.291-10.658c.42.204.64.415.897.624.281-.652.971.722 1.407.218-.31-.079-1.008-.243-.777-.558.52-.044 1.167.789 1.324.349-.817-.296-1.349-.512-1.87-1.041.326.638-.478.124-.2.669-.265-.095-.746-.597-.78-.261m-14.605-.73c-.378.223.155.595.474.646-.4-.269-.076-.377-.474-.646m-5.201-2.243c.43.135-.56-1.058-.86-1.172-.008.369-.164.69.001 1.123.22-.041.39-.257.69-.008.034.199 1.005 1.386 1.157 1.104-.264-.423-.622-.682-.989-1.047m24.209 6.486.031.007-.025-.021zm29.82 12.352.01.07.77-.187z" />
    <path
        fill-rule="evenodd"
        clip-rule="evenodd"
        d="m131.766 68.634-.321-5.337-.087-1.278-.171-1.245-.336-2.391c-.411-.618-.34-2.958-1.143-3.49-.045-.931-.053-1.26-.453-2.111.554.239-.216-.998.195-.922-.371-.693-.219-1.67-.606-1.908.189 1.017.593 1.594.279 2.002-.155-.968-.648-1.904-.458-2.645-.287-.716-1.117-1.951-1.006-2.648-.394.06-.238-.87-.623-1.185-.158-.006-.114.31-.234.096-.394-.54-.339-1.426-.708-1.854.063.19.118.375-.037.375-.238-.446-.041-.511-.281-.957-.281.06.131.722.125 1.025.369.213 1.06 1.98.953 2.277-.333-.476-.586-.573-.542-1.203-.256-.022-.042.372-.198.437.192.51.453.422.639.982-.25-.018-.465-.324-.702-.426.184.559.467.29.658.796-.093.204-.434-.36-.317.122.071.046.117.11.152.183-.051.014-.101.018-.152.043l-.31.16a.19.19 0 0 1 .129-.144c-.263-.42-.213-.51-.261-.945-.193.083-.037.768.065 1.126-.221.117-.442.234-.669.337-.016.007-.059-.023-.103-.064a3 3 0 0 0-.145-.44c-.014-.175-.042-.337-.196-.466-.192-.454-.342-.888-.137-1.234-.533-.262-1.135-2.313-1.07-2.861-.2.038-.434-.225-.628-.551q-.002-.174.02-.352c.023-.163-.106-.216-.283-.177-.116-.295-.168-.545-.097-.58a17 17 0 0 1-.739-.733c-.083-.2-.162-.4-.25-.598.019.004.037.014.056.016a26 26 0 0 0-.968-1.885l-.022-.032a28 28 0 0 0-2.549-3.927 67 67 0 0 1-1.029-1.803c-.112.093-.249.03-.395-.105-.067-.642-.733-1.292-1.27-1.865a4.4 4.4 0 0 0-.615-1.267c.022-.032.043-.065.078-.095-.191-.248-.274-.282-.331-.253a9 9 0 0 0-.253-.314c-.361-.44-.756-.87-1.128-1.301-.389-.417-.756-.837-1.047-1.277-.903-1.414-1.799-2.862-2.816-4.237-1.055-1.33-2.248-2.576-3.822-3.37-.308-.251-.327.187-.611-.011-.917-.86-2.142-1.642-3.374-2.471-1.282-.754-2.564-1.571-3.784-2.275-1.698-1.055-3.182-2.408-5.094-3.115-1.122-.38-2.13-.646-3.077-.731-.955-.068-1.833.014-2.665.275-1.657-.7-4.008.066-5.503-1.08-.373.047-.407.43-1.019.23-.44-.093-.39-.293-.596-.428-.102.464.154.41-.196.736 1.287.106 1.848.34 3.018.223.286.126.363.299.83.408 2.596.042 5.702.282 8.97 1.38 3.142 1.104 5.751 3.367 8.053 4.02.423.345-.027.596.226.92 1.261.345 1.77 1.493 3.024 2.249.861.565 1.926.652 2.861 1.384.918.775 1.552 1.534 2.206 2.326.632.818 1.276 1.679 2.229 2.674q.011.084.031.17c-.458-.38-.785-.743-1.51-1.302.101-.176.378.264.502.162-.527-.55-.996-.893-1.4-1.243a4.3 4.3 0 0 1-1.018-1.278c-.219.34-.811-.344-1.093-.181.623.59 1.416 1.328 1.411 1.954-.609-.334-.509-.883-.871-.901.378.724.832 1.11 1.357 1.482.525.369 1.065.779 1.665 1.462-.078.086-.182.077-.287.065.307.552.926.916 1.394 1.253.1.159.219.309.33.464a.7.7 0 0 0-.261-.107c.105.214.226.433.31.639-.087-.052-.169-.083-.223-.073q.163.166.299.326a.6.6 0 0 1-.001.31c-.795-.436-1.536-.647-2.265-.822a2.5 2.5 0 0 1-.247-.464l-.183.177c.107.088.181.167.237.239q-.158-.038-.316-.073a5 5 0 0 1-.145-.157c.092-.092-.083-.498-.205-.22.141.14.171.244.115.323l-.004-.001c-.25-.148-.544-.243-.74-.44-.217-.22-.295-.57-.483-.825-.253-.344-1-.338-1.17.05-.057.13-.119.245-.186.356a8 8 0 0 1-.694-.412c.092-.424.026-.855-.157-1.281-.028-.065-.228-.068-.35-.074-.049-.002-.13.054-.147.102l-.026.068c-.349-.15-.709-.352-.798-.773-.103.106-.146.224-.108.357.27.178.533.334.843.635-.003.03-.001.057.013.07.149.153.225.32.276.493-.707-.682-1.374-1.25-2.025-1.678-.15-.096-.297-.183-.443-.27q.03-.026.059-.055l-.121-.15c-.036.035-.083.07-.107.106a12 12 0 0 0-1.361-.661 16 16 0 0 1-.432-.461 6 6 0 0 0-.518-.327c-2.639-2.406-6.104-4.744-9.89-6.452-4.144-1.905-8.59-3.066-12.31-3.473-.845-.398-1.648-.698-2.526-.876a13.5 13.5 0 0 0-2.94-.33c-1.153-1.031-3.408-1.174-5.607-1.058l-1.63.089c-.53.042-1.045.089-1.528.107-.967.03-1.81-.002-2.432-.213-1.052 1.313-4.588.989-5.835.55-.154.469-.666.68-1.28.763a9.5 9.5 0 0 1-1.88.04c-.042-.181.821-.571-.075-.373-.428.047-.388.253-.587.376-.444-.203-.992-.288-1.259-.634-.813.107-.864.436-1.675.545.15-.298.232-.618.7-.83 1.117-.453 1.371-.098 2.023-.077-.093-.306-.499-.306.111-.541.448.718 1.363-.47 2.05.116-.399.096-.707.223-.818.419.82-.292 1.817-.57 2.545-.81-.232.039-.565.023-.237-.094-3.97-.15-7.68.566-11.174 1.785-3.5 1.226-6.794 2.95-10.104 4.997-.518-.058-1.274.288-2 .584-1.749 1.479-3.085 2.393-2.788 3.842 2.144-1.547 3.74-2.978 7.555-4.902.932-.12 1.751.018 2.234.603-2.776 1.843-6.309 2.893-8.699 5.08-.336.316-.38.572-.719.837-2.066 1.65-3.276 2.268-4.728 3.36-2.819 2.125-5.192 5.09-7.484 7.737-.496.587-1.45.848-1.515 1.833.691-.68 1.398-1.4 1.994-2.117.61-.71 1.163-1.376 1.515-1.985.78-.634 1.83-1.488 2.828-2.445 1.062-.898 2.088-1.895 3.003-2.644a23 23 0 0 0 1.48-.892c.475-.291.934-.581 1.373-.885.871-.62 1.72-1.224 2.594-1.848 1.738-1.257 3.63-2.553 6.217-3.67.572.464 1.101.04 1.961-.307.28.702 1.027.679 1.984.333.437-.412-.54-.323-.078-.665.632-.04 1.231-.043 1.53.426-.499.206-1.033.522-1.346.469.424.473 1.511-.102 1.797.582-.87.472-1.676 1.007-2.456 1.537-.76.572-1.5 1.13-2.224 1.7-1.439 1.157-2.847 2.266-4.498 3.214-.609.01-1.116-.253-1.783-.118-.014.667 1.314.077 1.773.44-.338.498-.867.987-1.35 1.5q-.216.238-.416.475l-.096.026c-.622.146-1.338.359-1.615 1.014-.048.113-.107.208-.163.308a16 16 0 0 0-1.286 1.08c-.024.008-.043.02-.068.028-.04.058-.086.104-.129.154-.075.073-.156.145-.228.217-.503.39-1.14.407-1.789.399-.23-.003-.346.134-.414.343a.9.9 0 0 1-.182.342c-.204.218-.38.61-.755.199-.35.078-.53.348-.65.643-.217.536-.517.922-1.167.882-.118-.007-.28.04-.357.124-.446.483-1.11.78-1.318 1.462-.135.444-.487.346-.784.4-.05.112-.087.264-.164.287-.985.296-1.728.933-2.426 1.649-.366.375-.715.746-1.24.962-.709.29-1.546.554-1.413 1.637.017.14-.215.325-.356.465a11 11 0 0 1-.739.676c-.127.107-.247.372-.46.12-.143-.168-.497-.271-.224-.61a.65.65 0 0 0 .144-.354c.003-.116-.078-.235-.123-.353-.056.037-.114.07-.167.11-.438.328-.714.808-.678 1.307.02.263.095.445-.113.646-.334.322-.627.687-1.163.68-.638-.006-.17.355-.222.569-.102.423-.34.967-.686 1.146a2.1 2.1 0 0 0-.8.72c.077-.384.17-.765.321-1.133.816-2.265 2.801-4.691 3.612-6.934.991-.33.197-.666 1.291-1.487-.132-.292-.292-.84-.615-.681-.144-.041-.3.092-.456.222-.482 1.264-1.247 1.987-1.555 3.177-2.368 2.419-3.723 5.303-4.702 8.414a.8.8 0 0 1-.268.006c.01.133.076.227.173.29l-.064.2q-.129.45-.25.904a4 4 0 0 1-.526.296c-.343.15-.57.453-.58.924-.024 1.345-.05 1.345-1.265 2.053-.097.056-.208.086-.315.125-.033.235-.159.377-.394.409.028.318.53.619-.003.97a2.4 2.4 0 0 0-.683.723q-.109.177-.218.337a.4.4 0 0 0-.025-.128c-.023.08-.054.177-.084.273-.11.13-.24.25-.426.349-.38.202-.023.568.135.84-.622.756.014 1.86-.72 2.585-.009.534.078 1.092-.05 1.594-.147.565-.436 1.082-.339 1.706.071.457-.178.736-.623.87-.076.023-.176.268-.137.327.281.426.097.832-.012 1.243.506.634.387 1.395.362 2.105-.025.706.194 1.469-.353 2.112-.104.122.007.398.215.48.252.1.506.16.494.513-.009.266 0 .534.016.8.072 1.105-.155 2.243.402 3.297.07.132-.037.377-.1.555-.059.163-.28.274-.077.49.31.33.231.748.201 1.14-.064.838-.052 1.222.136 1.562.285.515.501 1.07.99 1.459.194.154.417.413.427.634.028.605.152 1.165.44 1.694-.124 1.043.385 1.898.827 2.77.056.112.163.312.201.302.77-.204.89.599 1.355.849.474.254.962.48 1.45.707q.137.334.267.677-.046.104.066.168c.084.223.163.455.242.687-.284.289-.473.558-.175 1.07.316.544.433 1.21.591 1.833.053.209.107.393.301.454.284.09.446.154.261.512-.145.28-.07.71-.262.926-.466.53.152.824.197 1.232.023.21.364.192.504.08.365-.287.672-.648 1.035-.94.348-.281.154-.484.04-.804-.223-.627-.09-1.303.003-1.956.007-.052.082-.095.125-.142.045.049.126.097.13.148.03.53.546.73.751 1.134.096.189-.394.5-.005.612.601.17.84.582 1.032 1.096.226.607.451 1.216.716 1.807.294.654.635 1.287.95 1.932.085.173.232.368.21.533-.093.68.227 1.177.708 1.548.507.39.515.885.497 1.427-.01.327-.063.68.22.933.554.494.74 1.213 1.133 1.797.175.259.208-.118.28-.247.055-.097.14-.179.21-.267.041.053.118.107.116.159-.019.775.202 1.547-.216 2.321-.288.534-.115 1.116.228 1.678.565.928.641 1.068 1.533 1.37.746.252.878.388.9 1.083.017.6-.048 1.21.527 1.63.102.075.228.211.227.318-.009.929.687 1.396 1.25 1.945.422.414.758.947 1.396 1.087.286.61.813 1.03 1.206 1.549.44.579 1.333.621 1.545 1.422.034.13.188.095.264-.079.051-.117.044-.261.1-.375a1 1 0 0 1 .071-.118c.313.246.66.496.995.744-.236-.244-.518-.672-.806-1.039.012-.027.025-.054.03-.083.057-.323-.179-.424-.463-.505-.174-.049-.394-.205-.45-.363-.038-.109-.1-.199-.154-.296.032.003.065.008.11.016a.8.8 0 0 0-.189-.167c-.34-.529-.854-.918-1.198-1.44-.25-.38-.677-.763-.685-1.151-.009-.477.338-.96.53-1.442.07-.179.131-.362.207-.539a.37.37 0 0 1 .13-.147c.222-.148.06-.071.11.15.113.496.38.623.835.61.432-.012.31.196.2.483-.172.447.316.231.471.37.145.13.177.263-.013.276-.64.042-.457.384-.308.732-.33.311-.337.696-.242 1.099.014.061.06.138.111.159.037.015.118-.039.16-.082.14-.141.347-.271.39-.44.193-.758.65-1.055 1.42-1.054.293.154.578.228.808.161-.079.176-.124.354-.059.54l-.093-.064c.041.05.087.092.13.14a.8.8 0 0 0 .21.261c.108.094.074.286 0 .467a4 4 0 0 0-.32-.221c.153-.328-.52-1.035-.557-.626.682.084-.022.367.123.515.232.124.422.368.634.608-.186.405-.355.82-.493 1.243-.217.669-.205 1.308.447 1.767.617.434.78 1.031.661 1.745-.032.195.008.401-.018.598-.012.089-.003.17.003.252a2 2 0 0 1-.326-.082c.121.124.24.212.356.287q.02.088.048.174c-.787-.391-1.605-1.044-2.42-1.738-.637-.56-1.289-1.136-1.9-1.675-.593-.561-1.134-1.1-1.66-1.478.196.183-.613-.233-.832-.626-.004.694 1.151 1.918 1.326 2.869.482.444.768.809.828 1.172.21.164.393.268.54.297-.237.704 2.743 2.644 2.15 2.833.531.217 1.004.291 1.73.732.16-.142-.145-.303.088-.44.368.243.678.385.873.329-.777-.516-1.102-.221-1.789-.6.264-.184-.037-.544-.36-.572-.358.113.394.347.235.482-.2-.135-.215.113-.467-.126.512-.199-1.058-.724-1.18-1.274.106-.117.242-.173.44-.099.833.752.568.201 1.05.343.407.244.2.426.478.657.294-.291.983.135 1.466.519.693.242 1.41.293 2.081.373l.105.094c.382.342.834.608 1.26.901.103.072.241.008.252-.161.025-.389.191-.84-.087-1.154-.375-.423-.672-1.008-1.406-.955-.164.012-.404-.109-.5-.246-.142-.2-.273-.406-.407-.611a.5.5 0 0 1 .14-.046c-.11-.047-.195-.1-.272-.153l-.62-.977c.201-.542.378-1.094.614-1.62.087-.193.14-.356.08-.549a.4.4 0 0 0-.11-.126c-.726.593-.849-.259-1.195-.519-.256-.193-.266-.511-.25-.814.433-.147.6.682 1.091.485.044.043.085.088.135.126.272.387.741.867 1.267 1.239.546.398 1.074.75 1.323.97-.04-.091.247-.212.348-.174.272.418 1.695.607 1.028.71.432.298.63.163.878.123-1.064-.413-1.89-1.1-2.663-1.187-.13-.476-.796-.776-1.3-1.103a4 4 0 0 1-.487-.36c.081-.012.183-.058.264-.087.026-.009.05-.108.031-.143-.062-.116-.168-.214-.21-.335-.065-.181-.124-.396.097-.515.172-.092.36-.129.548.014.146.11.313.192.472.285.023.196-.007.428.092.571.09.129.322.191.501.218.267.041.54.007.798.087-.126.049-.27.031.054.206.124-.003.26.023.398.062a.4.4 0 0 0 .15.048c.752.262 1.638.933 2.206 1.03-.35-.225-.687-.444-1.025-.664q.303.013.605-.002c.048-.003.105-.07.133-.122.012-.023-.027-.096-.06-.119-.28-.188-.566-.185-.848-.004-.029.019-.044.06-.06.097q-.281-.184-.556-.368c.177-.13.353-.283.568-.242.23.044.47.026.71.007.214.208.442.414.704.533.072-.217.472.199.5-.1.026-.074.005-.145-.03-.215.398.209.79.184 1.201.173.43-.012.704.059.86.575a.92.92 0 0 0 .525.571c-.036.151.106.333.303.51-.429-.018-.59.392-1.123.22.22.117.38.241.412.383-.169.132-.54-.05-.665.154.495.123 1.031.446 1.517.9.174-.415.876.085 1.075.219-.243.15-.61.027-.919-.24.075.46-.534-.122-.538.217.457.332 2.164.037 2.542.939-1.086-.548-1.447-.266-2.183-.397-.375.374-.254.67.05.941l.092-.221c.276.088.31.207.47.311-.106.034-.21.07-.063.157-.11.182-.172-.179-.474-.227.38.326 1.014.618 1.375.969 1.158.302 2.692 1.364 3.655 1.395-.38-.24-1.33-.416-1.314-.912.407-.302.707.473.967.161-.539-.309-.845-.209-.96-.609.17.06.164-.099.311-.068.49.281 1.012.724.86.932.037-.268.313.338.416.056-.172-.137-.109-.327-.136-.497-.645-.203-1.019-.469-1.033-.814.84-.071 1.402.355 2.033.414.121.245.266.456.457.647.167.167.352.129.541.059.161-.059.247-.312.49-.163.33.204.732.329.997.595.614.615 1.325 1.04 2.125 1.348.005.002.008.012.013.015-.022.033-.05.061-.057.103-.756-.116-1.305.066-2.063-.33.031.066.091.104.142.15a46 46 0 0 0-1.467-.28c-.337.519.567-.014.534.423-.323.076-1.366-.154-1.388-.506.24.108.488.217.72.285-.073-.19-.387-.305-.669-.431l.003-.009-.04-.008c-.175-.079-.33-.164-.404-.276-.097.047-.769-.049-.467.108.014.002.038.013.054.016-1-.223-1.925-.561-2.824-.817-1.133-.377-2.208-.676-3.328-.676-.219-.465-.659-.647-1.124-.691-1.186-.352-2.11-1.071-2.726-1.677-.383.454-.943-.765-1.5-.778.011-.134-.076-.211.124-.223-1.192-.082-1.268-1.384-2.52-1.799.481.362-.688.124.26.651.263-.066-.145-.458.175-.291-.3.421.754.931.903 1.528.914-.01 1.37.796 2.328 1.365.022.194.017.766.452.687-.543-.215.234-.219.316-.318.517.242.944.589 1.368.904-.297.062-.554.154-.694.242.122.052.23.089.347.138-.005.094.006.137-.163.251.558.382.7.158 1.018.197-.412.43 1.416.902 1.773 1.38.043-.184.203-.193.495-.075-.096.093-.216.073-.09.237 2.632.913 5.056 1.61 7.467 2.335.89-.064 3.312.267 3.035 1.088 2.927.935 6.068 1.118 9.36 1.403 1.108-.395 2.472-.192 3.483-.099-.149-.017.298-.211.576-.115 1.045.344-.712.683-1.58.642.757-.011.018.56-.133.759-1.657.164-3.005.086-4.467.244-.385-.053-.435-.275-.878-.299-.653.302-1.296-.321-2.063-.336-.439-.015-.796.305-1.233.255-.487-.057-.876-.473-1.29-.531-.247-.035-.699.047-.913.033.023.001.13-.151.174-.145-.442-.067-.696.133-1.077.091-.068-.009-.068-.265-.102-.283-.5-.265-1.229.02-1.815-.085-.37-.342.571-.259-.059-.45-.098.273-.705.074-.965.199-.306-.559-1.652-.373-1.356-.777-.508-.06-1.222-.115-1.896-.273-.674-.16-1.334-.342-1.774-.508.16.072.114.182.065.293-1.067-.385-1.417-.504-2.05-.551.028-.081.148-.054.2-.109-.807-.276-1.574-.492-2.225-.778a17 17 0 0 1-1.68-.841c-.182.039-.329.128-.548.117-.255-.364-.382-.317-.722-.246-.212-.274.047-.527-.408-.568.366.439-.659-.003-.966-.088.071-.152-.326-.276-.125-.436.046-.195.435.105.521-.031-.905-.409-1.014-.183-1.255.146.266.282.82.547 1.126.826.464-.311 1.816.653 2.074.981-.183-.084-.185.078-.345.025.02-.101.121-.208-.037-.297-1.02.099-1.769-.582-2.832-1.164.174.456-.376.104-.544.394 1.1.534 2.222 1.036 3.21 1.534-.373-.357.511-.038.694-.051.218.239.92.831 1.162.816-.16-.089-.103-.194-.046-.301.434.645 1.388.798 2.175 1.215-.896-.376-.546-.028-1.252-.188.598.342.923.577 1.487.454l-.084.24c.734.116 1.59.493 2.498.884.455.193.921.399 1.394.557.48.135.962.243 1.431.291-.002.103-.085.228.09.285 1.652.092 3.856 1.236 4.72 1.044.005.338-.776.296-1.114.019-.006.604.96.375 1.365.363-.024 0-.002.168-.027.167.63.006.963-.326 1.621-.267.84.074 1.021.548 2.13.564-.283-.442 1.142.133 1.568-.045-.828-.133-.355-.17.316-.105.672.046 1.548.122 1.53.412-.514-.053-.598.158-.949.204.857.012.448.111.6.456.7-.057.772.183 1.25.231-.065-.274-.696-.275-.923-.468a1.2 1.2 0 0 0 .471-.062c.357.121.585.558.933.213-.018.147.026.265.147.346-1.269.044-2.142.08-2.988.049-.843-.092-1.662-.251-2.818-.583-.72.027-1.439-.151-2.164-.31-.727-.16-1.464-.279-2.234-.249.014-.16-.499-.179-.413-.359-1.973-.238-3.813-1.551-5.513-1.439.416.174 1.054.253 1.015.487-.48-.11-2.665-.608-2.012-1.013-.372-.075-.718-.122-1.218-.339-.342.258.768.286.668.506-.688-.199-2.257-.589-2.604-1.204-1.374-.45-2.509-1.018-3.542-1.511-1.024-.51-1.908-1.032-2.647-1.654-.28.347-.198-.308-.487-.433-.396-.105-.062.443-.328.299-.137-.079-.194-.033-.313-.084-.562-.241-.389-.466-.698-.702-.278.111-.912-.354-1.44-.654.214-.615-.964-.848-1.492-1.195-1.104-.669-2.224-1.677-3.336-2.569-1.089-.923-2.175-1.735-2.938-2.403 1.064 1.224 1.658 1.325 2.482 2.443.854.418 1.684 1.072 2.524 1.763.86.66 1.768 1.304 2.667 1.806-.126.171.083.355.062.53-.223.014-.58-.193-.809-.187.441.478 2.15.884 2.805 1.851.203-.196.578.19.887.369.722-.286 2.851.766 3.627 1.254-.095.133-1.312-.602-.932-.248.43.204.88.403.765.639-.274-.074-.808-.492-.903-.328.412.332 1.42.626.964 1.01.59.342-.074-.39.567-.111.007.075.085.147.26.212.041.448-.42.259-.664.348.574.513.744.206.83.101.373.419-.506.123-.188.473.574.431 1.274.688 1.606.81-.167-.08-.207-.176-.247-.271.255.148.718-.001.764.279-.184-.054-.43-.173-.488-.088.776.533 2.24.837 2.632 1.395.411.025-.2-.341.255-.269.917.194.711.561 1.293.806.118-.09-.059-.483.271-.355.528.242 1.547.28 1.344.646-.183.017-1.225-.243-.836-.043.933.076 1.51.417 1.983.163.612.261-.223.415.358.615.232.006.098-.311.394-.25.174.204 1.78.966 1.074.44.657.24.791.26 1.736.503.05-.118 0-.321.22-.296 1.304.435 2.577.563 3.797.726 1.224.137 2.404.298 3.591.521.073-.142-.225-.231.017-.253.896.184 1.64.341 2.264.03.002.117-.082.183-.17.247.668-.123 1.513.101 2.105.257-.45.321-1.283-.003-1.476.535 1.14 0 1.636-.683 2.937-.486.218-.187-.422-.331-.007-.339.494.116.632.097.967-.075-.002.289.485.294.825.386 1.271-.377 2.555.127 3.703-.464.648.011 1.37.015 2.117-.041.746-.088 1.52-.202 2.274-.336 1.508-.267 2.934-.611 3.914-.951.191.192.901-.124.89.226.826-.528 1.461-.154 2.008-.691-.196.041-.38.073-.36-.081.357-.168.401-.161 1.074-.372.053.124.062.288.387.16.347-.659 1.754-.481 2.534-.61-.008-.172-.266-.101-.395-.153.596-.202 1.666-.692 1.957-.318-.36.229-.659-.147-.795.199.223-.057.238.112.392.127 1.505-1.059 3.838-1.78 4.937-2.136.394-.153.454-.504.626-.578.463-.201.99-.035 1.717-.546-.134.095.21-.093.584-.286.146-.073 1.581-.984 2.118-.867.167.155-1.08.676-.604.588.511-.289.64-.466 1.167-.588-.165-.162-.019-.335.211-.464.223-.142.526-.249.696-.243-.37.391-1.013.737-1.073 1.077.86-.548 2.245-1.906 2.545-1.177-.043-.074.19-.24.281-.172-.46.528-.135.544-.533 1.02.723-.865 1.601-1.27 2.44-1.707.825-.451 1.661-.865 2.1-1.886.126.107-.038.261.069.371.417-.298.219-.494.824-.825.067.15.262.038.338.171.324-.284.698-.58.819-.83-.561.471-.92.518-1.18.358.954-.557 1.136-1.18 2.196-1.456-.573.335-.232.498-.808.832.252.059.378.387.845-.006-.057-.115-.244-.206-.083-.363.142.353 1.98-.835 2.655-1.48-.08-.355-.467.096-.585-.157.209-.058.497-.319.791-.601-.116.385-.054.292.22.487.446-.303-.02-.359.32-.634.203.251.764-.461 1.026-.364.34-.699.657-.674.731-.446.303-.6.542-.711.675-1.209.321-.07.066.087.242.238.458-.552.433-.474.91-.744.12-.24.116-.453.218-.708.327-.101.5-.461.299.05 1.371-1.245 1.05-2.338 1.784-2.858-.406-.484.28-.887.853-1.221-.003-.291-.528.118-.265-.214.438-.228.692-.513 1.02-1.074.299.052.051.367.136.522.111-.378.555-.703.531-.842q-.272.243-.501.242c.236-.309.176-.475.526-.84l.205.151c.461-1.388 1.951-2.713 1.986-3.424.244-.467.383-.156.597-.395-.094-.069-.202-.039-.309-.005.107-.406 1.629-1.738.717-1.097.434-.643.839-.672.912-1.175-.22.316-.395.211-.219-.128-.014.264.167.244.389-.154-.045-.207.104-.534.201-.831-.026.494.52-.574.575-.805-.081.101-.166.277-.241.241.137-.299.43-1.144.745-1.271.054.142-.307.551-.181.646.413-.408.268-.685.51-1.212.595.017.384-1.63 1.033-1.502-.436.52-.493 1.097-.587 1.585-.108.48-.225.887-.722 1.068.407.251-.126.595-.372 1.299.331-.034.047.324.126.449.451-.626.16-.453.191-.653.158-.09.333-.514.476-.307-.088.175-.252.4-.179.472.29-.625.558-.877.815-.888.132-.426.335-.738.589-1.163.235-.435.532-.979.875-1.842 0-.345-.336.095-.163-.443 1.274-1.811 1.473-3.87 2.169-5.39-.125-.404-.563.12-.309-.635.252-.344.376-.18.537.012.199-1.537 1.012-2.304 1.456-3.891-.498-.844.735-2.874.418-3.986-.066.766-.305 1.726-.686 2.034-.142-.674.225-2.55.726-2.195-.081-.935.734-1.56.294-1.95.612-.071.887-1.934.863-3.02.002.162.131-.226.18-.641.127-1.083.309-2.287.435-3.477.048-.933.042-1.857-.036-2.705a.75.75 0 0 1 .305.048q-.11-1.531-.215-3.031c.021.017.045.029.086.009-.142-.497-.099-.683-.169-1.148q-.038-.507-.08-1.011c.169-.422.304-1.185.336-1.607.018.325.242.193.202.645-.123.716-.072 1.61.249 2.13-.057.343-.142.349-.259.168.213 1.922-.059 3.35.303 5.112-.293-.44-.296 1.613.019 1.16a35 35 0 0 0-.624 3.946c-.07.705-.118 1.407-.134 2.066a18 18 0 0 0 .001.95q-.016.451.001.847c.108-.817.592-2.257.358-2.993.311.432.167-.722.038-.837l.252.032c.624-3.564.677-7.343.718-10.987m-23.918-46.24c.291-.138.475.298.583.529-.163.119-.544-.427-.583-.528M37.715 125.336c.031-.445.728.204.792.087.35.324-.433.141-.792-.087m4.847 2.844c.211-.438.471.144 1.05.278-.12.159-.732-.22-1.05-.278m1.214-1.281c.071-.22.73.043.88.217-.07.173-.615-.175-.88-.217m10.477 4.299c.144-.046.357-.04.623.003-.028.119-.054.236.124.275-.142.177-.963-.054-.747-.278m4.9.944c-.104-.237.314-.156.323-.324-1.218-.295-2.494-.116-2.878-.807 1.052.296 1.482.061 2.303-.069.2.095.287.243.598.284-.238.186-.38.112-.768.048.114.328.523.516 1.208.567.097.316-.259.362-.787.301m66.22-46.96c.186.017-.098.549-.109.782a.8.8 0 0 1-.123-.286q.089-.204.173-.41c.018-.005.038-.025.059-.086m-1.366 10.953c-.344.574-.248.503-.55 1.179-.247.19-.51-.085-.182-.608.258.644.263-.672.732-.571m-41.02 31.414c-.045.21-.783.345-1.122.473.137-.458.525-.284 1.122-.473m-7.929 3.545c-.86.08-1.26-.045-2.219-.066.444-.446 1.35-.25 2.25-.542-.007.204-.175.353-.03.608m-4.694.057c-.115.29-.52.012-.62-.025-.072-.193.427-.125.425-.288.533-.056-.342.369.195.313m1.851-.11c-.07.21-.47.302-.544.513-.244-.219-1.317.192-1.426-.129.703.148 1.163-.446 1.97-.384m-1.142-1.211c-.485.115-.933.279-1.744.39-.35-.435.351-.587 1.23-.807.882-.202 1.956-.344 2.376-.461.658.122.843.442-.03.692.02-.072.136-.107.12-.19-.947.147-1.467.254-1.952.376m-1.473 1.39c-1.106.287-3.7.301-3.082-.144.791.313 1.802-.12 3.082.144m4.154-1.972c-.089-.212.267-.265.542-.348.036.225-.26.456-.542.348m1.125-2.57c-1.03.155-2.07.252-2.87.362-.346.141.175.353.485.265-.104.259-.613.074-.86.137-.04-.148.146-.205.09-.357-.092-.178-.708.076-1.01.071.91-.556 1.863-.756 2.963-.89l1.765-.189a19 19 0 0 0 1.996-.458c.02.118.04.236.206.208a8 8 0 0 1-1.27.512q-.355.112-.728.211zm-34.006-10.075a.3.3 0 0 1 .186.026l.001.001c-.006.02-.004.039-.018.061a1.5 1.5 0 0 1-.329-.086c.054-.002.103.009.16-.002m-8.038-3.408-.132.118-.12-.061.064-.092.065-.092zm25.601-93.43c-.107.106-.276.169-.544.19-.038.004-.077.002-.116.003-.113-.04-.294-.014-.465.006.355-.191.735-.232 1.125-.2m69.715 33.49c.108.375.023.535-.076.679-.119-.446-.152-.921-.293-1.365q.007-.132.038-.235c.278.948-.095.867.331.922m.204.792c.053.29.098.505.142.687-.021-.006-.034-.02-.057-.024a2 2 0 0 1-.154-.236c-.077-.254-.134-.485.069-.427m-.545 21.173c.017-.222-.024-.352-.095-.435.028-.372.078-.717.161-.98q.085.155.163.323c.021-.152-.036-.372-.056-.568.012-.022.021-.054.034-.074-.014-.042-.021-.094-.034-.138.014-.071.043-.13.102-.166.022.3.229.294.132.796-.574.616-.201.273-.407 1.242M75.261 20.624c-.098.017-.15-.006-.184-.046l.196-.048c.002.037-.003.092-.012.094m40.759 16.15c-.256-.018-.483-.084-.5-.408v-.016c.175.13.344.268.5.425m11.631 33.556-.062-.766.024-.064c.059-.193.233-.353.394-.512l.007.786c.016.579.059 1.139.145 1.673-.134.014-.293-.025-.268.312.126.029.315-.052.333.163-.059.473-.165.853-.311 1.15-.175-.77-.224-1.731-.262-2.742m.313-2.243.007.129a.2.2 0 0 1-.007-.13m-8.303-27.363c-.187-.202-.155-.48.089-.668.017-.013.042-.016.066-.02q.42.513.785 1.17c-.352.066-.553-.066-.94-.482m-.28-1.168a.84.84 0 0 1-.584-.561q.3.257.584.56m8.325 35.373c.03.193.018.399-.018.613q0-.309.018-.613m1.891-14.708a3 3 0 0 1 .168-.37c.006.272-.03.5-.137.585-.006-.067-.021-.144-.031-.215m-.196-1.57c.003-.053-.004-.12.006-.164.057.065.112.182.162.318a2 2 0 0 1-.168-.154m-.51-1.723c-.207.459.09 1.01.245.948-.024.205-.077.279-.147.289q-.105-.136-.204-.272c-.015-.06-.026-.117-.042-.177a3 3 0 0 0-.259-.27 2 2 0 0 1-.118-.214c-.066-.17.128-.395.341-.375a1 1 0 0 1 .161.036q.01.018.023.035m-1.187-4.568-.017-.046a.3.3 0 0 1-.02-.176zM59.405 19.967a.6.6 0 0 1-.257-.073q.129.034.257.073m20.31 107.764c.123.363-.449.082-.848.315.148-.257.46-.278.848-.315m32.768-15.708c.164.28-.436.465-.787 1.009-.102-.115-.265.027-.362-.105.393-.336.792-.708 1.149-.904m.778-1.01c.084.087.169.171.303.041.192.155-.441.806-.675.894-.112-.222.035-.541.372-.935m12.378-26.608c.028.019.064.03.089.052-.098.23-.139.252-.187.216zm1.842-6.35a4 4 0 0 0-.043-.36.6.6 0 0 1 .152-.114c-.01.149-.053.309-.109.474m.307-1.03a8 8 0 0 1-.077-.738 3.5 3.5 0 0 1 .245-.74c-.041.705-.107.942-.081 1.462-.029.008-.057.019-.087.017m2.023-13.872c.083-.386.105-.784.036-1.264.466.186.272 1.313.029 1.709zm-.132-2.394c.15.18.242.532.312.945-.298.182-.404-.68-.312-.945m-1.202-7.932-.327.09c-.123-.266.065-.724-.21-.79-.06-.546.208.13.287.088.042-.208-.069-.334-.208-.486q.087-.073.157-.153c.213.337.362.743.301 1.25m-.646-2.72c-.111-.013-.166-.301-.233-.527h.026c.079-.008.145-.07.198-.145.217.45-.026.416.009.672m-1.376-1.574c.033-.022.11-.01.149.017.287.188.482.429.552.786.033.166.173.233.334.244.027.128.05.27.055.448-.081.024-.061.158-.119.209-.209-.731-.611-.475-.124-.13l.058.305a9 9 0 0 1-.807-.044c-.076-.008-.205-.213-.185-.298.056-.237.283-.48.245-.682-.042-.227-.334-.402-.271-.7a.28.28 0 0 1 .113-.155m-2.851-5.294c-.099-.05-.197-.093-.3-.038a4 4 0 0 0-.192-.384 4 4 0 0 1-.035-.311zm-10.887-14.916.189.223c-.013.024-.02.05-.038.072-.351-.07-.516-.533-.727-.97.187.227.375.453.576.675m-5.8-1.854c.031.02.051.058.069.1q-.104-.04-.208-.084c.028-.037.082-.052.139-.016m-50.77-6.346.006.204a.33.33 0 0 0 .316-.21c.27 0 .543.01.825.017-.102.217-.3.358-.494.486-.324.214-.548.085-.66-.255-.116.039-.236.066-.342.12-.525.272-.716.265-.999-.097-.01-.013-.016-.03-.026-.042.455-.152.91-.21 1.373-.223m-3.903.614a7 7 0 0 1 1.296-.13.6.6 0 0 1-.44.142c-.127-.003-.312.004-.373.082-.45.574-1.173.096-1.67.457-.348.253-.546.124-.718-.074a14 14 0 0 1 1.905-.477m-33.258 80.475c-.055-.012-.11-.202-.097-.299a.34.34 0 0 1 .07-.147c.034-.047.074-.094.105-.142.052.097.133.19.148.293.024.157.006.346-.226.295m1.836 5.028c-.022.087-.137.151-.209.225-.043-.047-.116-.09-.122-.142-.02-.178-.022-.358-.029-.538-.01 0-.016-.003-.026-.003l-.004-.04c-.09-.041-.18-.079-.264-.131-.015-.009.007-.127.021-.129.218-.031.231.115.243.26l.03.014v.029c.292.007.436.153.36.455m1.207 1.102-.306-.182c.11-.056.22-.159.326-.155.11.004.215.113.322.176zm.806.861c-.01.147-.02.296-.246.259-.015-.002-.036-.122-.02-.132.084-.051.176-.088.266-.127l.004-.042c.01.001.017-.003.027-.002-.01-.239-.039-.481.162-.672.118-.111.51-.107.503.004a.5.5 0 0 1-.099.291c-.15.177-.283.4-.566.376l.001.029zm1.588.37c-.282.642-.869 1.132-.934 1.889-.003.038-.238.101-.34.072-.1-.028-.253-.184-.237-.247a5.8 5.8 0 0 1 .99-2.072c.04-.054.244 0 .367.03l.006.005c.034.03.062.06.097.09q.017.024.036.044c.006.063.038.138.015.189m5.988 4.967c-.066.147-.169.207-.317.157a.36.36 0 0 1 .315-.272c.343-.055.488.158.452.459-.004.036.008.061.007.095-.11-.113-.24-.253-.457-.439m2.495.624-.013.042-.029-.028q.02-.008.042-.014l.027-.088.083.05zm13.518 10.538c-1.236-.57-2.452-1.136-3.92-1.406-.483-.223-.947-.525-1.464-.854l-.167-.113q.346.081.678.147c.552.119 1.077.237 1.612.398.542.144 1.098.321 1.703.589 1.01-.452 2.44 1.344 3.4 1.206-.38-.612 1.24-.115 2.172-.004-.149.267-.043.62.02 1.112-1.486-.135-2.77-.607-4.034-1.075m18.71 3.14c.297-.187.482.195 1.02.113-.01-.082-.183-.055-.295-.068.025-.123.43-.054.422-.194-.166-.183-.908.018-1.3-.014.588-.425 2.055-.389 2.541-.656.236.166.142.454.046.507.156.277.323-.01.593.133.391-.135-.47-.145-.329-.404 1.102-.077 1.36.015 1.84-.293.467.069-.006.146.861-.04.153.568-.895.277-1.24.49.531.363 1.814-.573 1.896.009-.45.045-.922.145-1.412.248l-1.52.224c-1.036.136-2.112.201-3.124-.055m.326 3.461c-.14.263.35.133.622.136-.5.137-1.318.177-2.233.211-.915-.026-1.926-.078-2.826-.021 1.072-.627 2.818-.03 4.437-.326m-4.904.562c.87.137 1.083.083 2.008.16-.869-.43 1.926-.207 2.161-.006-.726.239-1.594.187-2.405.141-.81-.041-1.565-.076-2.086.115-.124-.276.253-.251.322-.41m-.485.743c.132-.292.547-.075.781.033-.045.196-.689.019-.78-.033m10.552.473-.036-.266-.209.051a39 39 0 0 1-3.341.376c-1.575.093-3.227.174-4.778-.124-.17.015-.107.165-.315.16-.367-.042-.65-.127-.943-.207.04-.261.782-.112 1.258-.122.012-.121.023-.239-.158-.26 1.522-.036 4.266-.027 6.51-.637.511.058.996.133 1.288.335.446-.104-.126-.264-.05-.42.385-.083.752.253.935-.022.46.006.193.099.202.312.766-.244 1.32-.435 1.831-.454.11-.305-.502-.054-.8-.046.437-.368 1.535-.425 2.002-.319.178.298-.62.666.267.557-.633.406-2.507.114-2.783.527 1.216.027 3.26-.609 3.976-.211-1.6.647-3.09.386-4.856.77m7.145-2.033c-.017-.152-.229-.125-.234-.29.581-.235.518.129 1.1-.11-.115.176-.619.257-.866.4m4.108-1.535c-1.85.29-3.444.772-5.328 1.146.06.146.521-.079.642.012.041.265-.886.393-.926.129-.393.242-.41.317-.176.632-.697-.177-.843-.396-.597-.592.246-.204.89-.345 1.768-.536-.158-.089-.51.004-.787.026-.134-.242.67-.236.686-.437.208-.026.176.175.231.29 1.432-.459 1.53-.526 3.088-.99.294.255.755-.205 1.145.038.382-.185-.51-.055-.106-.322 1.065-.216 1.036.018 2.105-.51-.057-.234-.914.443-.809.025.712-.116 1.213-.381 1.701-.715.116.167.093.313.007.449.391-.118.433-.286.312-.478.698-.358.943-.187 1.28-.12-.542.859-3.369 1.293-4.236 1.953m13.898-3.742c-.02-.442.613-.476.96-.883.128.266-.672.592-.96.883m4.414-.937c-.26.623-.236-.118-.65.21-.024-.122.306-.276.505-.418.056.106.113.213.284.121.028.095-.113.126-.139.087m-.504-1.286.542-.345.148.207c-.28.137-.603.347-.69.138m.629-.501c-.111-.185.331-.453.671-.707l.152.204c-.312.245-.614.473-.823.503m-.229-.406c-.839.579-1.696 1.119-2.129 1.492.054-.346.77-.895 1.634-1.48.854-.599 1.8-1.322 2.434-1.836-.352.523-1.138 1.191-1.939 1.824m5.948-1.268c-.295-.186-.335-.182-.258-.553.308-.019.792.123.258.553m.481-.7c-.139.001-.354.166-.426.01.15-.05.299-.102.259-.201.146-.104.194.051.357-.094-.02.11-.036.219.045.302-.157.107-.42.153-.235-.017m2.293-1.164c-.041-.119.259-.334.431-.513-.089-.052-.271.154-.425.276-.225-.008.169-.54-.234-.246.028-.205.68-.254.902-.256-.411.421-.137.447-.674.739m2.896-4.967.189.17-.548.601c-.228-.128.229-.508.359-.771m.898 1.029c.103-.388-.163-.09-.459.252-.118-.377.718-.714 1.063-1.046.127.141-.444.546-.604.794m.491-2.191c-.112.722-.302 1.377-1.387 2.043.105-.473 1.107-1.116.76-1.724 1.01-.919 1.627-1.832 2.176-2.203-.014.666-.916 1.634-1.549 1.884m2.888-3.319c-.557.628-.867.784-1.099 1.418l-.335-.262c.663-.609 1.169-1.682 1.935-2.4.01.481-.642.797-.501 1.244m6.656-10.435c-.285-.007-.102-.361-.387-.368.247-.155.467-1.007.73-.732-.176-.338.434-.958.697-1.473-.511.959-.57 1.905-1.04 2.573m.11 2.829c-.124-.076-.256.004-.391.165-.152-.108.049-.444.267-.794.009.33.209-.03.217.302.192-.254.4-.921.568-.644-.21.135-.436.589-.661.971m.891-1.787c-.027-.514.217-.613.508-1.05.029.51-.216.615-.508 1.05m.586-6.017c-.055-.168-.014-.44.136-.811.242.053.091.652-.136.81m-.137-2.278c-.011-.426.215-.574.351-1.226.241.092-.165 1.046-.351 1.226m.844-3.4c.235.216-.229.596-.203 1.099-.349.024.145-.74.203-1.1m-.039 2.664c-.09-.598.031-.881.184-1.79.051.26-.094 1.1.271.252.276.318-.301.975-.455 1.538m1.213-6.934c-.327 1.554-.182 2.143-.21 2.895-.068.362-.279.106-.367.395.446-.146.139 1.022-.075 1.804-.268-.14-.415-.137-.434-.3.15-.131.27-.683.23-.925-.307.382-.142-.53-.337-.587.137-.3.215-.287.289-.083.109-1.18.683-2.537.77-3.714.092.043.12.315.247.054-.352.175.077-.532-.137-.514-.115.172-.178.115-.216-.021.118-.36.238-.717.338-1.09.311-.106-.151.675.072.67.126-.69.733-1.74.433-2.003-.185.682-.167.973-.492 1.289l.018-.06q.207-.9.337-1.861a.53.53 0 0 0 .346-.15l-.006.016c.241.344.185.783.09 1.234-.111.449-.293.903-.238 1.307-.206.363-.323.319-.443.398.216.313-.051 1.763-.161 2.073-.275.013.118-.722-.054-.827m-.014 7.859c.266-.532.086-.806.387-1.081.412-.07-.108 1.383-.387 1.08m.416-1.417c.351-.235.64-.894 1.029-.886-.301.58-.608 1.15-1.029.886m3.42-27.133.002-.01.001.034zm.381-.704c.073-.248.078.687.171 1.296-.374-.164-.291-.904-.171-1.296M37.578 12.458c-.238.374-1.793.857-1.882 1.023.34-.05 2.386-.95 1.882-1.023M71.307.826c-.103-.196-.934-.086-.99-.266 1.061-.23 1.743.497 2.815.598.037-.096-.003-.244.194-.23.156.136.247.293.462.407 1.138-.05 3.255.624 4.206.328-.244-.192-1.217-.273-.604-.467-.826-.168-.138.235-.558.254-.025-.071-.123-.12-.32-.136.3-.341-1.09-.234-1.638-.506-.426.052.27.298-.21.312-.34-.334-1.03-.49-1.003-.144.105-.115-1.339-.146-.81-.37C71.054.43 71.243.253 69.828.279c.131.308.01.209.14.517.668-.137.898.134 1.34.03" />
    <path
        fill-rule="evenodd"
        clip-rule="evenodd"
        d="M90.454 13.74c.41.108.968.43 1.297.429-.327-.207-1.084-.545-1.297-.43m6.212.319c-.158.263-.795-.267-1.109-.26.17.319 1.39.656 1.11.26m4.309-2.549c.076-.12.423.203.52.119-.251-.111-.319-.566.032-.378.182.268.396.087.835.186-.816-.267-2.003-1.064-2.367-.916.622.115 1.363.823.98.989m.356 8.411c-.212.173.1.41.457.656-.085-.404.76.418.395-.023-.311-.218-.476-.153-.437-.43.067.05.181.048.051-.068a.7.7 0 0 1-.395.024c.024-.047.041-.095-.071-.16m1.112 1.04c.697.82 1.536 2.164 2.418 2.286-.077-.093-.221-.2-.171-.266.357.283.574.158 1.012.677.181-.137-.091-.376-.285-.596-.565-.255-2.584-1.594-2.404-2.096-.189-.002-.429-.115-.57-.005m5.866-2.815c.221.534 1.935 1.458 1.926 2.069.288.263.459.22.789.605-.147.035-.324-.007-.471.027.262.176.533.373.793.603q.377.36.757.775c.507.55 1.016 1.157 1.528 1.763 1.026 1.213 2.081 2.399 3.095 3.248.103 1.037 1.508 1.322 1.372 2.076.136-.252.059-.193.334-.26-.838-.655-1.622-1.993-1.536-2.508-.029-.02-.026-.056.044-.138-.027.033-.035.086-.044.138.097.067.606-.078.62.467.288.059-.019-.547.26-.217q.138.488.182.934c.26.292.498.484.741.692-.063.083-.206.126-.1.29.298-.421.615.615.77.883.06-.421-.546-1.17-.438-1.57-.316.056-.222-.223-.577-.616.061-.084.205-.126.096-.292-.15-.047-.323-.727-.786-.883.179.308.117.368-.092.296-.398-.745-1.195-1.342-1.525-2.236-.408.255-.649-.354-1.03-.88-.111.066-.187.259-.36.109-.215-.268-.062-.402-.094-.604.181.226.788.623.525.195-.19.15-.731-.903-.921-.75q.39.39.16.549c-.123-.451-.37-.138-.744-.678-.201.11-.388.265-.647.177.029-.602-.749-.554-1.141-.963-.169-.476-.322-.888-.195-1.251-.426-.312-.498-.47-.674-.501.238.249.094.392.142.587-.885-.557-1.094-.86-1.85-1.671-.313.038-.628-.084-.909-.465m6.602 6.282c.181.093.382.253.621.559-.092.43-.606-.697-.696-.263-.121-.154.019-.21.075-.296m-7.255.908c.194.294.134.513.121.745.237.343.325.1.531.318-.107.099-.074.24.027.4.294-.501-.483-.874-.353-1.364-.08.078-.237-.14-.326-.1m17.777 17.416c-.061-.857.555.252.615-.284-.281.09-.539-.492-.816-.532.38.512-.074.385.201.816m.229 2.933c-.124-.005-.231-.156-.372-.025.188.436.05.583.05.854.097-.07.446.708.35.209-.47-.546.06-.67-.028-1.038m-4.632 58.669c.295-.2.738-.151.624-.217.12-.443-.441-.169-.624.217m-5.416 7.703c-.414.51-.932.74-.915 1.173.291-.182.876-.717.768-.231.095-.416 1.29-1.196.966-1.145-.315.257-1.164.898-.819.203m5.799 6.631-.1.883c.486-.669.925-1.322.648-1.637-.142.233-.712.664-.548.754m-20.92 8.061c-.227.181-.436.124-.428.267.583-.17-.48.439-.433.569.379-.117 1.291-.737 1.099-.786-.593.386-.369.179-.238-.05m-19.222 7.852c.24.023.625-.085.723.068-.765.243-2.036.073-1.625.435.228-.263 1.013-.163 1.211-.06.136-.231 1.625-.906 1.171-.758-.7.36-1.25.046-1.48.315m-3.905.221c.011.4-.609.855.07 1.023-.087-.151.184-.206.268-.322-.526-.09-.459-.59.504-.738.097-.317-.53-.001-.842.037m-2.871.835c-.333.132.375.283.278.556l-.663.107-.077-.417c-.5.348-1.483.407-1.069.684-.27-.094-.688.042-.817.21 1.281-.077 1.602-.442 2.658-.418-.002-.104.011-.204.3-.221-.503-.149-.033-.525-.61-.501m-7.095 4.795c.332.109 1.172-.074.915.37 1.264-.119-.506-.678-.915-.37m-6.931-4.516c.193.05.371.107.492.19 1.828-.073-.128-.206-.492-.19m-.999.381c.14.256.894.356 1.32.312-.124-.189-.72-.339-.324-.523-.882-.098-1.408.003-1.983.078.481.313-.49.29-.186.414.218-.105.787-.076.996.049.22-.202-.074-.269.177-.33m-2.266-.798c.013.212-.27.256-.515.291-.029-.18-.719-.117-.804-.276-.182.055-.079.304-.514.186-2.84-.443-4.96-.707-6.932-1.284l-2.986-.79-1.589-.432-1.698-.59c-.103.561-.509-.259-.834-.113.174.534.546.571 1.267.981.216-.214-.359-.31-.374-.488.215.078.355.08.495.081-.323.276.737.514.173.597 1.168.323 2.49.486 3.916.797q1.073.215 2.251.491l1.208.289 1.283.251c.012-.147.158-.195.365-.202.365.27.424.146 1.14.257-.222.218-.14.298.274.468.04-.094.002-.242.196-.229.853.125 1.98.168 2.972.134.885-.037 1.663-.21 2.056-.368-.307.07-.97-.073-1.35-.051m-20.93-13.862c.574.216 1.203.647.55.545.311.237.717.511.966.363.413.39.46 1.023 1.096 1.168-.046.141-.132.23-.266.251.466.148.715-.001 1.104.044.245.15-.016.354.444.483.211-.151.966.035 1.676.312-.045.043-.083.085-.087.131-.009.109.065.224.104.336.065-.07.18-.136.184-.21a.5.5 0 0 0-.038-.191c.788.326 1.461.744 1.178.907.411.103.821.264 1.223.428H44.4c-.054.006-.103.077-.15.122-.086.082-.055.202.117.245.365.092.79-.021 1.077.327.34-.244.63-.134.977.047.198.103.351-.002.43-.213.025-.007.054-.007.08-.016l-.059-.034c.018-.066.023-.145.027-.227.251.047.526.117.567-.039l-.568-.121c-.028-.179-.106-.431-.212-.36a1.6 1.6 0 0 1-.44.202c-.137-.035-.272-.064-.408-.105a65 65 0 0 1-1.668-.587l-2.989-1.113a.73.73 0 0 1 .366-.138c.415.129.567.562.83.3-.433-.146-.626-.335-.909-.508-.224.193-.617.098-1.01-.051-.387-.169-.779-.377-1.038-.347.214-.023.29-.21.161-.392-.574-.194-1.31-.617-1.616-1.036.081-.095.275-.027.366-.108-.84-.401-1.198-.247-2.056-.415m3.747 6.69c.804.09 1.494.168 2.251.721.043-.108-.01-.2-.069-.293.253.093.4.072.494-.005-.93-.21-1.36-.445-2.265-.632.965.333-.179.214-.41.209m-1.453-1.028c-.25-.107-.438-.221-.538-.339-.25.159.483.834.3.51-.397-.233.266-.023.237-.171m-3.319.513c-.388.474 1.317.847 1.375 1.298l.065-.156c.092.036.18.069.18-.01-.335-.208-.834-.401-1.434-.762.04-.128.14-.259-.187-.37m-4.959 3.82c.155.017.663-.116.342-.303-.407.122-.604-.183-.926-.095.26.151.367.265.388.396-.55-.139-.522-.265-1.07-.594-.109.122.084.264-.004.39-.469-.414-.948-.354-1.335-.486.455.241.378.444.835.685.578-.061.952.302 2.017.694.026-.173.287-.048.427-.075-.399-.205-.484-.409-.675-.612m4.153-15.804c.345.078.472.502.584.349-.509-.341-.219-.422-.253-.645-.27.071-.325-.011-.33.296m70.085-102.098c.582.474.85.342 1.282.525.342.344.358.63.562.948.326.114.68.409 1.081.749.38.365.805.778 1.308 1.103-.642-.506-.603-.838-.751-1.221-.591-.235-.81-.616-1.352-.733.103-.122.003-.222-.219-.272.145-.154.27-.311-.02-.543-.438-.03-1.081-.462-1.521-.495-.071-.192-.077-.374-.215-.578-.06.1-.17.106-.28.11.248.168.268.3.125.407M43.251 134.455a9 9 0 0 0-1.133-.685c-.833-.422-1.79-.745-2.71-.779-.06.702-.745.753-1.65.569.195-.379-.817-.626-.912-.975-.077.366-.639-.033-.618.185q-.066-.23-.373-.449c-.112.41-1.064-.196-1.68-.406-.113.298.08.305-.202.468.624.581 2.182 1.358 2.681 1.671 1.62.119 3.36 2.013 5.42 2.481 1.375.304 2.283-.301 2.004-1.438-.205-.206-.493-.412-.827-.642" />
</svg>
