<svg
    viewBox="0 0 111 136"
    width="100%"
    height="100%"
    fill="#203447"
    preserveAspectRatio="none"
    xmlns="http://www.w3.org/2000/svg">
    <path
        d="M4.967 43.387c.32-.27.569-.329.087-.593.475-.035.155.138.57.12-.257.174.165.33.017.497a3.4 3.4 0 0 0-.674-.024m2.94-.87c.057.065-.003.332.208.246-.057-.066.002-.332-.208-.247m-2.497-.319c-.664-.025-.56.183-.078.188-.04-.077-.065-.149.078-.188m93.419-1.626c.124.094-.202.094-.077.188.31.007.508-.01.654-.038.005-.102-.203-.148-.577-.15m-93.233.035c-.462.078-.526.118-.856.258.56-.01.113.07.029.093.484-.004.61.086.598.212-.188.038-.532.044-.637.1.855-.022.116.267.492.307-.012-.173.553-.046.798-.008-.917-.289-.246-.623-.424-.962m-.53.006c.555-.054-.235-.218.456-.254-.285-.07-.047-.278-.37-.339-.3.201.164.382-.371.533.175 0 .139.054.285.06m.146-.843c.018.056-.305.185.066.217.166-.069.358-.17-.066-.217m.03-.343c.103.073-.1.227.207.247.05-.096.477-.227-.207-.247m.21-4.177c.042-.039.152-.065.38-.066-.123-.218.19-.599-.842-.583.843.175.135.511.462.65m-.147-.933c-.144.035-.006.143.188.185.212-.052.074-.16-.188-.185m-.256-.402c-.196-.108-.073-.299.002-.436-.358.054-.502.386-.002.436m-.033-3.209c.249.082-.168.147.324.184.276-.029.273-.118.2-.22-.271.021-.886-.029-.922.041zm.382-.066c-.363-.372-.075-.637-.386-.837-.202.292-.04.506-.023.81.17 0 .195.038.409.027m.227-1.903c-.79-.445-.426-1.095-.591-1.52-.742-.123.264-.128-.731-.21.035.18-.03.411.04.59-.006-.05.037-.09.243-.095.063.336-.277.707.46 1.085-.267.086.026.177-.343.19.332.221-.15.422.454.62-.377.007-.293.447.102.341.264-.238-.616-.583.298-.782.145.04.248.092.437.121-.091-.09-.968-.389-.37-.34m87.384-3.497c.364 0 .253-.054.533-.005-.02-.073-.257-.089-.19-.185-.335-.002-.301.073-.503.098.156.004.159.048.16.092M3.133 24.9l.534-.006q-.061-.119-.571-.119.02.062.037.124m86.244-8.627c.033.055-.111.074-.381.066q.012.046.028.093c.383.02.756-.11.353-.159m-14.592.271c.057-.126.363-.258-.103-.342-.23.08-.071.312.103.342m12.463-.249c.58.005.485-.132.743-.195-.485.015-.666.094-.743.195m-80.93.13c.014.018.03.035.143.028q.005-.102-.43-.089c-.322.066.026.353.467.213-.387.035-.168-.15-.18-.153m9.918-.288c.175-.042.428-.169-.056-.186.065.081-.51.03-.361.128.048.043.302.033.417.058m61.787-1.68c-.816-.095-.007-.28-.121-.405-.64.012-.118.39-.99.26-.015.15 1.103.041.456.181.189-.019.699.03.655-.037m.21-.19c.863-.034.367-.02.817.054.022-.024.1-.037.257-.034.017-.156-1.033-.15-1.074-.02m2.168-.334c-.305.085-1.005.024-1.178.075.25.068.652.097 1.226.081-.01-.043-.085-.067-.162-.092.218.007.347-.046.114-.064m-67.53.774-.03-.093c-.574.091-.345-.194-.56-.088-.156.175.082.113.447.151.012.02.03.037.143.03m.759-.133a3 3 0 0 1-.538-.025c-.054.116.61.174.538.025m67.646-.836c.498.017.3-.112.485-.16-.617-.042-.253.121-.485.16m-74.76.69c.17-.04.16-.154-.178-.154-.02.073-.243.137.179.154m.582-.286c-.267-.052-.604.045-.77.101.264-.002.194.083.549.057-.226-.116.349-.064.22-.158m69.392-.792c.106-.117-.466-.056-.568-.119.083-.05.652.001.504-.098-.626.067-.818.02-1.188.043.163.005.093.034.019.062.38.001.717.064 1.233.112m-2.194-.196q-.003-.116-.312-.153c-.022.024-.1.037-.256.033q-.048.148.568.12m-57.658.331c.104-.118-.225-.296-.59-.18.557.025-.005.15.59.18m79.917-.836c.308-.148-.398-.133-.54-.025.182.008.265.041.54.025m.362-.128c.018.043-.042.07-.105.095l.663-.007c.017-.082-.3-.078-.558-.088m2.413.038c-.26-.099.59-.156-.046-.156-.22.003-.05.087-.24.096l-.4.004c-.104.106.429.045.686.056m-85.615.083c-.033-.188-.176-.217-.113-.373-.48.068-.18.352.113.373m.839-.32c-.091-.106 0-.175.057-.25-.424.001-.515.24-.057.25m9.598-.906c-.124.042-.097.115-.218.158.514-.023.375.124.71.15-.107-.146-.12-.19-.492-.308M3.368 11.5c-.28.043.073.202.33.215-.262-.093.09-.22-.33-.215m72.004-.974c-.035-.057-.118-.103-.303-.122-.018.074-.445.063-.352.16.625-.02.963.022 1.5.11-.461-.055-.526.116-.228.126.03-.037.367-.15.514-.068-.021.073-.391.074-.496.13.95.012 1.024-.29 2.204-.21-.438-.04-.638-.145-.873-.24-.011.111.042.16-.075.188-.157-.117-.541-.018-.94-.022-.06-.063-.293-.08-.437-.12-.442-.034-.071.102-.514.068m-.627.131c-.234.047-.305.171.189.185-.185-.104.055-.134-.19-.185m-56.33.754c-.24-.169.095-.36-.026-.529-.33 0-.643.002-.791.04.522.104-.08.426.817.49m35.603-.483c.015-.082-.215-.1-.561-.088.09.055.108.13.313.153.005-.038.019-.074.248-.065m-24.507.122c.104-.106-.43-.044-.685-.055-.113.085.043.211.475.245.072-.108-.188-.13-.324-.184.25-.055.172 0 .534-.006m-5.226-.072c-.721.086.163.007.057.186.364.018.239-.067.37-.097-.457.053-.111-.105-.427-.089m-.018-.062c.679-.045.313-.272-.103-.342.228.116-.346.064-.218.16.117.065.656.095.32.182m4.56-.358-.064-.217c-.454-.007-.551.06-.77.101.915-.056.396.09.835.116m-4.546-.484c-.087-.1.093-.27-.351-.277.362.104-.218.254.35.277m2.623-.15c.113-.084.496-.11.609-.194-.688.046-.433-.155-.978-.146.35.144.418.234.369.34m-9.348-.03c.203.035.217.122.57.118-.026-.064-.302-.229-.57-.119m6.498-.129c.212-.052.074-.16-.19-.185.012.041-.224.031-.245.065.509-.055.088.134.435.12m5.549-.18.532-.005c-.077-.08-.12-.169-.332-.214-.277.028-.274.116-.2.22m-.161-.092c-.172-.152.098-.212.314-.284-.255-.004-.284.038-.522.036.245.106-.428.245.208.248m-21.953.19c-.145-.089-.203-.105.086-.157-.75.025-.224-.096-.038-.124l-.797.008c.024.083-.347.083-.496.13.33.035.239.182.724.18-.081-.127.183.003.52-.037m16.168-.35c.312.005.33.08.17.123l.4-.004c.144-.108-.363-.214-.57-.119m-6.374.095c-.016-.055.304-.184-.065-.217.018.055-.304.184.065.217m6.024-.372c.06.096.407.117.588.182-.052-.099-.15-.185-.588-.182m12.359-.155c.283.014.517.05.655-.038-.291-.002-.31-.075-.313-.153-.198.007-.493-.006-.522.036.418.035.452.087.18.155m-17.83.148c-.031-.168-.858-.039-.92.04.423.012.452-.06.92-.04m6.346-.188c-.624-.008-.59.005-1.081-.052-.003.02-.01.037-.125.032l.018.062c.336.005.992.063 1.188-.042m14.164-.36c.317-.207-1.722-.077-1.196.011.188-.079.927-.022 1.196-.012m-10.011-.025c.056-.047.173-.08.228-.127-.248.01-.303-.032-.54-.026.002.077.02.151.312.153m-7.495-.08c.21.035.196.128.57.12.018-.132.15-.215-.085-.28-.114.062-.572.054-.485.16m43.992-.537c-.018.045-.204.055-.238.096.658-.064.317.027.817.054-.322-.123.124-.214.02-.374-.527.012-1.408.175-.723.257-.016-.033.039-.08.124-.033m-40.875.256c.125.068.129.167.457.182-.091-.076-.053-.187-.457-.182m15.114-.308c-.521-.029-.797.141-.474.192-.058-.109.418-.107.474-.192m-10.334.23c-.145-.322.672-.597.553-.817-.521.182-1.045.52-.553.816m45.758-.867c-.422.001-.804.16-.466.223.207-.064.649-.078.466-.223m-30.33.274c.565-.025.2.193.843.147-.275-.135-.776-.298-.121-.403-.213-.04-.577-.004-.797.008.233.096.088.136.075.248m-.532.006c-.08.003-.156.006-.124.032l.267-.002c-.01-.03.097-.038.114-.064-.258-.01-.354-.064-.684-.056-.173.113.457.015.427.09m31.615-.443c-.348-.066-.348-.16.076-.187-.768-.066-.915.076-1 .228.225.046.716.001.924-.04m-23.862.053c-.102.023-.291.218.188.185-.093-.054.107-.184-.188-.185m-19.35-.023c.099.075.163.158.58.15.192-.055-.068-.18-.58-.15m-.33-.215c-.232.057.13.078.056.186l.398-.004c.012-.103-.33-.114-.454-.182m-13.82-3.817c-.102.023-.292.218.19.185.204-.05.014-.146-.19-.185m1.73-.454c-.007-.147.307-.227.43-.347-.372-.029-.63-.014-.78.07l.428.09c-.243.003-.511.225-.077.187m1.873-2.2c-.663.065-1.004.198-1.226.355.29.028.59-.015.949.053-.166-.17.648-.29.277-.408M38.508 8.24a.9.9 0 0 0-.264-.08c.075.037.166.062.264.08M1.525 15.57l.003.001h.008zm.01 0c.103-.008.253-.005.248-.034-.106.01-.174.021-.247.033m94.818 14.124c-.548.076-.236.16-.297.346-.24 0-.27.041-.522.037.489.325-.528.562-.395.907l-.398.004c.513.191-.285.185.245.371-.39.041-.411.16-.19.251-.383-.022-.333.047-.657.038-.07.096.384.056.312.152a4.3 4.3 0 0 0-.747.294c.114.55.23 1.097.348 1.715.2 1.068.497 2.116.66 3.232.262 1.794.242 4.006.572 5.903-.041 3.23.198 6.733.268 10.9.028.35.109.486.096 1.012-.397 1.587-.143 4.236-.332 6.332-.051.565-.24.93-.313 1.484-.014.1-.022.206-.034.31.03.02.058.035.095.063-.01.105-.06.147-.121.174-.115 1.098-.158 2.265-.226 3.112-1.094 1.945-1.601 6.314-2.515 9.01-.022.064-.151-.019-.207.152-.36 1.072-.891 1.757-1.303 2.911-.236 1.737-.748 1.44-1.356 2.067-.208.215-.307.471-.621.62-.423.202-.794 1.107-1.198 1.41-.348.262-.676-.043-1.015-.197-1.044 1.832-2.087 3.624-2.814 5.646-1.007.29-1.16 2.001-1.521 2.967-.12.317-.735-.018-.396.852-.707 1.163-1.877 2.117-1.936 3.748-.956.088-.964 1.404-1.458 2.13-.201.294-.58.312-.687.697-.041.15.06.492.005.64-.223.587-1.084.395-1.248 1.054-.1.397.046.98-.14 1.213-.597.753-1.753 1.27-1.908 2.799-.04.397-.49.277-.577.586-.05.169.127.623.07.787-.192.55-.87.775-.995 1.441-.065.339-.498.235-.671.466-.367.493-.188 1.624-.968 1.414.144 1.186-.56 1.909-1.518 1.971.042.114.127.26.225.416-.708.028-.296 1.495-.93 1.588-.084.05.142.336.17.473-.365-.013-.354.316-.336.77-1.311.064-.877 1.885-2.045 1.864.377 1.283-.377 1.251-.568 1.865-.053.168.213.737.164.907-.048.16-.324-.059-.434.012-.084.052.04.362-.034.463-.098.136-.51-.104-.636.005-.13.108.047.57-.05.694-.115.148-.517-.106-.636.005-.32.292.517 1.962-.75 1.189.035.581-.236.811-.302 1.381-.04.333.108.916-.002 1.074-.065.096-.342-.046-.433.012-.111.073-.158.228-.18.414.16-.015.32-.018.48-.066-.213.188-.113.289.28.18-.25.149.093.22-.187.373a1.9 1.9 0 0 1-.591-.198c-.008.259-.015.521-.08.713.14.208.347.42.758.646-.344.125-.112.186-.378.302-.392-.092-.587-.284-.871-.444a1 1 0 0 1-.091.373c.378.231.57.487.092.816.37.38.993.944.322 1.277.247-.019.336.079.272.197-.213-.11-.431-.138-.656.007.064.11-.03.234-.392.374.22.097.105.21.465.097-.094-.052-.278-.096-.18-.161.594-.01.39.326.917.461-.42.07-.667.187-.837.325.413.586.632 1.032.61 1.213-.031.269-.538-.221-.85-.209-.396.016-1.12.348-1.044 1.063.028.273.477 1.082.443 1.265-.075.4-1.095-.375-1.153.1-.04.319.446 1.227.388 1.322-.168.275-1.237-.518-1.734-1.027-.151-.002.08.289-.071.288-1.161-.918-2.056-.419-2.454.135-.06.084-.25.12-.34.132-1.031.121-2.933-1.236-4.55-2.242-.291-.36-.48-.479-.734-.755-.621-.29-1.371-.871-2.002-1.182-.622-.711-.914-.68-1.618-1.574-.773-.728-1.42-1.228-2.192-1.904l-.04-.009c.03.197.1.388.256.568-.112.092-.668.249-.477.294.686-.051-.21.356.45.413-.386.149-.028.164-.201.346-.295-.046-.068-.16-.365-.205-.25.098-.572.146-.57.265-1.013-.179-1.618-.463-2.38-.752-.454-.175-1.596-.521-1.532-.829-1.13-.138-1.495-.636-1.743-1.013-.878-.134-1.06-.466-1.365-.794.122-.003.245-.045.37-.086-.345-.038-.233-.361-.827-.166l.555-.304c-.558-.316-1.364-.561-2.782-.506.117-.209-.056-.318-.737-.175.865-.676.78-1.255.07-1.401-.16.104.245.036.008.163-.473.087-.415-.007-.922.114-.035-.07.153-.21-.283-.158.342-.195.479-.329.356-.381-.304.136-.612.154-.918.179.783-.811.607-1.344-.512-1.527.645-.371-.45-.139-.39-.305-1.022.406-.628-.313-1.745.267 1.167-1.128-1.288-1.085-1.028-1.708-.626.088-1.132-.098-1.055-.374-.996-.014-1.098-.38-1.175-.763-.734-.026-.77-.201-1.412-.237.097-.108.627-.306.432-.326-.798.346-.882.032-1.033-.071.152-.031.307-.024.453-.117-.861.09-1.286-.228-.913-.719.14.018 1.152-.017.227.391.198.066.75-.024 1.024.013.183-.127.087-.131.252-.25.365-.067 0 .331.569.083-.204-.084-.127-.421-.947-.137.9-.84-1.07-.47-.502-1.215-.425.098-.164-.179-.643.1.372-.23.06-.143.155-.244.12-.028.245-.029.36-.111-.57.067-.185-.314-.693-.274-.072.076.054.219-.337.274.503-.432-.152-.115-.036-.267.338-.032.144-.141.515-.36-.363-.041-.288-.223-.767-.146-.111.189-.75.393-.345.223l.423-.347c-.403-.147-.68-.354-1.18-.448.292-.067.117.195.548-.099-.022-.163-.324-.197-.583-.17.12-.028.243-.059.35-.173-.427.124-.121-.116-.3-.115-.085.059-.166.14-.258.159.347-.342-.361.007-.3-.114.15-.05.296-.125.435-.247-.097-.327-.047-.698-.664-.661.167-.173.548-.472-.124-.2.137-.132.285-.178.424-.305-.42.127-.632-.079-.257-.456l-.364.071c.58-1.401-.896-1.765-.773-2.948-.404-.013-.342-.285-.375-.508l-.367.075c.267-.334.009-.475-.267-.418.533-.322-.074-.089-.214-.133.305-.858-.751-.96-.69-1.686l-.275.057c-2.052-4.004-5.27-7.425-6.874-12.319-.265.154-.388.07-.304-.076.189-.06.119.077.277-.05.244-.373-.31.038-.397-.06l.315-.322c-.518-.495-.612-1.008-1.101-1.54.119-.037.352-.172.25-.179l-.371.064c-.19-1.405-1.204-2.339-1.386-3.806-.413-.472-.77-.979-.565-1.786-.487.014.074-.547-.487-.5.436-.666-.515-.597-.065-1.267-.865-.536-.33-1.766-1.142-2.367l.32-.32c-.668-.44-.107-1.67-.852-1.95.55-.544-.4-.422.217-.883l-.38.024c.4-.442.017-.512-.048-.813-.121-.555.21-1.673-.38-1.608-.017-1.37-.644-2.548-.481-4.036-.096.001-.181.062-.274.077.117-.845.318-1.728-.231-2.328-.341.038-.687.04-1.04-.07a8.5 8.5 0 0 1 1.473-.388l.038-.034c-.45-.163-.27-.547-.118-.85-.127-.004-.236.127-.36.142-.1-.152.537-.59.284-.682-.491-.59-.346-1.44-.113-2.334.017.163-.21.142-.447.204.464-1.137.13-1.977.038-2.905.17-.172.364-.136.53-.339-.6.022-.153-.31-.69-.318.657-.478.076-.558.568-.978-.563-.205-.082-1.084-.233-1.553.847-.296-.217-.733.364-1.22-.196-.086-.367.102-.56.074.093-.149.583-.44-.033-.496.509-.59.364-.999.285-1.429.266-.257.566.05.827-.252-.544-.322-.816-.606-.814-1.135.399-.098.165.14.479.178.206-.208.434-.07.64-.279-.204-.062-.375-.158-.447-.27-.042.038-.085.075-.126.121-.012-.59.125-.507.252-.47.004-.004.003-.006.006-.008l.002.01c.028.007.055.013.079.007-.016.053-.035.091-.054.13.015.086.058.161.265.075l.002-.043c-.067-.05-.088-.106.006-.12.01-.21-.001-.413-.33-.547.18-.156.372-.096.55-.287-.21-.176.087-.396-.571-.38.625-.484.046-.71.067-1.066-.221-.082-.43.361-.651.171.188-.289.854-.17.737-.398-.284.075-.935.067-.472-.203.156.025.314.11.468.035.226-.528.223-1.008.118-1.47a.6.6 0 0 0 .13-.034c.153-.337.469-1.018.009-1.096-.364 1.196-1.011-.68-1.4.725-.335.018-.932-.398-1.376.667l.012-.67c-.265.03-.69.175-.861-.447.318-.466.97.71 1.206-.349.05.178.149.181.2.36.715-1.005 1.465.01 2.203-.503 0-.008-.004-.015 0-.024l.03.007c.018-.013.035-.016.053-.03l-.01.04.07.016c-.006-.018-.016-.038-.02-.05.018-.147.082-.215.15-.247-.027-.02-.074-.036-.178-.045-.09.097-.098.183-.188.281-.522-.193.807-.397.286-.59.433-.188.017-.255.285-.417.342-.009.108.25.373.116.164-.385.21-.746-.172-1.06.156.01.313.012.467-.016-.16-.077.073-.202-.088-.279-.155-.03-.312.035-.468.014a1 1 0 0 0 .184-.16c-.101.058-.22.04-.322.093.095-.35.276-.31.429-.396v-.027c-.086.073-.596.09-.374-.042.82.023.098-.322.478-.506.105-.032.208.001.31.035.062-.055.123-.039.153.038a.33.33 0 0 0 .192-.016c-.546-.122-.13-.34-.27-.505-.445.222-.477-.204-.356-.303.14.144.448.23.837.05-.08-.075-.585-.115-.361-.218.929.061.758-.716.8-.973-.126.054-.254.104-.375.027.503-.212-.007-.096.014-.249l.484-.238c.238.181.499.014.747.033-.245.293-.391.331-.033.57-.704.262-.132.21-.78.551.33-.108.593.092.455.247-.155-.04-.304-.139-.463-.082.168.068-.534.137-.202.265.253.018.51-.038.762-.022.226-.082.456-.143.687-.2.164-.033-.023-.522.093-.659.217-.044.375.56.569.572.24.017.336-.563.549-.77.249-.243.53.048.788-.239.25-.276.445-1.214.714-.75l.024-.143a1 1 0 0 0-.177-.03.7.7 0 0 1 .187-.033c.058-.376.062-.708.23-.938.002-.026-.003-.047-.002-.072-.026-.007-.04-.015-.068-.02.03-.006.04-.016.067-.022a2.5 2.5 0 0 0-.041-.466 2 2 0 0 1-.3.022c-.7-.37.129-.659-1.326-.859-.458.101.495.114.342.246-1.556-.259-.177-.934-1.314-1.264.96-.23-.967-.419.106-.53-.036-.058-.118-.104-.303-.123.138-.058.315-.108.483-.16-.057-.036-.257-.077-.274-.029-.24-.083-.09-.15.2-.22-.178-.377-.627-.633-.3-.994-.778-.24-.266-.679-.156-.964-.757-.638.149-1.277-.79-1.737.324.01.272-.06.656-.038.03-.098-.315-.096-.693-.087.132-.109.369-.06.636-.1-.556-.043-.32-.075-.19-.185-.585-.035-.12.15-.626.131.23-.114.337-.384.827-.35.102-.106-.215-.1-.561-.089-.001-.373.89-.446.147-.842.186.036.213.01.4-.004.039-.11-.161-.159-.456-.182-.092-.097.335-.086.35-.159-.047-.155-.786-.129-.756-.304.729.091.186-.223.582-.286-.092-.099-.54-.104-.598-.212.304-.012.175.088.427.09.076-.332-.218-.427-.091-.748.056-.148-.216-.347-.132-.435.098-.1.539-.133.6-.224.107-.159-.498-.45.118-.5-.383-.298-.234-.595-.3-.994-.581-.022-.125-.36.002-.436-.143-.089-.21-.033-.541-.026.104-.095.429-.143.315-.284-.121-.096-.368-.037-.675-.024-.08-.066.173-.06.38-.066.382-.307-.953-.618-.136-.902-.491-.11.332-.439-.692-.523.144-.048.074-.14.495-.13-.005-.088-.398-.074-.57-.118.924-.009.015-.349-.016-.499-.024-.125.685-.269-.112-.373.914-.149.072-.366-.053-.622-.033-.036-.25-.024-.407-.027.383-.36-.248-.592-.52-.836-.011-.109.258-.159.608-.193.083-.155-.405-.162-.482-.275.628.014-.14-.262.458-.254-.513-.112-.341-.299-.266-.434-.05.09.34-.15.333-.22-.01-.095-.303-.153-.341-.247-.04-.103.396-.212.44-.316.064-.154.185-.459-.083-.716.3-.049.228-.068.657-.038-1.052-.229.035-.386-.187-.62-.355.022-.292.132-.76.131 1.025-.109.105-.56.287-.813-.608.02-.053.28-.854.258.804.117.12.314.414.494-.943-.473-1.07-1.17-1.397-1.544-1.125.158.519.763-.795.912.387.2.312.233.646.367-.372-.03-.631-.014-.78.07 1.075.182-.058.613 1.013.706-.69.076-.02.23-.174.313-.194-.005-.073-.092-.294-.09-.712.024-.06.444.254.402-.694.154-.046.372.31.59-.453.135-.776.705.12.84-.015.054-.206.072-.512.066.175.333.424.526-.004.872-.43-.288.106-.532-.746-.709-.13.022-.117.073-.382.066.119.12.15.127-.068.22.36.104.684.295.255.401.695.093.382.272 1.053.394-.556-.135-.408.06-.486.161-1.001-.504-.806-1.055-1.371-1.45.112-.068.717-.198.059-.25.11-.084.495-.11.608-.194-.237.042-.227-.035-.57-.119-.001-.059.435-.026.373-.097.066-.129-.657-.052-.59-.18.23.008.245-.028.248-.066-1.007-.258-.081-.822-.584-1.053.603-.253-.414-.529-.004-.903-.357-.144-.652-.38-.132-.435-.096-.064-.31-.097-.447-.15-.13.02-.116.072-.38.065.497-.054.066-.136.068-.219.01-.363-.042-.887.007-1.309.493 0 .348.042.303.122.154-.007.24.004.276.03.166-.01.116-.064-.018-.063.102-.089.369.042.52-.037-1.292-.187-.167-.53-.24-.807-.081-.004-.155.047-.116.064-.726-.313-1.025-.76-.413-.93.035-.1-.663-.006-.57-.119.468.094.233-.122.77-.102-.274-.073-.261-.16.07-.217.306.097.523-.064.636-.102-.504-.077-.551-.185-.627-.305.31.006.33.08.17.123.383.02.52.052 1.063-.01-.591-.069.206-.099-.197-.217.156.004.234-.009.256-.034.585.064 1.136.072 1.254.174.11-.025.289-.036.522-.036 0-.056-.183-.064-.17-.123.352.006.423-.047.36-.128.328.088.753.05 1.064-.01-.14.046-.13.08.037.123.33-.076.896-.013 1.092.083.383-.03-.196-.077-.045-.155l.929-.009c-.168.127.308.121.084.28.29.035.585.07.837.115-.233.062.009.078.045.155-.408.012-.338.212-.191.251.188-.029.407-.05.36-.128.667.087.828-.016 1.019-.166-.143-.04-.373-.058-.561-.088.983-.06.294-.322.942-.415-.31-.08-1.21-.21-1.216-.05-.458-.009-.187-.187-.075-.249.422-.032.218.1.438.12.354-.005.438-.167.655-.038.096-.058.317-.089.352-.159.123.018.25.035.266-.003.203.038.534.214.712.15.332.134-.01.262.263.432.433-.022.157-.119.078-.188.54.025.373-.097.912-.07.126.022.039.272.455.181-.145.103-.228.161-.163.344 1.07.061.73.302 1.336.454.322-.127-.344-.149-.093-.31.468-.014-.051.123.569.118-.365.025-.193.066.41.027a.7.7 0 0 1-.514.067c.068.122.152.166.73.211-.375.15.392.242.512.37.429-.082 1.239-.375.8-.445.249-.095.565.073.95.053.356-.06.928-.078 1.007-.197-.035-.035-.138-.016-.132.001-.398-.023.149-.08-.047-.155.02-.064-.382.01-.39.035-.196-.033.012-.228.325-.252-.598-.179-.668-.674-1.291-.735-.293-.035.316-.126.487-.16-.033-.025-.142-.03-.153-.06-.373-.053-.215.138-.39.034-.077-.024-.153-.049-.16-.092 1.097-.018.062-.553-.214-.714.376-.098.65-.293.019-.374-.06-.119.106-.012.389-.035-.314-.087-.202-.079-.331-.215-.335.148-.728.103-1.274.2.309.062-.038.09.057.186-.388-.122-.515-.312-.56-.524.292-.024.64-.1.922-.04-.01-.089-.71-.112-.674-.024-.444-.02.282-.277.228-.127.356-.032-.215-.095-.055-.186.738-.044 1.262-.143 1.492-.358.544.06-.216.466-.106.531.279-.097.744-.155.704-.318.488.015.506.154.473.244.58-.029.194-.173.582-.286.292.053.312.296-.182.283.092.16.95.085.615.274.27-.079.619-.143.724-.257.124.018.25.035.266-.002.277.006.073.137.436.12.48-.026.614-.124 1.017-.166-.26-.243.046-.483-.102-.778.298.063.488-.046.638-.1-.483.092-.203-.005-.933.01.564-.032.438-.143.467-.223.319-.044.58.085.664-.007.195.005.075.093.295.091.539.044.007-.135.364-.128.42-.005.252.123.179.154.14.12 1.295-.027 1.244.143l-.533.005c.1.165.735-.016.967.115.386-.03-.321-.043-.17-.123.64-.022.29.215.865.21.25-.045.39-.114.474-.193.58.012 2.378-.068 1.495-.358-.142.048-.362.08-.354.16-.327-.062-.001-.232.04-.313.339.11 1.068-.026 1.483.047-.111.065-.235.126-.344.191.022.095.168.157.456.182.212-.109.118-.237.03-.343.744.094.154.23.253.402.156.003.235-.009.258-.034.327-.03-.497.155-.6.224.338.114 1.007.033.988.177.27-.06.509-.126.458-.254.415.043-.07.138.065.217.236.05.658.051.835.116.106-.007.123-.033.256-.034-.245-.103-1.026-.527-.796-.428.219.007.22-.032.39-.035-.075-.103-.427-.134-.35-.277.4-.027.407.05.807.023.055-.065-.275-.072-.275-.029-.157-.075.25-.305-.112-.373-.185.038-.585.033-.493.13.056.08.214-.045.53-.005.077.147-.476.06-.788.04-.001-.045-.003-.089-.161-.093-.002-.059.435-.026.372-.098-.242-.038-.444-.044-.951-.052.028-.042.325-.029.523-.036q-.024-.078-.045-.155c-.135-.085-1.054-.076-.597-.212.193.005.075.092.293.09.073-.08.405-.109.476-.19.207.123.199.035.466.212-.364.001-.254.054-.533.005l.019.062c.014.02.032.036.142.03.002-.019.01-.037.124-.032.008.053.126.08.296.09-.011-.077.219-.099-.048-.155.63.025.727-.062.607-.193-.561.066-.412-.038-.016-.062-.057-.142-.576-.162-.503-.338.279-.017.268.042.295.091.17-.013.192-.057.379-.066-.598-.208-.363-.5-.993-.644.177-.05.516-.067.34-.19.34.01.646.1.447.151q.526.023.37-.097c.123-.102.176.082.17.123 1-.123-.066-.563-1.044-.363q-.015-.046-.026-.093a.6.6 0 0 0-.24.096c-.727-.04-.438-.214-.633-.336.439.083.552-.078.618-.162-.038-.079-.51-.045-.693-.086.268-.097.203-.13-.067-.217.629-.04.962-.028.885-.165.369.026.92.004.843.147-.036-.242.669-.499 1.97-.549.344-.079.188-.176-.075-.249.94.082.249.358 1.68.264.017-.082-.522-.019-.436-.12.942.054-.371-.186-.245.065-.718-.063.568-.277.892-.133.41-.026.149-.085.087-.157.319.021.583.145.333.215.098-.028.358-.022.379-.066.407.1-.236.144-.173.313q.19-.048.372-.097c.428.054-.127.235-.353.16.148.04.165.112.314.152.239.001.267-.04.522-.036-.252.085-.331.07-.352.16-.535-.025-.801-.022-.762.131-.29.02-.208-.058-.418-.058-.178.011-.087.08-.095.126-.017.082.737-.037.56.088-.362-.053-.397.017-.808-.023.036-.118.144-.147-.197-.216-.388.067.339.186-.201.22.043.087.603.21.693.087-.051.2.28.397.215.714.13.046.197-.01.542.025.028.097-.254.206.083.28.31-.128 1.08.064.77-.1.306-.049.119.107.322.183.45-.02.16-.152.068-.219.27.008.413-.01.378-.066.054.086.195.175.732.21.106-.007.123-.033.256-.034-.2-.092-.44-.175-.615-.274.652-.04 1.222-.398.145-.406.202-.103.618-.162.999-.228-.65-.085-.155-.246-.41-.38.609.111 1.586-.096 1.939.147.473-.068.799.013 1.464-.015.156.16-.034.245-.306.315.032.036.249.024.409.027-.066.161-.163.315-.686.38.304.054.702.084.607.243.342.037.525-.096.666-.007.239-.07.357-.128.447-.285.349.16.503-.013 1.34.017-.572-.143-.226-.214-.265-.433.53.103-.161.328.645.367-.207.054-.052.183-.048.281 1.59.343 1.59-.372 2.653-.494-.112-.027-.165-.068-.172-.123.156.003.234-.009.258-.034.419-.043.132.1.55.057.006-.089.193-.063.637-.1-.371-.246-.412-.467.497-.566-.111-.027-.164-.069-.17-.123.57.003.493-.13.885-.165 1.446-.01 1.867.248 3.028.312.393-.288-.48-.38-.481-.712-.535.047-.814.12-1.02.166-.143-.056.368-.108-.036-.124.526-.084.85-.21.667-.443.329-.06.406.01.789-.039-.222-.442.262-.816 1.258-1.134.015-.615 3.673-.849 5.34-.428-.287.027-.5.07-.913.071.109.158-.251.22-.295.346.91.288.186.605.547.93-.11-.006-.143-.03-.274-.03-.12.272.284.47-.09.593.136.053.35.087.446.151.048.087-.353.082-.495.13.505.102-.27.54.814.49-.3.097-.13.14-.046.281-.771-.044-.434-.157-.884-.272-1.223-.31-2.77-.117-3.961.133.023.141-.18.234-.297.346.14.063.422.091.826.085-1.017-.282.79-.47 1.769-.329.075.074-.224.07-.086.156.058.04.247.047.293.09.333-.08.45-.054 1.037-.104-.038.065.115.081.17.123.713-.33 1.526.08 2.307.132-.188.047-.08.163.312.153.38-.049-.211-.119-.064-.217.238-.007.292.035.54.025-.191.047-.068.161-.057.25.413 0 .35-.102.913-.072.11.026.163.07.169.123.394-.043.51-.029.807.023.329-.029.303-.13.476-.192 1.118-.008 1.32.035 2.262-.023.148.04.165.113.313.152.232-.01.287-.056.227-.127.347-.013.142.12.56.088-.077.081-.153.145.19.185-.39-.112 1.598-.19 1.348.048-.555.007-.782-.097-1.33.014.538.097.719.173 1.264.205.14-.166 1.106-.214 1.207.02.407-.022.542-.1.892-.135.157.004.129.056.162.092.287.012.239-.047.237-.096.375-.009.338.09.693.087.336-.088-.367-.074-.324-.184.648.132 1.857.117 2.727.191.019.073.257.09.19.185.42.01.53-.044.635-.1.474.101 1.089-.002 1.51.141-.11.09-.567-.003-.798.008-.034.1.204.125.446.151-.49.093-.884-.125-1.255-.174-.215.146-1.42.21-2.09.146-.227.08-.177.215-.305.314.13-.002.093-.039.115-.063.504.002.598.111 1.102.114.05.05-.11.055-.105.094.182.082.693-.007.932-.009-.188.028-.713.15.037.124.32.256-.662.402.035.561-.524-.06-1.011.001-.628.131-.445-.062-.41-.04-.798.008-.187-.12.338-.22-.207-.247-.366.021.263.25-.478.192.034.125.414.16.485.275.433-.016.643-.079.893-.133.24.021-.386.204.084.28.438-.033.049-.059.087-.157.223-.048.526.014.78-.07.494.068-.448.078-.496.13-.07.084.62-.03.553.056.48-.08.336-.109.74-.194.129.088.985.116.455.182.155.103.253.013.676.024l-.047-.155c.86.09-.357.205-.164.344q.633.015.496-.129c.25.055.375-.04.674.024-.026.054-.42-.024-.514.068-.107.117.513.044.446.151-.273.02-.403.093-.656.038.166.2-.772.17-.553.38.52-.047.87-.13 1.273-.2-.054-.043-.341-.024-.54-.027.055-.047.173-.08.228-.127.278.006.073.137.437.12-.14-.078.693-.048.75-.163.505.051.552.048 1.206.02-.256.042-.276.135-.474.191-.344 0-.228-.119-.57-.119-.164.072-.236.135-.523.037-.242.034.042.242-.495.13.09.105 0 .173-.06.25-.674-.026-1.715-.026-2.09.145-.073-.126-.145-.252-.738-.242-.155.007-.096.058-.105.095-.306.013-.513 0-.675-.025.183-.114-.068-.15.058-.25.357-.027.287.06.55.057.65-.123-.287-.327-.53-.43-.11.102-.51.166-.561.348-.54.015.01-.043-.17-.123-.46-.008-.371.097-.628.131.153.103.298 0 .55.057-.26.14-.778.226-1.52.264.233.097.088.136.075.25-.385-.092-.82.014-1.464.014.108.083.579.072.588.181.527-.04 1.057.091 1.187-.043.185.02.269.064.305.122-.49-.005-.73.042-1.046.073.207.098.442.226.238.34.533.034.373-.077.352-.159.107.06.635.092.664-.007-.213.103.532.303-.153.375-.053.033.724 0 .789-.039.308.064.43.178.615.274.265-.003.144-.087.514-.068-.143.123.118.16-.058.25.479.14.683-.104 1.302-.107-.11-.08-.058-.095-.322-.183.293-.119.437.14.674.024.169.045.407.072.446.151.109-.055.476-.056.353-.159.472-.024.752.003.826.085.574-.177-.403-.105-.608-.243-.047 0 1.05-.12.95.053.013-.14.158-.326-.265-.434.599.004.528-.069.885-.165.005.114-.147.121.067.217l-.401.004c.062.175.413.142.085.28.51-.065.552-.246.4-.44-.004-.03.157-.026.257-.034q.134 0 .267-.003c.05.05-.11.055-.105.095.335.002.3-.073.502-.099q.297.023.428.09c-.326.1.018.172-.316.282-.412.02-.141-.142-.445-.152-.29.078.254.223.237.34l.664-.007c.105-.024.448-.186.523-.037.52-.045-.056-.064-.046-.155.145-.04.499-.018.674.025.63-.11-.274-.307-1.015-.27.365-.076.27-.045.352-.16.436-.036.235.094.313.153.22-.03.714-.006.635-.1a9 9 0 0 0 2.138.01c-.217.061-.534.102-.753.163.168.145.436.045.809.023.048.107-.215.15-.334.221-.472.035-.176-.132-.446-.15-.172.012-.193.056-.381.065.159.081.567.097.846.147-.187.09-.612-.037-1.065.011-.07.096.383.056.313.152a2.5 2.5 0 0 0-1.38.294c-.26-.01-.14-.119-.56-.087-.554.02-.595.147-.864.227-.558-.002.115-.117-.314-.152.23.001.575-.049.477-.192-.44.171-1.115.291-1.74.423-.644-.01-.755-.16-.767-.335-.043-.033-.271-.018-.285-.059-.292.016-.077.172.18.154-.516.046-.587.14-.6.224-.167-.012-.284-.037-.294-.09a.6.6 0 0 0-.237.095c.156.086.34-.049.54.026-.562.16-.133.308.149.497-.303-.064-.728-.004-.78.07-.027.175 1.143.32.113.373-.562-.077-.254-.558-1.071-.456-.225-.052.172-.23-.484-.276-.252.015-.07.121-.503.098.054.12.493.14.482.276-.35-.1-.943-.036-.76.132a1 1 0 0 1-.293-.09c-.234.058-.591.09-.751.163.39.132.816.255 1.557.296-.003.057-.445.023-.514.067-.054.26 1.028.222 1.194.424.156-.006.096-.057.105-.094.504.11 1.313.203 1.776.138.08.152-1.103.041-1.008.197-.182-.008-.132-.077-.17-.123-.475-.012-.677.033-.77.101-.181-.008-.134-.077-.17-.123-.71.116-.107.09-1.054.042-.151.085-.192.193-.885.165-.314.164-.05.27-.124.47.383.021.33-.048.654-.039-.188.151-.786.044-1.151.167.038.057.457.014.55.057q-.148.07-.645.07c.054.063.586.002.684.054-.054.121.032.111-.077.188.543.198 1.83.271 2.762.315-.018.073-.29.15.303.122.002.08.188.246-.22.158.15.103.299.001.55.057-.167.062-.613.066-.618.162.037.076.443.002.39-.035.135.06.16.12.074.25.285-.126.353.024.019.061.162.036.396.052.313.152.403-.06.067-.122.057-.25.324.07.386-.043.504-.099.305-.012.175.088.427.09-.646.064.146.073-.353.158.603.032.136.067.835.116.107-.007.124-.033.257-.034-.612-.15-.497-.314-.672-.46.11.004.142.03.276.027.053-.195-.418-.242-.664-.43.437-.005.482-.093.477-.19.418-.044.13.098.55.056.109.098-.221.1.046.155.348-.04-.05-.162-.065-.217.188.001.378.001.389-.035-.06.147.84.19 1.786.17.168.091.424.136.825.084.143.12.185.16-.058.25.325.027.369.161.622.227.027-.113.053-.228.076-.363-.027-.923.03-1.619.13-2.005-.073-.02-.145-.042-.286-.046-.358.074.243.18.093.311-.71-.036.072-.279-1.005-.239.332-.125.936-.192 1.094-.354-.673-.025-.338.162-.884.164-.025-.122.1-.212.742-.194-.028-.22-.125-.315.135-.437.507.09-.147.127.34.245.612-.017.37-.126 1.046-.072-.222.118-1.192.081-1.121.26.168.101.524-.012.7.117-.107.085-.276.157-.447.23.085.206.178.458.31.585.342.333 1.164.717 1.556.131.15-.223.29-1.198.437-1.302.318-.226.68 1.218 1.032.923.237-.199.409-1.278.519-1.296.317-.055.709 1.444.8 2.243.127.132.118-.28.245-.148.39 1.67 1.46 2.08 2.15 2.02.105-.01.287.127.372.196.474.401.895 1.26 1.288 2.285l.575-.006c.135.087-.164.082-.087.157.479-.13 1.11-.008 1.244.143-.356.026-.285-.059-.551-.057.508.528-.141.992-.617 1.363l.056.168c.174.052.326.11.288.217a1.4 1.4 0 0 0-.212.015c.14.428.28.855.419 1.263.017.514.099.762.138 1.183.103.227.198.486.29.755.93.147 1.166.478 2.12.62.073.103-.098.27.473.244-.001.058-.056.105-.228.127.074.102.376-.125.533-.005.138.135-.272-.022-.248.065.288.036.585.07.836.116.279.214.189.656.659.866q-.09.068-.371.097c1.04.57-.22 1.007.192 1.534M77.638 17.606c.093.054-.105.184.19.185.233-.046.305-.17-.19-.185m3.819-4.15c-.094-.12.275-.2-.331-.216.172.126-.34.221.33.215m-3.924.257c.324.016.62.04 1.074.02-.078-.125-.19-.24-.617-.274-.01.12-.28.12-.457.254M30.68 10.945c-.14-.233-1.03 0 0 0m.609-.193c-.498-.025-.484.158-.087.157-.136-.087.163-.083.087-.157m-15.617 2.182c-.462-.035-.502.163-.212.19.103-.058.349-.084.212-.19m.599-.224c.172-.06.478-.095.475-.192-.282-.07-1.131.155-.475.192m.684.055a.6.6 0 0 1-.238.096c-.027-.038-.063-.073-.285-.059.002.1.497.071.7.118.172-.042.162-.155-.177-.155m.93-.009c-.167.098.167-.216-.33-.214-.04.06-.263.081-.22.158.157.003.376-.009.409.027-.388 0-.365.13-.22.158.227-.005.696-.103.362-.129m-12.692 2.59c.017-.049.217-.008.277.028-.288.117-.066.16.215.278.36-.119 1.055-.168 1.379-.294-.535-.092-.951-.082-1.774-.138-.09.026-.36.205-.097.125m-.411.408c-.038.224.8.012 1.11.145.022-.15-.522-.153-1.11-.145m-1.916-.604.029.093c.33-.007.393-.062.664-.007-.037-.046.013-.115-.17-.123.079.127-.272.02-.523.037m.069 1.558c-.28-.049-.168.004-.532.005.098.247.999-.12.514-.068zm-.754-1.177c.489-.05.28.083.683.056-.091-.077-.29-.125-.456-.182.125.083-.244.064-.227.126m.396.433c.048-.092-.302-.336-1.033-.332.22.04.66.231.483.275.318-.086.209.057.55.057m-.221 5.017c-.17.041-.16.154.179.154.196-.048.06-.128-.18-.154m.462-3.774c-.096-.097.434-.087.086-.157-.497-.025-.481.158-.086.157m.746 5.133c-.32.043-.422-.012-.522.036.465.05-.166.067-.124.032-.112.094.21.443.872.24-.6-.057-.222-.16-.226-.308m-.68-.927c-.215.166.326.4.443.587.54-.129.22-.49-.442-.587m.555-3.028c-.057.077-.444.235.199.216.05-.069.26-.204-.2-.216m.078-.188.037.124c.519.02.467-.153-.037-.124m.473-1.532c-.028-.082.017-.184-.322-.184-.116.087-.04.147.322.184m.152-.375c.099-.127-.274-.305-.595-.212.384.022.08.225.595.212m.546-.847c-.444-.029-.524-.153-.863-.21.024.074-.202.094-.076.188.232.01.85.086.939.022m.213 3.363c.41.211-.15.492.577.586.21-.162.256-.52-.577-.586m2.26-2.234c-.14-.122-.993-.269-.528-.43-.683-.057-.967-.096-1.643-.14.194.1-.423.028-.23.127 1.155.178.348.561 1.317.828.293-.1-.475-.27.439-.316.3.091-.191.182.456.182-.188-.137.179-.157.19-.25m.654-.942-.534.005c.036.057.119.103.304.121-.195-.098.42-.027.23-.126M92.86 26.52c-.01.114.513.088.835.116-.023-.106-.524-.134-.835-.117M18.403 97.67c.217-.038.409-.186.617-.256.224-.29-.392.046-.617.255M9.616 57.504c.19-.252.558-.713-.05-.602.176.153-.221.478.05.602m.322-5.512c.077-.158.464-.384.073-.436-.215.188-.377.366-.073.436m1.647-10.477c-.05.007-.107-.016-.181-.06-.001.056-.008.09-.012.137.057-.007.124-.014.232-.017-.021-.02-.026-.04-.04-.06m13.98-28.059c.596-.063.498-.013.438.12.77-.019-.511-.286.6-.224-.06-.107-.318-.162-.475-.245-.114.063-.573.055-.484.161.555.06-.015.1-.078.188m27.819-3.302a12 12 0 0 0-1.044.073c.692.386-.562.527.755.74.01-.037-.048-.088.105-.095-.2.221.068.331.065.654.472-.047.676-.15.856-.258-.257-.027-.418.098-.534.005.252-.063.273-.128.07-.219 1.316-.166.442-.727.735-1.098-.615.01-.601.197-1.303.106-.02.063.2.062.295.092m9.612.464q-.02-.061-.037-.124c-.52-.02-.467.154.037.124m15.889 8.47h-.003c.023.031.045.04.068.078a1 1 0 0 1 .245-.27c-.187.017-.436.02-.31.192M11.002 49.396c-.448.09-.601.446-.366.53.498-.253.122-.33.366-.53m-.286-.59c.155-.155.374-.32-.005-.379-.364.192-.36.435.005.378m-.698 6.666c.344-.209-.013-.228.072-.367.089-.185-.71.458-.072.367M79.99 18.33a3 3 0 0 0-.542-.026c.252.18-.56.282-.514.504.065.08.312-.01.395.004.034-.016.069-.034.104-.044-.39-.01-.054-.078-.167-.182.353.006.324-.068.36-.128.683.086.415-.154.876-.196.229.03.184.13.322.184-.514-.003-1.453.133-1.264.297.46-.066.975.192 1.392-.085-.251.011-.624-.1-.375-.147.303-.01.207.082.45.086.187-.16.35-.445.476-.947a1 1 0 0 0-.258-.019c-.257.085-.525.334-.155.376-.37.037-.455.09-.207.19-.228 0-.34.026-.381.065-.5-.044.295-.05.096-.126-.146-.037-.712.083-.608.194m-1.062-.425c.314-.002.375-.057.788-.039-.025-.073.2-.094.078-.188-.512.045-.42-.069-.446-.15-1.043.042-.267.244-.42.377m-.955 1.255c.006.012.02.022.032.032l.035-.036c-.025.002-.04.005-.067.004m-.591.52c.12-.026.24-.109.36-.224-.265.061-.334.141-.36.224m-4.897-5.449c-.006.087-.22.258.35.277.153-.057-.116-.217-.35-.277m-.793-.864.038.124c.625-.04.683-.179 1.31-.075l-.038-.124c-.671.04-.583.056-1.31.075m-2.57-.566c.15.118.532-.01.93-.01-.154-.168.206-.228.297-.346-.254-.004-.284.038-.522.037l.055.187c-.284.037-.724.042-.76.132m-1.453-.39.028.092c.406-.003.67-.035.769-.1zm-3.78-1.925c.309.007.508-.01.653-.038-.083-.079-.228-.14-.453-.182.042.096-.392.093-.2.22m-1.896-.978c.119.07-.167.245.33.215.33-.024-.511-.099.098-.126.235.072.49.14.854.178-.026-.073.202-.094.076-.188-.48.003-.458-.125-.473-.245-.525.008-.308.17-.885.166m-8.698-.536q.197.15.853.178c.174-.04.012-.153.353-.159.258.075-.134.187.464.213.379-.084.103-.117-.066-.217.343-.07.634-.059 1.065-.01.144-.15-.58-.072-.465-.214-.877.165-1.403.051-2.204.21m-1.402 1.105c.587.043.565-.19.903-.102-.307.012-.28.086-.095.125.609-.04.674-.114.334-.22.39-.026.802-.047.893-.135-.365-.05.052-.214-.502-.338.158-.074.533-.102.609-.193-.56.001-.725.064-1.197.012.126.123-.315.128-.76.132-.647.236.157.486-.185.72M33.34 8.707c.299-.09.157-.178-.207-.248.082.13-.298.181.207.247m-.268.438c-.008-.076.437-.01.41.027-.467.106-.397.47.385.401-.512-.132-.285-.307.003-.436.179.053.147.163.455.183-.533-.034-.373.077-.352.16.407.007.246-.105.352-.16.816-.147.478-.392.356-.596-.943.02-.314.224-.563.35-.446-.107-.348.005-.79.038.09-.042.535-.246-.073-.248-.124.062-.503.222-.183.281m-1.162.572c.1-.037.15-.085.087-.157-.415-.007-.496.156-.087.157m-.72 3.808c-.164.042.02.165.323.184.07-.074.244-.2-.323-.184m-.66-1.302c.108.006.164.025.153.061l.532-.005c.07-.078-.61-.126-.684-.056m-3.594.91c.126-.188.585-.306.65-.506-.35-.01-.993.048-1.17.105-.031.088.472-.083.54.026-.485.115-.543.307-.39.471-.15-.108.334-.036.398-.004-.057.075-.148.144-.058.25l.532-.005c.014-.055-.181-.154.228-.127.025.073-.202.094-.077.188.624-.04.239.183.722.18.316-.04-.308-.115.086-.157.49-.05.28.083.682.056-.047-.059.128-.07.097-.126-.233-.01-.326.05-.4.004q.15-.07.647-.069c-.012.06.169.067.169.123-.155.093-.574.132-.73.225.55 0 .208-.14.779-.07.038-.11.348-.143.056-.25l.8-.008c.346-.13-.287-.297.077-.624.039.034.164.047.287.06-.107-.084-.402-.119-.837-.117-.358.056.07.158-.371.097-.1.161.735.253.378.37-.575-.145-.477-.287-1.051-.394.03-.099.556-.067.664-.006-.064-.117.052-.282-.48-.276.035.096.266.118.054.186-.488.038-.402-.073-.817-.054.346.17.474.402.008.467-.18-.146.165-.32-.51-.369-.18.076.006.153-.504.098-.062.105-.057.223-.46.255m-.33-.652q.02.063.037.124.632.015.495-.129zm-1.854.486c.642.03.132.162.474.245.819-.06-.037-.425.24-.532.33.103.584.227.777.366.28-.183.039-.349-.415-.494.273.006.285.081.559.088-.22-.17-.066-.093.077-.188-.266.016-.388-.064-.826-.085.097.156.088.29-.44.316-.045-.055.088-.157-.302-.12.1.048.044.234.237.34-.174.072-.44-.059-.381.064m-1.972-.79c.038-.06.263-.08.219-.158-.43-.008-.721.14-.22.158m-.615-.274c.305.006.498-.012.512-.067-.252 0-.122-.102-.427-.089-.101.037-.151.084-.085.156m-1.058.914c.405.033.53-.137.218-.158-.04.06-.365.06-.218.158m-2.85 3.393c-.06-.13.206 0 .4-.004.114-.083.497-.11.61-.193l-.266.003c-.013-.019-.032-.037-.142-.03.079.011-1.647-.047-.601.224m-1.814.174c.32-.044.454.12.542.026-.372-.025.336-.06.085-.157-.39.007-.471.076-.627.131m-1.68-.263c.256-.078.172-.068.077-.187-.53-.03-.477.19-.076.187m-3.301-.777c.366-.036.925.042.932-.009-.305-.01-.033-.17-.446-.152-.107.066-.505.07-.486.161m-.077 26.344c.099-.005.195-.01.268-.02a3 3 0 0 1-.265-.016zm-.502 1.548c.253.01.424.324.567.741a.7.7 0 0 0 .045-.253c-.131-.033-.221-.06-.122-.16.054-.012.09-.017.127-.022l-.001-.104c-.01 0-.012.003-.024.002.01-.004.014-.008.023-.012-.003-.189-.012-.375-.01-.494-.085-.05-.213-.092-.421-.108.288-.17-.208-.407.497-.566-.182-.02-.273-.05-.332-.083-.154.188-.352.175-.35 1.06M7.77 44.613c-.357.144-.365.176-.838.217.748.323.203.783.162 1.196a.36.36 0 0 1 .282.004c.185-.103-.134-.144.19-.265.423.176-.54.342-.477.504.313-.026.569-.046.466.141-.41-.198-.291.107-.753.263.435.212-.241 1.185.729 1.194-.19.203-.374.094-.561.17.046.28-.262.607.1.827a.68.68 0 0 0-.562.016c.084.093-.02.22.379.258.154-.08.309-.216.464-.202-.19.14.155.186-.18.351q-.377-.15-.746.133c.738.192-.674.892.39.9-.027.111-.122.171-.368.232.448-.027.042.31.377.17.095-.073.043-.173.277-.176-.023.246-.465.578-.543.84.122-.079.25-.019.373-.078.194-.107.098-.155.275-.259.526.42-.674 1.233.232 1.555-.328.277-.114-.085-.368.084-.163.211-.157.384-.146.555.449-.153.904-.116 1.348-.113-.163-.09.135-.306-.345-.127.26-.097.02-.254.362-.242-.09.073.05.092.195.111-.447.19.26.106-.006.254.277-.01.549-.05.81-.184.13-.146.184-.619.264-.974.01.008.024.01.036.018.063-.317.355-.687-.052-.908.413-.07.39-.34-.097-.253.153-.12.309-.089.464-.136-.175-.158.329-.527-.381-.464.107-.177.109-.332.178-.5.72-.308.39-.763.509-1.236-.26.233-.524.523-.775.444-.346-.112-.658-1.289-1.061-.969.166-1.06.439-.379.71-.416.506-.072 1.054-.518 1.572-.88-.055-.064-.146-.122-.3-.17.49-.16-.073-.17.287-.31.173.083.234.194.253.32.238-.153.464-.26.674-.294-.051-.067-.101-.123.103-.208-.521.177-.454.008-.934.053.525-.315.206-.436-.08-.562.19-.156.376-.048.565-.147-.17-.218-.113-.667.304-.826-.2.21.179.354.079.553.038-.02.075-.028.113-.042-.036-.218-.078-.433-.106-.704-.251.246-.411.112-.624.26-.118.151.053.453-.051.663-.555.011-1.06.422-1.701.464-.056-.626-.216-.628-.101-1.523-.087.061-.107-.128-.162-.189-.168-.07.003.233-.052.666-.104-1.02-.34.196-.446-.558-.25.38-.478.48-.706.5m-.885 16.878c-.257.181-.024.193.12.235.389-.243.229-.358-.12-.235m.4-1.559c.069-.129.132-.256-.208-.253-.26.19-.021.221.209.253m-1.133 3.413c.62-.103.793-.006 1.49-.142.167-.126.067-.157.25-.289-.28.014-.54.213-.835.105.193-.234.43-.082.638-.19.049-.294-.362-.375-.706-.422-.237.382-.171.408-.837.938m1.278 1.947c-.014.11-.297.325.04.297q.465-.337-.04-.297m-.125 1.861c-.31.297-.16.41-.022.524.485-.239.275-.463.022-.524m.579-3.484c-.124.013-.234.14-.361.134-.101-.028.138-.184.25-.29-.601.117-.362.004-.75.036-.186.295-.29.561-.015.686.542-.404.233-.007.656-.048.57-.357.076-.319.22-.518M5.062 48.057c0 .006-.002.005-.002.011.046-.01.092-.007.139-.047a.4.4 0 0 1-.16-.035c.003.036.012.07.023.071m1.722-3.393c.018.045.078.085.243.116.136-.053.272-.123.408-.173-.21-.026-.423-.043-.651.057m.072-.516c.126.031.166.071.175.114q.19-.13.389-.219c-.184-.027-.37-.05-.564.105M4.464 54.814c.246-.213.378-.396-.12-.427-.306.223-.297.51.12.427m-.35 4.281c.395-.215-.158-.145-.298-.2-.375.185.024.346.299.2m4.633 8.215c-.04.087-.048.16-.065.236.253-.09.507-.189.76-.316.02.011.05.022.074.033a50 50 0 0 1-.101-6.793c-.016-.493-.197-1.112.13-1.546-.435-.132-.137-.5-.522-.652.078-.102.566-.332.346-.34-.553.155-.032-.45.045-.595.19-.357-.557-.52-.06-.754.059.098.213.17.12.311.15-.085.235-.158.28-.226-.038.012-.057.032-.108.04a.8.8 0 0 0 .134-.244c-.121-.258-.714-.448-.034-.876-.905-.193.49-1.375-.537-1.293.256-.145.024-.162.357-.325-.458.041-.445-.4.252-.566-.002-.01-.01-.02-.012-.032-.722.251-1.4.56-2.044.475-.023.02-.048.023-.071.048-.092-.022-.122-.05-.123-.085a1.6 1.6 0 0 1-.64-.358.6.6 0 0 1-.087.293c.875.121-.784 1.074.334 1-.683.277.209.365-.52.78.557.026.24.285.309.443-.7.202-.483.762.239.73-.171.218-.365.138-.545.235.292.035-.355.341-.063.377.24-.112.715-.142.474.06-.185.02-.387-.139-.562.005-.296.26.479.207.5.372-.352.071-.36.143-.535.32.519.043.34.297.874.333.019-.108.112-.175.358-.19-.047.054-.171.132-.082.144.187-.027.353-.254.542-.245-.432.5.313.228-.307.806-.23-.018.113-.492-.474-.05-.377.022.147-.439-.302-.265-.078.158.192.206-.333.504.508-.026.014.263.4.275.309-.178-.012-.156.164-.292.193.074.364-.12.547-.173.332.014.35.126.12.318-.155-.003-.317-.059-.466.03.124.014-.067.127.015.154.224.08.423-.168.648-.089-.447.542.345.8-.8 1.447.089.028.01.303.389.104.27-.149-.161-.25.34-.349-.247.302.368.722-.653.928-.078.08-.03.115.017.152.228.071.42-.178.647-.108.015.622-.261 1.56.21 1.89-.461.888-.038 1.413-.1 2.14.087-.055.169-.142.263-.142-.762.781.014 1.347-.191 2.07.15-.018.295-.123.449-.149m-.47 3.143c-.29.021-.624.367-.238.301.358-.16.12-.148.238-.3m2.826 11.31c-.011-.093-.333-.05-.562.074-.014.058-.031.117-.146.228.25-.018.5-.056.708-.302m.459 1.788c-.367.322.18.147.069.33.415-.205.089-.315-.07-.33m3.607 8.84c.64-.44.255-.584.05-.656-.483.284-.29.374.147.23-.31.2-.635.338-.922.635.27-.052.93-.579.725-.209m-.253-.73c.444-.224.216-.359.023-.333a2 2 0 0 0-.407.34c.225-.133.575-.212.384-.008m.543.736c-.158.184.109.123.052.248.447-.13.477-.575-.052-.248m1.397 1.593c.21-.07.429-.11.607-.316-2.072-4.627-4.213-9.494-5.803-14.957-.964-3.317-1.717-6.899-2.08-10.693a3.6 3.6 0 0 1-.927.34 1 1 0 0 1-.078.332c.112-.09.227-.176.357-.152-.492.431-.63.822.004.652-.618.76.446.782-.141 1.533.428-.222.31.234-.143.297.358-.23-.042-.312-.308-.135-.114.266-.34.28-.675.536.279.223 1.026-.209 1.278-.339-.137.428.178.645.34.922-.134.142-.288.174-.422.31 1.05.427.25 1.923.983 2.37-.254.31-.152.3-.384.532.126-.014.235-.11.363-.1.015 1.468.795 2.373.806 3.792.464-.15.31.3-.055.698.675-.127.148.37.295.517.44-.124.497.87.803 1.142a1 1 0 0 0-.425.264c.788-.068-.015.733.68.533q-.197.207-.413.332c.02.084.242.052.467-.069-.242.33.338.006-.306.384.308.091.056.484.575.458-.123.026-.244.057-.346.188.315.025-.045.416.456.34-.095-.035-.527.4-.32.32.205.053.329-.27.532-.216-.38.501-.281.742.165.79-.42.39.219.274.308.564.053.177-.37.824.215.57-.474 1.113.786 1.048.438 2.063.107-.097.208-.226.33-.258-.001.133-.11.104-.316.323.786-.03.39 1.094 1.055 1.333a.6.6 0 0 0-.25.178c.584.068.429.558.4.976.589.16 1.017.516.284 1.326.247-.047.45-.294.7-.33-.421.383.253.132.08.372-.191.064-.12-.07-.278.055.139.055.105.121.474-.03-.267 1.036 1.027 1.17.675 2.253m.475.42c.629-.398-.204-.252-.014-.513-.64.423.032.342.014.512m.229 1.537-.316.318c.292-.01.733-.454.316-.318m.018-.828c-.113.145.119.09-.211.361.157-.006.297-.105.447-.156.257-.263.04-.252-.236-.205m.657 2.21c-.151.224.337-.143.449-.157.21-.2.099-.217.21-.36-.286-.004-.512.295-.801.292-.283.231.023.123-.133.281q.266-.107.515-.297c.19-.02-.001.172-.24.24m.412.6c.237-.215.133-.233-.13-.16-.236.215-.132.232.13.16m.667-.017c-.371.117-.092.24-.685.394-.112.164.176.1-.03.316.249-.185.522-.253.8-.292.12-.225-.382-.092-.085-.418m6.056 18.216c.34-.029.659-.226.98-.399-.07-.12-.816.225-.918.121-.2.162-.416.188-.62.3-.094.172.533-.162.725-.206.094-.004-.08.109-.167.184m.029.265c.932-.128.402-.431 1.068-.461.25-.24-.392-.005-.644.082-.018.134-.051.122-.424.379m1.197-.101c-.5.142-.441.1-.905.224-.363.228.194.061.018.208.297-.15.597-.23.887-.432m-.083.117c-.114.089-.23.179-.351.204-.014.061.144.019.366-.047q.307-.211-.015-.157m16.877 8.37c.128-.03.255-.031.383-.042-.07-.057-.137-.122-.206-.18-.193.1-.057.137-.177.222M70.697 9.171c-.075-.059-.088-.133-.437-.12.203.07-.308.12.037.124.038-.054.174.005.4-.004m-59.194 5.425c.162-.005.312-.012.248-.064-.75.021-.296.15-.21.19.14-.049.13-.08-.038-.126M9.109 51.383c-.394-.287.607-.435.213-.625-.521.16-.672.466-.213.625M5.472 38.864c-.071-.468-.395.3.057.187-.186.124-.465.214-.03.343.406-.104.138-.17-.067-.217a2 2 0 0 0 .382-.066c-.284-.069.039-.163-.342-.247m.559-5.676c-.022.024.014.061-.113.064-.135-.227-.161-.494-.198-.652-.022.025-.1.037-.256.034-.307-.26.7-.516-.073-.685-.364.161.355.397-.4.44-.162.293.534.682-.1.998.809.184.335.535.072.685.304-.118 1.06-.279 1.72-.048-.455-.282-.477-.603-.652-.836M4.964 31.86c-.082.002-.156.006-.124.032.33-.007.394-.063.665-.007.208-.044-.01-.176.2-.22-.987.034.348-.249-.484-.275.11.213-.185.377-.257.47m92.228-5.135c.18-.003.296.012.408.027-.194-.093-.137-.12.078-.188-.35.015-.426.087-.486.161m.466-.223c.016-.082-.302-.077-.56-.087-.001.042-.197.173.028.093.06-.094.294.027.532-.006m-93.233.472c-.021-.082-.182-.193.353-.159.028-.13-.35-.154-.474-.244-.333-.009-.54.155-.352.16.104-.056.463-.092.532-.006-.15.064-.82.253-.06.25m88.697-1.36c.077.178.903-.028 1.18-.074-1.078-.034-.388.124-1.18.074m-88.662.145c-.714.081-.642.111-1.302.106 1.237.037 1.035.504.86.646.226-.177.603-.008 1.074.021-.36-.222-.296-.487-1.251-.61.272-.012.092-.118.363-.129.036.046-.013.115.169.123-.136-.087.165-.083.087-.157m-1.448-1.263c.499.015.772-.167.61-.193-.115.083-.496.11-.61.193m71.605-8.51c.325-.085-.002-.229-.2-.216.288.072-.188.153.2.216m-58.902-.247c-.01-.117.206-.142.637-.1-.044-.087-.605-.209-.695-.087.653.044-.195.03-.245.065.354-.026-.051.148.303.122m-1.355-.516c-.33.037-.507-.129-.675-.024.303.1.24.295.767.335-.187-.14-.71-.22-.092-.31m59.929-.324c-.03-.262 1.018.044 1.294-.138-.324-.139-.793.12-.96-.084-.423 0-.802.007-.912.071 1.08-.045-.074.135.578.151m-73.581.617c.305-.013.512 0 .674.024.07-.097-.383-.056-.311-.152.074 0 .143-.027-.008-.03-.003.018-.011.036-.125.031-.038-.024-.022-.06-.151-.06.124.093-.203.093-.08.187m13.92-1.168c-.02.15-.961.105-.332.221-.32.042-1.254.246-.314.284.207-.152.795-.377.647-.505m-.167-.56c.143.051.47.093.532-.005.219.043.316.118.332.215.103-.018.206-.035.39-.035.013-.056-.182-.154.229-.127-.026-.049.027-.119-.171-.123.25-.035.513-.067.769-.1.279.055.077.112.057.186-.641-.047-.12.02-.503.098.384.022.332-.047.655-.038.062.09-.22.11-.352.16-.17-.012-.286-.038-.294-.09-.417.04-.623.121-.733.225.183.045.57.088.313.152-.458-.02-.276-.209-.835-.116-.053-.05.11-.054.106-.094-.222-.07-.34-.044-.676-.025.432.077-.031.237.598.212-.074.042-.268.061-.514.067-.001-.044-.004-.088-.161-.092-.245.007-.051.106-.23.127-.17-.045-.563-.03-.568-.118.753.084.622-.176.846-.289-.06-.043-.234 0-.256.034-.401-.077.442-.14.466-.224m.873.241c-.26-.01-.142-.119-.56-.088-.145.098.43.172.56.088m-13.625.823c.166-.124.38-.21.875-.196-.252 0-.123-.102-.427-.089-.128.073-.53-.039-.646.07.64.01-.128.194.198.215m76.165-.892c.012.02.032.037.143.03l-.02-.062c-.013-.019-.03-.037-.142-.03-.09.091-.19.037-.522.036l.019.062c.132-.002.166.024.274.028.017-.035.134-.049.248-.064m-48.65-.757c.17.045.408.072.447.151-.102.008-.263.003-.256.034.32-.043.42.012.522-.036-.313-.086-.368-.239-.757-.304.044.077-.67.241-.058.25.417.005-.368-.086.103-.095m45.928-.306c.528-.039.286-.11.6-.224-.25-.002-.451-.016-.55-.057-.024-.035.178-.05-.02-.062-.061.131-.812.178-1.053.042.039.083-.467.306-.191.251.138-.133.433-.052.904-.103-.125.122.373-.032.31.153m-54.774-1.162c-.168-.154.02-.378-.501-.338.186.064-.043.216.349.277-.28.064-.991.037-1.33.013.086.121-.037.286.388.401-.491-.32.162-.374 1.094-.353m7.583-.513c.412-.033.49-.209.069-.218.19.134.029.102-.07.218m-1.197.012c.474.002.218-.148.76-.133.122.084-.246.066-.228.127l.53-.005c0-.1-.273-.129-.206-.247.064-.054.63-.004.646-.069-.206-.005-.035-.05.115-.064q.003.115.312.153c-.08-.129-.67-.338.02-.375-.081 0-.158-.003-.143-.03-.012-.019-.03-.036-.14-.03-.32.046-.29.091-.362.128-.176.001-.14-.053-.285-.059 0 .068-.315.07-.646.07-.15.156-.091.332-.373.534m-8.708-.566c-.492-.049-.405-.369-.408-.027.039.052.517.248.314.153-.028-.054 0-.097.094-.126M29.08 9.621c-.474.024.422.411-.582.286.042.114.289.25.19.185.088-.105.289-.03.532-.005.344-.119-.428-.296.164-.345-.036-.057-.118-.102-.304-.12m21.62-2.18c.202.033.335.03.389-.035-.22.002-.1-.085-.294-.09-.224.06-.237.277.066.217-.02-.04-.185-.042-.161-.092m-24.504-.314c-.136-.032-.495-.005-.43-.089.075 0 .145-.027-.008-.03-.088.09-.188.036-.521.035-.174.112.457.014.425.09-.226.011.206.105-.371.096-.342.001-.226-.119-.57-.119-.21.044.01.176-.2.22.666-.04.447.406 1.347.485.205-.266.048-.483.328-.688m.749-.164c.26-.012.277.04.419.058.298-.076-.232-.08-.312-.153.045-.017.632-.053.246-.065-.17.004-.173.042-.39.035.014.086.24.061.037.125m-9.06-4.395c1.657-.236 1.399-.872 2.428-1.239-.37-.019-.248.064-.512.068-.365-.08.03-.165-.084-.279a6 6 0 0 0-1.112.292c-.284-.015-.404-.073-.817-.054-.685.333-1.961 1.02.097 1.212m2.894-1.462c-.135-.054-.551-.034-.446-.15.536-.04.666.026.827.084-.125-.094.202-.094.077-.188-.661-.002-.842.096-1.293.137.227.053.228.164.34.246q.442-.024.495-.129m76.407 24.715c.103-.35-.561-.315-1.09-.519.057.108.025.2-.19.251-.814-.018-.02-.24-.36-.308-.06.027-.777.077-.692-.086-.305.116-1.422.064-.846.29q.093-.07.37-.098c.763.101-.034.228.645.367-.285.023-.45-.084-.39.035.184.041.277.006.665-.007-.33.125.408.096.275.028.48.13.376.252.92.396.305-.137.508-.105.704-.319.373-.017.428.22.825.085-.46-.05-.664-.36-.836-.115m-52.3-18.197c-.487-.044-.05.106-.371.097.09-.217-.49-.07-.208-.247-.787.074-.458.408.263.434-.054.077-.516.22-.18.282.36-.06.684.176.759.304-.2.007-.495-.006-.524.036 1.093-.016.564.426 1.08.487-.074-.502-1.075-.913-.82-1.393M31.57 5.048c.928.03.422.262 1.034.332-.316.077-.657-.033-.78.07.204.137 1.012.115 1.025.301-.264.003-.142.087-.511.068.209.134.08.138-.06.25.895.081.07.546 1.128.643-.31-.252-.98-.843.109-.967.189.038.508.036.522-.036-.201-.025-.522-.02-.436-.12 1.599-.154.249-.774-.3-.994.156-.006.38.002.39-.035-.522-.042-.652-.186-1.14-.238-.244.061-.192.111-.075.188l-.664.007c-.76.19.386.454-.242.531M15.553 3.682c.032.246.21.39.567.555.223-.02-.054-.147.219-.158.265-.002.194.083.55.057-.116-.082.256-.063.372-.097-.318-.187.036-.195.305-.315-.058-.063-.38-.057-.437-.12.282-.125.82-.197.962-.352-.806-.018-.633.082-1.436.108-.066.093.029.22-.324.253.07-.108-.164-.135-.446-.15.086.113.086.21-.332.22m-7.16 35.71q.556-.208.042-.406l-.392.165c.335.078.093.161.35.24m.155.32-.36-.156c-.007.156-.332.167-.59.256.308.06.626.014.95-.1m-.746 2.604c.032-.124-.085-.238.304-.38-.52.032-.303-.053-.55-.213.128-.018.255-.037.383-.1q-.332-.146.02-.324c-.211-.094-.427-.182-.646-.174-.038.063.109.171-.103.127-.224.092.28.151.362.227-.361.082-.513.227-.68.403.76-.048.68.234.91.434m-2.743 2.46c-.29.151-.206.356.183.314-.03-.107.045-.225-.183-.314m2.485 2.282c-.58.034-.103.254-.192.352.47-.022.12-.257.192-.352m1.958-.01c.36-.145-.205-.152.286-.315a1.4 1.4 0 0 0-.748.11c.465.04-.003.278.462.205M4.1 50.294c-.217.193-.384.381-.08.478.056-.165.222-.35.08-.478m4.656-1.249c.112-.102.34.087.283.144.487-.008-.081-.134.275-.244-.22-.118-.435.02-.655 0-.185.137-.27.258-.37.381.304.051.476-.179.467-.28m-.266.952c.619-.015.517-.394.458-.518-.577.097-.171.344-.458.518m.293.691c-.285.057-.8.366-.366.392.303-.065.69-.345.366-.392m-.5 1.998c-.075-.353.988-.767-.13-.794-.023.065-.051.131-.184.121.433.15-.138.528.314.673m-.226 2.82c-.055-.278.514-.719.137-.91-.41.265-.047.33-.16.517-.208.137-.43.1-.65.053-.232.343.687.08.588.481.388-.187.21-.145.538-.385-.358-.076-.108.091-.453.243m14.564 59.321c-.198.32.63.149.426.465.648-.411-.102-.406-.426-.465m.695.368c-.263.212-.172.261.204.181.052-.115-.01-.178-.204-.181M4.547 49.172c.02.065.033.132.049.198.054-.075.18-.2-.048-.198m.062.25-.013-.052c-.024.033-.03.054.013.051m.508-2.52c-.787-.023.133-.595-.361-.794-.25.59-.037 1.058-.208 1.547.34.05.11-.147.376-.223-.21-.138-.224-.307.193-.53m2.76-5.8c.052-.138.225-.278-.161-.399-.25.144.179.263.162.398m-.318 8.996c-.425-.008-.336-.135-.656-.076-.421.226.238.055.376.09.22.071-.29.07-.371.232.55.11.427.345.2.607l.56-.034c-.294-.115-.402-.47-.11-.819m-3.721 3.62c-.006-.293.05-.588.05-.889-.36.213-.278.676-.05.888m4.956-2.48c-.158-.077-.31.084-.465.06-.164.127.064.171.099.256.28.01-.137-.15.366-.317m-1.44 5.02c.25.011.129-.187.263-.273.33-.164.172.163.562.002.262-.163-.297-.103.075-.297-.38.142-.575-.022-1.104.303.192.055.313.13.205.264m-.05.526c-.283.266.425.244-.14.594.357.022.23-.178.456-.173-.12-.136-.08-.318-.316-.42m.233.564c.484-.01.193.205-.152.44.162.185.38.118.677.23.082-.104.082-.182.163-.285-.161-.06-.304.111-.46.1-.06-.022-.007-.078-.103-.088.18-.099.375-.022.545-.242-.038-.092-.137-.103-.38-.044.148-.118.304-.124.449-.25-.258-.146-.198-.387.04-.676-.765.261-.121.45-.78.815m14.078 56.18c-.046.182.116.263-.031.494.53-.191.312.126.316.271.09-.025.175-.083.267-.099a.33.33 0 0 1 .175-.084c-.416-.112-.27-.493-.727-.582m74.17-50.643c.015.15-.314.22-.066.425.194.048.403-.188.066-.425m1.097-1.555c.024-.279.263-.523-.063-.859-.206.247-.194.53.063.86M7.83 48.231c.108.064.139-.213.135-.653l-.165-.02c-.008.292 0 .522.03.673m-3.433-2.44c.179.074.483.684.704-.078-.228.456-.503-.366-.704.077m-.268 6.01c-.101.09-.296-.249-.334.125.145.093.23.288.334-.126m-.621-2.429c-.078.892.233.812.284.373-.114-.155-.111.222-.21.141 0-.265.015-.58-.074-.514M2.78 62.543c.554.365.213-.68 0 0m-1.067 6.248c.2.14.368.24.543-.1-.083-.149-.414-.119-.543.1m.4.888-.207-.025c-.073.507.262.548.208.025m-.79 9.137c.103.12.236.043.299-.3-.046-.184-.263-.109-.298.3M.468 77.7c-.357.764-.47-.03 0 0m2.838-28.522c.014-.062.029-.108.043-.16-.044-.012-.105.065-.043.16M1.745 71.65c.075-.27.193-.34.26-.64-.078-.456-.297.607-.26.64" />
</svg>
