<svg
    viewBox="0 0 301 487"
    width="100%"
    height="100%"
    fill="#fcc0a6"
    preserveAspectRatio="xMidYMid meet"
    xmlns="http://www.w3.org/2000/svg">
      <path fill-rule="evenodd" clip-rule="evenodd" d="M60.696 328.65c0 50.712 41.036 91.814 91.649 91.814 50.63 0 91.664-41.102 91.664-91.814a.675.675 0 1 0-1.348 0c0 49.966-40.43 90.463-90.316 90.463-49.869 0-90.3-40.497-90.3-90.463a.675.675 0 0 0-1.35 0"/>
  <path fill-rule="evenodd" clip-rule="evenodd" d="M152.345 65C209.819 65 256.4 111.656 256.4 169.206c0 6.855-.658 13.553-1.918 20.036a23.4 23.4 0 0 0 12.828 7.921L279 199.84l-11.693 2.679a23.42 23.42 0 0 0-15.852 12.637c3.216 10.039 4.945 20.736 4.945 31.843 0 13.751-2.651 26.873-7.491 38.897 4.84 12.023 7.491 25.145 7.491 38.88C256.4 382.342 209.819 429 152.345 429c-24.537 0-47.092-8.509-64.881-22.743a6.3 6.3 0 0 1-3.854 1.306c-3.502 0-6.342-2.845-6.342-6.352 0-1.216.341-2.353.933-3.318-18.488-18.813-29.896-44.629-29.896-73.117 0-11.614 1.895-22.79 5.407-33.234a13.47 13.47 0 0 0-6.998-4.107L40 285.901l6.721-1.541a13.5 13.5 0 0 0 6.993-4.107c-3.513-10.446-5.41-21.625-5.41-33.254 0-13.751 2.652-26.873 7.492-38.896-4.84-12.024-7.491-25.144-7.491-38.897 0-9.18 1.185-18.084 3.411-26.565a6.36 6.36 0 0 1-3.645-5.752 6.347 6.347 0 0 1 7.585-6.23c6.136-15.427 15.846-29.04 28.105-39.813l-7.363-1.7 6.721-1.539A13.49 13.49 0 0 0 93.254 77.45l1.534-6.732 1.533 6.73c.257 1.128.652 2.2 1.168 3.199C113.415 70.728 132.212 65 152.345 65m0 1.35c56.729 0 102.707 46.052 102.707 102.856 0 6.351-.572 12.564-1.671 18.593a23.4 23.4 0 0 1-3.679-8.281l-2.664-11.691-2.662 11.694a23.4 23.4 0 0 1-5.128 10.135c-14.611-22.174-37.453-38.425-64.17-44.387a6.346 6.346 0 0 0-6.338-6.126 6.35 6.35 0 0 0-5.952 4.15 105 105 0 0 0-10.443-.518c-43.041 0-79.983 26.188-95.807 63.533-4.454-11.512-6.885-24.015-6.885-37.102 0-9.026 1.161-17.781 3.342-26.123q.685.159 1.418.16a6.35 6.35 0 0 0 6.344-6.354 6.35 6.35 0 0 0-3.81-5.826c6.155-15.431 15.935-29.019 28.286-39.71a13.5 13.5 0 0 1 6.295 5.307c-18.913 16.816-30.832 41.351-30.832 68.673a.675.675 0 1 0 1.348 0c0-26.813 11.65-50.902 30.158-67.466.46.934.816 1.93 1.054 2.974l1.532 6.725 1.531-6.721a13.49 13.49 0 0 1 10.137-10.155l6.732-1.543-6.954-1.595c13.497-8.045 29.266-12.665 46.111-12.665 49.886 0 90.316 40.495 90.316 90.446a.675.675 0 1 0 1.348 0c0-50.697-41.034-91.797-91.664-91.797-17.522 0-33.897 4.926-47.819 13.472a13.5 13.5 0 0 1-6.358-5.194c15.726-9.802 34.292-15.464 54.177-15.464M49.653 247c0-13.671 2.654-26.709 7.495-38.642 15.252-37.671 52.134-64.232 95.197-64.232 3.412 0 6.785.167 10.111.492-.673 4.277 2.78 7.232 6.284 7.232 3.116 0 5.706-2.251 6.241-5.218 26.398 5.947 48.949 22.073 63.326 44.05a23.4 23.4 0 0 1-11.535 6.484l-11.675 2.675 11.663 2.665a23.44 23.44 0 0 1 17.618 17.649l2.66 11.681 2.663-11.674q.365-1.597.935-3.101c2.875 9.473 4.416 19.522 4.416 29.939 0 13.671-2.654 26.709-7.495 38.642-3.348 8.267-7.739 16-13.009 23.033a6.3 6.3 0 0 0-3.56-1.095 6.35 6.35 0 0 0-6.344 6.354 6.33 6.33 0 0 0 1.732 4.362c-18.685 19.455-44.945 31.562-74.031 31.562-39.679 0-74.109-22.549-91.207-55.549a13.48 13.48 0 0 1 8.92-6.866l6.73-1.541-6.73-1.541a13.49 13.49 0 0 1-10.137-10.159l-1.531-6.73-1.534 6.732a13.5 13.5 0 0 1-2.138 4.794c-3.292-10.071-5.065-20.823-5.065-31.998m205.399 77.777c0 56.82-45.978 102.874-102.707 102.874-24.153 0-46.358-8.353-63.895-22.333a6.33 6.33 0 0 0 1.504-4.106 6.35 6.35 0 0 0-6.344-6.354 6.32 6.32 0 0 0-4.577 1.957c-18.173-18.558-29.38-43.986-29.38-72.038 0-11.161 1.773-21.909 5.064-31.979a13.5 13.5 0 0 1 2.14 4.798l1.533 6.725 1.531-6.721q.203-.887.516-1.725c17.486 32.916 52.087 55.333 91.908 55.333 29.497 0 56.124-12.29 75.057-32.033a6.3 6.3 0 0 0 3.586 1.111c3.501 0 6.341-2.843 6.341-6.352 0-1.7-.666-3.244-1.751-4.384a104 104 0 0 0 12.59-21.859c4.453 11.512 6.884 24.016 6.884 37.086"/>
  <path d="M138.667 170.257c-2.268.572-2.842.904-4.384 2.5-.817.904-1.512 1.506-1.512 1.386s-.182-.452-.393-.753c-.394-.543-.484-.543-1.785.241-.967.572-1.572 1.205-1.995 2.078-.726 1.567-1.27 4.037-1.27 5.874 0 1.807-.393 2.53-.877 1.597-.544-.964-.938-.753-.938.451 0 1.115-.695 2.019-1.814 2.38-.272.091-.756.633-1.058 1.205-.484.844-.514 1.145-.212 1.808.212.421.363.813.363.873s-.726.422-1.572.783c-4.173 1.778-7.197 3.374-7.772 4.097-1.36 1.717-1.481 4.699-.272 5.904.605.603.605.603 1.512-.512.907-1.084.907-1.084 1.361-.452.574.844 1.723.693 1.844-.241.121-.783.031-.753 1.24-.331l.938.331-1.875 2.139c-1.996 2.229-6.018 5.422-7.771 6.145-1.24.512-2.087.331-3.327-.693-1.209-.994-1.239-.391-.06 1.446.937 1.476 1.572 1.928 3.447 2.5l1.179.332-6.44 4.91-6.471 4.91-1.361-.121c-.756-.09-2.177-.482-3.114-.933-.938-.422-1.724-.693-1.724-.573 0 .663 1.39 2.32 2.57 3.012 2.268 1.386 2.177 1.808-1.27 6.507-6.743 9.248-11.672 20.002-13.88 30.364-.664 3.103-.816 4.76-.937 10.031-.18 6.989.273 10.724 1.875 16.236 2.812 9.67 9.314 16.899 16.42 18.285 2.237.422 5.987.211 8.678-.482 2.026-.512 7.015-2.862 9.495-4.458l1.632-1.054 1.119 1.415c.605.753 1.633 1.838 2.268 2.38 1.421 1.265 1.119 1.567-1.602 1.567-1.754 0-1.996-.091-2.843-.904-.514-.512-.967-.874-1.058-.783-.061.06.211.813.665 1.656.877 1.748 2.207 2.742 3.689 2.742.937 0 .937 0 .635 1.024-.423 1.325-.121 2.47.968 3.524.695.693 1.119.874 2.207.874.817 0 1.482-.181 1.724-.452.211-.241.483-.362.635-.271.181.09.695.271 1.179.422.877.241.907.24.454-.392a2.535 2.535 0 0 1 .03-2.862c.544-.813 1.33-.873 1.33-.12 0 .632.575 1.265 1.149 1.265.272 0 .333-.211.212-.693-.151-.482-.03-.392.423.301.635 1.024 1.482 1.597 2.329 1.597.393 0 .453-.181.302-.934-.151-.874-.121-.934.514-.753 7.136 2.078 20.895 3.494 34.441 3.494 4.748 0 6.592.271 6.592.934 0 .422-.484.542-2.51.633-1.753.06-1.965.12-1.693.572.151.271.877.813 1.633 1.175 2.056.994 4.475.753 5.654-.573.454-.512.847-1.205.847-1.536 0-.693 0-.693.998-.331 1.149.452 2.752-.121 3.84-1.356.907-1.024.968-1.054 1.391-.542.635.874.847 1.898.423 2.38-.453.542-.181 1.355.454 1.355 1.512 0 3.145-1.717 3.296-3.404.06-.542.242-1.355.423-1.807.454-1.054.454-1.084-.06-2.079-.544-1.054-.03-1.144 1.149-.21 1.028.783 1.482 1.626 1.663 3.102.121.663.333 1.235.514 1.296.182.06.726-.814 1.179-1.928.998-2.38 1.119-4.76.333-5.935-.484-.753-.484-.753.998-1.385 1.965-.874 3.054-2.049 3.538-3.946.242-.874.363-1.627.302-1.717-.091-.061-.786.271-1.603.753l-1.451.843 1.905-2.259c7.076-8.314 12.67-20.905 15.21-34.19.907-4.789 2.812-7.922 5.987-9.94.816-.512 1.179-.904 1.058-1.205-.242-.573-1.391-.874-2.54-.633-1.058.181-1.058.211-.453-1.717.242-.813.574-2.59.756-3.916.181-1.476.604-3.102 1.058-4.006.423-.844.756-1.747.756-2.018 0-.603-1.21-.964-2.298-.693l-.817.211.212-1.657c.091-.934.03-3.012-.151-4.609-1.119-10.302-6.894-15.965-14.061-13.796l-1.482.421-.997-.964c-.575-.542-1.27-1.476-1.603-2.108-.333-.603-.695-1.115-.816-1.115-.817.03-1.573 1.386-1.573 2.832 0 .934-.091 1.084-.726 1.084-.393 0-.937.061-1.149.151-.332.12-.725-.512-1.391-2.259-1.39-3.495-1.269-6.296.394-9.76.393-.844.665-1.567.604-1.627-.302-.301-2.933 1.567-3.598 2.53l-.726 1.055-.786-1.356c-2.721-4.639-8.073-9.007-13.637-11.175l-2.147-.814 1.179-1.175c1.149-1.144 1.179-1.235 1.058-2.952-.09-1.355-.332-2.048-.967-2.891-.907-1.175-3.417-2.561-4.657-2.561h-.695l.786-1.024c1.24-1.597 1.451-2.771.847-4.699l-.484-1.657-.303 1.356c-.151.753-.544 1.717-.877 2.199l-.604.813-.666-.964c-.967-1.446-1.814-1.326-1.935.211-.121 1.566-1.058 2.56-2.358 2.56-1.422 0-1.512-.452-.333-1.566 1.845-1.747 2.207-3.223 1.119-4.97-.726-1.175-1.935-1.838-4.354-2.32l-1.845-.392 2.328-.331c1.27-.211 2.722-.271 3.206-.181 1.784.362 1.995-1.415.241-2.169-.786-.331-.816-.391-.272-.421.363 0 .756-.151.877-.362.393-.632-.846-1.144-2.782-1.144-3.205 0-6.017.753-9.978 2.711-2.026.994-3.992 1.807-4.385 1.807-.967 0-2.812-1.265-4.687-3.253-1.602-1.657-1.663-1.657-3.598-1.205m2.117.843c.121.181-.152.603-.545.934-1.542 1.205-1.814 4.579-.423 5.543.847.602.907.452.363-.844-.575-1.415-.575-2.44.03-3.705.514-1.054 1.421-1.385 1.724-.602.121.301-.061.482-.484.542-1.149.151-1.089 2.38.091 3.554 1.36 1.356 3.296.181 2.267-1.385-.514-.783-1.663-.994-1.663-.301 0 .271.212.361.575.271.756-.181 1.119.783.484 1.385-.454.452-.545.392-1.24-.391-1.028-1.145-.937-2.772.121-2.651.968.09 4.143 2.892 4.626 4.067.484 1.174.545 3.072.061 3.554s-1.603.03-1.603-.663c0-.331-.211-1.084-.484-1.717l-.453-1.114-.726.903c-.726.904-.756.904-1.723.392-2.087-1.024-2.782-.874-4.325.904-.574.632-.725.693-1.269.361-.908-.572-1.603-.181-1.603.874 0 .482-.151 1.265-.363 1.747l-.333.843-.211-1.054c-.272-1.416-.817-2.41-1.361-2.41-.242 0-.454.241-.454.542 0 .332-.423 1.145-.937 1.868-1.512 2.048-1.875.753-1.028-3.554.514-2.471.968-3.856 1.482-4.549.332-.422.514.03.998 2.44.09.572.574 1.054 1.451 1.596 1.935 1.115 2.298.904.786-.451l-1.33-1.205 1.3-1.416c.726-.813 1.391-1.567 1.512-1.687s.151.151.091.602c-.061.573.151 1.145.665 1.748l.756.903-.484-1.385c-.514-1.356-.514-1.446.06-2.41.605-1.055 2.329-2.38 3.024-2.38.212 0 .484.151.575.301m16.782 2.32c-1.119 1.446-2.298 1.687-2.238.452.03-.814.605-1.115 2.329-1.235.514-.031.514.03-.091.783m5.775-.301c.182.18-.09.271-.695.271-.544 0-1.875.09-2.964.211-1.36.15-1.814.12-1.511-.091.241-.15.816-.301 1.3-.301.453 0 .816-.151.816-.331 0-.422 2.601-.211 3.054.241m-8.497 1.114c0 .753-.967 1.687-1.723 1.687-.635 0-.454-.843.272-1.325.514-.362.544-.482.181-.482-.695 0-1.179.753-1.088 1.656.06.603-.151.994-.877 1.567l-.998.753.484-1.446c.574-1.717 1.935-3.133 2.993-3.133.605 0 .756.151.756.723m-3.568.392c-.151.301-.393 1.084-.514 1.747-.242 1.476-.756 2.38-2.086 3.856l-1.028 1.144.423-1.144c.484-1.386.544-2.651.121-3.404-.242-.482-.06-.723 1.421-1.627 1.996-1.265 2.026-1.265 1.663-.572m9.162 1.626c1.573.452 3.175 2.049 3.175 3.193 0 .482-.272 1.175-.604 1.537-.817.873-.968.843-.575-.061.514-1.084.091-2.229-1.028-2.891-.786-.482-1.512-.603-4.052-.603-1.693 0-3.447.151-3.901.301-.453.181-.876.271-.937.181-.272-.271 1.3-1.054 2.933-1.506 2.026-.542 3.417-.572 4.989-.151m-3.023 2.38c1.572.362 2.449 1.386 2.872 3.464.182.934.666 2.049 1.059 2.5 1.421 1.627 4.928.784 7.196-1.717 1.18-1.325 1.482-1.084.575.422-.575.904-1.573 1.928-2.57 2.651-.454.301-.212.331 1.3.271 2.298-.151 4.777.934 5.715 2.47.816 1.295.816 3.103.03 4.097l-.605.753.182-1.416c.181-1.325.121-1.506-.877-2.5-1.3-1.295-2.238-1.356-4.203-.301-.787.421-1.694.753-2.026.753-.938 0-2.087-.633-2.601-1.416-.695-1.054-1.028-.843-.665.452.363 1.325-.121 2.56-1.179 3.283-.575.362-.726.362-1.149-.09-.635-.633-.545-2.38.121-2.38.242 0 .483.241.544.573.091.331 0 .482-.212.361-.181-.12-.332-.09-.332.09 0 .573.574.633.877.121.362-.693-.121-1.597-.847-1.597-1.089 0-1.3 2.35-.333 3.314 1.119 1.114 2.389.632 3.145-1.205.423-1.054.575-1.175 1.058-.904.333.151.847.302 1.18.302.302 0 .877.361 1.3.783.393.452 1.179.994 1.723 1.235.938.391 1.119.361 2.238-.211 1.421-.723 1.724-.603 1.149.482-.574 1.054-2.419 1.928-4.052 1.928-1.088 0-1.33.09-1.209.452.302.723-.756.542-1.905-.332-.605-.452-.998-.602-.998-.361.03.964 1.754 2.199 2.661 1.897.725-.21 2.933 1.687 3.659 3.133.302.603.635 1.627.725 2.29l.212 1.205-.877-1.507c-.484-.843-1.149-1.777-1.512-2.078-.635-.572-.635-.542.091 1.054 2.993 6.748 3.356 7.2 5.261 7.2.545 0 1.27-.151 1.603-.302.847-.451.756.181-.212 1.416-.665.874-.937.994-2.086.994-.726 0-1.663-.12-2.087-.301-1.088-.392-.967-.12.212.602.665.422.786.603.423.603-2.237 0-4.142-2.41-4.717-6.025-.363-2.259-1.572-4.819-2.842-5.964-.514-.452-.544-.452-.272.241.181.422.725 1.627 1.239 2.711.666 1.416.938 2.38.938 3.524 0 .874-.121 1.597-.302 1.597-.152 0-.484.392-.756.904-1.24 2.379-4.385 2.5-4.385.18 0-.482.091-.512.363-.241.605.603 1.965.422 2.479-.301.756-1.084.545-1.476-.302-.693-1.028.964-1.542.934-1.996 0-.484-1.054-.756-.933-1.179.422-.454 1.476-.03 2.681 1.3 3.796 1.542 1.295 3.054.783 4.687-1.567.968-1.385.968-1.385 1.3-.663.152.392.605 1.085.968 1.537.514.662.665 1.325.786 3.313.091 2.26.061 2.591-.605 3.555-.967 1.416-2.056 1.928-3.326 1.536l-.998-.271.938-.03c1.814-.06 3.175-1.808 2.6-3.374-.242-.633-.302-.572-.695.633-.424 1.385-1.089 1.897-2.812 2.259l-.877.181.725.692c1.059 1.025 2.087 1.175 3.417.513 1.028-.543 1.149-.543 1.301-.091.362 1.205.876 1.958 1.511 2.259.363.151.605.422.515.543-.303.482-1.996.271-3.024-.362-1.18-.723-1.27-.542-.696 1.687.242.994.242 1.446-.06 1.988-.393.723-.393.723-.665-.331-.121-.573-.424-1.235-.635-1.446-.273-.271-.363.03-.333 1.506.03 1.838.06 1.898.756 1.807 1.028-.15 1.754-.843 1.965-1.897l.212-.904 1.058.964c.908.753 1.301.904 2.238.813.665-.06 1.179-.03 1.179.06 0 .603-1.119 1.537-2.207 1.838-.817.241-1.089.422-.726.512.877.181.393.813-.574.753-.484-.03-1.149-.391-1.512-.813l-.635-.723.151 1.325c.121 1.235.091 1.326-.605 1.326-.907 0-1.512-.452-2.358-1.808l-.666-1.054.182.964c.242 1.355 1.028 2.47 1.875 2.681.937.241.907.663-.061 1.084-.544.271-.998.271-1.603.03l-.846-.301.151 1.446c.091.934 0 1.627-.242 1.928-.605.723-.786.542-.665-.572.06-.543-.03-1.115-.212-1.205-.181-.121-.332 0-.332.331 0 .301-.212.934-.454 1.416-.726 1.386-.605 1.807.514 1.566 1.391-.271 2.359-1.295 2.359-2.5 0-.873.09-.994.786-.994.514 0 1.149-.361 1.784-1.024l.967-1.024.696 3.554c.907 4.519.726 5.332-1.905 8.043l-1.814 1.898.635 1.175c.362.632 1.814 4.608 3.235 8.796 2.359 6.928 2.57 7.801 2.57 9.88-.03 2.53-.725 9.579-.967 9.85-.091.09-.272-1.235-.424-2.952-.272-3.886-.665-2.982-.695 1.717-.03 1.807-.212 3.856-.393 4.519-.363 1.144-.393 1.084-.575-2.109-.09-1.838-.423-4.006-.695-4.88-.303-.874-.454-1.717-.333-1.898.091-.15.121-.301.03-.301-.09 0-.483.633-.876 1.416-.998 2.018-1.512 2.771-1.905 2.922-.242.09-.182-.332.181-1.115.302-.693.786-2.982 1.058-5.121l.514-3.825-.786-1.326c-.665-1.144-.726-1.536-.574-2.922.151-1.265.242-1.446.393-.873.09.421.393.783.695.843 1.663.332.393-6.747-2.419-13.435-.786-1.867-.786-1.928-.302-3.313 2.268-6.477 2.57-7.712 1.391-5.814-.545.904-.998 1.928-2.147 4.85-.272.693-.363.602-1.331-1.506-.574-1.235-1.36-2.561-1.693-2.922-.937-.994-2.661-.904-4.989.211-1.059.482-1.905.813-1.905.753 0-.091.484-.904 1.088-1.838 1.24-1.928 2.54-5.482 2.54-6.958 0-.573-.211-1.416-.453-1.868-.514-1.054-3.931-4.187-5.322-4.94l-1.028-.542.786.692c.423.392 1.784 1.778 2.963 3.073l2.208 2.41-.121 1.506c-.182 2.018-1.301 4.699-3.054 7.32l-1.452 2.109-2.328.662c-5.503 1.567-8.951 3.013-8.437 3.555.091.06 1.24-.301 2.571-.783 1.36-.482 3.628-1.175 5.049-1.507 1.391-.361 4.052-1.325 5.836-2.138 3.841-1.747 4.899-1.868 5.746-.693.332.482 1.723 3.494 3.084 6.717 1.875 4.459 2.631 6.597 3.054 8.887.695 3.705.695 4.096.151 3.373-.242-.301-.726-1.777-1.088-3.253s-.726-2.651-.787-2.621c-.03.061.061 1.808.242 3.856.182 2.079.242 4.157.121 4.669-.242.844-.272.753-.665-1.054-.212-1.085-.544-2.259-.726-2.651-.151-.392-.302-1.205-.302-1.807-.03-.603-.212-1.537-.454-2.019-.392-.841-.393-.753-.423 1.697v.02c-.03 1.567-.151 2.651-.333 2.651-.151 0-.302-.602-.302-1.325 0-1.807-.302-2.5-1.965-4.428-1.845-2.109-2.147-2.772-2.359-4.91-.091-.964-.333-1.928-.484-2.079-.332-.331-.393-.241-.453 1.235-.031.543-.394.844-1.754 1.386-2.48.994-5.987 3.253-9.072 5.814-2.57 2.138-2.661 2.199-2.661 1.385-.03-.843-.03-.843-.725.302-.393.662-1.18 1.656-1.724 2.229-.998.994-2.631 2.048-2.842 1.837s1.088-4.85 1.633-5.934c.302-.602.665-1.416.756-1.838.211-.692.181-.662-.363.151-.786 1.265-1.421 1.717-2.208 1.597-1.118-.151-1.421-.994-.695-1.958.363-.452.877-.874 1.149-.934.665-.151.635.723-.03 1.114-.454.271-.454.302-.061.332.938 0 1.573-.753 1.361-1.597-.454-1.837-3.508-.241-3.568 1.868-.03 1.175.846 2.229 1.754 2.048.604-.09.635-.03.393.603-.817 2.138-4.657 6.807-6.502 7.892-1.209.723-1.209.693-.393-.723.363-.603.575-1.175.454-1.265-.091-.121-.181-.03-.181.15 0 .603-1.875 2.47-3.055 3.103-1.179.603-3.779.753-4.959.301-.483-.18-.302-.271.756-.452 3.206-.482 4.718-2.379 6.018-7.681.484-1.988 1.24-4.338 1.633-5.211l.756-1.597.03 1.446c.06 2.802 1.119 3.464 1.996 1.235.332-.873 1.179-2.018 2.358-3.163 2.056-1.988 1.935-2.289-.272-.813a6.9 6.9 0 0 0-2.298 2.621c-.635 1.205-.877 1.476-1.028 1.084-.303-.723-.303-1.958-.03-2.982.241-.813.151-.753-1.119.602-.756.814-1.603 2.109-1.875 2.892l-.514 1.386-.998-.452c-.786-.392-1.149-.392-1.965-.121-1.845.633-1.573-.331.604-1.988.847-.632 1.815-1.385 2.208-1.687.635-.451.544-.451-.907.061-1.694.632-4.083 2.349-4.627 3.404-.423.753-.091 2.048.484 2.048.242 0 .454.211.454.452 0 .663 1.39 1.446 1.965 1.145.423-.241.363-.332-.302-.633-1.028-.482-.877-1.265.362-1.747.847-.362 1.029-.332 1.694.181.695.542.726.692.484 1.867-.696 3.223-4.657 3.946-6.108 1.145-1.573-3.012 1.058-8.164 4.928-9.64 1.24-.482 2.48-1.235 2.329-1.415-.061-.061-.907.18-1.875.572-1.603.602-1.905.633-3.84.301-3.145-.542-3.568-.934-.968-.964 2.54 0 7.227-1.114 9.374-2.199.816-.421 1.965-1.265 2.54-1.867l1.058-1.115-1.572.934c-.847.542-2.359 1.265-3.326 1.687-2.057.813-7.741 1.958-9.828 1.958-.816 0-1.451.12-1.451.241 0 .723 2.993 2.169 4.445 2.169.695 0 .665.03-.333.934-1.33 1.144-2.57 3.614-2.782 5.572-.242 1.988.635 4.067 2.056 4.94 1.18.723 1.996.754 3.448.151 1.058-.422 1.058-.422.846.241-.302 1.024-1.905 2.561-3.084 2.952-1.058.331-4.566.241-5.655-.151-1.239-.481.877 1.055 2.722 1.958 2.207 1.055 4.505 1.175 6.35.272.665-.332 1.421-.573 1.693-.603 1.21-.03 4.899-3.163 6.35-5.422l.484-.753-.151.994c-.272 2.018 1.965 1.506 4.687-1.084.998-.934 2.419-2.079 3.145-2.531.725-.452 2.449-1.687 3.81-2.771 2.025-1.567 7.408-4.699 8.073-4.699.091 0 .182.512.182 1.114s.211 1.326.483 1.627c.454.482.424.632-.453 1.868-1.845 2.68-4.203 4.036-11.37 6.536-2.479.874-5.503 2.018-6.713 2.561-2.449 1.114-2.57 1.325-2.63 4.337l-.031 1.748-5.412 2.741c-2.964 1.536-5.534 2.771-5.745 2.771-.182 0-.514-.12-.726-.271-.333-.181-.242-.422.363-1.024.937-.934 1.209-1.958.967-3.374-.211-1.084-.786-1.205-.786-.151 0 .663-1.361 1.808-2.117 1.808-.635 0-1.179-.603-1.511-1.717-.242-.811-.242-.784-.272.321l-.001.01c-.03.723.182 1.416.484 1.747.545.603 1.905.723 2.45.181.514-.512.846-.06.362.512-.211.241-.695.452-1.088.452s-.726.12-.726.271c0 .572 1.784 2.139 2.449 2.139.393 0 3.206-1.265 6.29-2.832 7.801-3.946 8.436-4.157 10.341-3.765 4.052.873 6.622 5.994 6.622 13.164 0 2.56-.151 3.795-.574 5.03-.333.904-.484 1.657-.393 1.657.121 0 .635-.271 1.119-.633.514-.331 1.693-.994 2.63-1.476.938-.512 2.661-1.506 3.81-2.259 1.966-1.235 5.746-3.103 7.378-3.645.605-.181.635-.15.273.271-.212.271-.968.663-1.663.844-1.452.391-3.024 1.144-2.813 1.355.091.091 1.331-.12 2.782-.452 2.933-.723 5.443-.813 6.713-.271.786.332.696.362-1.421.573-2.086.18-6.017 1.174-6.864 1.687-.182.15 1.058.21 2.721.18 2.51-.06 2.903 0 2.057.241-2.268.693-9.919 5.663-12.7 8.254-2.268 2.139-3.175 3.585-3.931 6.266-.787 2.861-1.573 4.608-2.752 5.964-.726.843-.877.934-.907.422 0-.452-.272-.271-1.3.843-.726.783-1.664 1.476-2.147 1.597l-.908.21.968-.873c.635-.542 1.119-1.416 1.391-2.38.242-.843.726-2.319 1.089-3.283q.635-1.808.453-2.802c-.242-1.385-.635-1.024-.846.784-.363 3.012-2.178 5.211-5.867 7.078-2.661 1.326-3.568 2.29-3.568 3.766 0 .994-.03 1.084-.363.663-.483-.633-.483-2.38 0-3.314.182-.392.877-.904 1.482-1.115 1.482-.512 3.659-1.988 4.233-2.921.424-.603 1.24-2.922 1.028-2.922-.03 0-.574.723-1.239 1.626-1.905 2.651-2.843 3.103-10.281 5.031-1.482.422-3.054 1.024-3.508 1.416-1.058.873-1.361 2.199-.786 3.373.575 1.085.151 1.175-.847.151-1.209-1.175-.786-3.223.938-4.518.514-.392.363-.422-1.422-.241-1.511.12-2.207.06-2.933-.332-.544-.271-.967-.542-.967-.632 0-.061.756-.031 1.663.06 2.903.301 5.019-.904 6.864-3.856.907-1.476 1.3-1.898.968-1.024-.394.994.181 2.59 1.179 3.163 1.27.783 2.51.753 4.142-.091 2.389-1.174 3.448-3.855 2.238-5.602-.423-.573-.665-.663-1.603-.482-2.812.512-4.807.512-5.805-.031l-1.028-.512.756-.271c2.781-1.024 4.203-2.47 4.928-4.94.575-1.928.121-3.434-1.421-4.85-1.512-1.385-1.996-1.235-.665.211.574.663 1.149 1.506 1.209 1.868.424 2.078.394 2.41-.544 3.916-1.209 2.018-3.054 3.072-4.929 2.831-.725-.09-1.3-.03-1.3.121 0 .15.665.843 1.482 1.536l1.451 1.265-1.088 1.506c-.605.844-1.482 1.958-1.996 2.531l-.907 1.024-1.512-1.356c-2.994-2.59-4.989-6.265-4.989-9.157 0-.783-.121-1.627-.303-1.868-.242-.361-.332-.361-.846.091-.303.271-.666.421-.756.301-.363-.362-.212-1.205.272-1.627.423-.331.272-.452-.968-.813l-1.482-.422.908-.452c2.147-1.084 2.419-2.53 1.3-6.928-.605-2.38-.696-3.374-.665-10.031 0-8.133.302-11.718 1.663-18.646 1.512-7.742 2.086-8.645 8.859-14.7 4.748-4.217 6.23-5.663 6.23-6.055 0-.12-.635-.181-1.422-.12-.997.06-1.633-.061-2.056-.392-.332-.271-.453-.422-.242-.331.393.211 1.3-.091 1.3-.422 0-.12-.362-.331-.786-.422-.846-.211-2.237-1.446-2.237-1.988 0-.211.181-.241.574 0 1.028.542 2.994.332 4.566-.452 1.693-.843 3.357-.964 3.931-.301.484.572 1.935.572 2.842 0 .635-.422.726-.422 1.089 0 .514.633 1.784.572 2.933-.151 1.754-1.054 2.57-3.102 1.663-4.217-.484-.572-.605-.602-1.36-.271-.847.392-1.331 1.416-.998 2.259.211.543 1.118.452 1.33-.15.091-.301 0-.362-.363-.241-.332.15-.484.03-.484-.362 0-.662.908-1.114 1.24-.602.363.602-.363 2.108-1.36 2.711-1.422.873-2.117.663-2.299-.783l-.151-1.205-.544.964c-.484.934-1.875 1.897-2.661 1.897-.242 0-.242-.12.03-.451.333-.392.242-.452-.423-.452-.937 0-2.752-.693-3.054-1.175q-.227-.361.544-.181c.847.241 3.145-.662 3.81-1.446.212-.301.696-.512 1.089-.512.877 0 1.784-.964 1.33-1.416-.544-.542-.091-1.265.998-1.747.786-.301.877-.452.514-.602-.272-.09-1.028-.151-1.663-.09-1.028.09-1.179.18-1.27.933-.06.543.121 1.115.454 1.476.514.573.514.603-.363.482-.817-.09-.907-.211-.998-1.205-.061-.873.091-1.295.877-2.168l.937-1.085-.665-.542c-.665-.512-.635-.542.968-.542 4.747-.091 7.226-3.796 6.319-9.429-.363-2.139-.332-2.41.272-3.916.333-.904.908-2.018 1.24-2.47.303-.452.575-.904.575-1.024 0-.121.302-.452.665-.723.484-.392.998-.512 1.965-.392 2.389.271 3.81-.813 4.204-3.223.211-1.385.03-1.506-1.089-.632-1.119.873-1.875.723-3.115-.543l-1.118-1.144 1.058-.512c.665-.302 1.24-.874 1.482-1.476.635-1.476 1.058-2.41 1.572-3.344.393-.693.423-1.024.121-1.747-.484-1.115-.726-1.115-1.512.181-1.3 2.108-3.024 2.741-4.868 1.777-.847-.422-.877-.512-.484-.964.786-.934.847-2.35.151-3.223l-.635-.844.635.362c.333.18.726.482.817.632.453.723 1.542.211 2.66-1.205 1.119-1.506 2.208-2.138 4.748-2.891 1.663-.452 2.237-.482 3.78-.121m4.112.633c.242.482.242.843-.03 1.446l-.393.783-.242-.874c-.121-.452-.484-1.114-.756-1.416-.484-.542-.484-.572.272-.572.514 0 .937.241 1.149.633m-17.357 1.295c-.121.271-.604.723-1.118 1.054-1.059.633-.756 1.115.483.814.575-.151.726-.091.726.391 0 .332-.121.663-.272.753-.151.121-.212-.09-.121-.452.181-.602.151-.632-.786-.15-.696.361-1.331.452-2.419.301-1.603-.211-2.752.211-2.752.964 0 .361.151.422.544.271 1.119-.482 1.815-.482 2.933-.03 1.482.633 2.026.602 2.994-.151.786-.632 1.119-.421.423.271-.211.211-.393.543-.393.753 0 .211-.363.332-.877.302-.816-.061-.786-.03.484.934.726.542 1.603 1.144 1.966 1.325 1.481.813 3.386.181 4.747-1.506.423-.542.786-.844.786-.633 0 .542-1.542 2.229-2.328 2.531-.938.331-.877.873.06.873.666 0 .726.09.484.572-.181.302-.756.754-1.3 1.025-.968.482-.998.482-1.814-.422-.968-1.054-2.298-1.175-3.145-.241-.393.452-.484.723-.242 1.084.454.753 1.179 1.115 1.754.904.635-.241.635-1.416 0-1.416-.272 0-.363.151-.242.332.121.21.03.301-.182.21-.786-.24-.665-.843.152-.843.604 0 1.149.392 2.086 1.416 2.963 3.343 3.145 3.494 4.264 3.313 1.179-.18 1.27-.06.544.753-.696.754-3.357.784-3.629 0-.302-.873-1.36-1.867-2.026-1.867-.544 0-.544.06.212.843.847.874 1.028 1.958.514 2.772-.242.361-.302.361-.333-.151 0-.422-.12-.271-.393.422-.393 1.084-1.3 1.928-1.784 1.626-.151-.09-.09-.301.212-.452.575-.331.635-1.717.091-2.47-.363-.482-.393-.421-.272.512.151 1.296-.363 1.657-1.21.904-.635-.542-.635-.542-.454.211.091.422.333 1.175.545 1.687.453 1.114.211 1.928-.575 1.928-.695 0-1.27-.573-1.27-1.265 0-.693.272-.693.786-.03.363.512.394.512.575 0 .272-.693-.363-1.416-1.24-1.416-1.149 0-1.33 1.416-.302 2.289.726.633.756.783.423 1.386-.816 1.446-1.482 1.506-1.24.09.091-.632.031-1.235-.211-1.476-.545-.663-2.843-.934-4.022-.452-1.33.542-3.87 2.982-6.017 5.784-1.966 2.59-3.236 3.524-4.627 3.524-.877 0-.877-.03.393-.602 1.512-.693 1.815-1.235 1.149-2.259-.635-.964-.635-.964.363-1.205.877-.181 3.266-2.32 4.506-3.977 1.33-1.777 3.507-6.356 3.296-6.898-.182-.421-.484-.482-2.238-.301-1.119.12-2.57.331-3.205.512-.847.241-1.694.211-3.054-.06-3.054-.603-5.745.331-6.108 2.169-.121.632-.303.843-.605.753a2 2 0 0 0-.696-.181c-.151 0-.544-.301-.876-.633-.817-.873-1.845-.572-3.387.964-1.421 1.416-1.784 1.266-1.784-.723 0-2.078 1.421-3.885 3.417-4.277.544-.121 2.449-.904 4.233-1.747 2.933-1.356 3.356-1.476 3.931-1.145.514.332.484.241-.181-.542-.454-.542-.817-1.295-.817-1.717 0-1.054 1.028-1.928 2.238-1.928s1.965-.633 2.207-1.837c.242-1.235.696-1.416.696-.302 0 .512.151.934.362.934.545 0 3.266-2.952 3.266-3.524.03-.512.03-.512.333 0 .363.602.091 2.831-.423 3.464-.424.512-.061.783.453.301.212-.211.847-.693 1.391-1.084l.968-.693v.753c0 .422-.121.813-.303.934-.151.09-.211.361-.121.602.121.271-.181.633-.756.994-.937.573-.967.964-.09.964.665 0 1.572-.903 1.572-1.566 0-.301.151-.814.363-1.145.302-.452.272-.783-.091-1.566-.272-.603-.393-1.416-.272-2.049.151-1.024.181-1.024.544-.391.182.361.363.934.363 1.295 0 .783.544.512.907-.482.454-1.205 2.056-1.988 3.629-1.807.877.09 1.633 0 2.117-.271.846-.452 1.39-.151 1.118.572m22.77 2.018c0 .482-.061.874-.121.874-.061 0-.363.09-.635.211-.454.15-.484.09-.182-.452.182-.332.333-.904.333-1.265 0-.362.151-.543.302-.452.182.09.303.572.303 1.084m4.384 7.501c.665.723.454 1.355-.695 1.928-.817.421-.968.391-2.147-.181-.665-.331-1.24-.693-1.24-.813 0-.392 1.996-1.507 2.752-1.507.423-.03 1.028.241 1.33.573m-40.035 6.416c.272.211.635.633.786.964.302.572.242.602-1.421.602-2.086 0-3.326.723-3.75 2.199-.242.753-.574 1.025-2.026 1.537-1.935.723-3.296 1.656-3.296 2.319 0 .241-.12.362-.302.271-.151-.09-.302-.452-.302-.783 0-1.476-1.24-.12-1.512 1.627-.212 1.265-.212 1.265-.454.391-.484-1.747 1.361-3.554 3.992-3.916 2.298-.331 2.479-.452 2.872-1.717.393-1.385 2.238-3.133 3.72-3.554 1.209-.362 1.149-.362 1.693.06m-4.868.693c0 .09-.273.512-.605.934-.333.421-.605.994-.605 1.235 0 .873-.968 1.566-2.177 1.566-1.572 0-2.994.633-3.961 1.777-.907 1.115-1.059 2.29-.333 3.284.635.934 1.24.843 1.482-.241.181-.874.211-.874.907-.422.907.603 1.421.301 1.179-.632-.211-.844.363-1.175 3.599-2.26 1.995-.632 2.056-.693 1.874-1.506-.151-.723-.06-.964.605-1.386.726-.482.816-.482 1.361.031.393.361.605.933.605 1.717 0 1.566-1.664 3.434-3.508 3.885-.726.181-1.331.513-1.331.693 0 .181-.272.512-.604.723-.635.392-.545 1.145.242 1.778.604.481.453.602-.847.783-.847.09-1.028.241-.968.693.061.301.303.722.545.903.241.181.423.422.423.482 0 .091-.998.753-2.177 1.446-12.216 7.2-23.374 17.321-29.966 27.261-5.473 8.284-7.288 14.67-7.318 25.756 0 6.446.333 8.615 1.996 12.922 2.207 5.724 6.622 10.785 11.672 13.405 1.24.633 3.78.633 5.11 0 3.326-1.596 3.538-7.5.423-11.507-3.205-4.066-8.164-2.831-8.164 2.049 0 3.976 3.931 6.476 6.35 4.066 1.724-1.747 1.482-4.217-.514-4.88-1.028-.361-2.207 0-2.207.663 0 .633.816.904 1.36.452.605-.512 1.663.391 1.663 1.416 0 .964-1.542 2.5-2.509 2.5-1.633 0-3.236-2.079-3.236-4.217 0-5.121 5.564-4.579 7.862.783.968 2.199 1.028 3.705.242 5.241-1.693 3.284-5.503 3.675-8.043.783-3.84-4.367-3.901-10.272-.151-14.639 3.386-3.947 9.252-2.922 11.883 2.078 1.089 2.079 1.572 9.67.786 12.561-1.27 4.82-3.87 6.929-9.253 7.531-2.298.241-2.358.723-.06.723 5.685-.03 9.132-2.982 10.462-9.067l.182-.783 1.33.632c1.119.543 1.3.754 1.18 1.326-.182.813.635 1.868 1.481 1.868.424 0 .544.24.544 1.114 0 .633.333 1.898.726 2.832l.696 1.687-.635.421c-6.441 4.067-10.916 5.694-15.664 5.694-4.445 0-7.438-1.416-11.43-5.423-2.419-2.379-3.114-3.343-4.414-5.874-6.169-11.928-6.35-28.135-.514-43.076 2.751-7.048 6.712-14.157 11.097-20.092l2.6-3.494 1.27.151c.877.12 1.18.09 1.029-.151-.121-.211-.424-.361-.666-.361-.514 0-1.935-.874-1.935-1.205 0-.121.454-.302.998-.422.756-.151.877-.271.514-.482a2.4 2.4 0 0 0-1.058-.301c-.333-.03-.998-.211-1.512-.452-.877-.392-.847-.392.635-.241 1.058.12 1.844.03 2.419-.271.483-.241 3.598-2.531 6.924-5.091 7.802-5.995 8.981-6.838 9.162-6.296.666 1.928 3.81 2.5 5.504.964.665-.572.937-1.084.967-1.807.031-1.295-.907-2.32-1.844-2.018-.756.241-1.331 1.415-1.028 2.138.363.994-.968.271-1.482-.783l-.544-1.054v.934c0 .542.242 1.144.605 1.476.514.451.695.482 1.542.15.635-.271.877-.542.786-.903-.091-.302-.03-.723.121-.934.242-.332.363-.332.695.12 1.119 1.446-.998 3.103-3.205 2.531-1.028-.272-1.361-1.356-.907-3.043.181-.693.272-1.265.212-1.325s-.514.512-1.029 1.235c-1.421 2.078-4.051 2.861-6.198 1.867-.514-.241-1.119-.723-1.331-1.054-.332-.542-.302-.572.484-.422 2.328.482 5.836-1.656 9.858-5.994 3.507-3.796 5.442-5.332 6.773-5.332.514 0 .968.09.968.181m-4.415.542c-.635.452-.907.422-.575-.09.091-.181.424-.332.696-.332.393 0 .393.061-.121.422m53.612 6.718c2.117 1.506 4.052 3.524 5.685 5.994 2.691 4.006 5.503 10.332 4.747 10.603-1.088.362-5.322 3.856-6.622 5.453-3.84 4.729-5.896 9.549-7.166 16.718-.847 4.88-1.573 6.928-2.601 7.26-.877.271-1.24-.151-2.268-2.712-.453-1.174-.877-2.259-.937-2.439-.091-.151.544-1.055 1.361-1.958 2.691-2.892 2.933-4.76 1.36-10.544-.846-3.132-.846-3.223-.363-2.741.666.663 1.452.362 3.085-1.235 1.753-1.717 2.298-2.53 2.298-3.554 0-.543-.121-.603-.817-.452-2.298.572-2.419.572-3.447-.392-.998-.873-.998-.903-.332-.934.997 0 2.781-.903 2.781-1.385 0-.211-.453-.603-.997-.874-.605-.271-1.24-.904-1.543-1.536-.483-1.024-.483-1.175 0-2.38.484-1.295.484-4.247 0-5.332-.181-.421-.06-.482.938-.331.665.09 1.905-.06 2.872-.361 1.966-.543 3.055-1.597 3.599-3.495.514-1.626.091-2.018-1.27-1.205-.575.362-1.482.633-1.996.633-1.24 0-1.784-.934-1.965-3.374l-.152-1.717.938.482c.514.271 1.784 1.085 2.812 1.808m-36.8-1.416c.363.241.303.301-.272.301-.605 0-.665.12-.514.753.121.452.061.753-.121.753-.181 0-1.965.753-3.991 1.657-1.996.904-3.72 1.657-3.78 1.657-.212 0 1.149-1.898 2.147-2.952 1.784-1.898 5.17-3.043 6.531-2.169m3.931 2.47c1.058 2.319.665 6.235-.756 7.651-.393.362-1.481.904-2.419 1.175-1.572.452-1.844.482-2.903.06-.635-.241-1.209-.361-1.3-.271-.363.331-.151 1.205.423 1.958l.605.783-.756 1.115c-.423.602-.756 1.355-.756 1.657 0 .783-1.149.753-2.026-.091-.483-.452-.786-.572-1.028-.331-.453.452.363 2.229 1.361 3.012.423.362.786.723.786.813 0 .362-2.328.151-2.903-.271-1.36-1.024-1.844.03-.665 1.506l.635.814-.726.572c-1.572 1.235-3.628 1.326-5.352.241-1.482-.934-1.633.994-.212 2.681.424.512.756 1.085.756 1.325 0 .663.968 1.416 2.026 1.627.908.181.877.211-3.507 4.187-5.383 4.82-6.501 6.055-7.65 8.525-1.15 2.38-2.782 10.272-3.357 16.236-.423 4.157-.453 4.338-1.421 5.423-1.663 1.867-2.51 4.126-2.661 6.958l-.151 2.5-.998-1.205c-3.084-3.584-8.346-3.675-11.581-.18-2.42 2.62-3.508 6.024-3.296 10.482.09 2.199.06 2.26-.484 1.778-.817-.753-2.691-3.555-3.72-5.633-2.388-4.7-3.295-9.67-3.023-16.719.302-7.53 1.512-12.922 4.142-18.104 7.44-14.85 24.312-29.34 45.055-38.738 1.3-.602 6.804-2.711 7.197-2.801.06 0 .363.572.665 1.265m45.327 1.898c.484.241.937.632 1.058.903.152.392 0 .362-.604-.12-2.298-1.808-5.504.632-3.871 2.922.817 1.175 2.54.783 2.54-.573 0-.662-.151-.873-.605-.873-.332 0-.604-.151-.604-.301 0-.573 1.481-.302 1.814.331.544.994.121 2.078-1.058 2.56-1.361.543-2.419.091-2.873-1.235-.454-1.325-.121-2.41.968-3.313 1.028-.844 1.995-.964 3.235-.301m10.886 10.181c.695.753 2.237 1.717 4.233 2.681 2.57 1.235 3.508 1.868 5.292 3.645 3.477 3.494 5.019 7.139 5.473 12.863.212 2.771.212 2.861-.333 2.349-2.116-1.867-6.168.151-6.168 3.103 0 1.385.665 2.831 1.481 3.283.817.422 2.238.392 2.722-.09.302-.301.332-.181.151.542-.121.482-.393 1.265-.635 1.717-.514 1.054-.121 1.085 1.089.06.756-.602.937-1.024.937-1.928 0-.632-.181-1.295-.454-1.506-.242-.211-.453-.632-.453-.964 0-1.054-.575-1.747-1.452-1.717-.786 0-.786.03-.151.271 1.421.573 1.119 3.013-.363 3.013-1.935 0-2.661-2.862-1.119-4.519 1.18-1.325 2.782-1.536 3.811-.512.635.633.786 1.085.786 2.229 0 1.627.363 1.386.937-.632.182-.633.665-1.476 1.058-1.838.726-.662 2.419-1.265 2.722-.964.06.061-.212.784-.605 1.597-.484.934-.907 2.621-1.209 4.669-.484 3.434-1.27 5.784-2.45 7.32-1.119 1.446-.937 1.596.545.422 1.632-1.326 2.419-1.748 3.295-1.717h.696l-.756.512c-2.994 1.927-5.231 5.693-5.957 9.97-1.482 8.676-4.838 18.044-9.162 25.545-4.112 7.109-7.529 10.934-10.886 12.169-1.754.633-1.875.723-1.058.814 1.179.15 4.233-.452 5.806-1.145l1.239-.542-.604 1.054c-.938 1.597-2.661 2.561-4.869 2.771l-1.874.211.967.512c.544.302 1.21.874 1.512 1.296.605.934.665 3.283.121 4.307l-.393.693-.544-.873c-.968-1.627-3.599-3.103-4.687-2.681-.363.12-.454-.151-.454-1.356 0-2.53-1.27-4.187-3.235-4.187-2.812 0-3.689 3.856-1.089 4.85.938.331 2.177-.241 2.389-1.115.302-1.175-.212-1.446-.817-.452-.665 1.085-.967 1.145-1.784.332-.725-.723-.756-1.145-.121-2.049s2.057-.873 2.994.091c.605.572.756 1.024.756 2.259 0 1.325-.121 1.687-.937 2.47l-.908.934-.816-.934c-1.844-2.139-3.508-1.446-5.382 2.289-.242.482.665 1.868 1.239 1.868.363 0 .303-.151-.151-.602-.544-.543-.846-1.808-.453-1.808.09 0 .574.271 1.028.633.967.693 1.784.662 2.268-.091.423-.692.06-.964-.666-.512-.514.302-.695.302-1.088 0q-1.044-.858.272-1.717c.907-.572 1.754-.361 2.419.693.998 1.506.03 4.007-1.845 4.79-1.239.512-1.965.241-3.205-1.205l-.816-.934.181 1.868c.151 1.686.121 1.897-.605 2.62-.635.633-1.088.784-2.237.784-.786 0-1.663-.151-1.905-.302-.363-.211-.242-.301.453-.301 1.149 0 2.268-.753 2.268-1.506 0-.301-.393-.844-.877-1.175-.816-.572-1.3-.632-6.289-.632-10.432 0-22.83-.934-28.968-2.139-2.933-.603-6.018-1.506-6.411-1.868-.332-.331.605-1.145 2.298-2.018a27 27 0 0 0 2.873-1.657c.635-.422 1.21-.723 1.27-.663.302.302-1.21 1.717-1.784 1.717-.363 0-.877.151-1.119.302-.393.271-.363.391.272.903.393.332 1.119.603 1.663.603 1.21 0 3.841-1.567 5.594-3.284 1.301-1.325 1.331-1.325 1.119-.451-.363 1.385-.998 2.168-1.995 2.379-.484.121-.908.332-.908.452 0 .422 2.298.994 3.115.783 1.058-.241 4.445-3.584 4.445-4.368 0-.361.06-.632.151-.632.333 0 3.568 1.386 7.227 3.072 4.626 2.109 7.62 2.953 10.583 2.953 1.21 0 2.964.21 3.962.451 1.995.543 2.66.422 2.358-.331-.151-.392.242-.271 1.542.452 1.815 1.054 2.601 1.054 2.601.06 0-1.596-4.838-4.82-7.923-5.271-1.179-.181-12.065-5.242-12.004-5.603 0-.091.484-.543 1.028-.994l1.028-.844 2.328.512c2.782.603 5.05.452 7.016-.542 1.784-.904 2.63-2.018 2.63-3.585 0-1.084.031-1.144.393-.662 1.149 1.506 1.603 3.735.968 4.91-.181.331-.968.964-1.754 1.416l-1.421.843 1.391.181c2.026.301 3.296 1.024 3.296 1.928 0 1.476-2.026 2.078-4.082 1.235-1.724-.723-1.18-2.019.635-1.567.605.151.756.362.635.814-.091.391-.03.572.181.482.212-.061.363-.422.363-.814 0-.934-1.572-1.476-2.721-.964-.998.452-.968 1.265.121 2.29 1.149 1.084 2.872 1.325 4.384.632 1.966-.934 1.845-3.102-.272-4.277-.665-.392-1.058-.693-.847-.693.726 0 6.743-4.278 9.556-6.748 11.611-10.302 22.194-30.605 23.343-44.763.575-6.988-2.026-13.615-6.319-16.115-4.113-2.41-9.616-1.205-13.94 3.042-8.437 8.344-8.195 22.894.423 26.87 4.536 2.078 10.886.482 15.633-3.946l1.875-1.717-.544 1.717c-.877 2.711-1.663 4.91-2.389 6.597-.635 1.446-.817 1.626-2.994 2.62-4.233 1.958-8.466 2.169-13.063.633-3.054-1.024-4.868-2.169-7.438-4.669l-2.147-2.109 1.149-1.144c1.452-1.416 1.754-2.862.998-4.459-.998-2.018-3.357-2.138-4.264-.241-.635 1.326-.242 2.802.907 3.465.726.391.847.391 1.331-.091s.484-.512-.302-.512c-1.361 0-1.936-1.868-.817-2.862.817-.723 1.935-.391 2.419.753q.726 1.718-.907 3.344c-1.058 1.054-2.359 1.145-3.205.241-.726-.783-.756-3.795-.061-5.392.424-1.024.545-1.084 1.663-.964 1.301.121 1.936-.331 1.331-.934-.182-.18-.333-.873-.333-1.506 0-1.024-.06-1.144-.453-.813-.242.211-.454.843-.454 1.386 0 .572-.121 1.024-.302 1.024-.393 0-.726-1.928-.484-2.922l.212-.844-.545.753c-.302.422-.514 1.235-.514 1.898.031.904-.151 1.265-.998 2.018-.544.512-1.33.904-1.693.904-.635-.03-.605-.06.212-.663 1.24-.933 1.875-2.681 2.721-7.53.786-4.368 1.935-8.344 3.205-10.784 1.059-2.079 3.569-5.664 4.839-6.929 3.87-3.855 10.19-6.928 14.242-6.928h1.421l-.182-1.356c-.151-1.596.424-2.711.938-1.747.151.302.786 1.055 1.391 1.687m-63.591 3.555c.393.632-.423.994-1.3.572l-.847-.392.756-.241c1.089-.301 1.149-.301 1.391.061m61.444 10.272c-.756.723-1.754 1.958-2.208 2.741-.453.783-.907 1.386-.997 1.295-.303-.331 1.512-3.494 2.54-4.368 1.663-1.476 2.237-1.144.665.332m-11.249 4.458c-1.391 4.579-.574 9.097 2.117 11.868 1.572 1.627 3.266 2.35 5.715 2.531 3.689.241 7.862-1.265 10.795-3.856l1.451-1.265-.181 1.476c-.242 2.229-.756 4.368-1.27 5.332-1.3 2.62-5.564 5.843-9.344 7.078-6.531 2.169-12.337-1.385-13.697-8.344-.726-3.584.12-8.796 1.965-12.41.786-1.537 2.57-4.037 2.721-3.856.091.06-.06.723-.272 1.446m15.18.211c-.907 1.024-1.27 3.705-.514 3.705.151 0 1.24-.482 2.419-1.085 1.179-.572 2.207-.994 2.298-.903.302.301-7.378 3.825-8.739 3.976-1.24.181-1.482.09-2.177-.572-.665-.663-.786-1.055-.786-2.561 0-2.048.181-2.38.877-1.536.635.783 2.872 1.084 4.293.602.635-.21 1.301-.783 1.724-1.415.393-.603.786-.994.877-.904.121.09-.03.422-.272.693m12.125 9.669c-.03.994-.06 1.024-.272.362-.363-1.085-.363-1.868 0-1.657.182.09.303.693.272 1.295m-88.688 6.567c-.091.241-.302.422-.484.422-.423 0-.393-1.115.061-1.898.393-.663.393-.663.483.181.061.482.031 1.054-.06 1.295m35.469 1.597c.182.873.333 2.65.333 3.946 0 1.446.121 2.41.302 2.41.424 0 1.452-1.717 1.694-2.862.181-.813.241-.844.453-.301.333.843.333 2.018 0 1.837-.635-.422-1.088.844-1.028 2.952.061 2.079.03 2.109-.484 1.506l-.514-.632-1.088 1.867-.303-.753c-.332-.873-.363-2.229-.121-5.422l.182-2.259-.575 1.898c-.302 1.054-1.088 2.651-1.723 3.554-1.633 2.29-2.238 3.464-2.238 4.398 0 .964-.454 1.115-.907.271-.514-.964-.333-1.928.605-3.313.907-1.326 1.149-2.772.635-3.615-.333-.542.211-1.717 1.179-2.591.937-.843 1.512-2.078 1.512-3.223-.03-.994-.03-.994-.756.512-.786 1.627-3.357 3.856-4.808 4.248-1.119.271-2.359 1.807-2.238 2.801.091.693.242.783 1.331.874 1.693.12 2.721-.693 2.389-1.928-.212-.814-.242-.844-.454-.241-.332.843-.665 1.054-1.179.753-.726-.452-.242-1.386.786-1.476.756-.09 1.058.06 1.451.663.635.933.394 1.717-.786 2.741-1.572 1.295-4.505.813-4.505-.753 0-.753 1.481-3.555 2.207-4.127.363-.301 1.24-1.265 1.935-2.139s1.603-1.868 1.996-2.169 1.089-1.114 1.572-1.807l.877-1.265.968 1.054c.635.663 1.089 1.566 1.3 2.591m11.763-.332c-.605 2.229.423 4.549 2.389 5.392.574.211 2.026 1.386 3.235 2.591 5.685 5.693 14.363 7.44 21.227 4.307l1.663-.753-2.177 4.218c-5.322 10.302-11.702 18.164-19.443 23.917l-3.356 2.501-.182-1.597c-.242-1.988-1.33-3.976-2.661-4.88-1.239-.843-1.663-.874-1.3-.181.605 1.175.696 2.772.212 3.705-.786 1.476-2.601 2.26-5.443 2.23-1.331 0-2.994-.151-3.689-.362-1.27-.361-1.3-.422-1.3-1.657 0-1.687-1.24-4.157-2.661-5.331l-1.119-.934 1.361.241c.756.12 2.721.241 4.384.241 3.357-.03 6.169-.723 9.344-2.32 2.056-1.024 5.17-3.856 5.443-4.91.09-.391.604-1.386 1.088-2.169 1.27-2.048 1.452-3.976.635-6.657-.423-1.416-.998-2.5-1.663-3.193-1.21-1.295-1.965-1.476-1.179-.301.332.512.544 1.626.635 3.313.121 2.29.06 2.681-.696 4.187-.907 1.838-2.116 2.922-4.052 3.615-1.36.482-2.751.603-2.751.241 0-.09.514-1.205 1.118-2.44 1.18-2.38 1.119-2.108 1.785-11.055.181-2.711.181-2.711-1.512-7.802-.938-2.771-1.694-5.091-1.694-5.121 0 0 .605-.03 1.331-.03h1.3zm-19.867 2.41c-.725 1.356-2.872 2.44-4.868 2.44l-1.058.03 1.209-.632a149 149 0 0 0 2.873-1.476c1.965-1.025 2.238-1.085 1.844-.362m-6.803 3.042c.544.211 1.209.844 1.602 1.537.726 1.295.484 1.596-.423.602-.726-.813-1.058-.753-1.058.151 0 1.054.726 2.38 1.693 3.133.847.662.877 1.054.242 3.735-.151.663-.091.783.272.632.272-.09.575-.421.665-.753.273-.843 1.27-1.265 3.175-1.295 1.361-.03 1.905.121 2.903.813.877.573 1.482.784 1.966.663 1.149-.271 3.719 1.988 6.078 5.332 1.118 1.566 2.328 3.103 2.661 3.404.332.301.604.632.604.753 0 .361-1.028.542-1.663.271-.544-.211-.544-.241-.06-.241.363-.03.514-.211.453-.572-.09-.422-.423-.512-1.753-.512-1.391 0-2.208.271-4.99 1.626-1.844.874-3.991 2.079-4.777 2.621l-1.452 1.054.242-1.596c.454-3.103.242-5.453-.695-7.17-.968-1.807-1.845-2.56-3.417-3.042-.907-.271-1.27-.633-1.996-1.988-.454-.904-1.179-1.868-1.572-2.139-.635-.391-.726-.632-.545-1.476.605-3.283-4.324-4.006-6.198-.904-.454.723-.605.814-.756.452-.363-.934.302-2.47 1.36-3.072 1.149-.693 6.108-2.621 6.35-2.47.091.03.575.241 1.089.451m3.689 1.115-.635 1.054-.514-.843c-.514-.844-.514-.844.272-1.024 1.482-.362 1.542-.302.877.813m14.877 2.048c.181.151.454.121.726-.09.363-.301.544-.241.937.392.454.692.454 1.024-.091 4.759-.544 3.916-1.088 5.663-1.753 5.874-.182.06-.938-.693-1.724-1.687-.756-.994-2.419-2.56-3.689-3.524-1.27-.934-2.268-1.928-2.268-2.199 0-.512 1.633-3.193 2.117-3.494.272-.151.726 2.44.544 3.162-.151.754.937.663 1.724-.12.665-.663.877-.723 1.512-.422 1.209.542 1.542-.03 1.149-1.928-.242-1.144-.242-1.807 0-2.349.332-.753.332-.753.453.301.061.572.212 1.175.363 1.325m-21.529 1.025c.181.271.362.753.362 1.114 0 .572-.151.633-2.54.603h-2.54l.393-.753c.847-1.627 3.357-2.169 4.325-.964m6.077-.241c.363 0 .635.12.635.271 0 .271 1.149.783 2.268 1.024.333.09-.09.151-.937.181-1.149.03-1.814-.151-2.54-.663-1.179-.783-1.693-1.687-.665-1.145.332.181.907.332 1.239.332m4.566 2.229c0 .271-.514.452-1.572.542-.877.09-1.845.271-2.117.392-.393.15-.544.09-.544-.272 0-.361.333-.482 1.451-.512.787 0 1.694-.12 2.026-.271.333-.15.635-.271.696-.271.03-.03.06.151.06.392m-39.067 15.242c.695 2.952.816 4.428.423 5-.393.603-1.633 1.085-2.359.904-.695-.181-.725-.331-.755-2.53 0-1.265-.061-2.651-.121-3.073-1.149-8.163-1.029-10.242.846-13.013l.968-1.446.181 5.663c.121 4.157.363 6.386.817 8.495m65.344-6.507c.061 2.26-1.512 4.549-4.415 6.507l-1.451.964 1.058-.211c.575-.12 1.391-.422 1.815-.663s-.031.332-.968 1.235c-3.235 3.073-7.439 4.549-13.002 4.519-1.966 0-3.659-.121-3.78-.241-.605-.572 4.384-3.133 6.622-3.404 1.724-.211 1.935-.813.484-1.446-.998-.422-.998-.422 1.028-.452 1.089 0 2.056-.15 2.117-.301.06-.181.907-.361 1.905-.422 3.023-.15 5.624-1.807 7.015-4.518.272-.512.544-1.868.635-3.043l.181-2.108.363 1.205c.212.662.393 1.747.393 2.379m-11.188 2.44v2.41l-3.991-4.157 1.088-.572c.696-.331 1.361-1.024 1.784-1.838l.666-1.265.211 1.506c.121.814.212 2.591.242 3.916m-10.19 12.11c.756.813 1.603 1.867 1.875 2.41.635 1.235.635 3.072 0 3.976l-.484.693-.544-1.175c-.635-1.446-2.631-3.253-4.597-4.157l-1.481-.693 1.723-1.235c.938-.693 1.815-1.235 1.936-1.235.09 0 .786.633 1.572 1.416m-4.052 2.5c.847.512 1.572.964 1.572 1.024s-.514-.06-1.118-.301c-.635-.211-1.694-.392-2.329-.422-1.149 0-1.179 0-.635-.602.303-.332.635-.603.726-.603s.907.422 1.784.904m-.665 1.325c4.082 1.356 5.201 2.23 4.777 3.555-.211.693.182.843-4.142-1.687-4.566-2.681-4.748-3.283-.635-1.868m1.572 3.435c7.046 4.126 12.428 6.747 15.784 7.711 3.236.904 4.808 1.747 6.29 3.283l1.028 1.055-1.754-.874c-.937-.482-1.905-.873-2.116-.873s-.908-.332-1.512-.753c-1.391-.934-3.115-1.416-4.748-1.296-1.239.091-1.239.091.998.693 2.147.572 4.475 1.928 4.748 2.771.09.271-.121.271-.908-.06-.574-.241-2.237-.572-3.719-.753-4.233-.512-6.259-1.084-10.039-2.832-3.387-1.566-8.648-3.795-8.92-3.795-.091 0-.242.512-.363 1.115-.242 1.325-1.058 2.409-1.391 1.867-.121-.241-.333-.12-.575.362-.544 1.054-1.542 2.078-2.025 2.078-.303 0-.242-.241.211-.843.605-.814.938-3.163.514-3.585-.121-.09 0-.542.242-.964.212-.452.635-1.687.907-2.741.575-2.259 1.573-4.519 1.996-4.519.181 0 2.57 1.326 5.352 2.953m-20.562 1.626c1.421 1.416-1.481 4.76-4.112 4.76-2.268 0-2.933-2.952-.998-4.429.756-.602.998-.451.514.272-.544.753-.574 1.114-.212 1.686.303.482 2.389 1.025 3.115.784.574-.181 1.209-1.747.968-2.38-.212-.542-1.21-.602-1.512-.09-.121.21-.091.241.151.12.544-.361 1.24.03 1.058.572-.453 1.175-2.237 1.235-2.237.061 0-1.386 2.267-2.35 3.265-1.356m-8.708 9.248c-.152.331-.303 1.235-.303 2.018 0 1.295-.06 1.386-.665 1.205-.393-.09-.786-.181-.907-.181-.151 0-.242-.451-.242-1.024 0-.783.212-1.235.937-1.807 1.119-.934 1.633-1.024 1.18-.211m63.5 1.265c.181.301.302.783.302 1.054 0 .452-.091.452-.695-.12-1.029-.964-1.573-.844-.787.211.908 1.205.877 2.831-.03 3.795l-.756.783-.211-1.084c-.152-.602-.575-1.536-.998-2.078-.787-1.055-1.028-2.892-.363-2.892.181 0 .695-.271 1.088-.573.696-.512.817-.542 1.452-.12.393.271.847.723.998 1.024"/>
  <path d="M156.024 179.655c.544.181 1.36.753 1.753 1.235.666.753.726 1.085.605 2.38-.211 2.38-1.905 3.464-3.447 2.229-.544-.452-.484-2.319.061-2.53.665-.271 1.36.09 1.179.602-.091.241-.393.512-.665.573-.454.09-.454.15.06.361.393.181.696.09.968-.301.514-.693.514-.814.03-1.506-.544-.723-1.935-.392-2.389.602-.695 1.506.605 3.464 2.328 3.464 2.178 0 3.629-3.404 2.42-5.693-.515-1.024-2.026-1.868-3.236-1.807-.574 0-.514.09.333.391m3.538 33.377c-.726 1.024-.575 1.988.393 2.982 1.572 1.536 3.749.964 4.384-1.145.212-.602.121-.602-.695.211-1.059 1.054-2.177 1.175-3.085.271s-.665-1.928.484-1.928c.938 0 1.059.332.605 1.416-.333.813.363.663.937-.211.454-.693.454-.813 0-1.506-.665-.994-2.358-1.054-3.023-.09m-24.614 29.641c-.665.452-.907 1.325-.363 1.325.181 0 .393.03.514.06.151.061.242-.18.242-.512 0-.331.242-.632.544-.693.786-.15.665 1.025-.242 1.898-.846.874-1.875.964-2.449.211-.363-.452-.393-.452-.423-.03 0 .271.332.632.756.813 1.058.482 2.419-.241 3.084-1.596.393-.844.423-1.115.091-1.506-.484-.573-.908-.573-1.754.03m3.568-54.372c-.424.18-1.149.241-1.663.15-.666-.12-.786-.09-.454.121.242.15 1.028.301 1.754.301 1.209 0 1.27.03.968.602-.242.452-.635.603-1.512.603-1.301 0-1.815.422-.968.753.393.181.272.301-.544.482-.575.12-1.361.15-1.724.06-.877-.211-.907.362-.09.813.755.392 2.963-.12 3.235-.783.091-.211.333-.421.544-.421.817 0 1.996-1.266 1.905-2.049-.121-.904-.423-1.024-1.451-.632m-10.493.301c-.363.211-.877.873-1.119 1.506-.362.874-.604 1.114-.997.994-.484-.151-.484-.121.03.181.302.211.907.421 1.36.452.424.06 1.15.21 1.603.301.696 0 .998.03 1.603-.603.514-.482.756-.994.665-1.355-.091-.392.06-.603.484-.723 1.028-.271.211-.783-1.482-.934-.816-.09-1.784 0-2.147.181m2.631 1.566c0 .964-1.542 1.717-2.268 1.115-.242-.211-.454-.874-.454-1.115 0-.331.182-.241.575.241.484.603.635.663 1.089.271.272-.211.423-.662.362-.964-.09-.301-.03-.542.121-.542.152 0 .575.572.575.994m-15.119 4.97c-.575.272-1.089.693-1.149.904s.332.121 1.058-.301c1.421-.813 1.421-.813 1.27-.994-.091-.06-.605.09-1.179.391"/>
  <path fill-rule="evenodd" clip-rule="evenodd" d="M.38 449.718c1.716 0 5.719.125 7.369.365l.002 8.193a29.8 29.8 0 0 0-7.75-1.019V487H29.75c0-2.523-.314-4.972-.906-7.309h8.427c.231 1.618.351 5.582.351 7.263h225.41c0-2.454.119-5.646.35-7.263l7.926-.004a29.8 29.8 0 0 0-.882 7.209h29.747v-29.742c-2.488 0-4.906.305-7.216.881v-7.965c1.642-.235 5.612-.352 7.271-.352V37.745c-1.659.001-5.629-.092-7.271-.326v-8.565c2.34.593 4.791.908 7.316.908V.019h-29.748a29.8 29.8 0 0 0 1.024 7.766h-8.208c-.235-1.644-.353-5.608-.352-7.269H37.621c0 1.659-.12 5.625-.354 7.267h-8.065c.615-2.413.926-4.893.924-7.383H.382v29.748c2.509 0 4.946-.312 7.273-.899l.042 8.137c-1.657.236-5.643.356-7.317.359zm247.144 24.021a53 53 0 0 0-.498 2.639H53.585a51 51 0 0 0-.503-2.639zM31.842 457.94l6.15-6.152c5.29 5.682 11.508 17.332 12.247 24.587l-8.863.003a39.5 39.5 0 0 0-9.534-18.438m19.051 24.388a51 51 0 0 0-.171-2.637h-8.786q.164 1.306.242 2.637zM5.008 436.443a48 48 0 0 1 2.737.209l.002 8.766a39 39 0 0 0-2.738-.254zM29.456 31.922l6.112 6.112c-6.707 6.249-15.193 10.622-24.603 12.259v-8.787a39.5 39.5 0 0 0 18.491-9.584M5.009 50.956v-8.651c.707-.05 1.952-.154 2.649-.241l.001 8.692q-1.315.135-2.65.2M50.893 5.135a48 48 0 0 1-.209 2.65l-8.748-.002c.1-.818.195-1.817.243-2.648zm2.169 8.596q.287-1.31.507-2.642h193.469q.219 1.332.504 2.64zm193.352-8.596q.062 1.335.191 2.648H54q.129-1.316.192-2.648zM13.605 434.254a48 48 0 0 0-2.553-.482l-.084-380.136q1.324-.215 2.637-.5zM5.008 54.253q1.335-.06 2.652-.187l.086 379.276a51 51 0 0 0-2.737-.19zm13.222-2.339c15.93-5.047 28.536-17.632 33.602-33.556h196.941c5.068 15.924 17.673 28.509 33.605 33.556l.001 383.571c-15.957 5.047-28.577 17.672-33.631 33.635H51.861c-5.054-15.963-17.674-28.588-33.63-33.635zm268.776 1.223q1.311.284 2.646.501v380.116q-1.334.216-2.645.5zM258.429 5.135q.077 1.336.242 2.649h-8.751q-.138-1.322-.204-2.649zm19.887 14.953-6.227 6.224C269.5 24 264 16 263.976 11.089h8.676a29.8 29.8 0 0 0 5.664 8.999m-249.8 6.224-6.02-6.02a29.7 29.7 0 0 0 5.651-9.201h8.486c-1.133 4.409-4.995 11.8-8.117 15.221m-8.366-3.694 6.032 6.035C23.498 31.498 15.5 36 10.961 36.758l.001-8.551a29.8 29.8 0 0 0 9.188-5.589m2.228 444.787 6.19-6.19C32 464.5 36.631 473 36.631 476.38H27.79a29.7 29.7 0 0 0-5.412-8.975M274.426 28.649l6.256-6.256a29.8 29.8 0 0 0 8.97 5.413v8.953c-4.652-.759-10.911-4.175-15.226-8.11m21.176 13.656q-1.335-.075-2.646-.239v8.691q1.313.135 2.646.2zm-24.449-10.383-6.11 6.121c6.708 6.25 15.194 10.621 24.609 12.257v-8.792a39.45 39.45 0 0 1-18.499-9.586m24.449 413.242q-1.335.078-2.646.242v-8.764a48 48 0 0 1 2.644-.199zm-37.131 37.17q.078-1.325.243-2.643l-8.801-.004a51 51 0 0 0-.198 2.647zm-12.061 0q.061-1.333.188-2.647H54.012q.127 1.314.188 2.647zm-216.9-26.728 6.149-6.157c-6.336-5.949-16.12-10.463-24.608-12.333l.003 8.869a39.5 39.5 0 0 1 18.456 9.621M295.599 54.259l.002 378.893q-1.332.057-2.646.182V54.069q1.313.128 2.644.19m-26.783-24.671c-2.369 2.334-6.113 6.11-6.113 6.11C257.79 30.457 251.5 22 250.38 11.087h8.849C259.5 17 263.5 24.5 268.816 29.588M26.236 458.875l-6.167 6.168a29.7 29.7 0 0 0-9.012-5.666l-.002-8.647a34.9 34.9 0 0 1 15.181 8.145m254.102 5.867-5.899-5.908c4.061-4.834 9.539-6.736 15.21-8.125v8.36a29.7 29.7 0 0 0-9.311 5.673M50.224 11.087c-1.65 9.423-6.04 17.91-12.318 24.612l-6.117-6.117a39.46 39.46 0 0 0 9.588-18.493zm239.428 434.879c-6.043 1.291-14.543 4.744-18.485 9.595l-6.164-6.165c6.716-6.27 15.215-10.658 24.647-12.297zm-39.284 30.412c1.637-9.429 6.024-17.925 12.298-24.642l6.165 6.166a39.5 39.5 0 0 0-9.557 18.476zm13.65 0a34.9 34.9 0 0 1 8.087-15.205l5.893 5.898c-2.197 2.453-4.366 6.221-5.657 9.307z"/>
</svg>
