<svg
    viewBox="0 0 512 512"
    width="100%"
    height="100%"
    fill="#000"
    preserveAspectRatio="xMidYMid meet"
    xmlns="http://www.w3.org/2000/svg">
    <path
        d="m54 16.429 9.3.6c18.5 1.2 29.4 5.7 42.3 17.7 15.3 14.2 25.9 20.2 38.5 21.6l5.6.6.6 10.7c.7 11.3 1.9 18.5 4.4 26.4.8 2.7 1.3 5 1.2 5.1-.2.2-4.5.7-9.5 1l-9.1.7-1.7-6.8c-3.8-14.9-12.9-27.5-24.3-33.6-8.1-4.3-19.1-6.7-30.7-6.7-15.6 0-15-.4-14.3 9.9.8 9.8 3.6 21 7.2 28.1 1.3 2.7 5 7.6 8.1 10.9l5.6 6.1-4.3.2c-12.4.5-20.3-1-24.7-4.7l-3-2.5 1.4-6.2c5.2-24.3-3.8-45.5-24.3-57.7-7.5-4.4-22.3-9.7-24.7-8.8-.8.3-2.4 3.7-3.6 7.5-7.2 24.3-3 45.5 11.7 59.4 3.7 3.5 13.4 9.3 19.2 11.5 2.6.9 7.3 4.2 10.7 7.3 5 4.6 7.5 6.1 13.5 8 4.1 1.3 7.6 2.5 7.8 2.7.2.1-.3 1.1-1.1 2-2.9 3.3-6.8 12.2-8.4 19-1.2 5.1-1.5 9.6-1 18.3.8 17 .4 16.4 9 15.7 31.3-2.7 52.6-23.9 52.6-52.4 0-3.9.4-7.4.8-7.7 1.7-1 30.6-4.6 37.4-4.6h7.3l5 7.8c2.8 4.2 9.8 12.7 15.7 18.8l10.7 11.1-6.6 1.2c-9.3 1.7-22.1 6.7-44.6 17.3-31.3 14.7-58 25.8-62.5 25.8-2.7 0-17.9-5.3-24.2-8.5-8.6-4.3-17.7-11.2-22-16.6-4.4-5.6-8-14.3-8-19.4v-3.5H11v5c0 9.3 5.6 21.8 14 31.4 4.4 4.9 13 11.5 20.8 15.8l6.3 3.5-5.8 1.1c-8.9 1.7-21.1 3.1-34.3 3.8l-12 .7v16l13.3-.7c7.2-.4 13.9-.9 14.8-1.2 1.1-.3.7 1.3-1.8 6.3-6.1 12.4-6.5 29.7-1.1 46.4 2.6 8.1 2.5 8 13.6 4.3 27-8.9 41.5-28.5 39.9-53.9-.3-5-.8-9.7-1.2-10.6-.5-1.3 1-2 7.2-3.9 11-3.2 32.5-11.7 48.3-19 40.1-18.6 39.2-18.2 41.7-16.9 3.2 1.7 6.3 7 6.3 10.6 0 3.4-4.9 11.7-7.9 13.3-1.4.7-5.1.8-10.9.4-23.9-1.8-42.5 8.2-52.3 28.1-3.9 8-8.3 23-7.7 26.2.7 3.8 24.9 6.7 37 4.4 18.3-3.6 31.9-16.6 38.8-37 1.7-5.2 3.3-7.6 7.9-12 7.3-7.1 10.4-13.5 10.9-22.3.4-6.6-.1-8.2-5.6-19.1-.7-1.4 13.4-.7 18.1.9 9.3 3.2 16.4 13.1 17.4 24.4.8 8.8-1.1 14.9-11.1 36.5-5.2 11-10.3 22.2-11.5 25l-2.1 5-10.8-.3c-17-.6-32 3-46.8 11.3l-6.3 3.6-6.3-1.7c-3.5-.9-10.3-1.7-15.3-1.7-18.9-.1-32.3 7.1-43 23.3-4.8 7.2-10.8 21.1-10.3 23.8.5 2.6 18.2 8.2 28.3 8.9 16.8 1.2 27.9-2.9 39.6-14.6 6-6 8.4-9.3 11.5-15.9l3.9-8.3 9.7-4.8c11.5-5.9 21.4-8.3 31.9-7.9l7.5.3-4.7 13.1c-10.5 28.7-18.4 61.2-21.5 87.9-.9 7.7-1.8 15.5-2 17.2l-.5 3.3H77v16h66.3l-4.6 4.9c-5.5 5.8-12 15.7-17 25.7-6 11.9-4.2 11.4-36.5 10.8l-27.7-.5-4.5-4.3c-13.8-13.1-32.6-21.6-47.7-21.6H0v16h4.3c9.2 0 24.3 5.9 32.7 13l3.5 2.9-2.8 1c-5.4 2.1-16.5 9.9-22.1 15.6-9.1 9.3-15.6 21.8-15.6 30v3.5h8c7.7 0 8-.1 8-2.3 0-4.8 5.9-14.4 12.8-20.9 8.1-7.6 16.4-12.2 26.8-14.8 12-3.1 13-2.9 22.8 4.4 24.4 18.4 49.1 22.4 70.9 11.5 7.9-4 21.9-17.9 30.7-30.7 3.6-5.2 7-10.1 7.7-11 1-1.5 1.5-1.4 4.3 1.3 1.7 1.6 4.4 5.6 6 8.9 2.5 4.8 3 7.2 3 12.8v6.8l-4.2 3c-4.2 3.1-12.3 6-16.5 6-2.2 0-2.3.3-2.3 8v8h3.3c4.4 0 13.8-2.5 18.6-4.9l3.8-2 3 3.7c6.1 7.5 19.2 12.1 34.6 12.2h7.7v-15.7l-9.9-.5c-11.2-.5-18.6-3.3-20.8-7.8-.8-1.5-1.3-6.9-1.3-13.8 0-16.6-3.6-25.9-14.1-36.7l-4.9-5.1 4.8-5.6c2.6-3.2 5.9-6.6 7.4-7.8l2.6-2 2.2 7.3c6 19.8 13.7 34.2 24.1 45.2 7.9 8.3 15.8 12.9 25.1 14.9 5 1.1 8 2.6 14.8 7.5 15.5 11.3 36.5 20.1 47.8 20.1h4.2v-16h-3.8c-10.6 0-32.4-11-45.6-23.1-8.3-7.5-12.3-18.1-15.1-39.7-2.2-16.3-2.2-16.2 1.6-12.6 1.7 1.6 7.1 9 12.1 16.4 11.1 16.6 15.5 21.9 23.7 28.6 16.2 13.4 37.4 20 61.7 19.2 9.7-.3 11.5-.6 16.7-3.2 3.2-1.7 9.2-6 13.3-9.8 7.6-7 13.2-11 17-12.2 1.9-.6 2.3-.2 2.8 2.8.4 1.9 2.2 6.6 4.2 10.5 4.1 8.3 10.8 14.7 19.7 19 10.7 5.1 10.3 5.2 12.6-2.7 1.2-3.8 2.1-7.4 2.1-7.9s-1.7-1.5-3.8-2.2c-9.2-3.1-17-11.6-19.1-21l-.9-4.4 10.6.5c22.5 1.1 39.3 10.7 48.5 27.6 3.4 6.2 6.7 18.8 6.7 25.4v4.8h16.3l-.6-8.8c-1.2-17.7-7.8-32.3-20.3-44.9l-8.2-8.2 5.7-1.7c3.1-.9 9.5-1.9 14.4-2.2l8.7-.5v-15.7h-7c-12.4 0-29.4 4.6-37 10-2.9 2.1-3 2.1-8.7.3-8.2-2.5-32.1-2.5-41.3 0-11.4 3.2-21.8 8.9-31 17.3-4.7 4.2-10.2 8.5-12.2 9.5-10.7 5.5-18.2-.3-30.2-23.3-5.8-10.9-10.7-18.8-16.2-25.6l-2.7-3.2H379v-16h-75.3l.6-42.8c.6-38 1.5-58.1 3.2-67.8.6-3.6.3-3.7-9.6-4.9l-5.7-.7-.6 3.8c-1.8 11.4-2.7 30.2-3.3 69.2l-.6 43.2H183.3l.4-5.2c.9-10.7 4.5-33.6 6.9-44.8 8.1-36.4 18.6-64.9 44.2-120.5 6.9-14.9 8.6-21.7 7.9-33-.9-17.7-5.3-24.5-34.2-53-23.4-23.2-29.1-30.4-34.7-43.6-6.4-15.3-8.8-31.5-7.3-50.4l.8-10 2.8 11c6.3 25.2 17.1 45.5 32.1 60.3 11.5 11.4 21.6 17.8 35.7 22.8 4.6 1.6 9.5 4.7 17.2 10.7 16.1 12.8 23.5 23.4 24.8 35.6l.6 5.6 16.2.6-.4-5.3c-1.6-20.1-13.6-37.5-37.3-54.1l-2.5-1.7 2.5-4.6c1.3-2.6 6.8-9.3 12.1-15 15.6-16.5 23.1-29.5 28.2-49l2.3-8.7 3.2 4.9c7.7 12 10.7 23.3 8.2 31-.7 2.2-3.1 7.1-5.5 10.9-6.5 10.9-8.6 17.5-9.2 29-.7 11.8 1.7 23.2 7.4 35.5 4.1 9.1 13.1 23 14.8 23 .6 0 3.4-.7 6.1-1.5 10.9-3.3 24.3-5.4 58.4-9l4.5-.4-4 2c-7.9 4.1-20.1 11.4-29 17.2-31.6 20.9-45.5 34.4-53.6 52.3-3 6.5-7.9 22.3-7.9 25.3 0 1.3 1.8 2.1 7.5 3.2l7.5 1.6 1.1-4.1c2.4-9.2 6.2-19.4 9.1-24.5 3.7-6.4 14.1-17.7 21.8-23.6 8.1-6.1 7.8-6.1 9.1-1.3 1.8 6.8 6.2 15.8 10.6 21.6 3.8 5 4 5.7 4.6 14.3.9 11.9 3 19.7 7.9 29.1 5.2 10.2 15.7 20.2 26 25.2 7 3.3 17.6 6.6 21.4 6.6.9 0 4 1.7 6.8 3.8 8 6 11.5 7.9 20.1 10.7 7.1 2.4 9.1 2.7 17.5 2.3 11.2-.6 18.7-3.3 28.4-10.2 6.7-4.8 17.6-16.1 17.6-18.2 0-1.9-11.1-11.5-18.2-15.7-10.1-6-18-8-30.2-7.5-9.8.3-10.8.6-18.9 4.6-4.7 2.3-11.1 6.5-14.2 9.3-5.3 4.9-5.8 5.1-9.7 4.5-7-1.1-18.4-7.1-24.3-12.7-6.6-6.3-12.2-16.8-13.2-24.8-.6-5.4-.6-5.4 1.8-4.8 1.3.4 3.3.7 4.4.7s4.5 1.8 7.5 4.1c20.1 15.1 41.7 16.8 61.5 4.8 6-3.6 17-13.7 20.1-18.4l1.8-2.8-6.8-6.4c-9.1-8.4-22-14.9-32.8-16.4-14.5-2.1-28.7 2.5-42.2 13.7l-6.8 5.6-4-1.2c-6-1.7-13.5-9.3-17.4-17.4-3.4-7.1-6-16.7-5-19.1.7-2 22.5-14.6 37.8-21.9 11.4-5.5 28.8-12.2 29.3-11.4 0 .2.6 3 1.3 6.3 3.5 17.7 16 31.9 33.4 38.1 6.4 2.2 19.8 3.6 28.2 2.9l7.9-.7-.7-9.2c-2-28.3-14.7-46.1-38.1-53.3-5-1.5-9.4-1.8-27.2-1.8-20.4.1-21.1 0-20.1-1.8 1.9-3.6 8.2-9.8 12.3-12.3 7.4-4.3 11.2-4.1 27.5 1.1 13.6 4.4 15.1 4.6 23.5 4.3 9.9-.3 16.4-2.8 23.8-8.9l3.9-3.2-5.8-5.8-5.7-5.8-3.1 2.6c-8 6.7-15.4 7-32.1 1.1-10.6-3.7-13.1-4.2-21.1-4.2-8.6 0-9.6.2-16.7 3.7-9.1 4.5-17.6 13.2-23.1 23.6l-3.6 6.9-7 .4c-6.8.3-6.9.3-5.4-1.7 6.5-8.8 10.1-22.8 9-35.6-.7-8-4-22.7-5.5-24.2-1.3-1.3-12.8 2.1-22.1 6.5-6.5 3.1-10.1 5.7-15.6 11.2-11.4 11.5-15.1 21.7-14.1 39.6l.5 10.7-5.3 1-5.3.9-4.1-8.5c-10.2-21.6-10.6-36.5-1.1-51.4 5.2-8.3 7.7-14.1 8.6-20.1l.7-4.9 19.6.6c10.8.4 27.6 1 37.3 1.3l17.8.7 5 6.8c5.7 7.9 14.6 14.9 22.3 17.6 7 2.4 22.9 2.4 31.2-.1 8.6-2.6 19.7-8.4 32.4-16.9 6-4.1 12.1-7.7 13.5-8.1 2.5-.6 2.6-.9 2.6-8.6 0-6-.3-8-1.3-8-4.4 0-13.2 4.1-23.9 11.2-19.5 12.9-31.6 17.6-42.4 16.5-6.4-.7-14.3-4.7-18.5-9.5l-3-3.4 6.4-2.3c6.9-2.4 14.4-7.1 17.4-10.8 1.7-2.2 2.8-2.4 12.8-3 17.2-.8 27-5 36.8-15.7 6.6-7.1 10.9-15.6 13.7-27.1 2.5-10.7 2.6-16.4.3-17.4-3.5-1.4-25.1-1.8-31.5-.6-9.7 1.9-18.4 6.6-25.4 13.5-7.1 7.2-11.5 15.5-14.5 27.6-1.2 4.7-2.7 9.5-3.5 10.7-3.1 4.9-13.6 9.2-26.4 10.8l-5.4.7 3.2-3.6c3.9-4.5 8.4-13.2 10.6-20.6s3.3-24.4 1.6-25.5c-2.3-1.4-23.2-.8-30.4.9-21.1 5.1-33.6 19-39 43.8-.6 2.7-.6 2.7-10.9 3l-10.2.3-2.6-6.2c-5.5-12.9-16.7-26.9-30.8-38.7-4.4-3.6-8.1-6.6-8.3-6.6-.3 0-.5 6.6-.4 14.7.1 17-1.3 24.4-7.3 38.3l-3.6 8.5-4.8.3c-5.2.3-13.8-2-15.7-4.3-.8-1-.6-2.8.8-7.2 8.9-27.1-4.1-49.6-34.1-58.9l-5.9-1.8-1.8 2.4c-3 4-7.8 17.1-9.1 24.8-3.3 20.1 8.1 38.4 29.3 46.9 2.3.9 6.3 3.2 8.7 5 5.2 4 8.2 5.6 13.6 7.2 2.2.7 4.6 1.4 5.3 1.7.9.3-1.3 3.2-6 8.3-4 4.3-8.8 10.5-10.6 13.9l-3.3 6.1-4.6-2c-12.1-5.2-27.2-18.4-35.6-31.2-11.7-17.6-19.1-43.1-20.4-70l-.6-13.8-21.2.6-2.1 8c-1.2 4.4-2.9 12.3-3.9 17.5-2.6 15-2.2 14-5.5 14-8.3 0-17.8-5.5-32.1-18.8-15.1-13.8-29.5-19.7-51.1-20.9L54 .429zm440 1.6c0 .7-1.5 4.4-3.4 8.3-5.9 12.3-15.2 18.7-29.3 20.1-7.6.7-7.8 0-3.4-9.3 6.4-13.5 16.3-20 30.9-20.3 3.6-.1 5.2.3 5.2 1.2m-261.3 8.6c6.1 4.4 9.6 11 9.7 18 0 5-2 15.1-3.1 15.1-3 0-14.5-9.6-16.8-13.9-2.4-4.7-2.7-10.4-1-17.9l1.7-7.2 2.6 1.4c1.5.8 4.6 2.8 6.9 4.5m169.8 6.8c-1.3 7-6.3 15.9-11.6 20.7-5.1 4.6-12.7 7.7-22 8.9l-3.7.5 1.3-4.9c4.2-16 13.3-24.6 28.8-27.4 4-.7 7.4-1.4 7.6-1.4.2-.1 0 1.6-.4 3.6m-378.8 18.3c13.4 7.7 20.1 21.4 17.9 36.4l-.7 4.7-5.1-2.8c-6.4-3.5-13.8-10.6-16.1-15.6-1-2-2.2-6.2-2.7-9.1-.9-5.4-.3-16.6.9-16.6.3 0 2.9 1.4 5.8 3m75.5 21c6.6 2.5 13.6 8.7 16.8 15 2.5 4.9 5.4 14 4.7 14.7-.8.8-12.6-1.7-17.1-3.7-5.3-2.2-11.1-7.2-14.2-12.1-2-3.2-6.4-14.5-6.4-16.5 0-1.3 10.5.4 16.2 2.6m278.4 43.6c2.1 11.1-3.1 25.6-11.5 32.2-2.6 2-6.4 4.6-8.4 5.7-5.2 2.7-5.9 1.3-5.4-9.5.6-9.8 2.3-14.4 7.5-20.2 3.4-3.8 14.5-11.8 16.3-11.8.4 0 1.1 1.6 1.5 3.6m-275.9 14.6c-.8 8.8-5.1 18.3-10.5 22.8-4 3.3-11.9 7.4-16.6 8.6l-2.9.7.6-7.2c1.1-13.4 8-23.5 20-29.2 9.6-4.5 10.1-4.3 9.4 4.3m355.7 39.3c15 3.2 24.3 13 28.2 29.7.6 2.6.5 2.7-3.3 2.2-12.1-1.7-20.7-6.3-26.2-13.8-4.5-6.4-8.9-19.6-6.3-19.6.4 0 3.8.7 7.6 1.5m-296.1 51.7c-2.6 6.9-8.2 14.7-12.7 17.7-5.5 3.8-13.5 6.1-21.3 6.1-6.2 0-6.4-.1-5.8-2.3 1.4-4.6 5.9-11.7 9.9-15.7 6.9-7 13.8-9.7 25.8-9.9l5.8-.1zm-98.4 9.4c.2 10.5-5 21.3-13.2 27.2-5.5 3.9-10.7 6.5-11.5 5.7-.3-.3-.6-4.5-.7-9.3 0-7.9.3-9.4 3.2-15.2 3.7-7.6 6.5-10.5 14.8-15.5l6-3.6.6 2.8c.4 1.5.7 5.1.8 7.9m386.8 11c4.2 2 7.3 4.1 7 4.7-.7 2.3-11.2 8.8-16.6 10.4-9 2.6-22.3-.1-29.6-6.1-2-1.6-1.9-1.7 1.5-4.6 11.1-9.6 23.8-11.1 37.7-4.4m-328.3 47.4c3.2.5 6.1 1.1 6.3 1.4.9.9-3 7-7.5 11.9-2.6 2.7-6.9 6.1-9.7 7.5-4.5 2.4-6.1 2.7-15.2 2.7-5.6 0-10.5-.3-10.9-.8-1.1-1.1 1.8-6.6 6.4-11.7 4.6-5.2 12.2-9.7 18.4-10.9 5.9-1.2 5.6-1.2 12.2-.1m356.5 9c2.6 1 6.4 2.8 8.5 4.1l3.9 2.3-2.9 2.3c-1.6 1.3-5.6 3.8-8.9 5.6-5.4 2.8-6.9 3.2-14.5 3.2-8 0-9.2-.3-16.4-3.8-8.9-4.4-8.9-4.7.6-10.4 10.4-6.3 19.6-7.3 29.7-3.3m-291.2 122.7c-2.4 3.2-9 12.8-14.8 21.3-24.3 36.3-39.7 44.1-66.5 33.8l-5.9-2.3 9-.6c14.9-1 20.1-5 29.5-22.9 6.1-11.7 12.4-19.8 20.5-26.2 8.1-6.6 14-8.7 24.3-8.7l8.3-.1zm62.7 4.5c.9 12.3 2.9 24.2 5.5 32.9l2 6.4-6.2-6.5c-8-8.4-15.5-22.5-20-37.8l-1.6-5.2h19.6zm52.5-7.6c10.5 5.3 19 15.8 29.8 36.6l6 11.6-4.1-1.4c-14.6-5.2-25.9-15.4-39.3-35.7l-9.1-13.7h5.7c4.2 0 7.1.7 11 2.6" />
    <path d="M221 324.729h16v-16h-16zm30 0h16v-16h-16zm-251 91h63v-16H0zm393 0h119v-16H393z" />
</svg>
