<svg
    id="svg"
    width="100%"
    height="100%"
    fill="#000"
    stroke="#000"
    stroke-width="0.5"
    stroke-linecap="round"
    stroke-linejoin="miter"
    fill-rule="evenodd"
    clip-rule="evenodd"
    viewBox="0 0 917 1002"
    preserveAspectRatio="xMidYMid meet"
    xmlns="http://www.w3.org/2000/svg">
    <style>
        .path-1 {
            animation:
                draw-path1 9s cubic-bezier(0.55, 0.085, 0.68, 0.53) 0s both,
                fill-path1 3s cubic-bezier(0.47, 0, 0.745, 0.715) 0.8s both;
        }
        .path-2 {
            animation:
                draw-path2 9s cubic-bezier(0.55, 0.085, 0.68, 0.53) 7s both,
                fill-path2 3s cubic-bezier(0.47, 0, 0.745, 0.715) 0.9s both;
        }
        .path-3 {
            animation:
                draw-path3 9s cubic-bezier(0.55, 0.085, 0.68, 0.53) 14s both,
                fill-path3 3s cubic-bezier(0.47, 0, 0.745, 0.715) 1s both;
        }
        .path-4 {
            animation:
                draw-path4 9s cubic-bezier(0.55, 0.085, 0.68, 0.53) 21s both,
                fill-path4 3s cubic-bezier(0.47, 0, 0.745, 0.715) 1.1s both;
        }
        .path-5 {
            animation:
                draw-path5 9s cubic-bezier(0.55, 0.085, 0.68, 0.53) 28s both,
                fill-path5 3s cubic-bezier(0.47, 0, 0.745, 0.715) 1.2000000000000002s both;
        }
        .path-6 {
            animation:
                draw-path6 9s cubic-bezier(0.55, 0.085, 0.68, 0.53) 35s both,
                fill-path6 3s cubic-bezier(0.47, 0, 0.745, 0.715) 1.3s both;
        }
        .path-7 {
            animation:
                draw-path7 9s cubic-bezier(0.55, 0.085, 0.68, 0.53) 42s both,
                fill-path7 3s cubic-bezier(0.47, 0, 0.745, 0.715) 1.4000000000000001s both;
        }

        @keyframes draw-path1 {
            0% {
                stroke-dashoffset: 35413.79296875px;
                stroke-dasharray: 35413.79296875px;
            }

            100% {
                stroke-dashoffset: 0;
                stroke-dasharray: 35413.79296875px;
            }
        }

        @keyframes fill-path1 {
            0% {
                fill: transparent;
            }

            100% {
                fill: #000;
            }
        }

        @keyframes draw-path2 {
            0% {
                stroke-dashoffset: 1590.3009033203125px;
                stroke-dasharray: 1590.3009033203125px;
            }

            100% {
                stroke-dashoffset: 0;
                stroke-dasharray: 1590.3009033203125px;
            }
        }

        @keyframes fill-path2 {
            0% {
                fill: transparent;
            }

            100% {
                fill: #000;
            }
        }

        @keyframes draw-path3 {
            0% {
                stroke-dashoffset: 1246.3045654296875px;
                stroke-dasharray: 1246.3045654296875px;
            }

            100% {
                stroke-dashoffset: 0;
                stroke-dasharray: 1246.3045654296875px;
            }
        }

        @keyframes fill-path3 {
            0% {
                fill: transparent;
            }

            100% {
                fill: #000;
            }
        }

        @keyframes draw-path4 {
            0% {
                stroke-dashoffset: 608.19970703125px;
                stroke-dasharray: 608.19970703125px;
            }

            100% {
                stroke-dashoffset: 0;
                stroke-dasharray: 608.19970703125px;
            }
        }

        @keyframes fill-path4 {
            0% {
                fill: transparent;
            }

            100% {
                fill: #000;
            }
        }

        @keyframes draw-path5 {
            0% {
                stroke-dashoffset: 533.18603515625px;
                stroke-dasharray: 533.18603515625px;
            }

            100% {
                stroke-dashoffset: 0;
                stroke-dasharray: 533.18603515625px;
            }
        }

        @keyframes fill-path5 {
            0% {
                fill: transparent;
            }

            100% {
                fill: #000;
            }
        }

        @keyframes draw-path6 {
            0% {
                stroke-dashoffset: 47.4538459777832px;
                stroke-dasharray: 47.4538459777832px;
            }

            100% {
                stroke-dashoffset: 0;
                stroke-dasharray: 47.4538459777832px;
            }
        }

        @keyframes fill-path6 {
            0% {
                fill: transparent;
            }

            100% {
                fill: #000;
            }
        }

        @keyframes draw-path7 {
            0% {
                stroke-dashoffset: 39513.6953125px;
                stroke-dasharray: 39513.6953125px;
            }

            100% {
                stroke-dashoffset: 0;
                stroke-dasharray: 39513.6953125px;
            }
        }

        @keyframes fill-path7 {
            0% {
                fill: transparent;
            }

            100% {
                fill: #000;
            }
        }
    </style>

    <path
        d="M429.115 824.76c7.677 10.051 24.792 21.551 33.38 23.667 44.85 57.405 65.017 72.061 70.896 63.382 20.611 40.185 71.3 92.051 79.05 89.141 0-19.932-26.36-76.407-61.977-143.556 1.041-3.5 4.503-3.513 7.838-3.526 4.763-.018 9.266-.036 6.08-10.207 7.27-6.587 4.079-9.146.973-11.636-3.433-2.753-2.911-10.38-1.149-11.93 1.399-1.231 2.675-2.354 1.81-5.173-1.649-3.174-1.698-2.746-1.844-1.465-.177 1.552-.496 4.355-3.972 3.526-2.215.317-1.376 3.844-.362 8.109 1.251 5.258 2.768 11.637-.844 14.501-.974.772-2.748 1.053-4.691 1.361-4.173.661-9.125 1.446-8.616 7.473a3198 3198 0 0 0-7.596-14.109c14.693-1.38 16.988-7.04 18.618-17.335 1.508-9.533 6.033-8.856 10.697-8.159 2.4.359 4.836.724 6.917-.295-6.44 6.93-11.641 20.768-5.887 23.855-2.421-4.64 4.039-18.373 13.143-12.428-5.419-.67-3.829 5.291-1.869 12.636 2.42 9.071 5.403 20.253-3.558 23.665-1.829 13.013-11.534 13.405-17.158 10.805 16.478 25.118 32.065 50.337 36.475 66.803 3.351-23.967-2.266-32.057-6.022-37.467-3.584-5.161-5.475-7.885 3.73-19.63 1.174-18.372 4.975-19.82 12.706-22.766 4.875-1.858 11.313-4.311 19.642-11.981-2.281 6.378-7.674 9.58-12.665 12.543-7.04 4.18-13.281 7.885-8.87 19.359-11.579 12.455-7.779 19.263-3.529 26.878 2.303 4.125 4.737 8.488 4.93 14.113 7.8-7.983 4.226-16.045 1.105-23.085-3.39-7.647-6.245-14.087 6.598-17.906-2.89-16.529 23.141-22.656 35.542-23.841-17.803-8.061-19.661-27.844-11.582-37.046 9.931-11.312 26.379-11.253 35.586-3.088 12.869 11.414 9.485 24.37 1.394 29.645-13.167 7.427-25.398-3.306-23.297-12.836 2.404-8.115 6.259-5.684 9.655-3.541 2.346 1.48 4.473 2.822 5.752.453 2.45-4.538-3.149-9.332-7.891-7.96-7.472 1.585-8.843 6.102-9.581 9.072-1.832 7.372 3.502 23.362 19.6 23.086 28.529 0 28.896-25.197 15.972-41.148 1.358-10.941-8.302-11.385-12.672-9.634 1.314-1.733 2.887-2.67 4.375-3.557 2.746-1.637 5.201-3.1 5.201-9.069 13.609-3.966 21.388-12.114 28.903-19.985 5.34-5.593 10.547-11.046 17.617-14.761 10.98-4.638 29.826-38.267 36.95-51.851 4.395-3.298 3.808-8.403 2.788-13.443-.763-3.771-1.532-7.569-.046-10.705 13.29-28.037 39.72-64.632 57.598-86.286 15.921-18.892 31.922-36.3 43.653-63.067 2.304-5.258 1.035-16.128-.263-27.242-1.418-12.139-2.87-24.57.263-30.301 1.987 8.172 14.525 12.207 20.095 10.978 13.492-2.975 21.996-13.2 25.618-24.032 5.876-17.571-10.945-30.796-22.367-29.412-17.84 2.163-20.609 16.833-17.408 24.556 6.314 15.239 27.002 24.092 28.83-9.151 11.899 14.754-9.541 34.364-18.605 31.563-9.064-2.802-16.163-15.692-16.163-25.404 0-11.275 6.058-24.535 20.095-26.881 7.055-1.18 8.752-5.03 10.639-9.315 1.758-3.99 3.681-8.357 10.254-11.291 4.872-2.176-2.618-16.008-11.147-29.913-3.325-5.421-7.351-10.364-10.05-15.365-2.825-4.708-1.151-20.912 8.838-31.134-9.509 7.22-11.454 15.468-13.136 22.995-1.014 4.54-1.959 8.77-4.468 12.246l-4.117 3.446c0-3.894 1.531-6.768 3.121-9.752 1.493-2.804 3.039-5.706 3.415-9.643.7-7.333 3.427-12.749 7.498-17.915 1.187-1.507 4.298-3.503 5.262-4.887 14.103 0 10.627-70.731-30.291-75.595 41.807 31.698 31.2 58.208 28.027 66.136 0 0-4.442 8.428-7.901 10.952-2.478 1.808-5.15 3.656-7.705 6.894l.006-.009c6.084-8.828 17.256-25.038 9.104-44.124-1.836-.211-1.742 2.681-1.601 7.026.283 8.728.756 23.317-13.835 30.388-.481-2.419 1.865-6.398 4.488-10.846 4.064-6.892 8.791-14.911 4.695-19.993-2.282-3.339-2.07-4.229-1.786-5.42.274-1.154.616-2.592-1.178-6.817-5.505-27.093-21.823-32.032-31.957-35.099-2.231-.675-4.163-1.26-5.613-1.97-3.595-1.761-7.12-6.226-10.783-10.865-3.553-4.501-7.236-9.167-11.24-11.688-12.931-8.144-35.152-3.765-37.63 3.406-1.544-.528-1.803-2.161-2.324-5.44-1.005-6.332-2.984-18.803-17.07-41.306-6.084-25.379-11.929-34.995-30.111-42.246 2.43-1.736 11.615-8.294 27.667 8.116-2.095-3.89-13.199-19.62-25.881-16.115-12.693 3.508-25.041 2.116-34.952.998-8.235-.928-14.788-1.667-18.459.751-18.157 11.96-63.994 17.548-72.136 14.749-11.565-3.976-15.814-8.289-20.069-12.609-2.7-2.741-5.403-5.485-9.98-8.147-2.875-1.672-7.32-3.091-11.754-4.506-5.394-1.722-10.771-3.438-13.289-5.6-13.101-11.252-9.997-18.833-7.671-24.513 7.196-14.999 22.732-19.911 34.737-18.224 0 0-13.629 1.81-15.354 9.605 5.87-3.232 11.738-4.25 14.545-4.25.574 2.07-.566 4.735-1.959 7.996-3.284 7.682-7.978 18.666 4.999 32.914 4.536 4.981 26.244 24.886 47.205 21.924-37.974-15.346-35.979-45.332-24.472-60.963 13.494-17.024 46.374 4.597 47.612 28.138 0 23.486-25.581 20.513-32.806 8.726s-3.932-17.75-.516-20.236c3.777-2.75 11.42.833 10.182 9.98-1.364 10.081 29.9 9.181 7.425-15.48-18.936-20.778-40.391-3.936-31.897 20.166 6.108 17.331 20.469 27.929 50.248 21.807 7.185-1.477 19.543-11.52 12.159-41.034 18.205 15.635 7.985 29.138 3.53 35.023-1.024 1.353-1.743 2.303-1.743 2.785 5.239 3.557 12.504 0 16.187-6.5 12.996-22.93-28.811-46.124-34.449-48.745-50.963-23.692-107.892-7.672-114.575-3-18.706 13.078-16.828 31.128-6.251 45.234 12.174 16.237 57.982 34.585 77.956 39.508 1.611.397 5.987.901 11.817 1.572 16.644 1.916 45.133 5.196 54.924 11.247 13.308 8.224 20.004 24.823 10.578 29.656-.865-.307-1.423-1.894-2.23-4.184-3.271-9.29-10.619-30.154-59.013-24.042 30.514 12.615 33.172 28.776 34.823 42.946l2.123 12.775s36.401 19.297 22.574 45.309c1.723-26.474-16.969-37.152-30.174-34.669-3.474-8.657-3.319-16.715-3.179-24.048.2-10.358.371-19.271-9.749-26.385-10.115-7.11-18.189-8.161-25.827-9.155-8.421-1.095-16.311-2.122-25.819-11.123-17.367-16.44-40.747-25.461-58.448-32.292-9.547-3.684-17.442-6.73-21.85-9.959-53.068-38.877-84.355-35.433-96.876-30.725-5.934 2.231-16.266 9.194-26.087 15.854-12.205 8.276-20.242 7.031-27.814 5.848-6.012-.939-11.754-1.836-19.018 2.129-5.942-19.588-42.249-18.136-54.697-16.975-3.705-22.066-34.677-43.841-45.202-45.62 39.57-17.384 29.79-34.514 1.965-47.477 17.896 36.916-22.56 40.862-43.604 42.433 20.599 4.064 36.954 18.504 41.639 25.985-16.559-9.374-31.989-15.688-53.182-18.463-4.444-.582-9.025-2.778-13.463-4.907-5.877-2.818-11.503-5.516-16.229-4.186-5.438 1.53-9.737 4.295-14.251 7.199-4.521 2.908-9.257 5.955-15.571 8.038-26.57 4.774-44.584 30.099-45.746 42.114-11.832-12.625-33.897-5.259-42.938 6.663-12.049 15.89-4.073 36.784 10.996 36.784 15.992 0 20.705-9.777 20.11-15.254-1.343-12.363-14.07-16.232-19.187-7.948-2.878 5.336-.923 11.488 3.973 13.09-14.57 2.332-12.182-19.517-4.896-25.142 8.5-6.563 19.014-4.724 26.779 8.247 1.096 1.831 1.646 3.976 2.213 6.187 1.26 4.915 2.604 10.161 10.221 13.04-15.985-1.708-19.873 9.295-23.289 18.962-1.25 3.537-2.436 6.895-4.128 9.386-.628-4.258-2.835-8.101-8.638-12.105 4.577 10.089 2.4 12.308-2.235 15.754s-9.208 5.545-16.948 3.446c6.759 8.664 17.31 7.349 22.065 4.385.965-.602 1.794-1.577 2.577-2.5 1.445-1.704 2.738-3.227 4.458-1.885 0 3.125 1.42 5.877 2.689 8.338 1.667 3.232 3.075 5.963.67 8.377-2.163 2.171-6.244 2.196-11.02 2.225-9.335.057-21.329.13-26.875 16.261-4.496 13.078-.184 19.692 4.785 27.312 1.637 2.511 3.346 5.132 4.834 8.129 4.144 8.346 12.135 18.625 19.8 19.263 15.532 10.15 27.364 22.681 29.1 30.265 4.041 17.651-8.604 41.562-36.36 42.668-14.462 0-16.903-12.413-13.654-19.123 11.013 6.363 19.021-4.522 20.914-11.855 4.018-15.561-11.451-32.682-26.541-27.545-25.828 8.792-19.695 44.558-10.512 63.807 10.49 21.991 36.6 28.742 52.732 18.835 16.133-9.907 24.755-28.847 28.45-55.097 7.631 28.375-2.472 47.449-17.623 53.165 1.503 2.803 8.3 4.371 21.546 1.932-3.089 4.915-11.954 5.954-22.922 7.239-15.46 1.812-35.098 4.112-48.618 18.452-24.789 26.292-24.652 61.994 3.101 83.015-27.92 27.873-19.79 67.69 19.983 104.093-67.707 45.296-60.665 121.311-35.129 147.32 22.224 22.635 73.27 17.585 91.584-2.978-13.21 37.513 8.526 70.039 38.299 73.496 41.768 4.849 57.208-19.646 62.6-66.175 4.741 22.541 3.263 30.399 0 44.228 1.592 1.132 5.839-1.514 11.446-5.007 8.862-5.522 21.121-13.16 31.669-11.348-7.003 20.644-6.173 29.999 5.929 40.266 2.684 2.277 5.738 5.753 8.816 9.256 4.12 4.689 8.281 9.426 11.653 11.397 2.901 1.696 7.544 1.499 12.683 1.238 0 0 10.154-.519 14.924.709 2.768.712 10.399 14.544 6.419 24.951-3.866 7.653-13.922 9.803-18.565-3.302-3.101-8.753 7.655-11.649 12.95-2.284 8.383-14.624-12.337-18.539-20.217-11.961-11.942 9.969-11.319 35.704 8.487 39.833 12.96 2.703 19.553-.24 26.342-6.765 9.992-9.603 6.746-28.264.192-40.472-3.114-7.277 24.432-7.399 39.536 3.773 9.59 7.094 4.74 21.178.708 23.268-2.497 1.293-6.434.889-10.214.502-5.453-.56-10.577-1.086-10.577 3.566.634 10.133 17.018 6.621 20.791 4.766 12.916-6.352 12.307-20.423 9.493-27.402 0 0-6.782-13.486-6.253-14.882 1.076-2.838 5.936-1.141 7.742.134 17.367 14.589 36.085 19.492 53.432 18.483m257.868-49.545c42.885-24.294 90.084-70.712 62.516-107.617-47.135-63.098-132.345-.992-178.826 70.56 66.381-117.376 7.773-189.042-50.186-180.651-47.286 6.846-44.851 89.539-38.237 116.207 10.899 43.945 38.4 105.358 61.571 132.076 42.732 4.583 115.829-15.092 143.162-30.575M485.103 429.86c-6.367-4.59-16.415-12.105-12.833-23.745 1.994-6.481 4.932-11.615 7.928-16.75 6.962-11.938 12.415-25.05 10.285-49.214-1.32 1.321-2.406 1.549-3.771 1.835-1.051.221-2.266.476-3.88 1.291 5.749-9.489 7.683-25.447 4.457-33.155-1.03-2.462-3.22-5.854-5.494-8.615-1.223-1.485-3.153-2.997-3.724-3.915-1.654-2.66-5-15.211-1.753-8.801 2.048 1.947 2.15 3.47 2.246 4.907.087 1.286.168 2.503 1.634 3.894 8.443 5.195 11.837 8.977 12.858 12.53 4.324 3.554 4.07 9.247 2.924 16.063 0 0 11.845-11.922 7.514-17.055-2.427-2.878-4.858-5.003-7.061-6.928-4.616-4.035-8.229-7.193-8.699-14.559-.4-6.272 5.714-14.58 11.791-22.837 5.493-7.465 10.956-14.887 11.544-20.723 1.617-16.04-10.572-14.644-14.376-13.084-3.803 1.56-6.467 5.53-4.078 10.587 1.758 3.723 3.978 3.131 5.648 2.686 1.037-.277 1.862-.496 2.234.408 2.243 5.458-8.131 7.259-11.507 1.397-4.263-7.401-.744-18.12 6.276-20.072 8.663-2.408 18.393 1.28 19.269 10.088 1.128 11.334-4.394 18.647-10.024 26.103-4.919 6.514-9.921 13.138-10.645 22.649-.81 10.651 3.847 13.577 8.843 14.07-3.48-14.026-2.464-21.683 3.699-31.139 1.386-2.126 9.282-12.27 10.738-14.363 6.726-9.663 9.203-11.612 9.203-24.897-1.69-25.547-10.389-45.574-29.656-61.555-12.328-10.226-37.277-9.796-41.897 0 17.85-6.068 39.598 9.378 43.766 23.58-21.348-21.773-39.269-18.257-47.276-12.538-12.331 8.808 0 28.992 11.855 31.671-16.177.943-24.917-11.032-30.279-18.529-20.832-25.255-70.817-37.332-102.971-37.332 54.22-5.93 78.901 2.542 105.891 29.129-12.045-29.129-31.173-37.385-38.704-39.702-12.719-3.915-35.299-4.825-70.4 0 .827-24.798-24.731-31.241-40.965-23.412 17.15-1.957 28.389 12.104 28.389 21.694 0 10.194-10.427 16.752-18.815 18.594-19.314 4.241-32.801-10.113-21.373-26.279-6.828 5.941-11.868 7.685-24.3 7.685 16.276-28.363-12.174-46.735-21.51-51.622 25.79 32.926 14.574 55.744 9.101 63.598-11.215 16.094-38.917 20.244-53.489 2.105-8.289-10.317-10.687-33.042 8.775-44.358 13.984-8.13 36.794-3.882 35.613 17.926-2.654 17.925-26.642 24.327-32.801 24.327 7.696 14.915 38.641 7.897 41.902-13.72 4.12-27.309-14.289-49.878-44.714-58.334 1.617 7.255-4.625 18.363-9.538 26.728-7.107 12.062-17.89 30.364-7.526 56.454-13.852-20.985-9.303-33.842-5.191-45.463 2.086-5.897 4.06-11.476 3.459-17.637-1.133-11.626-18.988-24.154-41.013-25.45-30.82-1.812-51.947 13.483-46.648 43.453 2.696 15.247 12.814 21.976 24.183 29.539 3.888 2.586 7.922 5.269 11.856 8.424 14.139 11.339 11.236 24.199 2.692 33.839-6.31 7.12-12.935 10.774-23.664 5.999 2.166 4.243 15.836 6.768 25.871-3.525 13.127-13.464 9.166-37.262.053-41.602-25.147-11.976-37.724-35.313-24.026-54.577 11.656-16.393 51.415-13.725 55.779 13.619 3.299 20.675-10.215 29.784-17.438 34.802-1.657 1.151-2.767 2.202-3.512 2.998-4.654 4.968-.913 9.823 3.512 15.565 3.769 4.89 8.033 10.424 8.033 17.221 0 2.802-3.448 7.75-7.64 13.767-9.667 13.875-23.292 33.431-7.715 45.438 9.088 7.005 23.58 5.461 39.404 3.775 14.278-1.521 29.64-3.157 43.095 1.266 14.595 4.798 19.448 18.149 24.166 31.126 3.591 9.878 7.104 19.541 14.776 25.051 9.614 6.904 19.338 4.707 34.063 1.38 12.461-2.815 28.502-6.44 51.088-6.042-2.926-2.596-11.093-3.1-20.913-3.707-16.768-1.035-38.357-2.369-46.912-14.919 2.087 5.879-.456 13.087-4.966 16.46-9.192 6.877-21.753 0-24.157-16.757-2.04-14.213 6.077-23.157 17.136-27.281 4.788-4.251-.523-9.665-7.451-15.217-8.907-7.137-20.485-16.415-16.708-30.576 2.316-8.687 9.013-17.534 22.025-18.016-6.288 4.298-10.252 10.934-10.252 13.277 1.538-2.274 4.783-3.904 8.83-3.904-9.019 16.221-12.031 29.015 5.334 38.323-5.707-29.316 6.042-63.707 39.087-52.333 25.777 8.873 30.776 46.781 11.058 53.397-4.382 1.471-4.653-4.595-5.014-12.689-.551-12.333-1.311-29.373-17.145-31.632-28.55-4.073-28.721 49.373-11.646 72.111 11.719 15.605 29.694 12.507 47.511 9.437 17.508-3.018 34.862-6.009 45.975 8.8 2.507 3.34 3.236 5.721 3.837 7.684.872 2.846 1.474 4.811 6.836 7.542 6.162-.733 11.902-1.05 17.061-.867 14.941 1.016 16.634 19.054 17.684 30.232.25 2.661.783 5.342 1.127 6.849.965 4.229 3.263 7.001 6.085 9.471 2.871-1.555 5.344-3.361-.449-6.749 1.308-1.455.045-2.755-1.472-4.317-1.406-1.448-3.031-3.12-3.031-5.349 2.524 3.162 3.761 3.391 4.507 3.53.717.133.979.181 1.492 2.672.63 3.052 1.723 4.555 2.688 5.882 1.39 1.91 2.514 3.456 1.609 8.742 2.606 2.263 4.806 4.742 5.546 8.291 1.079 8.698-11.897 24.526-18.959 24.526-6.283 0-10.24-6.409-11.41-11.813 4.552 6.402 16.967 7.879 20.526 1.658 2.245-5.171-1.132-10.117-4.727-15.382-2.513-3.679-5.131-7.515-6.012-11.691-.757-3.59-1.037-13.057-1.037-13.057-.41-13.903-.886-30.036-16.081-31.354-43.316-2.141-174.527 50.723-169.13 59.665 2.097 4.194 61.011-16.229 88.781-26.237-10.051 4.349-59.505 24.623-75.009 30.725 4.966 7.002 53.494-9.361 84.592-19.848 0 0-37.789 17.449-36.122 19.082 3.918 3.837 40.849-4.883 57.77-13.002 8.913-4.276 1.084.42-8.324 6.063-8.452 5.07-18.178 10.903-18.178 11.679.843 1.795 12.431 2.09 21.056-3.918.502-.349 2.661-.387 5.482-.437 4.697-.082 11.227-.197 14.996-1.835-8.216 6.19-10.767 6.848-18.217 6.848-2.025 0-9.576 2.349-9.102 5.23.474 2.88 5.49 7.624 19.103 7.624-2.615.38-11.5 3.306-11.085 5.154 3.035 13.527 8.798 18.227 24.764 15.294-2.939 1.912-7.511 4.924-4.717 6.582 11.339 7.648 21.149 2.636 29.889-8-2.2 8.161 5.414 3.267 8.815 0-10.035 13.137-12.243 14.356-12.243 32.855 0 0-8.268-2.57-9.204-7.923-.935-5.354-30.956 26.509-43.545 27.907 1.769-2.739.685-4.177-.598-4.177-3.915 3.002-6.72 4.135-9.631 5.311-2.432.982-4.938 1.994-8.225 4.15 36.992 63.366 127.685 218.808 132.32 228.625 2.787-5.994 5.244-12 6.062-16.903 1.071-6.427 2.007-12.035 6.885-17.138 1.166-8.854-2.2-13.113-5.402-14.989-6.393-3.745-15.922 2.521-14.422 9.705 2.882 13.808 19.128.766 8.436-2.527 20.262 3.141-8.991 31.649-16.591 4.582-2.738-9.749 3.961-21.596 16.123-20.574-.43-10.025 5.948-22.177 21.727-26.664 1.018-10.97 3.224-17.784 17.778-39.012 3.102-9.001 4.427-18.069 5.709-26.84 3.193-21.849 6.118-41.863 35.579-54.458 0-14.172 9.78-20.987 18.338-26.95 4.812-5.359 4.184-8.847 12.32-13.722 1.406-.842-2.603-1.179-4.628 0-5.563 3.238-11.462 5.151-14.883 8.958 0 0-17.25 10.48-25.004 18.481 2.138-5.247 10.487-15.068 10.487-15.068 2.984-4.041 6.048-9.623 3.085-13.916-2.647 2.211-4.287 3.971-5.913 5.716-1.801 1.933-3.633 3.842-6.751 6.33-9.902 7.904-15.437 13.675-20.896 23.569-1.629 2.953-4.654 8.438-2.824 23.938-10.203 34.228-59.199 101.531-60.313 125.228-32.033-48.393-39.419-78.338-64.678-128.533-7.284-10.244-18.154-16.074-30.051-23.79 12.545 7.034 19.523 10.473 31.327 21.029 4.204-10.503 26.838-26.421 31.656-26.421 4.097 0 36.546 14.855 38.709 13.426 1.44-.952 22.308-27.203 30.941-38.091 3.982-2.939 12.736-9.699 9.837-11.789M193.42 501.634c-3.666-47.124 8.824-114.086 42.421-109.403 27.65 3.853 69.527 43.734 83.13 66.219 4.646 7.679 118.587 202.125 124.23 213.553 14.683 29.738 30.158 61.079 22.206 65.257-10.75 7.969-87.255-76.703-121.497-124.972 14.262 24.234 49.407 89.516 41.85 105.637-12.427 4.442-86.265-59.201-143.407-155.162 3.236 10.892 15.318 34.752 18.42 39.012-17.774-4.43-44.935-39.849-49.044-75.837-.677 12.282 3.556 25.626 9.308 39.314 6.053 14.404 22.71 36.429 43.613 41.647 19.135 31.353 56.337 71.784 88.026 97.604 6.794 16.136 56.964 106.278 72.123 115.453-31.619 0-47.02-14.167-90.722-63.799 3.503 5.611 8.167 12.573 14.955 20.8 5.349 7.442-13.391 7.093-27.948-18.013s-52.569-89.518-57.799-94.699c0 0-9.575-9.625-12.072-9.625 12.684 28.144 15.838 39.278 18.403 53.628-6.331 0-14.772-7.703-16.63-14.7-.797 4.085 0 9.82 1.858 12.303-3.523-.317-9.942-5.116-13.718-20.195-.856 12.033 11.084 36.144 23.642 38.898 0 0-3.851-5.492-1.483-9.431 0 3.273 5.311 10.052 14.193 13.288-1.696 2.549-3.82 4.334-5.708 5.921-2.581 2.169-4.719 3.967-4.719 6.837-37.541-38.637-66.233-144.434-73.631-239.535m219.556 19.049c2.238 17.827 17.239 19.144 25.315 4.992 10.025-17.564-11.04-45.837-27.781-39.299-28.123 11.23-16.42 69.337 27.062 71.131 17.854.736 44.193-18.006 24.94-63.991 11.08 6.487 19.412.792 23.665-3.798 0 0-23.665 6.833-23.665-8.2 0-6.805 1.098-12.801 2.405-15.664 2.619 15.611 19.84 26.886 34.563 4.427 5.018-7.655 12.453-11.572 20.433-18.987 3.749-2.877 5.285-4.307 7.7-6.962 2.652-2.915 3.929-3.706 6.446-6.08 3.369 2.836 1.807 9.136-2.633 15.197l-4.721 7.4c8.383-4.301 8.805-7.685 17.413-11.87 2.428-5.187 11.147-6.843 15.621-9.731l8.663-10.489c2.735-3.409 7.242-6.395 5.733-9.59-6.689 6.45-16.359 3.604-12.575 2.486 8.412-2.486 12.229-8.425 10.846-21.214-.493-4.557 8.685 2.873 6.509 11.203 4.425-6.95-.391-12.216-5.778-18.106-2.918-3.191-6.004-6.566-7.878-10.49-6.555-10.587 1.564-21.943 11.441-35.758 11.728-16.406 25.936-36.278 20.993-62.445-3.08-16.302-31.458-25.005-50.017-17.37 18.559 1.516 31.736 8.711 39.521 24.24 15.219 44.813-37.031 77.62-55.567 77.62-12.988 0-23.409-14.071-20.561-29.184 1.755-9.314 13.947-19.948 25.213-15.528 7.763 3.046 3.92 5.12-2.194 8.42-4.167 2.249-9.39 5.067-12.711 9.152-10.526 13.692 7.654 19.091 11.333 17.354 21.82-10.298 20.471-26.485 16.626-36.042-7.637-16.319-32.108-5.405-39.552 2.678-8.915 9.681-11.102 22.557-13.063 31.136.293 1.863.577 3.67-2.855 9.723-.11 1.537-9.642 17.482-11.883 21.095-3.281 5.29-7.453 11.872-9.398 17.976-1.883 5.911.44 15.716 13.592 23.198 4.795 2.728-6.364 9.935-9.765 13.439-7.513 9.396-14.474 16.528-23.127 27.529-.932 4.184-1.137 12.951-.521 18.28.728 6.872 4.5 19.227 4.084 30.141-.48 12.598-6.513 28.461-21.927 29.195-8.917-.343-17.091-5.492-22.12-13.039-4.319-6.48-8.968-20.189-2.291-28.504 16.939-17.183 29.418 18.326 18.672 22.252-4.041 1.477-3.983-2.231-3.914-6.634l.004-.263c.055-3.573.032-7.465-1.959-9.91-3.8-4.667-11.423.232-10.337 8.884m29.192-20.332c-1.704 12.682 2.147 17.703 4.742 19.372-1.857-5.289-1.039-8.618-.32-11.548.734-2.988 1.365-5.561-1.044-9.374-1.446-2.29-4.12-4.044-7.07-5.98-4.178-2.741-8.912-5.847-11.503-11.356 0 6.847 6.547 11.612 11.318 15.086 1.3.945 3.009 3.03 3.877 3.8m27.799 114.97c2.508-.823-.566-6.157-3.604-1.07-8.268 0-6.542 4.858-4.983 9.248.805 2.267 1.566 4.408.884 5.692 2.548-1.536 2.012-3.409 1.445-5.389-.809-2.827-1.681-5.874 6.258-8.481m-1.793 13.87c-1.138-5.485-1.811-9.973 3.347-11.501-4.14 5.326-.844 20.733 2.554 27.65-1.357-1.985-2.681-3.433-3.815-4.672-2.988-3.268-4.652-5.087-2.086-11.477m.431 61.73c-7.093.194-9.666-6.218-6.341-17.745-3.379-5.531-1.693-6.424 2.279-8.527 2.777-1.471 6.673-3.534 10.735-8.189-2.997 5.651-2.344 6.996-1.357 9.028.762 1.568 1.723 3.545 1.357 8.226-6.673-10.602-12.257-4.005-9.078-.766 2.787-1.444 9.078.767 10.944 4.792-16.227-5.045-13.845 10.918-6.013 7.561-6.347-.817 3.818-7.235 2.448 0-.829 4.373-7.908 4.02-10.558-1.748-.877 1.99 1.417 7.23 5.584 7.368m-1.581 49.014c-13.387 2.612-47.385-29.317-74.376-61.145-2.761-3.256-11.203-11.273-6.978-1.041 26.989 55.756 82.433 129.009 86.027 127.99.685-2.548-4.784-20.152-7.055-26.191 4.658 11.421 16.458 38.021 16.458 38.021 17.398 35.424 34.637 64.105 52.694 91.052 23.209 41.053 71.303 89.838 76.265 88.015-6.069-38.198-103.295-216.628-156.04-305.715 14.155 26.269 20.585 47.534 13.005 49.014m-79.062-19.501c-2.756 3.956-16.803-4.309-27.338-10.691 15.72 30.868 55.784 108.429 97.013 133.022 0 0-24.291-32.135-33.526-47.412 26.655 33.841 92.31 115.539 105.915 114.395-10.2-11.821-39.112-65.068-50.803-91.778-40.525-39.356-76.234-101.252-101.071-147.996 0 0 14.164 44.211 9.81 50.46m-60.115-350.083c18.117 21.881 20.045 41.098 10.149 59.469 7.147-28.915-8.767-52.978-30.113-54.409-14.906-1-23.218 3.391-34.16 16.278-2.558-.202-4.235-3.654-6.142-7.58-3.002-6.178-6.572-13.528-15.043-11.228-5.406 1.018-17.132 9.501-29.96 18.782-17.857 12.919-37.85 27.383-45.905 25.407-5.027 4.326-4.08 9.528-3.176 14.493.343 1.888.681 3.742.681 5.5-13.155 4.003-37.873-24.328-11.41-39.395-12.526 12.459-5.429 23.809 1.854 26.799-2.844-17.353 11.683-25.182 20.125-25.182 25.923 0 34.783-13.131 42.403-24.422 4.967-7.36 9.406-13.939 17.7-15.59-5.984 3.446-6.442 4.151-4.401 5.935 2.041 1.785 8.244 5.143 34.503-1.954-7.485 5.012-3.983 11.262 1.227 11.262s12.262-7.424 18.052-5.503c4.031 1.338 17.425-1.362 26.723-4.169-4.526 3.552.89 5.796 6.893 5.507m-33.71 20.364c-8.18 3.554-11.953 14.227-5.825 24.266-14.589-6.302-32.402-23.836-29.235-28.783 1.643-2.566 1.815-12.075-7.22-9.749-2.54.653-4.058 2.646-5.856 5.008-1.445 1.897-3.07 4.032-5.552 5.901 6.885-.466 17.428 7.693 28.585 16.326 11.976 9.268 24.66 19.083 34.286 19.366 18.075.53 20.749-20.588 6.768-29.488 1.371 0 13.473 6.792 13.473 16.236 2.819-9.334-6.428-16.26-11.494-18.673-2.018-.961-11.594-3.161-17.93-.41m216.736 137.033c1.902-8.025 5.736-19.339 15.085-32.244-5.929-2.127-10.244 8.551-11.883 12.607-.677 1.675-2.074 7.947-2.074 7.947-1.218 2.633-2.409 5.663-1.128 11.69M317.88 419.02c3.081-4.384 3.081-5.209 3.081-7.678 1.504 1.386 1.272 1.972 1.024 2.597-.181.458-.371.937.107 1.766.228 1.172-.916 1.69-2.22 2.267-.6.268-1.456.655-1.992 1.048m44.422-134.175c-8.86 3.278-16.929 2.393-22.259-2.479 1.052.961 1.416 1.864 1.754 2.706.924 2.296 1.666 4.14 15.697 5.492 5.596-5.431 12.686.819 11.333 9.29q1.803-.35 3.575-.664c.928-6.212 0-18.475-10.1-14.345m-113.675-6.557c0-14.181 10.405-18.342 16.59-15.566 2.307 1.836 3.021 4.484 3.781 7.3.576 2.137 1.178 4.37 2.522 6.421-3.115-4.755-7.462-5.464-10.722-5.039-3.771.493-7.422 5.214-6.81 9.315.611 4.101 3.55 7.878 8.766 6.6 4.595-1.125 2.987-8.635-2.753-8.353 0-1.458 5.385-3.005 7.818-.678 4.645 4.444.279 14.031-5.065 14.975-8.436 1.49-14.127-7.097-14.127-14.975m-41.823-163.174c-9.271-2.184-25.561 12.606-21.602 31.072-2.41-17.015 11.943-24.373 14.21-24.373 10.595 0 7.159 11.189-1.174 17.13s13.331 6.07 17.134-5.106c1.995-5.863 2.199-16.186-8.568-18.723m68.306 30.872c.546-10.661 22.559-15.548 17.578-8.505-1.911 2.702-5.027 3.19-7.528 3.582-2.83.443-4.873.763-3.498 4.025 3.202 6.672 16.033 1.506 18.207-1.097 5.788-6.93-1.608-16.59-15.005-19.32 6.406 0 16.452 3.99 19.721 8.4s3.612 15.249-6.324 20.742c-8.054 4.453-23.151.411-23.151-7.827m-144.861-30.872c-7.398.645-11.957 9.479-8.176 17.84-3.781-17.637 15.63-16.635 10.609-9.48-7.823 11.148-4.611 19.149 5.146 17.71 20.148-2.97 12.312-32.941 8.29-36.953-14.11-14.076-28.851-6.605-34.182-1.076-5.331 5.53-11.332 22.861 2.666 31.796-11.603-11.477-2.218-28.552 8.467-31.796 9.613-2.918 21.663.124 21.663 16.673 0 2.646-.426 2.228-1.821.856-1.918-1.885-5.668-5.57-12.662-5.57m381.823 650.927s-8.128-11.554-11.906-18.523c0 2.845 10.149 21.471 10.149 21.471 1.723 3.636 2.057 6.464 1.893 9.309-.17 2.945-.362 6.273 1.473 11.654q1.118 2.001 2.23 4.001c-.874-5.304-.508-8.947-.189-12.12.495-4.917.876-8.706-3.65-15.792m24.142 39.298c3.52.451 1.324 3.099-7.225 4.609 2.531.016 11.891.071 10.745-5.512-.383-.913-1.122-1.114-2.066-1.371-1.83-.499-4.428-1.206-6.687-7.712-1.353 5.334 3.01 9.986 5.233 9.986m32.692-470.281c2.613-8.873 1.47-14.686-2.671-17.566-1.155-2.036-2.126-4.182-3.087-6.303-2.984-6.593-5.864-12.952-13.812-15.062 18.629 27.38 13.171 41.029 8.485 51.561 2.909 4.14 9.763-6.553 11.085-12.63m37.892 17.687c-10.31-2.195-20.543 23.136-1.84 13.268-4.888 10.094-13.641 11.212-15.853 5.565-2.797-7.14 8.191-29.383 22.558-22.327 6.529 3.207 10.24 9.138 3.6 22.327-4.174 8.29-17.2 17.125-26.158 14.495-8.061-2.367-11.859-10.663-8.245-22.998 3.387-11.554 9.775-21.587 16.109-31.535 10.361-16.272 20.577-32.316 17.277-54.419-2.149-14.391-6.194-23.057-11.83-31.044 6.108 5.826 14.373 13.724 15.826 29.914 2.267 25.257-7.251 44.271-15.826 56.632-14.454 20.837-23.616 37.727-11.99 46.591 10.173 6.201 32.5-23.037 16.372-26.469m25.798 8.058c9.089-3.331 14.638-25.745 4.333-31.057-7.507-3.871-12.273-1.26-18.774 2.301-2.667 1.461-5.625 3.082-9.184 4.481 26.182-3.572 23.98 7.406 22.297 15.801-.828 4.128-1.53 7.632 1.328 8.474m0-53.615c-9.523 2.709-12.723 13.332-8.672 11.319 18.287-9.086 24.448.09 28.112 5.545.9 1.341 1.65 2.457 2.391 3.022 2.319-10.24-11.156-22.923-21.831-19.886M438.964 93.268c-23.108 0-38.514 11.985-27.337 13.909 18.749-6.733 40.327 0 59.961 9.913-4.276-2.745-7.396-6.461-10.489-10.145-5.426-6.463-10.77-12.828-22.135-13.676M185.202 77.045c5.686 8.035 3.793 12.856-3.855 22.24 4.355-15.242-5.661-25.729-10.828-31.138-1.848-1.935-3.075-3.22-2.802-3.841 3.14-7.135 16.561 5.15 17.485 12.74M91.041 181.832c-5.517-9.236.872-27.902 9.307-18.532 6.958 7.729 4.286 8.426.731 9.353-3.096.807-6.862 1.789-5.513 7.746 2.292 10.126 15.197 7.788 20.405 2.575 6.514-6.519 3.167-17.053-2.154-22.709-3.595-3.822-12.824-12.279-26.278-9.07-17.607 4.201-13.147 27.129-10.723 33.312 3.834 9.779 14.225 22.395 30.553 23.739 24.596 0 30.459-21.136 34.208-35.65 2.603 7.619.156 15.472-2.262 18.34-12.709 15.071-16.671 22.105-19.878 29.977-10.256 25.165 14.581 40.644 37.005 41.81 36.759 1.913 62.469 23.35 57.384 40.657-7.238 24.63-38.996 29.853-46.733 28.915-12.687-1.539-20.835-15.62-11.653-32.111 3.404-6.114 10.786-12.069 17.954-14.561 13.301-2.97 22.022 10.606 16.089 17.757-5.403-19.757-34.633-4.136-31.818 13.295 1.398 8.655 10.926 16.558 28.27 6.509 8.951-6.509 21.705-25.085 5.3-42.464-16.266-14.834-41.458 4.53-47.561 19.464-8.11 19.847-11.022 46.361 28.522 51.841 3.647 10.229 6.238 13.184 16.684 11.051 18.62-3.802 35.118-33.253 42.002-48.966 3.179 5.575 6.057 7.945 8.617 10.053 1.606 1.323 11.761 7.228 13.624 9.11-4.076 5.625-11.885 10.63-15.559 10.63 1.493-4.443-.746-12.936-2.756-11.608-8.655 30.781-28.695 43.995-45.928 46.648-20.684 3.185-20.573-10.674-20.51-18.416-7.805 1.727-27.586-14.631-30.478-22.11-2.221-5.743-2.101-11.849-1.973-18.346.179-9.052.372-18.862-5.735-29.506-6.811-11.873-14.709-16.073-20.507-19.157-3.559-1.892-6.326-3.364-7.567-5.931-3.938-8.145-3.111-11.847-2.244-15.733.638-2.86 1.299-5.819.101-10.72-1.058 1.444-3.511.989-4.691 0-.805-3.142.258-5.504 1.762-8.848.585-1.299 1.236-2.746 1.87-4.445-17.447 3.754-21.02 18.712-20.145 31.397.559 8.105 3.548 13.953 6.562 19.849 4.472 8.75 8.998 17.605 5.716 34.094-8.496 32.21-17.459 46.281-42.105 46.281-29.167-3.716-35.21-33.521-36.114-49.032-1.17-20.046 11.264-29.353 21.043-29.353 22.448 0 22.213 26.477 9.772 32.104 3.881-14.945-12.924-28.059-20.806-12.498-5.105 10.08-8.42 42.877 26.105 42.877 27.811-1.294 42.43-33.464 37.517-52.413-4.475-10.32-10.067-15.414-16.252-21.047-2.778-2.53-5.675-5.169-8.644-8.439-10.473-11.534-19.13-32.105-9.84-42.845 9.84-9.101 23.765 0 27.046 14.13 7.69-6.421 3.61-17.857 0-21.578-7.91-10.609-41.722-13.354-45.71.971 1.892-10.839 13.548-12.118 23.485-13.209 6.815-.748 12.822-1.407 14.316-5.001 1.399-3.367.017-5.374-1.845-8.077-2.292-3.328-5.312-7.713-4.768-16.993 1.692-14.694 11.315-25.764 29.41-21.86 26.415 5.698 38.532 29.359 30.858 40.427-12.162 17.543-28.943 3.89-33.468-3.684m13.303 187.437c-36.883 0-53.35 1.728-70.688 18.09-20.866 19.692-8.294 62.711.736 64.731-4.061-9.242-5.121-15.734-5.121-22.977 0-24.275 18.172-48.661 43.482-42.995 27.162 6.081 24.278 32.879 20.156 41.391-10.522 21.726-43.973 15.904-43.973-6.727 2.002-12.089 12.078-13.731 16.832-13.731 6.937 0 20.165 21.571 0 21.571-2.561 0-4.234-1.343-5.685-2.393-1.26-.911-2.056-1.488-2.056-.361 0 3.245 5.755 6.065 8.393 6.065 6.163 0 13.672-5.116 13.672-14.862 0-6.7-7.202-16.947-14.324-16.947-10.945 0-21.529 8.6-22.908 18.296-1.709 22.144 24.6 31.65 24.6 31.65s3.349 1.867 8.38-5.136c18.719-5.914 32.729-10.341 46.058-27.863 5.557 9.513 3.245 17.833 0 22.776 11.05 3.327 21.67.696 25.385-2.783-21.706-17.697-18.114-47.347 8.157-58.531 1.338-.569.831-2.585.212-5.046-.668-2.659-1.468-5.839-.212-8.278-7.511-3.079-11.561-6.667-15.122-9.821-2.773-2.457-5.248-4.65-8.83-6.136-6.468 11.275-20.162 20.017-27.144 20.017m122.635-90.302c1.602-3.711 3.903-13.49-13.9-19.416-9.818-5.291-14.007-5.067-22.027-4.64-6.108.326-14.439.77-29.169-1.013 5.488 1.896 11.535 2.875 17.893 3.905 15.108 2.446 31.964 5.176 47.203 21.164m37.193 41.615c-9.735-4.314-16.052-3.48-24.927-11.047l9.167 9.69c3.075 2.546 7.047 2.763 15.76 1.357M67.46 562.763c-26.572-31.322-28.257-62.951-18.524-92.297-15.964 0-27.588 26.914-23.374 41.333 5.729 19.601 20.382 34.362 41.899 50.964m47.307-29.929c-20.058 0-30.338 4.403-34.675 21.464-6.9-8.137-1.562-26.967 12.817-31.095-2.862-21.569 3.605-41.277 32.234-52.737-24.702 23.017-22.312 43.931-10.376 62.368m49.855-64.117c-15.375 5.614-38.144 43.082-22.245 81.949-14.133-13.267-28.973-30.549-27.61-45.57 3.171-34.953 29.615-42.343 54.545-48.307 7.566-2.055 21.49-10.571 19.568-24.857 4.54 7.914 2.538 19.776 0 20.442-4.391 1.152-5.507 3.58-6.733 6.246-1.833 3.985-3.911 8.504-17.525 10.097M45.015 631.686c-7.89 22.934-2.457 64.344 33.567 68.014-55.212 29.73-80.005-36.606-59.336-77.499 23.69-46.869 56.112-66.796 108.705-52.051-60.49 2.12-77.524 45.805-82.936 61.536m63.868 36.613c.079 28.429-23.628 48.715-65.518 48.715 7.606 9.292 74.403 4.996 76.149-50.877 0-12.741-4.747-31.178-18.713-32.7-17.574-1.916-27.16 14.841-27.16 33.708-.359 16.082 18.451 26.403 35.242 1.154m96.161 14.336c-12.976-24.782-26.561-36.391-42.854-47.321.619 2.293 1.989 4.307 3.342 6.295 1.987 2.919 3.938 5.785 3.419 9.407-11.476-12.374-22.191-18.097-33.379-24.073-6.679-3.567-13.527-7.225-20.805-12.441 7.765.974 16.091 1.011 24.407 1.049 18.884.085 37.715.17 49.798 11.225 9.177 8.396 12.596 30.132 15.117 47.859.24 2.612.483 5.251.955 8m-60.228 67.051c-14.122 0-21.849-29.375 4.313-38.67-28.033-1.723-33.213 24.076-24.284 43.524 8.327 18.134 44.106 19.832 57.307-4.854 15.211-33.613-3.236-85.441-27.458-85.441-13.817 0-19.442 11.497-24.593 22.028-2.253 4.606-4.415 9.027-7.134 12.219 16.148-17.476 36.049-29.173 51.441-7.561 19.333 29.591-5.671 58.755-29.592 58.755m52.8 9.048c-9.324 13.549-20.709 16.834-28.089 16.834 21.303-15.73 22.801-20.973 27.58-37.694l.098-.345c.471-1.639 4.56-13.871 5.249-15.396-.746 12.594-1.475 31.713-4.838 36.601m24.914-18.799c2-15.381 0-29.744-3.466-43.054 0 0 13.566 14.778 11.245 26.162 2.186-3.519 4.841-5.118 7.34-5.118-5.602 6.995-11.622 14.522-15.119 22.01m80.479 41.635c-10.637 6.418-23.839 2.002-25.531.524-9.476-8.277-6.313-20.604-3.988-29.613-22.545 11.933-11.791 48.543 10.16 44.381 7.318-1.509 16.073-6.91 19.359-15.292m6.644 0c-.804 6.418-4.511 13.783-19.79 18.418 14.803 1.401 22.906-8.989 22.906-16.811 5.707-4.669 9.892-12.958 5.707-24.233-1.353-3.648-5.682-7.951-7.376-10.501 3.911 9.188 8.418 21.499-1.447 33.127m-21.515-16.756c-9.015-9.63 1.334-22.521 8.565-21.324 3.135 2.363.759 3.729-2.366 5.525-4.373 2.513-10.213 5.87-4.474 13.982 2.286 3.23 7.655 2.802 7.655.516-3.353-7.356 5.86-5.938 5.491.393-.269 4.627-8.468 7.748-14.871.908m54.321 22.017c-7.415 0-10.239 1.557-14.917 5.102 15.703-4.06 25.075 3.037 30.616 7.234 2.837 2.148 4.67 3.536 5.835 2.277 1.836-3.403-10.309-16.634-21.534-14.613M143.374 597.344c-21.444-11.585-58.26-4.222-81.618 18.166 19.932-25.512 30.421-33.093 80.621-29.274 1.706-18.63 14.412-37.15 20.422-41.656-14.89 21.886-16.708 33.325-19.425 52.764m13.357 120.581c8.227 7.373 4.913 19.713-6.462 22.01-9.74 1.966-10.927-13.76 3.186-11.226.819-1.351 1.408-2.36-.409-3.411-1.818-1.052-12.59-2.447-15.047 5.001-2.29 8.562 3.388 14.791 11.13 14.268 5.639-.381 12.511-5.474 13.858-10.891 1.012-3.929 2.983-11.591-6.256-15.751M680.92 354.008c-23.02 1.224-48.324 23.95-60.496 37.76-22.154 23.641-36.997 47.416-52.345 70.858-10.578 16.115-25.573 36.95-39.024 54.661 11.551-16.567 27.31-40.493 36.471-54.661 16.045-24.831 28.222-43.676 52.707-73.261 12.314-12.586 30.287-30.929 70.734-42.699-12.573 40.192-66.401 185.131-66.401 185.131-.594-7.463 2.579-14.173 3.926-18.342.798-2.471 0-3.108 0-5.046 14.811-26.944 50.646-127.76 54.428-154.401m20.498 181.283c-7.287 9.916-33.579 50.253-33.579 62.362 8.115-21.291 20.298-38.372 25.081-44.661 11.054-27.754 10.798 7.156 10.697 20.779v.059c15.919-48.931 45.898-140.85 88.919-180.292L777.067 577.01c28.347-38.698 16.862 41.489-18.321 67.421 29.836-10.244 54.446-110.248 22.289-75.097l15.56-182.094c-43.17 33.096-77.338 128.824-90.461 168.151 0-4.746-2.59-17.053-4.716-20.1m169.18-122.422c12.714 1.543 19.875-6.068 22.706-14.44 1.872-5.534 4.147-12.696 1.403-17.537-.911 2.46-4.922 12.339-6.305 15.568-2.551 5.95-8.111 7.309-14.528 8.878-2.665.652-5.477 1.34-8.283 2.407-3.875 1.474-4.655 3.75-5.88 7.323-1.218 3.555-2.877 8.393-8.459 15.006 7.333-6.306 9.791-10.733 11.351-13.542 1.808-3.256 2.41-4.34 7.995-3.663M711.942 254.704c6.768-31.24-10.649-50.414-26.27-52.147 15.787-2.655 32.872 11.579 34.22 39.029-10.14 24.082-10.969 30.626-7.95 45.576-9.42 13.565-3.351 28.924 11.246 47.936-4.653-3.739-15.798-12.893-18.246-16.591-9.455-14.283-2.156-40.937 7-63.803m22.814 37.011c8.827-11.958 22.231-16.834 37.332-15.724-7.579-14.902-24.881-22.166-30.764-22.98-1.926-.266-1.111-3.868.086-9.152 1.806-7.971 4.479-19.77-.086-29.723-6.076-13.246-27.982-36.986-36.641-45.441 14.368-.67 25.427 6.91 33.875 17.608 1.514-5.856-.626-10.273-2.776-14.712-1.778-3.67-3.564-7.356-3.298-11.882.745-12.666-11.272-19.861-19.344-24.635 15.046.842 26.437 3.369 32.677 9.579 7.462 7.425 7.371 21.575 7.311 31.053l-.009 1.822c-4.168 19.826 3.785 60.731 10.673 55.458 8.81-6.744 6.015-15.738 2.829-25.988-.507-1.632-1.025-3.297-1.507-4.989 18.893 24.247 5.86 39.577-2.727 47.901 9.164 7.446 19.28 18.203 24.333 41.805-1.388 5.572 9.958 17.076 13.367 19.301 4.343 3.952 2.449 8.615 1.022 12.129-.655 1.611-1.211 2.981-1.022 3.929 1.587 7.984 14.715 23.176 25.086 9.052 2.749-1.581 6.517-2.393 10.381-3.225 9.514-2.049 19.611-4.223 16.52-18.32-1.084-3.523 1.402-7.196 4.168-11.283 3.038-4.491 6.415-9.48 5.765-15.317-1.293-11.607-13.334-27.376-31.868-32.13 13.115 33.485-4.966 100.589-24.247 72.16l.049-.118c3.399-8.19 3.92-9.443-.701-21.398-1.605-4.153-3.89-6.852-11.354-11.851-.786-1.165-1.073-2.857-1.394-4.756-.562-3.314-1.23-7.258-4.849-10.131 2.11-.222 4.323-.098 6.63.032 4.817.271 10.047.566 15.61-2.219 6.051-3.028 13.249-13.759 8.749-25.847-2.425-6.514-8.233-9.691-13.968-7.888-7.349 2.31-4.97 15.547 0 16.458 1.799.33 2.315-2.622 2.817-5.49.715-4.089 1.4-8.008 5.735-1.992 4.949 6.87.728 14.383-5.847 15.97-9.559 2.307-23.659-10.989-12.161-23.89 3.94-4.421 12.161-5.584 30.599 4.419 1.831.994 3.753 1.549 5.986 2.194 4.557 1.316 10.413 3.007 19.459 9.566 20.531 14.888 23.788 34.484 6.561 49.946-1.14 1.023-.946 4.16-.875 7.648.079 3.913-.653 10.076-2.235 12.865-.815 2.726-1.619 5.419-17.114 6.928-4.628.222-8.09 2.315-11.509 4.381-4.378 2.646-8.685 5.25-15.278 3.828-9.819-2.118-12.713-6.187-15.593-10.236-1.682-2.366-3.36-4.725-6.412-6.684 11.29-21.379-1.154-34.346-20.511-38.758-26.218-5.976-39.133 14.528-27.957 34.846-6.878 4.001-17.624-17.791-5.573-34.119m142.082 48.436c2.798 2.311.43 7.081-3.24 13-1.432 4.978-3.34 5.059-5.762 5.162-1.83.077-3.954.167-6.388 2.391 2.828-4.245 5.261-7.261 7.695-10.277 2.433-3.015 4.867-6.031 7.695-10.276m-101.862-41.984c-2.613-4.149-16.935 1.926-12.435 2.487 5.095.602 16.43 1.968 18.382 9.039 1.037-3.162-.6-5.519-2.817-8.064-.952-1.093-2.345-2.216-3.13-3.462m22.706-70.097c-12.134-10.083-17.326 4.374-15.557 16.821 12.224-10.402 32.408-4.18 45.873 0-3.179-1.739-5.767-4.939-8.396-8.19-5.351-6.617-10.877-13.45-21.92-8.631M469.239 699.646c-2.082-2.693-3.481-1.348-3.893-.177-.305 1.23-.598 2.187-3.893-1.011 0 0 8.868 16.319 14.148 25.73-2.899-5.939-1.194-7.767-1.775-11.844-.639-4.479-1.25-8.384-4.587-12.698m57.365 101.041c-1.077-1.028-.863-2.451-.605-4.16.391-2.596.881-5.852-2.897-9.39 3.564 1.586 4.751 5.895 5.899 10.059 1.183 4.293 2.324 8.433 5.981 9.28-3.469.669-4.803-1.763-5.86-3.689-.13-.236-.256-.466-.381-.681-.615-1.056-1.461-1.419-2.137-1.419m75.812-529.516c-3.522-6.901-5.163-7.473-10.025-9.169a122 122 0 0 1-2.606-.932c-3.416-.413-1.613.996 2.095 3.895 4.135 3.233 10.638 8.317 14.918 14.792.414-4.382-.832-5.281-2.226-6.287-.756-.545-1.554-1.121-2.156-2.299M285.051 733.856c1.058-.016 2.225-.035 3.485-.18-5.606 1.907-10.57 7.798-13.979 11.124-.444-.742-.143-2.586 1.462-4.382 1.398-1.565 2.922-3.27 3.436-4.663 1.083-1.827 3.019-1.858 5.596-1.899m-18 13.662c-5.898 0-7.049 1.326-8.331 3.49-1.11 1.876 1.186 7.739-.237 11.989 2.616-1.706 3.246-4.464 3.892-7.294.698-3.056 1.416-6.197 4.676-8.185m366.044-216.597c4.027 9.122-8.535 22.994-17.499 32.892-3.702 4.088-6.79 7.498-7.842 9.616-1.527-6.035 11.778-23.626 11.778-23.626s12.339-11.979 13.563-18.882m180.41 49.04c3.601-6.786 7.912-10.961 11.988-14.909 7.524-7.288 14.016-13.817 14.016-34.554.722 4.786 2.41 17.498.236 22.494.583 5.411-4.01 8.718-9.374 12.582 0 0-14.828 12.18-16.866 14.387"
        class="path-1"></path>
    <path
        d="M502.143 620.782c-4.753 42.364 5.03 73.058 36.565 93.877 15.919 10.509-2.068 43.734 8.056 75.46 51.122-19.183 54.097-39.624 67.495-33.794 39.597 17.229 81.153 4.748 94.626-12.697-16.557 13.723-55.638 29.11-96.261 6.582-10.741-2.434-23.797 25.172-65.062 37.769-8.854-28.11 7.872-57.34-3.741-73.32-35.85-27.004-38.261-49.723-41.678-93.877m-257.45 139.452c-14.62 0-32.327 12.48-33.249 34.81 0 9.182 5.775 22.257 17.442 25.08s-3.94-40.546 15.807-59.89m-138.228-334.2c12.92-15.977 10.433-26.054 5.851-33.636-2.273-3.762-7.575-9.189-16.088-13.288 15.315 1.167 29.3 7.637 30.368 15.124 1.178 8.259-3.155 18.397-20.131 31.8M74.998 239.191c-.435 3.008-6.322 5.972-11.607 4.575-6.6-1.746-12.791-12.764-6.61-20.586.948-1.198 5.205-3.443 8.03-3.052 6.888.951 7.918 5.286 7.518 8.268-.462 3.443-5.24 6.991-9.36 1.256-4.587.527-4.758 7.156.422 10.868 2.081 1.492 8.553 2.264 11.607-1.329m39.699 14.874c0 7.666 14.036 16.797 23.924 22.546 1.9 1.648 1.954 2.779 2.179 7.558.079 1.678.18 3.806.389 6.563 3.597-8.836 11.124-17.769 22.887-21.392-2.183-2.084-10.227-3.696-17.481-3.696-13.978-1.25-23.947-3.913-31.898-11.579m40.633-80.592c1.463 2.181 2.883 4.299 3.515 6.547 1.851 6.588-4.096 12.338-10.698 18.722-8.107 7.839-17.203 16.634-14.062 29.109 3.311-12.234 12.13-18.265 19.968-23.625 7.697-5.264 14.447-9.881 14.104-19.089-.127-3.414-4.06-7.331-8.261-11.514-3.446-3.431-7.072-7.042-8.923-10.701 0 4.054 2.224 7.37 4.357 10.551m55.892 51.879c9.507-3.169 14.757 7.287 3.465 13.293 7.42-.632 27.233 3.162 26.472 23.612 14.665-16.386 4.132-19.999-5.458-24.49-5.56-2.605-10.506-5.384-10.506-9.916 0-16.616-10.353-11.386-13.973-7.317-1.312 1.475-1.611.509-1.807-1.398-.345-3.355-.845-10.156-9.363-15.533 7.415 5.448 7.617 12.491 7.75 17.129.102 3.562.164 5.706 3.42 4.62"
        class="path-2"></path>
    <path
        d="M168.58 229.107c7.436.911 16.095 1.04 29.17-1.256 1.367.739 2.743.409 3.951.12 1.949-.466 3.459-.828 3.785 3.567 2.459 3.171 10.698 3.676 7.66-3.687 8.754 5.345.515 9.885-4.664 9.403-1.258 2.601 1.654 3.788 5.411 4.127-3.884 1.026-6.815.226-9.051-1.292-1.664-1.128-.442-4.466.395-6.241 0 0 .713-1.358-7.487-3.391-4.739-.41-9.94.465-14.01.642-6.029.263-10.535-.189-15.16-1.992m113.996 34.644c-11.127-12.274-15.799-43.217-4.645-60.755 10.045-15.795 29.919-.847 22.358 13.331-2.461.893-3.998-1.911-5.717-5.043-2.354-4.292-5.047-9.202-10.916-6.066-13.085 6.989-11.773 42.323-1.08 58.533m44.169-67.176c15.142 27.392 6.792 41.7.762 49.124 7.522-1.768 20.583-4.812 40.7 8.834-5.838-13.375-16.822-19.367-25.379-21.894-1.627-15.887-10.182-31.819-16.083-36.064m-25.864 215.28c-5.384 1.312-8.949-2.842-8.949-7.096 0-6.207 8.021-10.416 12.348-8.741 10.281 3.98 7.916 17.462-1.837 21.981 9.753-11.748 2.422-17.97-1.562-15.321-1.409.937-.379 2.59.66 4.259 1.279 2.054 2.572 4.131-.66 4.918m153.982-59.488c6.601 3.713 5.26 14.487-8.77 10.677 4.909 3.022 13.934 7.602 17.115.919 4.65-9.77-2.725-29.612-21.19-39.718 7.578 7.584 8.566 14.678 9.303 19.975.529 3.801.929 6.677 3.542 8.147m-24.391-19.694c-.385-1.942-.702-3.546-3.302-5.576-7.039-3.7-7.637-6.546-8.223-9.33a47 47 0 0 0-.141-.653c2.234 3.829 6.601 6.015 10.457 7.945 3.693 1.849 7.366 2.564 7.793 5.161-.023 2.519-.27 8.373 5.607 17.667-10.778-8.08-11.572-12.086-12.191-15.214m28.412-68.841c.655 4.199-3.096 9.974-5.189 11.782-.829.716.105 1.098 1.716 1.757 2.454 1.003 6.478 2.648 8.237 7.096 5.954 15.061-16.188 15.032-9.953 13.445 6.236-1.586 5.479-12.552 0-12.198-7.172.463-13.583 14.935-3.73 24.03 4.282 3.953 8.581 6.457 12.437 8.704 7.217 4.204 12.883 7.505 13.983 17.702-3.975-8.638-11.993-11.106-19.587-13.442-5.867-1.806-11.481-3.533-14.78-7.968-9.999-15.604-2.197-26.597 5.148-36.948 2.965-4.177 5.855-8.25 7.471-12.478 1.127-6.172-1.67-9.376-4.268-12.351-2.298-2.633-4.44-5.087-3.571-9.258.864 3.087 2.907 5.264 5.089 7.589 2.901 3.09 6.047 6.441 6.997 12.538m9.269 70.616c1.945 3.486 4.836 8.673 1.186 20.439 3.141-1.475 8.918-4.189 5.358-8.599-1.044-1.293-1.476-3.081-1.955-5.056-.807-3.337-1.744-7.206-5.97-10.114.106 1.042.682 2.076 1.381 3.33m-2.267 38.055c3.001-.863 8.04-7.074 3.453-3.867-4.824 3.373-7.455 3.289-10.945 3.177-2.268-.072-4.9-.156-8.734.69 2.618 0 4.74.267 6.654.508 3.317.417 6.009.756 9.572-.508m-29.423 24.787c8.868 4.334 15.156 5.715 24.171 5.715 1.133 2.732 2.378 3.737 6.14 5.676-4.324.264-5.689-.68-8.884-2.944 0 .927.545 2.067 1.829 3.84-2.208-.896-3.854-1.812-5.618-3.84-4.05 0-14.502-4.607-17.638-8.447"
        class="path-3"></path>
    <path
        d="M554.404 402.859c0 17.154-14.195 31.06-31.706 31.06s-31.706-13.906-31.706-31.06 14.195-31.059 31.706-31.059 31.706 13.906 31.706 31.059m-42.914 23.749c-10.067-4.03-10.792-11.537-10.577-15.203.615-10.432 13.411-17.777 24.408-8.08 6.814 6.009 1.782 21.105-7.691 21.599-7.191 0-8.378-1.973-7.617-7.321 1.069-7.517 10.875-11.29 9.9-3.906-.212 1.605-2.394 3.614-4.136 5.219-1.85 1.704-3.204 2.951-1.181 2.773 12.788-1.122 8.92-14.592 3.882-16.644-2.681-1.092-6.54-.867-9.519 2.232-2.98 3.098-4.394 11.482 2.531 19.331m17.895-22.674c-4.782-11.514-3.379-14.478 3.325-13.918 11.436.956 11.377 5.156 12.734 8.555 0 0 1.057 11.206-.517 14.684-5.346 12.772-17.483 22.528-25.014 14.265 4.684.554 7.445-4.198 10.124-8.807 2.998-5.158 5.892-10.139 11.262-7.308-.563-3.736-3.353-3.736-6.097-3.736s-5.441 0-5.817-3.735m-12.567-18.405c8.374 3.11 9.276 8.799 5.88 11.945-3.328-6.088-6.478-6.469-10.594-6.708 0 0-3.52-.074-4.593-.285 5.462-1.851 6.725-2.28 9.307-4.952m35.268 19.516c3.465-5.512-3.002-11.982-3.985-9.682 1.921 11.116-.627 18.334-3.894 25.266 3.758-1.987 5.787-6.267 6.839-10.172.549-2.04.235-4.132 1.04-5.412"
        class="path-4"></path>
    <path
        d="M547.743 372.503c4.003.928 8.28-3.322 10.146-6.867-.215.778-.123 1.842-.024 2.994.238 2.763.519 6.035-3.268 7.1-2.484.698-6.854-1.036-6.854-3.227m-89.525-185.302c0-2.341 1.031-9.043 11.049-7.046-2.738-1.922-13.773-3.949-16.455 4.158s4.991 16.55 12.312 14.527c2.136-.59.801-1.688-1.242-3.368-2.359-1.94-5.664-4.658-5.664-8.271m347.388 103.954c6.273 2.459 10.173 1.513 12.74 0s8.36-6.11 11.508-14.996c1.305 14.183 0 29.453-9.763 45.893 1.207-12.192 0-20.024-14.485-30.897m68.657 190.477c1.873 14.183 4.631 19.588 0 35.35 14.046-1.422 12.294-24.92 28.831-31.324-1.366-7.694-18.605 6.254-28.831-4.026M60.087 744.734c26.513 0 34.103-14.935 34.24-10.89.856 25.267 24.121 37.451 19.33 41.345-17.901-13.053-43.951-28.287-53.57-30.455m517.314 91.72c-1.569 5.095-13.504 5.413-7.888 10.52 3.638-4.053 7.188 3.186 5.34 8.075 7.077-4.889 8.331-11.381 2.548-18.595"
        class="path-5"></path>
    <path
        d="M558.709 861.121c1.188 1.624 14.837-3.318 11.953-10.871 3.808-.444 1.601 11.77-4.931 14.104-3.197 1.143-6.46-.295-7.022-3.233"
        class="path-6"></path>
    <path
        d="M460.634 403.005c-9.015 0-15.303-1.381-24.171-5.715 3.136 3.84 13.588 8.447 17.638 8.447 1.764 2.028 3.41 2.944 5.618 3.84-1.284-1.773-1.829-2.913-1.829-3.84 3.195 2.264 4.56 3.208 8.884 2.944-3.762-1.939-5.007-2.944-6.14-5.676Zm0 0s-3.647-6.641-3.096-11.148M343.91 612.288c-10.261-17.435-21.648-39.319-30.062-57.356m30.062 57.356c14.262 24.234 49.407 89.516 41.85 105.637-12.427 4.442-86.265-59.201-143.407-155.162 3.236 10.892 15.318 34.752 18.42 39.012-17.774-4.43-44.935-39.849-49.044-75.837-.677 12.282 3.556 25.626 9.308 39.314 6.053 14.404 22.71 36.429 43.613 41.647 19.135 31.353 56.337 71.784 88.026 97.604 6.794 16.136 56.964 106.278 72.123 115.453-31.619 0-47.02-14.167-90.722-63.799 3.503 5.611 8.167 12.573 14.955 20.8 5.349 7.442-13.391 7.093-27.948-18.013s-52.569-89.518-57.799-94.699c0 0-9.575-9.625-12.072-9.625 12.684 28.144 15.838 39.278 18.403 53.628-6.331 0-14.772-7.703-16.63-14.7-.797 4.085 0 9.82 1.858 12.303-3.523-.317-9.942-5.116-13.718-20.195-.856 12.033 11.084 36.144 23.642 38.898 0 0-3.851-5.492-1.483-9.431 0 3.273 5.311 10.052 14.193 13.288-1.696 2.549-3.82 4.334-5.708 5.921-2.581 2.169-4.719 3.967-4.719 6.837-37.541-38.637-66.233-144.434-73.631-239.535-3.666-47.124 8.824-114.086 42.421-109.403 27.65 3.853 69.527 43.734 83.13 66.219 4.646 7.679 118.587 202.125 124.23 213.553 14.683 29.738 30.158 61.079 22.206 65.257-10.75 7.969-87.255-76.703-121.497-124.972Zm224.492-183.529c2.735-3.409 7.242-6.395 5.733-9.59-6.689 6.45-16.359 3.604-12.575 2.486 8.412-2.486 12.229-8.425 10.846-21.214-.493-4.557 8.685 2.873 6.509 11.203 4.425-6.95-.391-12.216-5.778-18.106-2.918-3.191-6.004-6.566-7.878-10.49-6.555-10.587 1.564-21.943 11.441-35.758 11.728-16.406 25.936-36.278 20.993-62.445-3.08-16.302-31.458-25.005-50.017-17.37 18.559 1.516 31.736 8.711 39.521 24.24 15.219 44.813-37.031 77.62-55.567 77.62-12.988 0-23.409-14.071-20.561-29.184 1.755-9.314 13.947-19.948 25.213-15.528 7.763 3.046 3.92 5.12-2.194 8.42-4.167 2.249-9.39 5.067-12.711 9.152-10.526 13.692 7.654 19.091 11.333 17.354 21.82-10.298 20.471-26.485 16.626-36.042-7.637-16.319-32.108-5.405-39.552 2.678-8.915 9.681-11.102 22.557-13.063 31.136.293 1.863.577 3.67-2.855 9.723-.11 1.537-9.642 17.482-11.883 21.095-3.281 5.29-7.453 11.872-9.398 17.976-1.883 5.911.44 15.716 13.592 23.198 4.795 2.728-6.364 9.935-9.765 13.439-7.513 9.396-14.474 16.528-23.127 27.529-.932 4.184-1.137 12.951-.521 18.28.728 6.872 4.5 19.227 4.084 30.141-.48 12.598-6.513 28.461-21.927 29.195-8.917-.343-17.091-5.492-22.12-13.039-4.319-6.48-8.968-20.189-2.291-28.504 16.939-17.183 29.418 18.326 18.672 22.252-4.041 1.477-3.983-2.231-3.914-6.634l.004-.263c.055-3.573.032-7.465-1.959-9.91-3.8-4.667-11.423.232-10.337 8.884 2.238 17.827 17.239 19.144 25.315 4.992 10.025-17.564-11.04-45.837-27.781-39.299-28.123 11.23-16.42 69.337 27.062 71.131 17.854.736 44.193-18.006 24.94-63.991 11.08 6.487 19.412.792 23.665-3.798 0 0-23.665 6.833-23.665-8.2 0-6.805 1.098-12.801 2.405-15.664 2.619 15.611 19.84 26.886 34.563 4.427 5.018-7.655 12.453-11.572 20.433-18.987 3.749-2.877 5.285-4.307 7.7-6.962 2.652-2.915 3.929-3.706 6.446-6.08 3.369 2.836 1.807 9.136-2.633 15.197l-4.721 7.4c8.383-4.301 8.805-7.685 17.413-11.87 2.428-5.187 11.147-6.843 15.621-9.731m8.663-10.489-8.663 10.489m8.663-10.489-8.663 10.489m232.975-45.873-.178.163m0 0L777.067 577.01c28.347-38.698 16.862 41.489-18.321 67.421 29.836-10.244 54.446-110.248 22.289-75.097l15.56-182.094c-43.17 33.096-77.338 128.824-90.461 168.151 0-4.746-2.59-17.053-4.716-20.1-7.287 9.916-33.579 50.253-33.579 62.362 8.115-21.291 20.298-38.372 25.081-44.661 11.054-27.754 10.798 7.156 10.697 20.779v.001m88.919-180.234c-43.021 39.442-73 131.361-88.919 180.292m0 0v-.058m0 .058v-.058m45.882 93.826c27.568 36.905-19.631 83.323-62.516 107.617-27.333 15.483-100.43 35.158-143.162 30.575-23.171-26.718-50.672-88.131-61.571-132.076-6.614-26.668-9.049-109.361 38.237-116.207 57.959-8.391 116.567 63.275 50.186 180.651 46.481-71.552 131.691-133.658 178.826-70.56ZM472.27 406.115c-3.582 11.64 6.466 19.155 12.833 23.745 2.899 2.09-5.855 8.85-9.837 11.789-8.633 10.888-29.501 37.139-30.941 38.091-2.163 1.429-34.612-13.426-38.709-13.426-4.818 0-27.452 15.918-31.656 26.421-11.804-10.556-18.782-13.995-31.327-21.029 11.897 7.716 22.767 13.546 30.051 23.79 25.259 50.195 32.645 80.14 64.678 128.533 1.114-23.697 50.11-91 60.313-125.228-1.83-15.5 1.195-20.985 2.824-23.938 5.459-9.894 10.994-15.665 20.896-23.569 3.118-2.488 4.95-4.397 6.751-6.33 1.626-1.745 3.266-3.505 5.913-5.716 2.963 4.293-.101 9.875-3.085 13.916 0 0-8.349 9.821-10.487 15.068 7.754-8.001 25.004-18.481 25.004-18.481 3.421-3.807 9.32-5.72 14.883-8.958 2.025-1.179 6.034-.842 4.628 0-8.136 4.875-7.508 8.363-12.32 13.722-8.558 5.963-18.338 12.778-18.338 26.95-29.461 12.595-32.386 32.609-35.579 54.458-1.282 8.771-2.607 17.839-5.709 26.84-14.554 21.228-16.76 28.042-17.778 39.012-15.779 4.487-22.157 16.639-21.727 26.664-12.162-1.022-18.861 10.825-16.123 20.574 7.6 27.067 36.853-1.441 16.591-4.582 10.692 3.293-5.554 16.335-8.436 2.527-1.5-7.184 8.029-13.45 14.422-9.705 3.202 1.876 6.568 6.135 5.402 14.989-4.878 5.103-5.814 10.711-6.885 17.138-.818 4.903-3.275 10.909-6.062 16.903-4.635-9.817-95.328-165.259-132.32-228.625 3.287-2.156 5.793-3.168 8.225-4.15 2.911-1.176 5.716-2.309 9.631-5.311 1.283 0 2.367 1.438.598 4.177 12.589-1.398 42.61-33.261 43.545-27.907.936 5.353 9.204 7.923 9.204 7.923 0-18.499 2.208-19.718 12.243-32.855-3.401 3.267-11.015 8.161-8.815 0-8.74 10.636-18.55 15.648-29.889 8-2.794-1.658 1.778-4.67 4.717-6.582-15.966 2.933-21.729-1.767-24.764-15.294-.415-1.848 8.47-4.774 11.085-5.154-13.613 0-18.629-4.744-19.103-7.624s7.077-5.23 9.102-5.23c7.45 0 10.001-.658 18.217-6.848-3.769 1.638-10.299 1.753-14.996 1.835-2.821.05-4.98.088-5.482.437-8.625 6.008-20.213 5.713-21.056 3.918 0-.776 9.726-6.609 18.178-11.679 9.408-5.643 17.237-10.339 8.324-6.063-16.921 8.119-53.852 16.839-57.77 13.002-1.667-1.633 36.122-19.082 36.122-19.082-31.098 10.487-79.626 26.85-84.592 19.848 15.504-6.102 64.958-26.376 75.009-30.725-27.77 10.008-86.684 30.431-88.781 26.237-5.397-8.942 125.814-61.806 169.13-59.665 15.195 1.318 15.671 17.451 16.081 31.354 0 0 .28 9.467 1.037 13.057.881 4.176 3.499 8.012 6.012 11.691 3.595 5.265 6.972 10.211 4.727 15.382-3.559 6.221-15.974 4.744-20.526-1.658 1.17 5.404 5.127 11.813 11.41 11.813 7.062 0 20.038-15.828 18.959-24.526-.74-3.549-2.94-6.028-5.546-8.291.905-5.286-.219-6.832-1.609-8.742-.965-1.327-2.058-2.83-2.688-5.882-.513-2.491-.775-2.539-1.492-2.672-.746-.139-1.983-.368-4.507-3.53 0 2.229 1.625 3.901 3.031 5.349 1.517 1.562 2.78 2.862 1.472 4.317 5.793 3.388 3.32 5.194.449 6.749-2.822-2.47-5.12-5.242-6.085-9.471-.344-1.507-.877-4.188-1.127-6.849-1.05-11.178-2.743-29.216-17.684-30.232-5.159-.183-10.899.134-17.061.867-5.362-2.731-5.964-4.696-6.836-7.542-.601-1.963-1.33-4.344-3.837-7.684-11.113-14.809-28.467-11.818-45.975-8.8-17.817 3.07-35.792 6.168-47.511-9.437-17.075-22.738-16.904-76.184 11.646-72.111 15.834 2.259 16.594 19.299 17.145 31.632.361 8.094.632 14.16 5.014 12.689 19.718-6.616 14.719-44.524-11.058-53.397-33.045-11.374-44.794 23.017-39.087 52.333-17.365-9.308-14.353-22.102-5.334-38.323-4.047 0-7.292 1.63-8.83 3.904 0-2.343 3.964-8.979 10.252-13.277-13.012.482-19.709 9.329-22.025 18.016-3.777 14.161 7.801 23.439 16.708 30.576 6.928 5.552 12.239 10.966 7.451 15.217-11.059 4.124-19.176 13.068-17.136 27.281 2.404 16.757 14.965 23.634 24.157 16.757 4.51-3.373 7.053-10.581 4.966-16.46 8.555 12.55 30.144 13.884 46.912 14.919 9.82.607 17.987 1.111 20.913 3.707-22.586-.398-38.627 3.227-51.088 6.042-14.725 3.327-24.449 5.524-34.063-1.38-7.672-5.51-11.185-15.173-14.776-25.051-4.718-12.977-9.571-26.328-24.166-31.126-13.455-4.423-28.817-2.787-43.095-1.266-15.824 1.686-30.316 3.23-39.404-3.775-15.577-12.007-1.952-31.563 7.715-45.438 4.192-6.017 7.64-10.965 7.64-13.767 0-6.797-4.264-12.331-8.033-17.221-4.425-5.742-8.166-10.597-3.512-15.565.745-.796 1.855-1.847 3.512-2.998 7.223-5.018 20.737-14.127 17.438-34.802-4.364-27.344-44.123-30.012-55.779-13.62-13.698 19.265-1.121 42.602 24.026 54.578 9.113 4.34 13.074 28.138-.053 41.602-10.035 10.293-23.705 7.768-25.871 3.525 10.729 4.775 17.354 1.121 23.664-5.999 8.544-9.64 11.447-22.5-2.692-33.839-3.934-3.155-7.968-5.838-11.856-8.424-11.37-7.563-21.487-14.292-24.183-29.539-5.299-29.97 15.828-45.265 46.648-43.452 22.025 1.295 39.88 13.823 41.013 25.449.601 6.161-1.373 11.74-3.459 17.637-4.112 11.621-8.661 24.478 5.191 45.463-10.364-26.09.419-44.392 7.526-56.454 4.913-8.365 11.155-19.473 9.538-26.728 30.425 8.456 48.834 31.025 44.714 58.334-3.261 21.617-34.206 28.635-41.902 13.72 6.159 0 30.147-6.402 32.801-24.327 1.181-21.808-21.629-26.056-35.613-17.926-19.462 11.316-17.064 34.041-8.775 44.358 14.572 18.139 42.274 13.989 53.489-2.105 5.473-7.854 16.689-30.672-9.101-63.598 9.336 4.887 37.786 23.259 21.51 51.622 12.432 0 17.472-1.744 24.3-7.685-11.428 16.166 2.059 30.52 21.373 26.279 8.388-1.842 18.815-8.4 18.815-18.594 0-9.59-11.239-23.651-28.389-21.694 16.234-7.829 41.792-1.386 40.965 23.412 35.101-4.825 57.681-3.915 70.4 0 7.531 2.317 26.659 10.573 38.704 39.702-26.99-26.587-51.671-35.059-105.891-29.129 32.154 0 82.139 12.077 102.971 37.332 5.362 7.497 14.102 19.472 30.279 18.529-11.855-2.679-24.186-22.863-11.855-31.671 8.007-5.719 25.928-9.235 47.276 12.538-4.168-14.202-25.916-29.648-43.766-23.58 4.62-9.796 29.569-10.226 41.897 0 19.267 15.981 27.966 36.008 29.656 61.555 0 13.285-2.477 15.234-9.203 24.897-1.456 2.093-9.352 12.237-10.738 14.363-6.163 9.456-7.179 17.113-3.699 31.139-4.996-.493-9.653-3.419-8.843-14.07.724-9.511 5.726-16.135 10.645-22.649 5.63-7.456 11.152-14.769 10.024-26.103-.876-8.808-10.606-12.496-19.269-10.088-7.02 1.952-10.539 12.671-6.276 20.072 3.376 5.862 13.75 4.061 11.507-1.397-.372-.904-1.197-.685-2.234-.408-1.67.445-3.89 1.037-5.648-2.686-2.389-5.057.275-9.027 4.078-10.587s15.993-2.956 14.376 13.084c-.588 5.836-6.051 13.258-11.544 20.723-6.077 8.257-12.191 16.565-11.791 22.837.47 7.366 4.083 10.524 8.699 14.559 2.203 1.925 4.634 4.05 7.061 6.928 4.331 5.133-7.514 17.055-7.514 17.055 1.146-6.816 1.4-12.509-2.924-16.063-1.021-3.553-4.415-7.335-12.858-12.53-1.466-1.391-1.547-2.608-1.634-3.894-.096-1.437-.198-2.96-2.246-4.907-3.247-6.41.099 6.141 1.753 8.801.571.918 2.501 2.43 3.724 3.915 2.274 2.761 4.464 6.153 5.494 8.615 3.226 7.708 1.292 23.666-4.457 33.155 1.614-.815 2.829-1.07 3.88-1.291 1.365-.286 2.451-.514 3.771-1.835 2.13 24.164-3.323 37.276-10.285 49.214-2.996 5.135-5.934 10.269-7.928 16.75ZM429.115 824.76c7.677 10.051 24.792 21.551 33.38 23.667 44.85 57.405 65.017 72.061 70.896 63.382 20.611 40.185 71.3 92.051 79.05 89.141 0-19.932-26.36-76.407-61.977-143.556 1.041-3.5 4.503-3.513 7.838-3.526 4.763-.018 9.266-.036 6.08-10.207 7.27-6.587 4.079-9.146.973-11.636-3.433-2.753-2.911-10.38-1.149-11.93 1.399-1.231 2.675-2.354 1.81-5.173-1.649-3.174-1.698-2.746-1.844-1.465-.177 1.552-.496 4.355-3.972 3.526-2.215.317-1.376 3.844-.362 8.109 1.251 5.258 2.768 11.637-.844 14.501-.974.772-2.748 1.053-4.691 1.361-4.173.661-9.125 1.446-8.616 7.473a3198 3198 0 0 0-7.596-14.109c14.693-1.38 16.988-7.04 18.618-17.335 1.508-9.533 6.033-8.856 10.697-8.159 2.4.359 4.836.724 6.917-.295-6.44 6.93-11.641 20.768-5.887 23.855-2.421-4.64 4.039-18.373 13.143-12.428-5.419-.67-3.829 5.291-1.869 12.636 2.42 9.071 5.403 20.253-3.558 23.665-1.829 13.013-11.534 13.405-17.158 10.805 16.478 25.118 32.065 50.337 36.475 66.803 3.351-23.967-2.266-32.057-6.022-37.467-3.584-5.161-5.475-7.885 3.73-19.63 1.174-18.372 4.975-19.82 12.706-22.766 4.875-1.858 11.313-4.311 19.642-11.981-2.281 6.378-7.674 9.58-12.665 12.543-7.04 4.18-13.281 7.885-8.87 19.359-11.579 12.455-7.779 19.263-3.529 26.878 2.303 4.125 4.737 8.488 4.93 14.113 7.8-7.983 4.226-16.045 1.105-23.085-3.39-7.647-6.245-14.087 6.598-17.906-2.89-16.529 23.141-22.656 35.542-23.841-17.803-8.061-19.661-27.844-11.582-37.046 9.931-11.312 26.379-11.253 35.586-3.088 12.869 11.414 9.485 24.37 1.394 29.645-13.167 7.427-25.398-3.306-23.297-12.836 2.404-8.115 6.259-5.684 9.655-3.541 2.346 1.48 4.473 2.822 5.752.453 2.45-4.538-3.149-9.332-7.891-7.96-7.472 1.585-8.843 6.102-9.581 9.072-1.832 7.372 3.502 23.362 19.6 23.086 28.529 0 28.896-25.197 15.972-41.148 1.358-10.941-8.302-11.385-12.672-9.634 1.314-1.733 2.887-2.67 4.375-3.557 2.746-1.637 5.201-3.1 5.201-9.069 13.609-3.966 21.388-12.114 28.903-19.985 5.34-5.593 10.547-11.046 17.617-14.761 10.98-4.638 29.826-38.267 36.95-51.851 4.395-3.298 3.808-8.403 2.788-13.443-.763-3.771-1.532-7.569-.046-10.705 13.29-28.037 39.72-64.632 57.598-86.286 15.921-18.892 31.922-36.3 43.653-63.067 2.304-5.258 1.035-16.128-.263-27.242-1.418-12.139-2.87-24.57.263-30.301 1.987 8.172 14.525 12.207 20.095 10.978 13.492-2.975 21.996-13.2 25.618-24.032 5.876-17.571-10.945-30.796-22.367-29.412-17.84 2.163-20.609 16.833-17.408 24.556 6.314 15.239 27.002 24.092 28.83-9.151 11.899 14.754-9.541 34.364-18.605 31.563-9.064-2.802-16.163-15.692-16.163-25.404 0-11.275 6.058-24.535 20.095-26.881 7.055-1.18 8.752-5.03 10.639-9.315 1.758-3.99 3.681-8.357 10.254-11.291 4.872-2.176-2.618-16.008-11.147-29.913-3.325-5.421-7.351-10.364-10.05-15.365-2.825-4.708-1.151-20.912 8.838-31.134-9.509 7.22-11.454 15.468-13.136 22.995-1.014 4.54-1.959 8.77-4.468 12.246l-4.117 3.446c0-3.894 1.531-6.768 3.121-9.752 1.493-2.804 3.039-5.706 3.415-9.643.7-7.333 3.427-12.749 7.498-17.915 1.187-1.507 4.298-3.503 5.262-4.887 14.103 0 10.627-70.731-30.291-75.595 41.807 31.698 31.2 58.208 28.027 66.136 0 0-4.442 8.428-7.901 10.952-2.478 1.808-5.15 3.656-7.705 6.894l.006-.009c6.084-8.828 17.256-25.038 9.104-44.124-1.836-.211-1.742 2.681-1.601 7.026.283 8.728.756 23.317-13.835 30.388-.481-2.419 1.865-6.398 4.488-10.846 4.064-6.892 8.791-14.911 4.695-19.993-2.282-3.339-2.07-4.229-1.786-5.42.274-1.154.616-2.592-1.178-6.817-5.505-27.093-21.823-32.032-31.957-35.099-2.231-.675-4.163-1.26-5.613-1.97-3.595-1.761-7.12-6.226-10.783-10.865-3.553-4.501-7.236-9.167-11.24-11.688-12.931-8.144-35.152-3.765-37.63 3.406-1.544-.528-1.803-2.161-2.324-5.44-1.005-6.332-2.984-18.803-17.07-41.306-6.084-25.379-11.929-34.995-30.111-42.246 2.43-1.736 11.615-8.294 27.667 8.116-2.095-3.89-13.199-19.62-25.881-16.115-12.693 3.508-25.041 2.116-34.952.998-8.235-.928-14.788-1.667-18.459.751-18.157 11.96-63.994 17.548-72.136 14.749-11.565-3.976-15.814-8.289-20.069-12.609-2.7-2.741-5.403-5.485-9.98-8.147-2.875-1.672-7.32-3.091-11.754-4.506-5.394-1.722-10.771-3.438-13.289-5.6-13.101-11.252-9.997-18.833-7.671-24.513 7.196-14.999 22.732-19.911 34.737-18.224 0 0-13.629 1.81-15.354 9.605 5.87-3.232 11.738-4.25 14.545-4.25.574 2.07-.566 4.735-1.959 7.996-3.284 7.682-7.978 18.666 4.999 32.914 4.536 4.981 26.244 24.886 47.205 21.924-37.974-15.346-35.979-45.332-24.472-60.963 13.494-17.024 46.374 4.597 47.612 28.138 0 23.486-25.581 20.513-32.806 8.726s-3.932-17.75-.516-20.236c3.777-2.75 11.42.833 10.182 9.98-1.364 10.081 29.9 9.181 7.425-15.48-18.936-20.778-40.391-3.936-31.897 20.166 6.108 17.331 20.469 27.929 50.248 21.807 7.185-1.477 19.543-11.52 12.159-41.034 18.205 15.635 7.985 29.138 3.53 35.023-1.024 1.353-1.743 2.303-1.743 2.785 5.239 3.557 12.504 0 16.187-6.5 12.996-22.93-28.811-46.124-34.449-48.745-50.963-23.692-107.892-7.672-114.575-3-18.706 13.078-16.828 31.128-6.251 45.234 12.174 16.237 57.982 34.585 77.956 39.508 1.611.397 5.987.901 11.817 1.572 16.644 1.916 45.133 5.196 54.924 11.247 13.308 8.224 20.004 24.823 10.578 29.656-.865-.307-1.423-1.894-2.23-4.184-3.271-9.29-10.619-30.154-59.013-24.042 30.514 12.615 33.172 28.776 34.823 42.946l2.123 12.775s36.401 19.297 22.574 45.309c1.723-26.474-16.969-37.152-30.174-34.669-3.474-8.657-3.319-16.715-3.179-24.048.2-10.358.371-19.271-9.749-26.385-10.115-7.11-18.189-8.161-25.827-9.155-8.421-1.095-16.311-2.122-25.819-11.123-17.367-16.44-40.747-25.461-58.448-32.292-9.547-3.684-17.442-6.73-21.85-9.959-53.068-38.877-84.355-35.433-96.876-30.725-5.934 2.231-16.266 9.194-26.087 15.854-12.205 8.276-20.242 7.031-27.814 5.848-6.012-.939-11.754-1.836-19.018 2.129-5.942-19.588-42.249-18.136-54.697-16.975-3.705-22.066-34.677-43.841-45.202-45.62 39.57-17.384 29.79-34.514 1.965-47.477 17.896 36.916-22.56 40.862-43.604 42.433 20.599 4.064 36.954 18.504 41.639 25.985-16.559-9.374-31.989-15.688-53.182-18.463-4.444-.582-9.025-2.778-13.463-4.907-5.877-2.818-11.503-5.516-16.229-4.186-5.438 1.53-9.737 4.295-14.251 7.199-4.521 2.908-9.257 5.955-15.571 8.038-26.57 4.774-44.584 30.099-45.746 42.114-11.832-12.625-33.897-5.259-42.938 6.663-12.049 15.89-4.073 36.784 10.996 36.784 15.992 0 20.705-9.777 20.11-15.254-1.343-12.363-14.07-16.232-19.187-7.948-2.878 5.336-.923 11.488 3.973 13.09-14.57 2.332-12.182-19.517-4.896-25.142 8.5-6.563 19.014-4.724 26.779 8.247 1.096 1.831 1.646 3.976 2.213 6.187 1.26 4.915 2.604 10.161 10.221 13.04-15.985-1.708-19.873 9.295-23.289 18.962-1.25 3.537-2.436 6.895-4.128 9.386-.628-4.258-2.835-8.101-8.638-12.105 4.577 10.089 2.4 12.308-2.235 15.754s-9.208 5.545-16.948 3.446c6.759 8.664 17.31 7.349 22.065 4.385.965-.602 1.794-1.577 2.577-2.5 1.445-1.704 2.738-3.227 4.458-1.885 0 3.125 1.42 5.877 2.689 8.338 1.667 3.232 3.075 5.963.67 8.377-2.163 2.171-6.244 2.196-11.02 2.225-9.335.057-21.329.13-26.875 16.261-4.496 13.078-.184 19.692 4.785 27.312 1.637 2.511 3.346 5.132 4.834 8.129 4.144 8.346 12.135 18.625 19.8 19.263 15.532 10.15 27.364 22.681 29.1 30.265 4.041 17.651-8.604 41.562-36.36 42.668-14.462 0-16.903-12.413-13.654-19.123 11.013 6.363 19.021-4.522 20.914-11.855 4.018-15.561-11.451-32.682-26.541-27.545-25.828 8.792-19.695 44.558-10.512 63.807 10.49 21.991 36.6 28.742 52.732 18.835 16.133-9.907 24.755-28.847 28.45-55.097 7.631 28.375-2.472 47.449-17.623 53.165 1.503 2.803 8.3 4.371 21.546 1.932-3.089 4.915-11.954 5.954-22.922 7.239-15.46 1.812-35.098 4.112-48.618 18.452-24.789 26.292-24.652 61.994 3.101 83.015-27.92 27.873-19.79 67.69 19.983 104.093-67.707 45.296-60.665 121.311-35.129 147.32 22.224 22.635 73.27 17.585 91.584-2.978-13.21 37.513 8.526 70.039 38.299 73.496 41.768 4.849 57.208-19.646 62.6-66.175 4.741 22.541 3.263 30.399 0 44.228 1.592 1.132 5.839-1.514 11.446-5.007 8.862-5.522 21.121-13.16 31.669-11.348-7.003 20.644-6.173 29.999 5.929 40.266 2.684 2.277 5.738 5.753 8.816 9.256 4.12 4.689 8.281 9.426 11.653 11.397 2.901 1.696 7.544 1.499 12.683 1.238 0 0 10.154-.519 14.924.709 2.768.712 10.399 14.544 6.419 24.951-3.866 7.653-13.922 9.803-18.565-3.302-3.101-8.753 7.655-11.649 12.95-2.284 8.383-14.624-12.337-18.539-20.217-11.961-11.942 9.969-11.319 35.704 8.487 39.833 12.96 2.703 19.553-.24 26.342-6.765 9.992-9.603 6.746-28.264.192-40.472-3.114-7.277 24.432-7.399 39.536 3.773 9.59 7.094 4.74 21.178.708 23.268-2.497 1.293-6.434.889-10.214.502-5.453-.56-10.577-1.086-10.577 3.566.634 10.133 17.018 6.621 20.791 4.766 12.916-6.352 12.307-20.423 9.493-27.402 0 0-6.782-13.486-6.253-14.882 1.076-2.838 5.936-1.141 7.742.134 17.367 14.589 36.085 19.492 53.432 18.483Zm73.028-203.978c-4.753 42.364 5.03 73.058 36.565 93.877 15.919 10.509-2.068 43.734 8.056 75.46 51.122-19.183 54.097-39.624 67.495-33.794 39.597 17.229 81.153 4.748 94.626-12.697-16.557 13.723-55.638 29.11-96.261 6.582-10.741-2.434-23.797 25.172-65.062 37.769-8.854-28.11 7.872-57.34-3.741-73.32-35.85-27.004-38.261-49.723-41.678-93.877ZM446.91 519.723c-2.595-1.669-6.446-6.69-4.742-19.372-.868-.77-2.577-2.855-3.877-3.8-4.771-3.474-11.318-8.239-11.318-15.086 2.591 5.509 7.325 8.615 11.503 11.356 2.95 1.936 5.624 3.69 7.07 5.98 2.409 3.813 1.778 6.386 1.044 9.374-.719 2.93-1.537 6.259.32 11.548Zm19.453 94.528c3.038-5.087 6.112.247 3.604 1.07-7.939 2.607-7.067 5.654-6.258 8.481.567 1.98 1.103 3.853-1.445 5.389.682-1.284-.079-3.425-.884-5.692-1.559-4.39-3.285-9.248 4.983-9.248Zm5.158 3.439c-5.158 1.528-4.485 6.016-3.347 11.501-2.566 6.39-.902 8.209 2.086 11.477 1.134 1.239 2.458 2.687 3.815 4.672-3.398-6.917-6.694-22.324-2.554-27.65Zm-9.257 55.486c-3.325 11.527-.752 17.939 6.341 17.745-4.167-.138-6.461-5.378-5.584-7.368 2.65 5.768 9.729 6.121 10.558 1.748 1.37-7.235-8.795-.817-2.448 0-7.832 3.357-10.214-12.606 6.013-7.561-1.866-4.025-8.157-6.236-10.944-4.792-3.179-3.239 2.405-9.836 9.078.766.366-4.681-.595-6.658-1.357-8.226-.987-2.032-1.64-3.377 1.357-9.028-4.062 4.655-7.958 6.718-10.735 8.189-3.972 2.103-5.658 2.996-2.279 8.527Zm-69.616 5.614c26.991 31.828 60.989 63.757 74.376 61.145 7.58-1.48 1.15-22.745-13.005-49.014 52.745 89.087 149.971 267.517 156.04 305.715-4.962 1.823-53.056-46.962-76.265-88.015-18.057-26.947-35.296-55.628-52.694-91.052 0 0-11.8-26.6-16.458-38.021 2.271 6.039 7.74 23.643 7.055 26.191-3.594 1.019-59.038-72.234-86.027-127.99-4.225-10.232 4.217-2.215 6.978 1.041Zm-32.024 30.953c10.535 6.382 24.582 14.647 27.338 10.691 4.354-6.249-9.81-50.46-9.81-50.46 24.837 46.744 60.546 108.64 101.071 147.996 11.691 26.71 40.603 79.957 50.803 91.778-13.605 1.144-79.26-80.554-105.915-114.395 9.235 15.277 33.526 47.412 33.526 47.412-41.229-24.593-81.293-102.154-97.013-133.022ZM337.996 429.82c9.896-18.371 7.968-37.588-10.149-59.469-6.003.289-11.419-1.955-6.893-5.507-9.298 2.807-22.692 5.507-26.723 4.169-5.79-1.921-12.842 5.503-18.052 5.503s-8.712-6.25-1.227-11.262c-26.259 7.097-32.462 3.739-34.503 1.954s-1.583-2.489 4.401-5.935c-8.294 1.651-12.733 8.23-17.7 15.59-7.62 11.291-16.48 24.422-42.403 24.422-8.442 0-22.969 7.829-20.125 25.182-7.283-2.99-14.38-14.34-1.854-26.799-26.463 15.067-1.745 43.398 11.41 39.395 0-1.758-.338-3.612-.681-5.5-.904-4.965-1.851-10.167 3.176-14.493 8.055 1.976 28.048-12.488 45.905-25.407 12.828-9.281 24.554-17.764 29.96-18.782 8.471-2.3 12.041 5.05 15.043 11.228 1.907 3.926 3.584 7.378 6.142 7.58 10.942-12.887 19.254-17.278 34.16-16.278 21.346 1.431 37.26 25.494 30.113 54.409Zm-49.684-14.839c-6.128-10.039-2.355-20.712 5.825-24.266 6.336-2.751 15.912-.551 17.93.41 5.066 2.413 14.313 9.339 11.494 18.673 0-9.444-12.102-16.236-13.473-16.236 13.981 8.9 11.307 30.018-6.768 29.488-9.626-.283-22.31-10.098-34.286-19.366-11.157-8.633-21.7-16.792-28.585-16.326 2.482-1.869 4.107-4.004 5.552-5.901 1.798-2.362 3.316-4.355 5.856-5.008 9.035-2.326 8.863 7.183 7.22 9.749-3.167 4.947 14.646 22.481 29.235 28.783Zm12.569-3.126c-5.384 1.312-8.949-2.842-8.949-7.096 0-6.207 8.021-10.416 12.348-8.741 10.281 3.98 7.916 17.462-1.837 21.981 9.753-11.748 2.422-17.97-1.562-15.321-1.409.937-.379 2.59.66 4.259 1.279 2.054 2.572 4.131-.66 4.918Zm225.077 83.649c-9.349 12.905-13.183 24.219-15.085 32.244-1.281-6.027-.09-9.057 1.128-11.69 0 0 1.397-6.272 2.074-7.947 1.639-4.056 5.954-14.734 11.883-12.607Zm-71.095-143.137c6.601 3.713 5.26 14.487-8.77 10.677 4.909 3.022 13.934 7.602 17.115.919 4.65-9.77-2.725-29.612-21.19-39.718 7.578 7.584 8.566 14.678 9.303 19.975.529 3.801.929 6.677 3.542 8.147Zm11.023 20.136c3.001-.863 8.04-7.074 3.453-3.867-4.824 3.373-7.455 3.289-10.945 3.177-2.268-.072-4.9-.156-8.734.69 2.618 0 4.74.267 6.654.508 3.317.417 6.009.756 9.572-.508Zm-144.925 38.839c0 2.469 0 3.294-3.081 7.678.536-.393 1.392-.78 1.992-1.048 1.304-.577 2.448-1.095 2.22-2.267-.478-.829-.288-1.308-.107-1.766.248-.625.48-1.211-1.024-2.597Zm137.923-147.51c.655 4.199-3.096 9.974-5.189 11.782-.829.716.105 1.098 1.716 1.757 2.454 1.003 6.478 2.648 8.237 7.096 5.954 15.061-16.188 15.032-9.953 13.445 6.236-1.586 5.479-12.552 0-12.198-7.172.463-13.583 14.935-3.73 24.03 4.282 3.953 8.581 6.457 12.437 8.704 7.217 4.204 12.883 7.505 13.983 17.702-3.975-8.638-11.993-11.106-19.587-13.442-5.867-1.806-11.481-3.533-14.78-7.968-9.999-15.604-2.197-26.597 5.148-36.948 2.965-4.177 5.855-8.25 7.471-12.478 1.127-6.172-1.67-9.376-4.268-12.351-2.298-2.633-4.44-5.087-3.571-9.258.864 3.087 2.907 5.264 5.089 7.589 2.901 3.09 6.047 6.441 6.997 12.538Zm-118.841 18.534c5.33 4.872 13.399 5.757 22.259 2.479 10.1-4.13 11.028 8.133 10.1 14.345q-1.772.314-3.575.664c1.353-8.471-5.737-14.721-11.333-9.29-14.031-1.352-14.773-3.196-15.697-5.492-.338-.842-.702-1.745-1.754-2.706Zm-13.298-85.791c15.142 27.392 6.792 41.7.762 49.124 7.522-1.768 20.583-4.812 40.7 8.834-5.838-13.375-16.822-19.367-25.379-21.894-1.627-15.887-10.182-31.819-16.083-36.064Zm-115.523 28.777c9.507-3.169 14.757 7.287 3.465 13.293 7.42-.632 27.233 3.162 26.472 23.612 14.665-16.386 4.132-19.999-5.458-24.49-5.56-2.605-10.506-5.384-10.506-9.916 0-16.616-10.353-11.386-13.973-7.317-1.312 1.475-1.611.509-1.807-1.398-.345-3.355-.845-10.156-9.363-15.533 7.415 5.448 7.617 12.491 7.75 17.129.102 3.562.164 5.706 3.42 4.62Zm246.996-38.151c0-2.341 1.031-9.043 11.049-7.046-2.738-1.922-13.773-3.949-16.455 4.158s4.991 16.55 12.312 14.527c2.136-.59.801-1.688-1.242-3.368-2.359-1.94-5.664-4.658-5.664-8.271Zm-175.642 76.55c-11.127-12.274-15.799-43.217-4.645-60.755 10.045-15.795 29.919-.847 22.358 13.331-2.461.893-3.998-1.911-5.717-5.043-2.354-4.292-5.047-9.202-10.916-6.066-13.085 6.989-11.773 42.323-1.08 58.533Zm-17.359-1.029c-6.185-2.776-16.59 1.385-16.59 15.566 0 7.878 5.691 16.465 14.127 14.975 5.344-.944 9.71-10.531 5.065-14.975-2.433-2.327-7.818-.78-7.818.678 5.74-.282 7.348 7.228 2.753 8.353-5.216 1.278-8.155-2.499-8.766-6.6s3.039-8.822 6.81-9.315c3.26-.425 7.607.284 10.722 5.039-1.344-2.051-1.946-4.284-2.522-6.421-.76-2.816-1.474-5.464-3.781-7.3Zm-80.015-116.536c-3.959-18.466 12.331-33.256 21.602-31.072 10.767 2.537 10.563 12.86 8.568 18.723-3.803 11.176-25.466 11.047-17.134 5.106s11.769-17.13 1.174-17.13c-2.267 0-16.62 7.358-14.21 24.373Zm-16.622 82.921c7.436.911 16.095 1.04 29.17-1.256 1.367.739 2.743.409 3.951.12 1.949-.466 3.459-.828 3.785 3.567 2.459 3.171 10.698 3.676 7.66-3.687 8.754 5.345.515 9.885-4.664 9.403-1.258 2.601 1.654 3.788 5.411 4.127-3.884 1.026-6.815.226-9.051-1.292-1.664-1.128-.442-4.466.395-6.241 0 0 .713-1.358-7.487-3.391-4.739-.41-9.94.465-14.01.642-6.029.263-10.535-.189-15.16-1.992Zm124.108-91.626c4.981-7.043-17.032-2.156-17.578 8.505 0 8.238 15.097 12.28 23.151 7.827 9.936-5.493 9.592-16.332 6.324-20.742s-13.315-8.4-19.721-8.4c13.397 2.73 20.793 12.39 15.005 19.32-2.174 2.603-15.005 7.769-18.207 1.097-1.375-3.262.668-3.582 3.498-4.025 2.501-.392 5.617-.88 7.528-3.582Zm-170.615-4.527c-3.781-8.361.778-17.195 8.176-17.84 6.994 0 10.744 3.685 12.662 5.57 1.395 1.372 1.821 1.79 1.821-.856 0-16.549-12.05-19.591-21.663-16.673-10.685 3.244-20.07 20.319-8.467 31.796-13.998-8.935-7.997-26.266-2.666-31.796s20.072-13 34.182 1.076c4.022 4.012 11.858 33.983-8.29 36.953-9.757 1.439-12.969-6.562-5.146-17.71 5.021-7.155-14.39-8.157-10.609 9.48Zm378.093 614.564c3.778 6.969 11.906 18.523 11.906 18.523 4.526 7.086 4.145 10.875 3.65 15.792-.319 3.173-.685 6.816.189 12.12q-1.112-2-2.23-4.001c-1.835-5.381-1.643-8.709-1.473-11.654.164-2.845-.17-5.673-1.893-9.309 0 0-10.149-18.626-10.149-21.471Zm28.823 62.43c8.549-1.51 10.745-4.158 7.225-4.609-2.223 0-6.586-4.652-5.233-9.986 2.259 6.506 4.857 7.213 6.687 7.712.944.257 1.683.458 2.066 1.371 1.146 5.583-8.214 5.528-10.745 5.512Zm345.274-328.316c1.873 14.183 4.631 19.588 0 35.35 14.046-1.422 12.294-24.92 28.831-31.324-1.366-7.694-18.605 6.254-28.831-4.026ZM558.709 861.121c1.188 1.624 14.837-3.318 11.953-10.871 3.808-.444 1.601 11.77-4.931 14.104-3.197 1.143-6.46-.295-7.022-3.233Zm18.692-24.667c-1.569 5.095-13.504 5.413-7.888 10.52 3.638-4.053 7.188 3.186 5.34 8.075 7.077-4.889 8.331-11.381 2.548-18.595Zm-11.166-518.962c4.141 2.88 5.284 8.693 2.671 17.566-1.322 6.077-8.176 16.77-11.085 12.63 4.686-10.532 10.144-24.181-8.485-51.561 7.948 2.11 10.828 8.469 13.812 15.062.961 2.121 1.932 4.267 3.087 6.303Zm-18.492 55.011c4.003.928 8.28-3.322 10.146-6.867-.215.778-.123 1.842-.024 2.994.238 2.763.519 6.035-3.268 7.1-2.484.698-6.854-1.036-6.854-3.227Zm57.215-6.49c-18.703 9.868-8.47-15.463 1.84-13.268 16.128 3.432-6.199 32.67-16.372 26.469-11.626-8.864-2.464-25.754 11.99-46.591 8.575-12.361 18.093-31.375 15.826-56.632-1.453-16.19-9.718-24.088-15.826-29.914 5.636 7.987 9.681 16.653 11.83 31.044 3.3 22.103-6.916 38.147-17.277 54.419-6.334 9.948-12.722 19.981-16.109 31.535-3.614 12.335.184 20.631 8.245 22.998 8.958 2.63 21.984-6.205 26.158-14.495 6.64-13.189 2.929-19.12-3.6-22.327-14.367-7.056-25.355 15.187-22.558 22.327 2.212 5.647 10.965 4.529 15.853-5.565Zm31.971-36.267c10.305 5.312 4.756 27.726-4.333 31.057-2.858-.842-2.156-4.346-1.328-8.474 1.683-8.395 3.885-19.373-22.297-15.801 3.559-1.399 6.517-3.02 9.184-4.481 6.501-3.561 11.267-6.172 18.774-2.301Zm-13.005-11.239c-4.051 2.013-.851-8.61 8.672-11.319 10.675-3.037 24.15 9.646 21.831 19.886-.741-.565-1.491-1.681-2.391-3.022-3.664-5.455-9.825-14.631-28.112-5.545Zm-212.297-211.33c-11.177-1.924 4.229-13.908 27.337-13.908 11.365.848 16.709 7.213 22.135 13.676 3.093 3.684 6.213 7.4 10.489 10.145-19.634-9.913-41.212-16.646-59.961-9.913Zm-230.28-7.893c7.648-9.384 9.541-14.205 3.855-22.24-.924-7.589-14.345-19.874-17.485-12.74-.273.621.954 1.907 2.802 3.842 5.167 5.41 15.183 15.896 10.828 31.138ZM100.348 163.3c-8.435-9.37-14.824 9.296-9.307 18.532 4.525 7.574 21.306 21.227 33.468 3.684 7.674-11.068-4.443-34.729-30.858-40.427-18.095-3.904-27.718 7.166-29.41 21.86-.544 9.28 2.476 13.665 4.768 16.993 1.862 2.703 3.244 4.71 1.845 8.077-1.494 3.594-7.5 4.253-14.316 5.001-9.937 1.091-21.593 2.37-23.486 13.209 3.989-14.325 37.802-11.58 45.71-.971 3.612 3.721 7.69 15.157 0 21.578-3.28-14.13-17.205-23.231-27.045-14.13-9.29 10.74-.633 31.311 9.84 42.845 2.97 3.27 5.866 5.909 8.644 8.439 6.185 5.633 11.777 10.727 16.252 21.047 4.912 18.949-9.706 51.119-37.517 52.413-34.525 0-31.21-32.797-26.104-42.877 7.881-15.561 24.686-2.447 20.805 12.498 12.441-5.627 12.676-32.104-9.772-32.104-9.78 0-22.212 9.307-21.043 29.353.904 15.511 6.947 45.316 36.114 49.032 24.646 0 33.609-14.071 42.105-46.281 3.282-16.489-1.244-25.344-5.716-34.094-3.014-5.896-6.003-11.744-6.562-19.849-.876-12.685 2.698-27.643 20.146-31.397-.635 1.699-1.286 3.146-1.87 4.445-1.505 3.344-2.568 5.706-1.763 8.848 1.18.989 3.633 1.444 4.691 0 1.198 4.901.537 7.86-.1 10.72-.868 3.886-1.695 7.588 2.243 15.733 1.241 2.567 4.008 4.039 7.567 5.931 5.798 3.084 13.696 7.284 20.507 19.157 6.107 10.644 5.914 20.454 5.735 29.506-.128 6.497-.248 12.603 1.973 18.346 2.892 7.479 22.673 23.837 30.478 22.11-.063 7.742-.174 21.601 20.51 18.416 17.233-2.653 37.273-15.867 45.928-46.648 2.01-1.328 4.249 7.165 2.756 11.608 3.674 0 11.483-5.005 15.559-10.63-1.863-1.882-12.018-7.787-13.624-9.11-2.56-2.108-5.438-4.478-8.617-10.053-6.884 15.713-23.382 45.164-42.002 48.966-10.446 2.133-13.037-.822-16.684-11.051-39.544-5.48-36.632-31.994-28.522-51.841 6.103-14.934 31.295-34.298 47.561-19.464 16.405 17.379 3.651 35.955-5.3 42.464-17.344 10.049-26.872 2.146-28.27-6.509-2.815-17.431 26.415-33.052 31.818-13.295 5.933-7.151-2.788-20.727-16.089-17.757-7.168 2.492-14.55 8.447-17.954 14.561-9.182 16.491-1.034 30.572 11.653 32.111 7.737.938 39.495-4.285 46.733-28.915 5.085-17.307-20.625-38.744-57.384-40.657-22.424-1.166-47.261-16.645-37.005-41.81 3.207-7.872 7.169-14.906 19.878-29.977 2.418-2.868 4.865-10.721 2.262-18.34-3.749 14.514-9.612 35.65-34.208 35.65-16.328-1.344-26.72-13.96-30.553-23.739-2.424-6.183-6.884-29.111 10.723-33.312 13.454-3.209 22.683 5.248 26.278 9.07 5.321 5.656 8.668 16.19 2.154 22.709-5.208 5.213-18.113 7.551-20.405-2.575-1.349-5.957 2.417-6.939 5.513-7.746 3.555-.927 6.227-1.624-.731-9.353ZM33.656 387.358c17.338-16.362 33.805-18.09 70.688-18.09 6.982 0 20.676-8.742 27.144-20.017 3.582 1.486 6.057 3.679 8.83 6.136 3.561 3.154 7.611 6.742 15.122 9.821-1.256 2.439-.456 5.619.212 8.278.619 2.461 1.126 4.477-.212 5.046-26.271 11.184-29.863 40.834-8.157 58.531-3.715 3.479-14.335 6.11-25.385 2.783 3.245-4.943 5.557-13.263 0-22.776-13.329 17.522-27.34 21.949-46.057 27.863-5.032 7.003-8.38 5.136-8.38 5.136s-26.31-9.506-24.6-31.65c1.378-9.696 11.962-18.296 22.907-18.296 7.122 0 14.324 10.247 14.324 16.947 0 9.746-7.509 14.862-13.672 14.862-2.638 0-8.394-2.82-8.394-6.065 0-1.127.797-.55 2.057.361 1.451 1.05 3.124 2.393 5.685 2.393 20.165 0 6.937-21.571 0-21.571-4.754 0-14.83 1.642-16.832 13.731 0 22.631 33.45 28.453 43.973 6.727 4.122-8.512 7.006-35.31-20.156-41.391-25.31-5.666-43.482 18.72-43.482 42.995 0 7.243 1.06 13.735 5.121 22.977-9.03-2.02-21.602-45.039-.736-64.731Zm41.342-148.167c-.435 3.008-6.322 5.972-11.607 4.575-6.6-1.746-12.791-12.764-6.61-20.586.948-1.198 5.205-3.443 8.03-3.052 6.888.951 7.918 5.286 7.518 8.268-.462 3.443-5.24 6.991-9.36 1.256-4.587.527-4.758 7.156.422 10.868 2.081 1.492 8.553 2.264 11.607-1.329Zm39.699 14.874c0 7.666 14.036 16.797 23.924 22.546 1.9 1.648 1.954 2.779 2.179 7.558.079 1.678.18 3.806.389 6.563 3.597-8.836 11.124-17.769 22.887-21.392-2.183-2.084-10.227-3.696-17.481-3.696-13.978-1.25-23.947-3.913-31.898-11.579Zm98.382 5.485c17.803 5.926 15.502 15.705 13.9 19.416-15.239-15.988-32.095-18.718-47.203-21.164-6.358-1.03-12.405-2.009-17.893-3.905 14.73 1.783 23.061 1.339 29.169 1.013 8.02-.427 12.209-.651 22.027 4.64Zm26.166 49.984c8.875 7.567 15.192 6.733 24.927 11.047-8.713 1.406-12.685 1.189-15.76-1.357zm-132.78 116.5c12.92-15.977 10.433-26.054 5.851-33.636-2.273-3.762-7.575-9.189-16.088-13.288 15.315 1.167 29.3 7.637 30.368 15.124 1.178 8.259-3.155 18.397-20.131 31.8Zm-57.529 44.432c-9.733 29.346-8.048 60.975 18.524 92.297-21.515-16.602-36.17-31.363-41.898-50.964-4.214-14.419 7.41-41.333 23.374-41.333Zm31.156 83.832c4.337-17.061 14.617-21.464 34.675-21.464-11.936-18.437-14.326-39.351 10.376-62.368-28.63 11.46-35.096 31.168-32.234 52.737-14.38 4.128-19.717 22.958-12.817 31.095Zm62.285-3.632c-15.899-38.867 6.87-76.335 22.245-81.949 13.614-1.593 15.692-6.112 17.525-10.097 1.226-2.666 2.342-5.094 6.733-6.246 2.538-.666 4.54-12.528 0-20.442 1.922 14.286-12.002 22.802-19.568 24.857-24.93 5.964-51.374 13.354-54.545 48.307-1.363 15.021 13.477 32.303 27.61 45.57ZM78.582 699.7c-36.024-3.67-41.458-45.08-33.567-68.014 5.412-15.731 22.445-59.416 82.936-61.536-52.593-14.745-85.015 5.182-108.705 52.051C-1.423 663.094 23.37 729.43 78.582 699.7Zm-35.217 17.314c41.89 0 65.597-20.286 65.518-48.715-16.79 25.249-35.6 14.928-35.242-1.154 0-18.867 9.585-35.624 27.16-33.708 13.966 1.522 18.713 19.959 18.713 32.7-1.746 55.873-68.543 60.169-76.15 50.877Zm118.825-81.7c16.293 10.93 29.878 22.539 42.854 47.321-.472-2.749-.715-5.388-.955-8-2.521-17.727-5.94-39.463-15.117-47.859-12.083-11.055-30.914-11.14-49.798-11.225-8.316-.038-16.642-.075-24.407-1.049 7.278 5.216 14.126 8.874 20.805 12.441 11.188 5.976 21.903 11.699 33.379 24.073.519-3.622-1.432-6.488-3.419-9.407-1.353-1.988-2.723-4.002-3.342-6.295Zm-13.061 75.702c-26.162 9.295-18.435 38.67-4.313 38.67 23.921 0 48.925-29.164 29.592-58.755-15.392-21.612-35.293-9.915-51.441 7.561 2.719-3.192 4.881-7.613 7.134-12.219 5.151-10.531 10.776-22.028 24.593-22.028 24.222 0 42.669 51.828 27.458 85.441-13.201 24.686-48.98 22.988-57.307 4.854-8.929-19.448-3.749-45.247 24.284-43.524Zm20.398 64.552c7.38 0 18.765-3.285 28.089-16.834 3.363-4.888 4.092-24.007 4.838-36.601-.689 1.525-4.778 13.757-5.249 15.396l-.098.345c-4.779 16.721-6.277 21.964-27.58 37.694Zm49.537-78.687c3.466 13.31 5.466 27.673 3.466 43.054 3.497-7.488 9.517-15.015 15.119-22.01-2.499 0-5.154 1.599-7.34 5.118 2.321-11.384-11.245-26.162-11.245-26.162Zm58.414 85.213c1.692 1.478 14.894 5.894 25.531-.524-3.286 8.382-12.041 13.783-19.359 15.292-21.951 4.162-32.705-32.448-10.16-44.381-2.325 9.009-5.488 21.336 3.988 29.613Zm12.385 17.894c15.279-4.635 18.986-12 19.79-18.418 9.865-11.628 5.358-23.939 1.447-33.127 1.694 2.55 6.023 6.853 7.376 10.501 4.185 11.275 0 19.564-5.707 24.233 0 7.822-8.103 18.212-22.906 16.811Zm6.84-56.498c-7.231-1.197-17.58 11.694-8.565 21.324 6.403 6.84 14.602 3.719 14.871-.908.369-6.331-8.844-7.749-5.491-.393 0 2.286-5.369 2.714-7.655-.516-5.739-8.112.101-11.469 4.474-13.982 3.125-1.796 5.501-3.162 2.366-5.525Zm30.839 48.443c4.678-3.545 7.502-5.102 14.917-5.102 11.225-2.021 23.37 11.21 21.534 14.613-1.165 1.259-2.998-.129-5.835-2.277-5.541-4.197-14.913-11.294-30.616-7.234ZM61.756 615.51c23.357-22.388 60.174-29.751 81.618-18.166 2.717-19.439 4.535-30.878 19.425-52.764-6.01 4.506-18.716 23.026-20.422 41.656-50.2-3.819-60.69 3.762-80.621 29.274Zm-1.669 129.224c26.513 0 34.103-14.935 34.24-10.89.856 25.267 24.121 37.451 19.33 41.345-17.901-13.053-43.951-28.287-53.57-30.455Zm90.182-4.799c11.375-2.297 14.689-14.637 6.462-22.01 9.239 4.16 7.268 11.822 6.256 15.751-1.347 5.417-8.219 10.51-13.858 10.891-7.742.523-13.42-5.706-11.13-14.268 2.457-7.448 13.229-6.053 15.047-5.001 1.817 1.051 1.228 2.06.409 3.411-14.113-2.534-12.926 13.192-3.186 11.226Zm94.424 20.299c-14.62 0-32.327 12.48-33.249 34.81 0 9.182 5.775 22.257 17.442 25.08s-3.94-40.546 15.807-59.89Zm375.731-368.466c12.172-13.81 37.476-36.536 60.496-37.76-3.782 26.641-39.617 127.457-54.428 154.401 0 1.938.798 2.575 0 5.046-1.347 4.169-4.52 10.879-3.926 18.342 0 0 53.828-144.939 66.401-185.131-40.447 11.77-58.42 30.113-70.734 42.699-24.485 29.585-36.662 48.43-52.707 73.261-9.161 14.168-24.92 38.094-36.471 54.661 13.451-17.711 28.446-38.546 39.024-54.661 15.348-23.442 30.191-47.217 52.345-70.858Zm272.88 6.661c-2.831 8.372-9.992 15.983-22.706 14.44-5.585-.677-6.187.407-7.995 3.663-1.56 2.809-4.018 7.236-11.351 13.542 5.582-6.613 7.241-11.451 8.459-15.006 1.225-3.573 2.005-5.849 5.88-7.323 2.806-1.067 5.618-1.755 8.283-2.407 6.417-1.569 11.977-2.928 14.528-8.878 1.383-3.229 5.394-13.108 6.305-15.568 2.744 4.841.469 12.003-1.403 17.537ZM685.672 202.557c15.621 1.733 33.038 20.907 26.27 52.147-9.156 22.866-16.455 49.52-7 63.803 2.448 3.698 13.593 12.852 18.246 16.591-14.597-19.012-20.666-34.371-11.246-47.936-3.019-14.95-2.19-21.494 7.95-45.576-1.348-27.45-18.433-41.684-34.22-39.029Zm86.416 73.434c-15.101-1.11-28.505 3.766-37.332 15.724-12.051 16.328-1.305 38.12 5.573 34.119-11.176-20.318 1.739-40.822 27.957-34.846 19.357 4.412 31.801 17.379 20.511 38.758 3.052 1.959 4.73 4.318 6.412 6.684 2.88 4.049 5.774 8.118 15.593 10.236 6.593 1.422 10.9-1.182 15.278-3.828 3.419-2.066 6.881-4.159 11.509-4.381 15.495-1.509 16.299-4.202 17.114-6.928 1.582-2.789 2.314-8.952 2.235-12.865-.071-3.488-.265-6.625.875-7.648 17.227-15.462 13.97-35.058-6.561-49.946-9.046-6.559-14.902-8.25-19.459-9.566-2.233-.645-4.155-1.2-5.986-2.194-18.438-10.003-26.659-8.84-30.599-4.419-11.498 12.901 2.602 26.197 12.161 23.89 6.575-1.587 10.796-9.1 5.847-15.97-4.335-6.016-5.02-2.097-5.735 1.992-.502 2.868-1.018 5.82-2.817 5.49-4.97-.911-7.349-14.148 0-16.458 5.735-1.803 11.543 1.374 13.968 7.888 4.5 12.088-2.698 22.819-8.749 25.847-5.563 2.785-10.793 2.49-15.61 2.219-2.307-.13-4.52-.254-6.63-.032 3.619 2.873 4.287 6.817 4.849 10.131.321 1.899.608 3.591 1.394 4.756 7.464 4.999 9.749 7.698 11.354 11.851 4.621 11.955 4.1 13.208.701 21.398l-.049.118c19.281 28.429 37.362-38.675 24.247-72.16 18.534 4.754 30.575 20.523 31.868 32.13.65 5.837-2.727 10.826-5.765 15.317-2.766 4.087-5.252 7.76-4.168 11.283 3.091 14.097-7.006 16.271-16.52 18.32-3.864.832-7.632 1.644-10.381 3.225-10.371 14.124-23.499-1.068-25.086-9.052-.189-.948.367-2.318 1.022-3.929 1.427-3.514 3.321-8.177-1.022-12.129-3.409-2.225-14.755-13.729-13.367-19.301-5.053-23.602-15.169-34.359-24.333-41.805 8.587-8.324 21.62-23.654 2.727-47.901.482 1.692 1 3.357 1.507 4.989 3.186 10.25 5.981 19.244-2.829 25.988-6.888 5.273-14.841-35.632-10.673-55.458l.009-1.822c.06-9.478.151-23.628-7.311-31.053-6.24-6.21-17.631-8.737-32.677-9.579 8.072 4.774 20.089 11.969 19.344 24.635-.266 4.526 1.52 8.212 3.298 11.882 2.15 4.439 4.29 8.856 2.776 14.712-8.448-10.698-19.507-18.278-33.875-17.608 8.659 8.455 30.565 32.195 36.641 45.441 4.565 9.953 1.892 21.752.086 29.723-1.197 5.284-2.012 8.886-.086 9.152 5.883.814 23.185 8.078 30.764 22.98Zm101.51 77.16c3.67-5.919 6.038-10.689 3.24-13-2.828 4.245-5.262 7.261-7.695 10.276-2.434 3.016-4.867 6.032-7.695 10.277 2.434-2.224 4.558-2.314 6.388-2.391 2.422-.103 4.33-.184 5.762-5.162Zm-111.057-52.497c-4.5-.561 9.822-6.636 12.435-2.487.785 1.246 2.178 2.369 3.13 3.462 2.217 2.545 3.854 4.902 2.817 8.064-1.952-7.071-13.287-8.437-18.382-9.039Zm43.065-9.499c6.273 2.459 10.173 1.513 12.74 0s8.36-6.11 11.508-14.996c1.305 14.183 0 29.453-9.763 45.893 1.207-12.192 0-20.024-14.485-30.897Zm-23.481-46.264c-1.769-12.447 3.423-26.904 15.557-16.821 11.043-4.819 16.569 2.014 21.92 8.631 2.629 3.251 5.217 6.451 8.396 8.19-13.465-4.18-33.649-10.402-45.873 0ZM465.346 699.469c.412-1.171 1.811-2.516 3.893.177 3.337 4.314 3.948 8.219 4.587 12.698.581 4.077-1.124 5.905 1.775 11.844-5.28-9.411-14.148-25.73-14.148-25.73 3.295 3.198 3.588 2.241 3.893 1.011Zm60.653 97.058c-.258 1.709-.472 3.132.605 4.16.676 0 1.522.363 2.137 1.419.125.215.251.445.381.681 1.057 1.926 2.391 4.358 5.86 3.689-3.657-.847-4.798-4.987-5.981-9.28-1.148-4.164-2.335-8.473-5.899-10.059 3.778 3.538 3.288 6.794 2.897 9.39Zm66.392-534.525c4.862 1.696 6.503 2.268 10.025 9.169.602 1.178 1.4 1.754 2.156 2.299 1.394 1.006 2.64 1.905 2.226 6.287-4.28-6.475-10.783-11.559-14.918-14.792-3.708-2.899-5.511-4.308-2.095-3.895.966.36 1.827.661 2.606.932ZM288.536 733.676c-1.26.145-2.427.164-3.485.18-2.577.041-4.513.072-5.596 1.899-.514 1.393-2.038 3.098-3.436 4.663-1.605 1.796-1.906 3.64-1.462 4.382 3.409-3.326 8.373-9.217 13.979-11.124Zm-29.816 17.332c1.282-2.164 2.433-3.49 8.331-3.49-3.26 1.988-3.978 5.129-4.676 8.185-.646 2.83-1.276 5.588-3.892 7.294 1.423-4.25-.873-10.113.237-11.989Zm356.876-187.195c8.964-9.898 21.526-23.77 17.499-32.892-1.224 6.903-13.563 18.882-13.563 18.882s-13.305 17.591-11.778 23.626c1.052-2.118 4.14-5.528 7.842-9.616Zm209.897 1.239c-4.076 3.948-8.387 8.123-11.988 14.909 2.038-2.207 16.866-14.387 16.866-14.387 5.364-3.864 9.957-7.171 9.374-12.582 2.174-4.996.486-17.708-.236-22.494 0 20.737-6.492 27.266-14.016 34.554ZM554.404 402.859c0 17.154-14.195 31.06-31.706 31.06s-31.706-13.906-31.706-31.06 14.195-31.059 31.706-31.059 31.706 13.906 31.706 31.059Zm-53.491 8.546c-.215 3.666.51 11.173 10.577 15.203-6.925-7.849-5.511-16.233-2.531-19.331 2.979-3.099 6.838-3.324 9.519-2.232 5.038 2.052 8.906 15.522-3.882 16.644-2.023.178-.669-1.069 1.181-2.773 1.742-1.605 3.924-3.614 4.136-5.219.975-7.384-8.831-3.611-9.9 3.906-.761 5.348.426 7.321 7.617 7.321 9.473-.494 14.505-15.59 7.691-21.599-10.997-9.697-23.793-2.352-24.408 8.08Zm31.797-21.389c-6.704-.56-8.107 2.404-3.325 13.918.376 3.735 3.073 3.735 5.817 3.735s5.534 0 6.097 3.736c-5.37-2.831-8.264 2.15-11.262 7.308-2.679 4.609-5.44 9.361-10.124 8.807 7.531 8.263 19.668-1.493 25.014-14.265 1.574-3.478.517-14.684.517-14.684-1.357-3.399-1.298-7.599-12.734-8.555Zm-10.012 7.458c3.396-3.146 2.494-8.835-5.88-11.945-2.582 2.672-3.845 3.101-9.307 4.952 1.073.211 4.593.285 4.593.285 4.116.239 7.266.62 10.594 6.708Zm25.403-2.111c.983-2.3 7.45 4.17 3.985 9.682-.805 1.28-.491 3.372-1.04 5.412-1.052 3.905-3.081 8.185-6.839 10.172 3.267-6.932 5.815-14.15 3.894-25.266Zm-117.629-62.69c-.385-1.942-.702-3.546-3.302-5.576-7.039-3.7-7.637-6.546-8.223-9.33a47 47 0 0 0-.141-.653c2.234 3.829 6.601 6.015 10.457 7.945 3.693 1.849 7.366 2.564 7.793 5.161-.023 2.519-.27 8.373 5.607 17.667-10.778-8.08-11.572-12.086-12.191-15.214Zm37.681 1.775c1.945 3.486 4.836 8.673 1.186 20.439 3.141-1.475 8.918-4.189 5.358-8.599-1.044-1.293-1.476-3.081-1.955-5.056-.807-3.337-1.744-7.206-5.97-10.114.106 1.042.682 2.076 1.381 3.33ZM155.33 173.473c1.463 2.181 2.883 4.299 3.515 6.547 1.851 6.588-4.096 12.338-10.698 18.722-8.107 7.839-17.203 16.634-14.062 29.109 3.311-12.234 12.13-18.265 19.968-23.625 7.697-5.264 14.447-9.881 14.104-19.089-.127-3.414-4.06-7.331-8.261-11.514-3.446-3.431-7.072-7.042-8.923-10.701 0 4.054 2.224 7.37 4.357 10.551Z"
        class="path-7"></path>
</svg>
