<svg
    viewBox="0 0 401 632"
    width="100%"
    height="100%"
    fill="#fcc0a6"
    preserveAspectRatio="xMidYMid meet"
    xmlns="http://www.w3.org/2000/svg">
    <path
        d="M192.502 1c0 .5-1.8 1-4 1s-4 .4-4 1c0 .5-1.3 1-3 1-1.6 0-3 .4-3 1 0 .5-.9 1-2 1s-2 .4-2 1c0 .5-.7 1-1.5 1-1.9 0-12.5 10.4-12.5 12.3 0 .7-.9 1.9-2 2.7s-2 2.2-2 3.2-.4 1.8-1 1.8c-.5 0-1 1.3-1 3 0 1.6-.4 3-1 3-.5 0-1 .9-1 2 0 1.9-.7 2-20 2-12.7 0-20 .4-20 1 0 .5-1.3 1-3 1-1.6 0-3 .4-3 1 0 .5-1.3 1-3 1-1.6 0-3 .4-3 1 0 .5-.7 1-1.5 1-2 0-16.5 14.5-16.5 16.5 0 .8-.4 1.5-1 1.5-.5 0-1 1.2-1 2.6 0 5.2-1 5.4-25.4 5.4-14.4 0-22.6.4-22.6 1 0 .5-1.3 1-3 1-1.6 0-3 .4-3 1 0 .5-.8 1-1.8 1s-2.4.9-3.2 2-2 2-2.8 2c-1.7 0-8.2 6.5-8.2 8.2 0 .8-.9 2-2 2.8s-2 2.2-2 3.2-.4 1.8-1 1.8c-.5 0-1 .9-1 2s-.4 2-1 2c-.5 0-1 1.3-1 3 0 1.6-.4 3-1 3-.7 0-1 71.3-1 212s.3 212 1 212c.6 0 1 1.3 1 3 0 1.6.5 3 1 3 .6 0 1 .9 1 2s.5 2 1 2c.6 0 1 .9 1 2s.5 2 1 2c.6 0 1 .7 1 1.5 0 1.9 8.4 10.5 10.3 10.5.7 0 1.9.9 2.7 2s2.2 2 3.2 2 1.8.4 1.8 1c0 .5 1.4 1 3 1 1.7 0 3 .4 3 1s8.2 1 22.6 1c23.5 0 25.4.3 25.4 4.4 0 .9.5 1.6 1 1.6.6 0 1 .9 1 2s.5 2 1 2c.6 0 1 .7 1 1.5 0 1.9 10.4 12.5 12.3 12.5.7 0 1.9.9 2.7 2s2.2 2 3.2 2 1.8.4 1.8 1c0 .5 1.8 1 4 1s4 .4 4 1 7.3 1 20 1c19.3 0 20 .1 20 2 0 1.1.5 2 1 2 .6 0 1 1.3 1 3 0 1.6.5 3 1 3 .6 0 1 .8 1 1.8s.9 2.4 2 3.2 2 2 2 2.7c0 1.7 8.6 10.3 10.3 10.3.7 0 1.9.9 2.7 2s2.2 2 3.2 2 1.8.4 1.8 1c0 .5 1.4 1 3 1 1.7 0 3 .4 3 1 0 .5 1.8 1 4 1s4 .4 4 1 3.7 1 9 1 9-.4 9-1 1.8-1 4-1 4-.5 4-1c0-.6 1.3-1 2.8-1 1.6 0 3.4-.8 4.2-2 .8-1.1 2-2 2.7-2 1.9 0 16.3-14.6 16.3-16.5 0-.8.5-1.5 1-1.5.6 0 1-.9 1-2s.5-2 1-2c.6 0 1-1.2 1-2.6 0-5.1 1.2-5.4 22.4-5.4 12.4 0 19.6-.4 19.6-1s1.4-1 3-1c1.7 0 3-.5 3-1 0-.6.9-1 2-1s2-.5 2-1c0-.6.8-1 1.8-1s2.4-.9 3.2-2 2-2 2.8-2c1.7 0 8.2-6.5 8.2-8.2 0-.8.9-2 2-2.8s2-2.2 2-3.2.5-1.8 1-1.8c.6 0 1-.7 1-1.6 0-4 1.9-4.4 24.4-4.4 13.7 0 21.6-.4 21.6-1s1.4-1 3-1c1.7 0 3-.5 3-1 0-.6.9-1 2-1s2-.5 2-1c0-.6.7-1 1.5-1 2 0 14.5-12.5 14.5-14.5 0-.8.5-1.5 1-1.5.6 0 1-.9 1-2s.5-2 1-2c.6 0 1-1.4 1-3 0-1.7.5-3 1-3 .7 0 1-72 1-214s-.3-214-1-214c-.5 0-1-1.4-1-3 0-1.7-.4-3-1-3-.5 0-1-.9-1-2s-.4-2-1-2c-.5 0-1-.7-1-1.5 0-2-12.5-14.5-14.5-14.5-.8 0-1.5-.5-1.5-1 0-.6-.9-1-2-1s-2-.5-2-1c0-.6-1.3-1-3-1-1.6 0-3-.5-3-1 0-.6-8.3-1-23-1h-23v-3c0-1.7-.4-3-1-3-.5 0-1-.8-1-1.8s-.9-2.4-2-3.2-2-2-2-2.7c0-1.9-8.6-10.3-10.5-10.3-.8 0-1.5-.5-1.5-1 0-.6-.9-1-2-1s-2-.5-2-1c0-.6-.9-1-2-1s-2-.5-2-1c0-.6-1.8-1-4-1s-4-.5-4-1c0-.6-6.9-1-18.6-1-20.1 0-21.4-.3-21.4-5.4 0-1.4-.4-2.6-1-2.6-.5 0-1-.9-1-2s-.4-2-1-2c-.5 0-1-.7-1-1.5 0-2-14.5-16.5-16.5-16.5-.8 0-1.5-.5-1.5-1 0-.6-.9-1-2-1s-2-.5-2-1c0-.6-.9-1-2-1s-2-.5-2-1c0-.6-2.2-1-5-1-2.7 0-5-.5-5-1 0-.6-3.3-1-8-1s-8 .4-8 1m22 4c0 .5 1.4 1 3 1 1.7 0 3 .4 3 1 0 .5.9 1 2 1s2 .4 2 1c0 .5.7 1 1.5 1 2 0 14.5 12.5 14.5 14.5 0 .8.5 1.5 1 1.5.6 0 1 .9 1 2s.5 2 1 2c.6 0 1 1.3 1 3 0 1.6.5 3 1 3 .6 0 1 .7 1 1.6 0 4 1.9 4.4 24.4 4.4 13.7 0 21.6.4 21.6 1 0 .5 1.4 1 3 1 1.7 0 3 .4 3 1 0 .5.8 1 1.8 1s2.4.9 3.2 2 2 2 2.8 2c1.7 0 6.2 4.5 6.2 6.2 0 .8.9 2 2 2.8s2 2.2 2 3.2.5 1.8 1 1.8c.6 0 1 .9 1 2s.5 2 1 2c.6 0 1 .9 1 2 0 1.9.7 2 22 2 14 0 22 .4 22 1 0 .5 1.8 1 4 1s4 .4 4 1c0 .5.9 1 2 1s2 .4 2 1c0 .5.7 1 1.5 1 2 0 14.5 12.5 14.5 14.5 0 .8.5 1.5 1 1.5.6 0 1 .9 1 2s.5 2 1 2c.6 0 1 1.3 1 3 0 1.6.5 3 1 3 .7 0 1 71.3 1 212s-.3 212-1 212c-.5 0-1 1.3-1 3 0 1.6-.4 3-1 3-.5 0-1 .9-1 2s-.4 2-1 2c-.5 0-1 .7-1 1.5 0 2-12.5 14.5-14.5 14.5-.8 0-1.5.4-1.5 1 0 .5-.9 1-2 1s-2 .4-2 1c0 .5-1.8 1-4 1s-4 .4-4 1-8 1-22 1c-21.3 0-22 .1-22 2 0 1.1-.4 2-1 2-.5 0-1 .9-1 2s-.4 2-1 2c-.5 0-1 .8-1 1.8s-.9 2.4-2 3.2-2 2-2 2.8c0 1.7-4.5 6.2-6.2 6.2-.8 0-2 .9-2.8 2s-2.2 2-3.2 2-1.8.4-1.8 1c0 .5-1.3 1-3 1-1.6 0-3 .4-3 1s-7.9 1-21.6 1c-23.3 0-24.4.2-24.4 5.4 0 1.4-.4 2.6-1 2.6-.5 0-1 .9-1 2s-.4 2-1 2c-.5 0-1 .9-1 2s-.4 2-1 2c-.5 0-1 .7-1 1.5 0 2-12.5 14.5-14.5 14.5-.8 0-1.5.4-1.5 1 0 .5-.9 1-2 1s-2 .4-2 1c0 .5-1.8 1-4 1s-4 .4-4 1-4.7 1-12 1-12-.4-12-1-1.8-1-4-1-4-.5-4-1c0-.6-.8-1-1.8-1s-2.4-.9-3.2-2-2-2-2.8-2c-1.7 0-8.2-6.5-8.2-8.2 0-.8-.9-2-2-2.8s-2-2.2-2-3.2-.4-1.8-1-1.8c-.5 0-1-.9-1-2s-.4-2-1-2c-.5 0-1-1.4-1-3 0-1.7-.4-3-1-3-.5 0-1-.9-1-2 0-1.9-.7-2-23-2-14.7 0-23-.4-23-1s-.9-1-2-1-2-.5-2-1c0-.6-.9-1-2-1s-2-.5-2-1c0-.6-.7-1-1.5-1-2 0-12.5-10.5-12.5-12.5 0-.8-.4-1.5-1-1.5-.5 0-1-.9-1-2s-.4-2-1-2c-.5 0-1-.7-1-1.6 0-4-1.9-4.4-24.4-4.4-13.7 0-21.6-.4-21.6-1s-1.3-1-3-1c-1.6 0-3-.5-3-1 0-.6-.9-1-2-1s-2-.5-2-1c0-.6-.8-1-1.8-1s-2.4-.9-3.2-2-2-2-2.8-2c-1.7 0-6.2-4.5-6.2-6.2 0-.8-.9-2-2-2.8s-2-2.2-2-3.2-.4-1.8-1-1.8c-.5 0-1-1.4-1-3 0-1.7-.4-3-1-3-.7 0-1-72-1-214s.3-214 1-214c.6 0 1-1.4 1-3 0-1.7.5-3 1-3 .6 0 1-.8 1-1.8s.9-2.4 2-3.2 2-2 2-2.8c0-1.7 4.5-6.2 6.2-6.2.8 0 2-.9 2.8-2s2.2-2 3.2-2 1.8-.5 1.8-1c0-.6.9-1 2-1s2-.5 2-1c0-.6 1.4-1 3-1 1.7 0 3-.5 3-1 0-.6 7.9-1 21.6-1 22.5 0 24.4-.4 24.4-4.4 0-.9.5-1.6 1-1.6.6 0 1-.9 1-2s.5-2 1-2c.6 0 1-.7 1-1.5 0-2 10.5-12.5 12.5-12.5.8 0 1.5-.5 1.5-1 0-.6.9-1 2-1s2-.5 2-1c0-.6.9-1 2-1s2-.5 2-1c0-.6 7.8-1 21.5-1 21.6 0 21.6 0 24-2.5 1.4-1.3 2.5-3.6 2.5-5s.5-2.5 1-2.5c.6 0 1-.9 1-2s.5-2 1-2c.6 0 1-.8 1-1.8s.9-2.4 2-3.2 2-2 2-2.8c0-1.6 4.5-6.2 6.1-6.2.6 0 2.4-1.4 3.9-3 1.5-1.7 3.5-3 4.4-3s1.6-.5 1.6-1c0-.6 1.8-1 4-1s4-.5 4-1c0-.6 5-1 13-1s13 .4 13 1" />
    <path
        d="M188.502 19c0 .5-.9 1-2 1s-2 .4-2 1c0 .5-.7 1-1.5 1-2 0-10.5 8.5-10.5 10.5 0 .8-.4 1.5-1 1.5-.5 0-1 1.3-1 3 0 1.6-.4 3-1 3-.5 0-1 2.2-1 5 0 2.7.5 5 1 5 .6 0 1-1.8 1-4s.5-4 1-4c.6 0 1-.9 1-2s.5-2 1-2c.6 0 1-.9 1-2s.5-2 1-2c.6 0 1-.7 1-1.5 0-2 6.5-8.5 8.5-8.5.8 0 1.5-.5 1.5-1 0-.6 1.4-1 3-1 1.7 0 3-.5 3-1 0-.6 3.7-1 9-1s9 .4 9 1c0 .5.9 1 2 1s2 .4 2 1c0 .5.7 1 1.5 1 2 0 10.5 8.5 10.5 10.5 0 .8.5 1.5 1 1.5.6 0 1 .9 1 2s.5 2 1 2c.6 0 1 1.3 1 3 0 1.6.5 3 1 3 .6 0 1 1.3 1 3 0 1.6.5 3 1 3 .6 0 1-2.3 1-5 0-2.8-.4-5-1-5-.5 0-1-1.4-1-3 0-1.7-.4-3-1-3-.5 0-1-.8-1-1.8s-.9-2.4-2-3.2-2-2-2-2.8c0-1.7-2.5-4.2-4.2-4.2-.8 0-2-.9-2.8-2-.8-1.2-2.6-2-4.2-2-1.5 0-2.8-.5-2.8-1 0-.6-4.7-1-12-1s-12 .4-12 1" />
    <path
        d="M199.802 33.5c-.7.8-1.3 2.6-1.3 4s-.4 2.5-1 2.5c-.5 0-1 .7-1 1.5 0 2-6.5 8.5-8.5 8.5-.8 0-1.5.4-1.5 1 0 .5-.9 1-2 1s-2 .4-2 1c0 .5.9 1 2 1s2 .4 2 1c0 .5.7 1 1.5 1 2 0 8.5 6.5 8.5 8.5 0 .8.5 1.5 1 1.5.6 0 1 1.2 1 2.6 0 2.3 2 5.4 3.4 5.4.3 0 .6-1.4.6-3 0-1.7.5-3 1-3 .6 0 1-.7 1-1.5 0-2 10.5-12.5 12.5-12.5.8 0 1.5-.5 1.5-1 0-.6-.7-1-1.5-1-2 0-12.5-10.5-12.5-12.5 0-.8-.4-1.5-1-1.5-.5 0-1-1.4-1-3 0-3.3-.8-3.7-2.7-1.5m-87.3 23.5c0 .5-1.1 1-2.5 1-2.8 0-13.5 9.9-13.5 12.5 0 .8-.4 1.5-1 1.5-.5 0-1 .4-1 1 0 .5.9 1 2 1s2-.7 2-1.5c0-2 10.5-12.5 12.5-12.5.8 0 1.5-.5 1.5-1 0-.6 7.3-1 20-1s20-.4 20-1-7.3-1-20-1-20 .4-20 1m138 0c0 .6 7 1 19 1s19 .4 19 1c0 .5.9 1 2 1s2 .4 2 1c0 .5.7 1 1.5 1 1.9 0 6.5 4.4 6.5 6.2 0 .8.9 2 2 2.8s2 2.2 2 3.2.5 1.8 1 1.8c.6 0 1-1.4 1-3 0-1.7-.4-3-1-3-.5 0-1-.7-1-1.5 0-2-6.5-8.5-8.5-8.5-.8 0-1.5-.5-1.5-1 0-.6-.9-1-2-1s-2-.5-2-1c0-.6-7.3-1-20-1s-20 .4-20 1m-78 7.5c0 2.9-4 7.5-6.5 7.5-2.3 0-1.9.8 2.5 5 2.2 2.1 4 4.6 4 5.4 0 .9.8 1.6 2 1.6s2-.7 2-1.6c0-.8 1.8-3.3 4-5.4 4.4-4.2 4.8-5 2.5-5-2.5 0-6.5-4.6-6.5-7.5 0-1.8-.5-2.5-2-2.5s-2 .7-2 2.5m54-.9c0 .8-1.8 3.3-4.1 5.5l-4.1 3.9 3.1 2.9c1.7 1.6 3.1 3.6 3.1 4.5s.5 1.6 1 1.6c.6 0 1 .9 1 2s.5 2 1 2c.6 0 1-.9 1-2s.5-2 1-2c.6 0 1-.7 1-1.6s1.4-2.9 3.1-4.5l3.1-2.9-4.1-3.9c-2.3-2.2-4.1-4.7-4.1-5.5 0-.9-.4-1.6-1-1.6-.5 0-1 .7-1 1.6m-135.7 20.9c-2.9 3.1-2.9 4 .2 7.1l2.5 2.5 2.5-2.5c1.4-1.4 2.5-3 2.5-3.6 0-1-4.5-6.1-5.2-5.9-.2 0-1.3 1.1-2.5 2.4m213 1c-3.8 4-4 4.5-1.3 4.5 1.3 0 2 .7 2 2s.7 2 2 2 2-.7 2-2 .7-2 2-2 2-.7 2-2-.7-2-2-2-2-.7-2-2c0-2.7-1-2.4-4.7 1.5M38.502 87c0 .5-1.3 1-3 1-1.6 0-3 .4-3 1 0 .5-.7 1-1.5 1-2 0-8.5 6.5-8.5 8.5 0 .8-.4 1.5-1 1.5-.5 0-1 .9-1 2s-.4 2-1 2-1 5-1 12.9c0 9.4-.3 13.1-1.2 13.5-1 .5-1 .7 0 1.2.9.4 1.2 41.1 1.2 198.5 0 131.3.3 197.9 1 197.9.6 0 1 1.1 1 2.5 0 2.9 7.9 11.5 10.5 11.5.8 0 1.5.4 1.5 1 0 .5 1.4 1 3 1 1.7 0 3 .4 3 1s7 1 19 1c18.3 0 19-.1 19-2 0-1.7-.7-2-4.5-2h-4.5l-47-47V137l47-47h4.5c3.8 0 4.5-.3 4.5-2 0-1.9-.7-2-19-2-12 0-19 .4-19 1m4 4.5c0 2-18.5 20.5-20.5 20.5q-1.5 0-1.5-3c0-1.7.5-3 1-3 .6 0 1-.9 1-2s.5-2 1-2c.6 0 1-.7 1-1.5 0-1.9 4.4-6.5 6.2-6.5.8 0 2-.9 2.8-2 1.8-2.5 9-2.9 9-.5m20-1c0 1.3-39.2 39.5-40.5 39.5-1.2 0-1.5-1.3-1.5-5.5V119l14.3-14.4 14.2-14.4 6.8-.1c3.7-.1 6.7.1 6.7.4m-19.5 431c10.7 10.7 19.5 19.7 19.5 20s-2.9.5-6.5.5h-6.5l-29-29v-5.5c0-4.2.3-5.5 1.5-5.5.8 0 10.3 8.8 21 19.5m-12 6c4.1 4.1 7.5 8.1 7.5 9 0 .8.7 1.5 1.6 1.5 1.5 0 4.4 2.3 4.4 3.4 0 .3-1.8.6-4 .6s-4-.5-4-1c0-.6-1.1-1-2.5-1-2.9 0-9.5-5.9-9.5-8.5 0-.8-.4-1.5-1-1.5-.5 0-1-.9-1-2s-.4-2-1-2c-.5 0-1-1.4-1-3 0-4.7 2.3-3.7 10.5 4.5m291.5-440.9c0 1.9 3.4 3.4 7.9 3.4h5.1l45 45v181.5c0 164.3-.1 181.5-1.6 181.5-1.8 0-4.4 2.3-4.4 3.9 0 1.7-34.8 36.1-36.5 36.1-.8 0-1.5.9-1.5 2 0 1.8-.7 2-5.6 2-5 0-8.4 1.4-8.4 3.4 0 .3 9.5.6 21 .6 13.3 0 21-.4 21-1s.9-1 2-1 2-.5 2-1c0-.6.8-1 1.8-1s2.4-.9 3.2-2 2.2-2 3.2-2c1.1 0 1.8-.7 1.8-1.8 0-1 .9-2.4 2-3.2 1.2-.8 2-2.6 2-4.2 0-1.5.5-2.8 1-2.8.7 0 1-70.7 1-210s-.3-210-1-210c-.5 0-1-1.3-1-2.8 0-1.6-.8-3.4-2-4.2-1.1-.8-2-2-2-2.8 0-1.8-2.5-4.2-4.4-4.2-.9 0-1.6-.5-1.6-1 0-.6-.9-1-2-1s-2-.5-2-1c0-.6-.9-1-2-1s-2-.5-2-1c0-.6-7.7-1-21-1-11.5 0-21 .3-21 .6m58 30.4v6.5c0 3.6-.2 6.5-.5 6.5s-9.3-8.8-20-19.5-19.5-19.7-19.5-20 2.9-.5 6.5-.5h6.5zm-14-26c0 .5.7 1 1.5 1 2 0 10.5 8.5 10.5 10.5 0 .8.5 1.5 1 1.5.6 0 1 1.8 1 4s-.2 4-.5 4c-.7 0-21.5-20.8-21.5-21.5 0-.3 1.8-.5 4-.5s4 .4 4 1m14 417.5v6.5l-27 27h-6.5c-3.6 0-6.5-.2-6.5-.5 0-.8 38.4-39.3 39.3-39.4.4-.1.7 2.8.7 6.4m0 15.5c0 2.2-.4 4-1 4-.5 0-1 .7-1 1.5 0 2-8.5 10.5-10.5 10.5-.8 0-1.5.4-1.5 1 0 .5-1.8 1-4 1s-4-.2-4-.5c0-.8 20.4-21.3 21.3-21.4.4-.1.7 1.7.7 3.9m-289.7 16.5c-2.9 3.1-2.9 4 .2 7.1l2.5 2.5 2.5-2.5c1.4-1.4 2.5-3 2.5-3.6 0-1-4.5-6.1-5.2-5.9-.2 0-1.3 1.1-2.5 2.4m214 0c-2.9 3.1-2.9 4 .2 7 2.9 3 3.5 3.1 3.5.5 0-1.1.5-2 1-2 .6 0 1-.9 1-2s-.4-2-1-2c-.5 0-1-.9-1-2 0-2.6-1-2.4-3.7.5m-132.3 9.1c0 .8-1.8 3.3-4 5.4-4.4 4.2-4.8 5-2.5 5 2.5 0 6.5 4.6 6.5 7.5 0 1.8.5 2.5 2 2.5s2-.7 2-2.5c0-2.9 4-7.5 6.5-7.5 2.3 0 1.9-.8-2.5-5-2.2-2.1-4-4.6-4-5.4 0-.9-.8-1.6-2-1.6s-2 .7-2 1.6m54 0c0 .8-1.8 3.3-4.1 5.5l-4.1 3.9 4.1 3.9c2.3 2.2 4.1 4.7 4.1 5.5 0 .9.5 1.6 1 1.6.6 0 1-.7 1-1.6 0-.8 1.8-3.3 4.1-5.5l4.1-3.9-3.1-2.9c-1.7-1.6-3.1-3.4-3.1-4.1 0-1.2-2.4-4-3.4-4-.3 0-.6.7-.6 1.6m78 8.2c0 1-.9 2.4-2 3.2s-2 2-2 2.8c0 1.7-2.5 4.2-4.2 4.2-.8 0-2 .9-2.8 2s-2.2 2-3.2 2-1.8.4-1.8 1-7 1-19 1-19 .4-19 1 7.3 1 20 1 20-.4 20-1 1.1-1 2.5-1c2.9 0 11.5-7.9 11.5-10.5 0-.8.5-1.5 1-1.5.6 0 1-1.4 1-3 0-1.7-.4-3-1-3-.5 0-1 .8-1 1.8m-208 2.7c0 2.8 9.9 13.5 12.5 13.5.8 0 1.5.4 1.5 1s7.7 1 21 1 21-.4 21-1-7-1-19-1-19-.4-19-1-1.1-1-2.5-1c-2.8 0-13.5-9.9-13.5-12.5 0-.8-.4-1.5-1-1.5-.5 0-1 1.1-1 2.5m103.3-1c-.7.8-1.3 2.6-1.3 4s-.4 2.5-1 2.5c-.5 0-1 .7-1 1.5 0 1.8-6.4 8.5-8 8.5-.6 0-1.8.7-2.6 1.5-1.4 1.3-1.4 1.7 0 3 .8.8 2 1.5 2.6 1.5 1.6 0 8 6.7 8 8.5 0 .8.5 1.5 1 1.5.6 0 1 1.2 1 2.6 0 2.3 2 5.4 3.4 5.4.3 0 .6-1.4.6-3 0-1.7.5-3 1-3 .6 0 1-.7 1-1.5 0-2 10.5-12.5 12.5-12.5.8 0 1.5-.5 1.5-1 0-.6-.7-1-1.5-1-2 0-12.5-10.5-12.5-12.5 0-.8-.4-1.5-1-1.5-.5 0-1-1.4-1-3 0-3.3-.8-3.7-2.7-1.5" />
    <path
        d="M232.502 582c0 1.1-.4 2-1 2-.5 0-1 1.8-1 4s-.4 4-1 4c-.5 0-1 .9-1 2s-.4 2-1 2c-.5 0-1 .7-1 1.5 0 2-8.5 10.5-10.5 10.5-.8 0-1.5.4-1.5 1 0 .5-1.3 1-3 1-1.6 0-3 .4-3 1s-3 1-7 1-7-.4-7-1-1.7-1-3.8-1c-2.6 0-4.2-.6-5.2-2-.8-1.1-2-2-2.8-2-1.8 0-6.2-4.6-6.2-6.5 0-.8-.4-1.5-1-1.5-.5 0-1-.9-1-2s-.4-2-1-2c-.5 0-1-1.4-1-3 0-1.7-.4-3-1-3-.5 0-1-1.4-1-3 0-1.7-.4-3-1-3-.5 0-1 2.2-1 5 0 2.7.5 5 1 5 .6 0 1 1.3 1 3 0 1.6.5 3 1 3 .6 0 1 .7 1 1.5 0 2 8.5 10.5 10.5 10.5.8 0 1.5.4 1.5 1 0 .5.9 1 2 1s2 .4 2 1 4.7 1 12 1 12-.4 12-1 1.3-1 2.8-1c1.6 0 3.4-.8 4.2-2 .8-1.1 2-2 2.8-2 1.7 0 4.2-2.5 4.2-4.2 0-.8.9-2 2-2.8s2-2.2 2-3.2.5-1.8 1-1.8c.6 0 1-1.4 1-3 0-1.7.5-3 1-3 .6 0 1-2.3 1-5 0-2.8-.4-5-1-5-.5 0-1 .9-1 2m-36.001-357.65c-10.037 1.501-18.133 4.176-25.863 8.572-18.389 10.55-30.075 28.463-32.2 49.418-.183 2.088-.366 11.832-.366 21.686v17.914h5.861v-17.877c0-17.694.183-21.723 1.319-27.365 2.344-11.759 9.268-23.555 18.463-31.541 18.609-16.118 44.655-19.855 65.756-9.378 16.411 8.133 28.207 23.555 32.127 42.091l.842 3.957.22 101.4-5.605-.22c-3.077-.11-6.996-.476-8.718-.806-7.217-1.392-14.69-4.543-21.98-9.195-10.514-6.74-15.02-9.085-18.5-9.561l-1.648-.22v-14.836l1.941-.44c3.078-.733 8.975-2.894 11.76-4.286 11.942-5.971 18.719-15.606 19.562-27.768.293-4.432 0-9.598-.843-13.554-.623-2.931-2.857-10.22-3.407-11.063-.33-.55-6.704.769-11.063 2.308-3.846 1.319-10.037 4.616-13.151 6.96-1.466 1.099-2.711 1.978-2.784 1.978-.037 0-.696-1.282-1.466-2.857-3.077-6.521-9.561-14.47-16.118-19.855-5.239-4.286-18.17-11.869-18.903-11.063-.513.549-2.564 7.509-3.517 12.052-.915 4.323-.989 5.312-.989 13.115 0 7.326.074 8.901.806 12.162 1.649 7.583 4.836 14.909 9.159 20.99 4.725 6.631 12.894 14.031 20.331 18.317l2.821 1.648v16.155l-2.748.477c-6.191 1.025-10.623 3.15-18.976 9.085-6.96 4.945-10.037 6.703-14.36 8.132-4.579 1.502-9.524 2.235-15.459 2.235h-4.872v-56.049h-5.861v56.305l-1.649.66c-6.814 2.564-10.587 10.806-8.206 17.84 1.319 3.92 3.664 6.667 7.4 8.645l1.905.989 99.459.183v-5.494l-48.429-.074c-43.484-.11-48.612-.183-49.748-.696-3.114-1.428-5.055-4.066-5.385-7.436-.366-3.7 2.308-7.657 5.861-8.609 1.136-.33 17.987-.403 64.987-.33l63.412.11 1.575 1.099c2.455 1.722 3.737 3.81 3.92 6.374.183 2.711-.366 4.506-2.088 6.374-2.638 2.931-3.004 3.004-16.778 3.114l-12.199.11v5.495l26.559-.22 2.381-1.135c3.004-1.429 5.165-3.59 6.667-6.668 1.136-2.271 1.209-2.674 1.209-6.3s-.073-4.03-1.209-6.301c-1.465-2.967-4.322-5.715-7.18-6.924l-2.014-.806-.147-51.323c-.147-55.498 0-51.835-2.088-59.931-5.202-20.295-21.907-38.208-41.872-44.875-6.923-2.308-10.184-2.821-18.939-2.931-4.322-.073-8.352-.037-8.975.037m-11.906 58.429c8.133 6.008 14.47 13.774 17.804 21.797l1.246 3.004-1.283 2.124c-1.355 2.272-2.527 5.092-3.26 7.95l-.44 1.795-9.121-19.562c-5.019-10.734-9.195-19.672-9.268-19.819-.293-.549 1.172.367 4.322 2.711m1.832 24.581c10.953 23.445 11.759 25.386 12.309 28.5.329 1.832.513 3.407.439 3.48-.329.367-8.389-6.117-11.576-9.304-7.509-7.51-11.869-15.459-13.884-25.314-.439-2.234-.622-4.945-.622-9.524-.037-6.411.696-13.884 1.282-13.298.183.183 5.605 11.613 12.052 25.46m38.941-5.275c-5.092 9.304-20.075 35.937-20.148 35.827-.513-.477-1.282-6.704-1.282-10.294-.037-5.422.659-8.792 2.601-12.785 3.223-6.557 9.414-11.723 18.06-15.056 1.282-.476 2.344-.879 2.417-.916.074 0-.659 1.465-1.648 3.224m8.206 8.865c.219 5.568-.293 9.268-1.942 13.334-1.868 4.689-6.704 9.671-12.455 12.895-2.528 1.392-8.206 3.92-8.426 3.7-.073-.073 4.763-8.902 10.77-19.599l10.88-19.525.477 2.125c.256 1.172.549 4.359.696 7.07m-26.449 58.429c3.004.77 6.447 2.528 12.272 6.265 2.711 1.758 6.667 4.139 8.792 5.311l3.846 2.162h-28.867c-15.862 0-28.83-.073-28.83-.147 0-.073.696-.549 1.575-1.062.843-.513 3.92-2.638 6.851-4.689 7.619-5.422 10.44-6.814 15.935-7.84 3.48-.659 5.861-.659 8.426 0" />
    <path d="M219.397 262.228h5.861v-5.861h-5.861zm10.99 7.327h5.861v-5.862h-5.861z" />
</svg>
