<svg
    viewBox="0 0 301 488"
    width="100%"
    height="100%"
    fill="#fcc0a6"
    preserveAspectRatio="xMidYMid meet"
    xmlns="http://www.w3.org/2000/svg">
    <path fill-rule="evenodd" clip-rule="evenodd" d="M61.165 329.007c0 50.712 41.036 91.813 91.65 91.813 50.63 0 91.664-41.101 91.664-91.813a.675.675 0 1 0-1.349 0c0 49.966-40.43 90.463-90.315 90.463-49.869 0-90.302-40.497-90.302-90.463a.674.674 0 1 0-1.348 0"/>
  <path fill-rule="evenodd" clip-rule="evenodd" d="M152.815 65.357c57.473 0 104.055 46.656 104.055 104.206 0 6.855-.659 13.553-1.919 20.036a23.4 23.4 0 0 0 12.828 7.921l11.69 2.677-11.693 2.679a23.41 23.41 0 0 0-15.852 12.637c3.216 10.039 4.946 20.736 4.946 31.843 0 13.751-2.651 26.873-7.492 38.896 4.841 12.024 7.492 25.146 7.492 38.88 0 57.566-46.582 104.225-104.055 104.225-24.538 0-47.092-8.509-64.882-22.743a6.3 6.3 0 0 1-3.854 1.306c-3.501 0-6.342-2.845-6.342-6.352 0-1.217.342-2.353.933-3.319-18.488-18.812-29.896-44.629-29.896-73.117 0-11.614 1.896-22.789 5.408-33.233a13.47 13.47 0 0 0-6.999-4.107l-6.714-1.534 6.721-1.542c2.75-.63 5.172-2.09 6.993-4.107-3.513-10.445-5.409-21.624-5.409-33.253 0-13.751 2.651-26.873 7.492-38.897-4.84-12.023-7.492-25.143-7.492-38.896 0-9.181 1.186-18.084 3.411-26.565a6.36 6.36 0 0 1-3.645-5.752 6.347 6.347 0 0 1 7.585-6.231c6.136-15.427 15.846-29.039 28.106-39.812l-7.364-1.7 6.722-1.54a13.49 13.49 0 0 0 10.135-10.158l1.533-6.732 1.533 6.73a13.5 13.5 0 0 0 1.168 3.2c15.926-9.918 34.724-15.646 54.857-15.646m0 1.35c56.729 0 102.706 46.052 102.706 102.856 0 6.351-.572 12.564-1.67 18.593a23.4 23.4 0 0 1-3.679-8.281l-2.664-11.691-2.663 11.694a23.44 23.44 0 0 1-5.128 10.135c-14.61-22.174-37.453-38.425-64.17-44.387a6.346 6.346 0 0 0-6.338-6.126 6.35 6.35 0 0 0-5.952 4.15 105 105 0 0 0-10.442-.518c-43.042 0-79.984 26.188-95.808 63.532-4.453-11.511-6.885-24.014-6.885-37.101 0-9.026 1.161-17.781 3.342-26.123q.685.159 1.419.16c3.503 0 6.343-2.845 6.343-6.354a6.35 6.35 0 0 0-3.81-5.826c6.156-15.431 15.936-29.02 28.286-39.71a13.5 13.5 0 0 1 6.295 5.307c-18.913 16.816-30.832 41.351-30.832 68.673a.674.674 0 1 0 1.348 0c0-26.814 11.651-50.903 30.158-67.466.46.934.817 1.93 1.054 2.974l1.532 6.725 1.531-6.722c1.153-5.054 5.093-9 10.137-10.155l6.732-1.543-6.953-1.594c13.497-8.045 29.265-12.666 46.111-12.666 49.885 0 90.315 40.496 90.315 90.447a.675.675 0 1 0 1.349 0c0-50.697-41.034-91.797-91.664-91.797-17.523 0-33.898 4.926-47.819 13.471a13.5 13.5 0 0 1-6.36-5.194c15.727-9.801 34.293-15.463 54.179-15.463M50.122 247.356c0-13.671 2.654-26.709 7.495-38.642 15.252-37.671 52.134-64.232 95.198-64.232 3.411 0 6.784.166 10.11.492-.673 4.277 2.78 7.232 6.284 7.232a6.35 6.35 0 0 0 6.241-5.218c26.398 5.946 48.949 22.073 63.327 44.05a23.4 23.4 0 0 1-11.536 6.483l-11.675 2.676 11.663 2.665a23.44 23.44 0 0 1 17.618 17.648l2.661 11.682 2.662-11.675q.365-1.596.935-3.101c2.875 9.473 4.416 19.523 4.416 29.94 0 13.671-2.654 26.709-7.495 38.642a102.7 102.7 0 0 1-13.009 23.033 6.3 6.3 0 0 0-3.56-1.095 6.35 6.35 0 0 0-6.344 6.354c0 1.689.658 3.224 1.732 4.362-18.685 19.454-44.945 31.562-74.03 31.562-39.679 0-74.11-22.55-91.208-55.55a13.49 13.49 0 0 1 8.92-6.865l6.73-1.541-6.73-1.542a13.49 13.49 0 0 1-10.137-10.158l-1.531-6.73-1.534 6.732a13.5 13.5 0 0 1-2.138 4.794c-3.291-10.071-5.065-20.823-5.065-31.998m205.399 77.776c0 56.821-45.977 102.874-102.706 102.874-24.153 0-46.359-8.352-63.896-22.332a6.33 6.33 0 0 0 1.504-4.106c0-3.51-2.84-6.354-6.344-6.354-1.798 0-3.423.75-4.577 1.956-18.173-18.557-29.38-43.985-29.38-72.038 0-11.16 1.773-21.908 5.064-31.978a13.5 13.5 0 0 1 2.14 4.798l1.533 6.725 1.531-6.721q.203-.887.516-1.725c17.486 32.916 52.087 55.333 91.909 55.333 29.496 0 56.123-12.29 75.056-32.033a6.3 6.3 0 0 0 3.586 1.111 6.347 6.347 0 0 0 6.342-6.352 6.34 6.34 0 0 0-1.752-4.384 104 104 0 0 0 12.59-21.859c4.453 11.512 6.884 24.016 6.884 37.085"/>
  <path fill-rule="evenodd" clip-rule="evenodd" d="M.85 450.075c1.715 0 5.718.125 7.368.365l.002 8.193a29.8 29.8 0 0 0-7.75-1.019v29.743h29.75c0-2.523-.315-4.972-.907-7.309h8.427c.231 1.618.351 5.582.351 7.263h225.41c0-2.454.119-5.646.35-7.263l7.926-.004a29.8 29.8 0 0 0-.882 7.209h29.747v-29.742c-2.488 0-4.906.305-7.216.881v-7.965c1.642-.235 5.612-.352 7.271-.352V38.102c-1.659 0-5.629-.092-7.271-.326V29.21c2.34.593 4.791.908 7.316.908V.376h-29.748a29.8 29.8 0 0 0 1.024 7.766h-8.208c-.235-1.644-.353-5.608-.352-7.27H38.09c0 1.66-.12 5.626-.354 7.268h-8.065c.615-2.413.926-4.893.924-7.383H.851v29.748c2.51 0 4.946-.312 7.273-.9l.042 8.138c-1.657.235-5.643.355-7.317.359zm247.143 24.021a53 53 0 0 0-.498 2.639H54.055a51 51 0 0 0-.504-2.639zM32.311 458.297l6.15-6.152c5.29 5.682 11.508 17.332 12.247 24.587l-8.863.003a39.5 39.5 0 0 0-9.534-18.438m19.051 24.388a51 51 0 0 0-.17-2.637h-8.787q.164 1.307.242 2.637zM5.477 436.8a48 48 0 0 1 2.737.209l.002 8.766a39 39 0 0 0-2.738-.254zM29.925 32.279l6.112 6.112C29.33 44.64 20.844 49.013 11.434 50.65v-8.787a39.5 39.5 0 0 0 18.491-9.584M5.478 51.313v-8.651c.707-.05 1.953-.154 2.65-.241v8.692q-1.315.135-2.65.2M51.362 5.492a48 48 0 0 1-.209 2.65l-8.748-.002c.1-.818.195-1.817.243-2.648zm2.17 8.596q.286-1.31.506-2.642h193.469q.219 1.332.504 2.64zm193.351-8.596q.062 1.335.191 2.648H54.469q.129-1.316.192-2.648zM14.074 434.61a48 48 0 0 0-2.553-.482l-.084-380.136q1.325-.215 2.637-.5zm-8.597-380q1.335-.06 2.652-.187l.086 379.276a51 51 0 0 0-2.737-.19zM18.7 52.27c15.93-5.046 28.536-17.631 33.602-33.555h196.941c5.068 15.924 17.673 28.509 33.605 33.556l.001 383.571c-15.957 5.047-28.577 17.672-33.631 33.635H52.33c-5.054-15.963-17.674-28.588-33.63-33.635zm268.776 1.224q1.311.285 2.646.5v380.117q-1.334.216-2.645.5zM258.898 5.492q.077 1.336.242 2.649h-8.751q-.138-1.321-.204-2.65zm19.887 14.953-6.227 6.224c-2.589-2.312-8.089-10.312-8.113-15.223h8.676a29.8 29.8 0 0 0 5.664 8.999m-249.8 6.224-6.02-6.02a29.7 29.7 0 0 0 5.651-9.201h8.486c-1.133 4.409-4.994 11.799-8.117 15.22m-8.366-3.694 6.032 6.035c-2.684 2.845-10.682 7.347-15.22 8.105v-8.551a29.8 29.8 0 0 0 9.188-5.59m2.228 444.787 6.19-6.19c3.432 3.285 8.063 11.785 8.063 15.165h-8.84a29.7 29.7 0 0 0-5.413-8.975M274.895 29.006l6.256-6.256a29.8 29.8 0 0 0 8.97 5.413v8.953c-4.652-.76-10.911-4.175-15.226-8.11m21.176 13.656q-1.335-.075-2.646-.24v8.692q1.313.135 2.646.2zm-24.449-10.383-6.11 6.12c6.708 6.25 15.194 10.622 24.609 12.258v-8.792a39.45 39.45 0 0 1-18.499-9.586m24.449 413.242q-1.335.078-2.646.242v-8.764a48 48 0 0 1 2.644-.199zm-37.131 37.17q.078-1.325.243-2.643l-8.801-.004a51 51 0 0 0-.198 2.647zm-12.061 0q.061-1.333.188-2.647H54.481q.128 1.314.188 2.647zm-216.9-26.728 6.15-6.157c-6.337-5.949-16.121-10.463-24.609-12.333l.003 8.869a39.5 39.5 0 0 1 18.456 9.621M296.068 54.616l.002 378.893q-1.332.057-2.646.182V54.426q1.313.127 2.644.19m-26.783-24.671a954 954 0 0 0-6.113 6.11c-4.913-5.241-11.203-13.698-12.323-24.611h8.849c.271 5.913 4.271 13.413 9.587 18.5M26.705 459.232l-6.167 6.168a29.7 29.7 0 0 0-9.012-5.666l-.002-8.647a34.9 34.9 0 0 1 15.181 8.145m254.102 5.867-5.899-5.908c4.061-4.834 9.539-6.736 15.21-8.125v8.36a29.7 29.7 0 0 0-9.311 5.673M50.693 11.444c-1.65 9.423-6.04 17.91-12.318 24.612l-6.117-6.117a39.46 39.46 0 0 0 9.588-18.493zm239.428 434.879c-6.043 1.291-14.543 4.744-18.485 9.595l-6.164-6.165c6.716-6.27 15.215-10.658 24.647-12.297zm-39.284 30.412c1.637-9.429 6.024-17.925 12.298-24.642l6.165 6.166a39.5 39.5 0 0 0-9.557 18.476zm13.65 0a34.9 34.9 0 0 1 8.087-15.205l5.893 5.898c-2.197 2.453-4.366 6.221-5.657 9.307z"/>
  <path d="M145.845 178.054c-6.96 1.049-12.574 2.918-17.933 5.99-12.752 7.373-20.855 19.892-22.329 34.535-.127 1.459-.254 8.269-.254 15.156v12.518h4.065V233.76c0-12.365.127-15.181.914-19.123 1.626-8.218 6.427-16.462 12.803-22.042 12.904-11.265 30.965-13.876 45.596-6.554 11.38 5.683 19.56 16.461 22.278 29.415l.584 2.765.152 70.862-3.886-.154c-2.134-.077-4.852-.333-6.046-.563-5.004-.973-10.186-3.174-15.241-6.426-7.29-4.71-10.415-6.349-12.828-6.681l-1.143-.154v-10.368l1.346-.307c2.134-.512 6.224-2.023 8.154-2.996 8.281-4.173 12.981-10.906 13.565-19.405.203-3.098 0-6.707-.584-9.472-.432-2.048-1.982-7.143-2.363-7.731-.228-.384-4.648.537-7.671 1.612-2.667.922-6.96 3.226-9.119 4.865-1.016.768-1.88 1.382-1.931 1.382-.025 0-.483-.896-1.016-1.997-2.134-4.557-6.63-10.112-11.177-13.875-3.632-2.996-12.599-8.295-13.107-7.732-.356.384-1.779 5.248-2.439 8.423-.635 3.021-.686 3.712-.686 9.165 0 5.12.051 6.221.559 8.499 1.143 5.299 3.353 10.42 6.351 14.669 3.276 4.634 8.941 9.805 14.098 12.801l1.956 1.152v11.289l-1.906.333c-4.292.717-7.366 2.202-13.158 6.349-4.826 3.456-6.96 4.685-9.957 5.683-3.176 1.05-6.605 1.562-10.72 1.562h-3.378v-39.169h-4.065v39.348l-1.143.461c-4.725 1.792-7.341 7.552-5.69 12.467.915 2.74 2.54 4.66 5.131 6.042l1.321.691 68.967.128v-3.84l-33.582-.051c-30.152-.077-33.708-.128-34.496-.486-2.159-.999-3.505-2.842-3.734-5.197-.254-2.586 1.6-5.351 4.064-6.016.788-.231 12.473-.282 45.064-.231l43.971.077 1.092.768c1.702 1.203 2.591 2.663 2.718 4.455.127 1.894-.254 3.148-1.448 4.454-1.829 2.048-2.083 2.099-11.634 2.176l-8.459.077V309l18.416-.154 1.652-.793c2.083-.999 3.581-2.509 4.623-4.66.787-1.587.838-1.868.838-4.403s-.051-2.816-.838-4.403c-1.016-2.074-2.998-3.994-4.979-4.839l-1.397-.563-.102-35.866c-.101-38.785 0-36.225-1.448-41.882-3.607-14.183-15.19-26.702-29.034-31.361-4.801-1.613-7.062-1.971-13.133-2.048-2.998-.051-5.792-.026-6.224.026m-8.255 40.832c5.639 4.199 10.034 9.626 12.345 15.233l.864 2.099-.889 1.485c-.94 1.587-1.753 3.558-2.261 5.555l-.305 1.254-6.325-13.67c-3.48-7.501-6.376-13.748-6.427-13.85-.203-.384.813.256 2.998 1.894m1.27 17.178c7.595 16.385 8.154 17.741 8.535 19.917.229 1.28.356 2.381.305 2.432-.229.256-5.817-4.275-8.027-6.502-5.208-5.248-8.231-10.803-9.628-17.69-.304-1.562-.431-3.456-.431-6.656-.026-4.48.482-9.703.889-9.293.127.128 3.886 8.115 8.357 17.792m27.002-3.686c-3.531 6.502-13.92 25.114-13.971 25.037-.356-.333-.889-4.685-.889-7.194-.025-3.789.457-6.144 1.804-8.934 2.235-4.583 6.528-8.192 12.523-10.522a74 74 0 0 0 1.676-.64c.051 0-.457 1.024-1.143 2.253m5.69 6.195c.153 3.891-.203 6.477-1.346 9.319-1.296 3.277-4.649 6.758-8.637 9.011-1.752.973-5.69 2.739-5.842 2.586-.051-.052 3.302-6.221 7.468-13.697l7.544-13.645.331 1.485c.177.819.381 3.047.482 4.941m-18.34 40.833c2.083.537 4.471 1.766 8.51 4.378 1.879 1.228 4.623 2.892 6.096 3.712l2.667 1.51h-20.016c-10.999 0-19.992-.051-19.992-.102 0-.052.483-.384 1.092-.743.585-.358 2.718-1.843 4.751-3.277 5.283-3.789 7.239-4.761 11.05-5.478 2.413-.461 4.064-.461 5.842 0"/>
  <path d="M161.722 204.524h4.064v-4.096h-4.064zm7.62 5.121h4.065v-4.097h-4.065z"/>
</svg>
