<svg viewBox="0 0 35 45" fill="#000" xmlns="http://www.w3.org/2000/svg">
    <path
        d="M16.856.713c-.079.128-.196.86-.26 1.625-.064.766-.203 1.508-.309 1.65-.326.431-.72 2.135-.872 3.761-.23 2.485-1.46 5.931-2.919 8.173-.438.673-1.1 1.783-1.462 2.45-.366.673-.69 1.25-.728 1.29-.293.31-5.089 1.807-5.995 1.871-1.88.131-2.629.38-3.17 1.054l-.522.65.57.21c.301.11.764.312.986.43.232.121.588.152.801.07.21-.083.383-.057.383.057 0 .116.488.228 1.091.251 1.904.074 3.677.743 4.624 1.745.461.488.856 1.034.856 1.184 0 .16.134.418.313.604.171.177.726 1.161 1.22 2.16a85 85 0 0 0 1.116 2.205c.554.975.764 1.475.764 1.811 0 .206.097.557.217.79.434.835 1.661 3.603 1.832 4.132.097.302.276.557.39.557.188 0 .853 1.974 1.455 4.32.173.672.428 1.073.75 1.174q1.207.38 1.207-1.64c0-1.355.576-5.132 1.051-6.896.313-1.16 1.326-2.794 1.805-2.908.302-.072.557-.229.557-.342 0-.58 5.423-6.13 5.991-6.13.186 0 .464-.133.65-.31.45-.43 1.393-.854 2.392-1.072 1-.218 1.144-.252 1.393-.327.101-.03.36-.04.57-.02.21.018.571-.175.802-.43.632-.699.323-1.408-.699-1.6-.882-.166-1.08-.547-.557-1.07.55-.55-.627-1.36-2.368-1.632-1.114-.174-2.42-.817-3.148-1.55-2.764-2.787-4.726-5.036-5.187-5.945-1.377-2.717-1.98-4.106-2.51-5.782-.316-.998-.643-1.889-.719-1.955-.239-.207-.755-2.41-.76-3.246-.004-.44-.083-.902-.179-1.045-.249-.37-1.25-.599-1.422-.324m.228 10.101c-.166.538-.489 1.881-.72 2.995-.404 1.95-.464 2.062-1.765 3.225-2.063 1.846-2.29 1.581-.697-.81 1.827-2.74 3.031-5.684 3.125-7.639.027-.564.064-.51.196.28.093.556.033 1.392-.139 1.95m2.368 5.074c0 .182.224.592.488.894s.488.632.488.72c0 .294 1.58 1.888 2.02 2.04.237.08.54.41.697.758.158.348.364.615.476.615.106 0 .471.28.79.604.33.335.871.673 1.22.76.626.155.9.587.371.587-.518 0-1.967 1.324-3.383 3.088-1.528 1.904-4.316 7.256-4.56 8.754-.077.464-.23.836-.347.836-.115 0-.549-.743-.963-1.649-1.317-2.879-2.432-5.03-2.985-5.759-.83-1.09-3.407-3.597-4.41-4.29-.489-.337-.857-.749-.825-.922s1.033-.703 2.241-1.184c1.207-.482 2.328-1.016 2.508-1.196a2.3 2.3 0 0 1 .813-.48c.607-.195 2.102-1.749 2.328-2.423.086-.255.481-.789.876-1.184s.82-.982.94-1.3l.221-.58.5.488c.276.27.496.635.496.823m10.287 7.887c.493.278.023.567-1.95 1.195-1.185.377-2.272.784-2.439.913-.162.125-.302.157-.302.07 0-.235 1.51-1.625 1.765-1.625.125 0 .511-.219.836-.476.576-.453 1.37-.483 2.09-.077" />
</svg>
