<svg viewBox="0 0 11 21" fill="#000" xmlns="http://www.w3.org/2000/svg">
    <path
        d="M4.771.566c-.088.088-.163.766-.163 1.486 0 2.368-.527 4.7-1.47 6.502-.546 1.045-1.08 1.752-1.363 1.804-1.154.214-1.022 1.35.186 1.59 1.976.392 3.117 2.503 3.575 6.613.15 1.347.214 1.47.802 1.544.59.075.65 0 .778-.975.077-.58.064-1.496-.029-2.032-.364-2.113.611-5.105 2.142-6.575 1.393-1.337 1.54-2.318.348-2.318-1.405 0-2.543-1.068-2.72-2.554-.049-.403-.249-1.37-.438-2.113s-.348-1.71-.348-2.113c0-.812-.81-1.348-1.3-.859m.817 7.105c.011.588.553 1.203 1.32 1.497l.696.267-.488.546c-.263.294-.638.964-.813 1.451-.376 1.045-.475 1.094-.99.488-.197-.23-.659-.657-1.03-.952l-.673-.534.743-1.393c.41-.766.743-1.55.743-1.742 0-.48.483-.115.492.372" />
</svg>
