<svg viewBox="0 0 32 70" fill="#000" xmlns="http://www.w3.org/2000/svg">
    <path
        d="M15.594.696c-.089.089-.163.37-.163.627 0 .255-.278 1.115-.615 1.904s-.673 1.91-.743 2.484a31 31 0 0 1-.22 1.533c-.052.269-.17 3.715-.263 7.686-.19 8.057-.314 8.755-2.086 11.703-.516.859-1.107 2.034-1.297 2.577-.352 1.01-1.154 2.624-2.17 4.365-.312.533-1.244 1.496-2.056 2.125-1.37 1.06-1.55 1.13-2.299.912-1.115-.325-1.416-.3-1.416.12 0 .207.28.443.627.532 1.08.273.093.594-1.324.43-1.115-.13-1.258-.1-1.126.235.083.21-.012.708-.209 1.103-.325.65-.19 1.596.174 1.23.171-.17 4.272.683 4.644.967.142.108.848.396 1.59.648.737.25 1.94.937 2.682 1.533 1.533 1.229 3.59 3.562 3.796 4.307.147.527.298.905.945 2.368.216.488.39 1.007.39 1.16s.261.849.581 1.545c.318.693.754 2.264.965 3.47.407 2.34.452 2.74.903 8.058.337 3.97.701 5.052 1.662 4.93l.627-.077.035-6.095c.027-4.737.125-6.476.441-7.802.221-.93.454-2.162.511-2.705.058-.555.27-1.463.476-2.043s.372-1.231.372-1.463c0-.58 1.697-3.967 2.113-4.217.173-.104.325-.358.325-.543 0-.334 2.95-3.463 4.017-4.263 1.022-.765 1.824-1.217 2.16-1.217.176 0 .683-.395 1.103-.86.421-.463.885-.858 1.01-.858.406 0 .28-.424-.186-.616-.229-.095-1.068-.203-1.858-.24-2.53-.116-4.545-.625-5.243-1.326-1.734-1.741-3.929-5.323-3.929-6.41 0-.231-.113-.417-.255-.417-.137 0-.224-.14-.188-.302.065-.29-.345-1.58-.76-2.392-.103-.202-.375-1.033-.596-1.823s-.512-1.674-.639-1.94c-.126-.264-.449-1.323-.708-2.321s-.566-2.168-.673-2.566c-.109-.403-.208-4.18-.22-8.406-.02-6.525-.078-7.685-.384-7.744-.209-.04-.429 0-.523.094m-.606 27.05c.144.232-1.275 2.044-1.6 2.044-.075 0 .038-.418.244-.906s.431-1.19.488-1.521a9 9 0 0 1 .267-1.103c.132-.395.19-.325.302.37.075.467.212.979.3 1.117m3.602.234c0 .153.371 1.23.824 2.392.453 1.16.72 2.048.592 1.969-.346-.215-1.416-2.457-1.416-2.967 0-.24-.223-1.045-.488-1.765s-.483-1.44-.478-1.58c.013-.322.966 1.602.966 1.95m-3.75 2.624c-.355.836-.949 2.11-1.332 2.856-.729 1.416-2.723 4.344-2.976 4.368-.223.02 2.151-4.763 3.101-6.25.46-.72 1.021-1.73 1.23-2.216.208-.488.435-.752.498-.581.065.173-.168.987-.522 1.823m1.311.603c0 .79 2.723 4.424 3.32 4.432.157.002.34.166.418.375s.226.35.337.325c.113-.027.406.07.685.224.657.365 3.32 1.04 4.18 1.06.566.013.488.072-.418.314-1.333.356-1.904.74-3.669 2.47-1.21 1.186-1.435 1.563-1.927 3.235-.308 1.045-.627 1.996-.712 2.125-.287.43-.708 1.927-.896 3.18-.167 1.116-.193 1.152-.343.477-.088-.395-.28-.956-.418-1.22-.14-.27-.559-1.253-.937-2.205-1.013-2.554-2.283-4.198-4.52-5.848l-.697-.514.604-.57c.325-.305.604-.67.604-.788 0-.121.47-.848 1.045-1.614 1.567-2.09 2.435-3.708 2.728-5.085.183-.86.616-1.122.616-.373m-6.083 2.438c0 .112-.172.43-.372.685-.346.443-.352.43-.084-.197.287-.673.456-.854.456-.488M7.05 37.252c-.372.329-.913.597-1.207.597-.398 0-.256-.15.557-.583 1.393-.746 1.478-.747.65-.014m16.94 3.638c-.943.999-1.73 1.95-1.73 2.09 0 .137-.332.673-.719 1.16-.786.993-2.086 4.227-2.343 5.829-.093.58-.28 1.115-.423 1.203-.505.313.581-4.965 1.26-6.126.245-.418.506-1.038.596-1.416.21-.871 1.14-2.2 2.114-3.02.766-.645 2.33-1.517 2.763-1.542.116-.007-.577.824-1.519 1.822M7.71 40.437c.13.35.093.36-.279.07a50 50 0 0 0-.522-.406c-.052-.04.07-.07.28-.07s.435.174.521.406m5.84 4.726c.371.743.502 1.128.291.859-1.528-1.95-3.398-4.025-3.635-4.032-.15-.005-.592-.274-.964-.59l-.685-.58.557-.083c.781-.118 3.542 2.638 4.436 4.426m5.213 7.116c-.077.188-.137.128-.15-.151-.014-.255.044-.397.127-.314.078.079.09.303.023.465" />
</svg>
