<svg viewBox="0 0 24 33" fill="#000" xmlns="http://www.w3.org/2000/svg">
    <path
        d="M11.813 1.183c-.139.27-.25 1.068-.25 1.788 0 2.601-2.745 9.186-4.273 10.255-.418.292-.94.773-1.196 1.1-.248.318-1.567 1.122-2.914 1.776-1.533.745-2.53 1.38-2.647 1.683-.106.28-.08.488.058.488.137 0 .244.163.244.372 0 .497.906.817 2.74.968.836.068 1.727.17 1.997.228a7 7 0 0 0 1.115.116c.353.007.987.331 1.451.743s.911.731 1.022.731c.105 0 .197.186.197.395 0 .222.21.685.476 1.057.261.363.55.987.64 1.382.088.395.221.825.294.952.162.283.252 1.65.28 4.226.023 2.16.281 2.727 1.4 3.081.404.128.64.007.974-.504.243-.372.41-.923.372-1.23-.038-.308.138-.86.395-1.232.253-.367.591-1.312.743-2.078s.4-2.038.546-2.798c.147-.766.352-1.56.456-1.765.19-.372.782-1.726.864-1.974.021-.063.253-.592.503-1.149.438-.975.52-1.033 1.44-1.033.542 0 1.533-.212 2.23-.476.696-.264 1.315-.414 1.392-.337.255.255 1.047-.789 1.092-1.44.052-.757-.256-1.01-1.278-1.048-.789-.029-2.689-.314-3.367-.506-.232-.066-.418-.268-.418-.455 0-.186-.14-.425-.314-.534s-.623-.662-1.01-1.242-.846-1.045-1.033-1.045c-.177 0-.337-.209-.337-.44 0-.233-.077-.519-.163-.605-.61-.61-1.057-3.042-1.149-6.269-.056-1.95-.369-3.049-.987-3.463-.513-.342-1.339-.195-1.585.282" />
</svg>
