<svg viewBox="0 0 21 20" fill="#000" xmlns="http://www.w3.org/2000/svg">
    <path
        d="M18.51 1.46c-.673.6-1.3 1.078-1.417 1.078s-.882.508-1.718 1.138c-1.486 1.12-3.451 2.132-3.762 1.937-.09-.057-.65-.01-1.254.107-.882.169-1.267.118-2.009-.267-.511-.265-.917-.558-.917-.662 0-.41-3.437-3.7-4.017-3.846-.604-.152-.972-.028-1.006.34-.008.086-.108.43-.213.73-.152.44-.052.72.441 1.232.359.372.639.743.639.848 0 .1.391.604.848 1.09.456.489.853 1.003.859 1.116s.186.34.395.499c.309.234.338.453.151 1.126-.129.464-.145 1.053-.035 1.324.108.267.203.987.209 1.59.011 1.08-.045 1.162-2.67 3.856C1.563 16.205.352 17.579.352 17.738c0 .164-.066.523-.151.824-.119.42.012.618.615.929.673.347.846.352 1.428.046.371-.196.86-.567 1.115-.848.253-.28.581-.453.743-.395s.859-.428 1.579-1.103c.999-.936 1.545-1.255 2.426-1.416 2.508-.46 4.435.055 4.435 1.184 0 .314.244.488.848.604.464.089 1.347.55 1.951 1.022 1.068.832 1.123.846 1.73.44.745-.496.673-.835-.654-3.11-.528-.906-.948-1.708-.948-1.811 0-.105-.146-.348-.333-.557-.432-.482-.54-1.347-.308-2.461.266-1.277.65-1.954 1.79-3.158.616-.65.986-1.246.917-1.475-.071-.234.255-.735.836-1.286.999-.947 2.702-3.986 2.526-4.508-.204-.606-1.18-.277-2.387.8" />
</svg>
