<svg
    viewBox="0 0 100 100"
    width="100%"
    height="100%"
    fill="#fcc0a6"
    preserveAspectRatio="xMidYMid meet"
    xmlns="http://www.w3.org/2000/svg">
    <style>
        path {
            filter: drop-shadow(1px 1px 1px #203447);
        }
    </style>
    <path
        d="M50.048 94.419c-7.8 0-15.178-1.913-21.553-5.436a3.8 3.8 0 0 1 1.787-.058c5.939 3.02 12.647 4.654 19.766 4.654a43.5 43.5 0 0 0 21.39-5.586l1.88-.13a44.3 44.3 0 0 1-23.27 6.556M8.908 67.198c.043-.145.292-.485.646-.63a43.85 43.85 0 0 0 15.766 19.32c-.135.218-.564.373-.938.373A44.7 44.7 0 0 1 8.908 67.199m-.772-1.939a44.4 44.4 0 0 1-2.772-15.499c0-12.923 5.506-24.56 14.3-32.695.623-.123 1.02-.23 1.72-.41-9.295 8.011-15.18 19.871-15.18 33.105 0 5.166.897 10.121 2.542 14.72-.106.34-.318.566-.61.78m12.242-48.839c.56-.187 1.209-.322 1.754-.422.938-.776 1.836-1.428 2.838-2.125a2.2 2.2 0 0 0-.162-.908 46 46 0 0 0-4.43 3.455m4.904-3.76c.166.27.307.424.587.604a44 44 0 0 1 1.726-1.081l.4-1.204c-.916.519-1.839 1.1-2.713 1.681M49.89 6.075a43.5 43.5 0 0 0-21.673 5.747l.41-1.19A44.3 44.3 0 0 1 49.89 5.234c9.808 0 18.45 2.922 25.807 8.295-.022.262-.244.65-.503.793C67.973 9.044 59.52 6.074 49.89 6.074m27.388 9.876c0-.251.417-.587.715-.676 5.633 4.537 9.789 9.849 12.68 16.586-.13.352-.29.549-.586.772-2.854-6.86-7.084-12.115-12.81-16.682m16.301 33.811c0-4.723-.606-9.179-1.992-13.44.203-.276.37-.465.661-.674 1.501 4.461 2.17 9.147 2.17 14.114 0 3.936-.51 7.752-1.468 11.386a1.6 1.6 0 0 1-.702-.642 43.8 43.8 0 0 0 1.33-10.744m-2.844 15.103.744-.79v1.483c-2.122 5.613-4.876 10.287-8.938 14.554l.105-1.483c3.875-4.286 6.149-8.193 8.089-13.764m-9.269 14.981-.24 1.279c-2.276 2.316-4.364 4.22-7.098 5.997l-1.748.103c3.507-2.11 6.31-4.403 9.086-7.379" />
    <path
        fill-rule="evenodd"
        clip-rule="evenodd"
        d="M74.892 14.976c.181 0 .364.044.537.134.385.198.724.619.9 1.27.082.303.129.656.129 1.06 0-.403.044-.755.122-1.058.17-.655.5-1.077.892-1.275q.263-.13.55-.13c-.188 0-.374-.047-.548-.139-.39-.205-.721-.642-.892-1.313a4.4 4.4 0 0 1-.124-1.087c0 .412-.046.774-.127 1.087-.175.67-.51 1.108-.9 1.314a1.15 1.15 0 0 1-.54.137m.79-.003c.319.208.588.55.77 1.008a2.4 2.4 0 0 1 .283-.538c.14-.198.305-.356.485-.473a1.8 1.8 0 0 1-.483-.487 2.6 2.6 0 0 1-.282-.547 2.6 2.6 0 0 1-.282.543 1.9 1.9 0 0 1-.49.494m12.15 18.897a3.1 3.1 0 0 1 1.464.62c.508.395.918.965 1.137 1.703.172.583.225 1.272.112 2.062.114-.792.35-1.442.67-1.956.407-.65.95-1.085 1.552-1.32a3.2 3.2 0 0 1 1.609-.174 3.1 3.1 0 0 1-1.486-.635c-.51-.406-.91-.993-1.117-1.753-.163-.6-.207-1.305-.092-2.113-.115.805-.358 1.47-.687 2-.419.673-.977 1.128-1.586 1.375a3.04 3.04 0 0 1-1.576.192m2.225.312q.257.248.474.551.233.327.403.707a4 4 0 0 1 .568-.562 4 4 0 0 1 .624-.41 4 4 0 0 1-.48-.58 4 4 0 0 1-.382-.707 4 4 0 0 1-.561.565q-.308.255-.647.436m-78.03-15.517a1.1 1.1 0 0 1 .543.011c.314.085.622.308.86.69.136.22.25.49.327.819-.077-.328-.1-.62-.079-.877.037-.45.208-.788.456-1.004.142-.124.31-.209.491-.252a1.1 1.1 0 0 1-.55-.012c-.32-.09-.627-.326-.865-.723a3 3 0 0 1-.327-.84c.08.335.102.635.08.9-.038.461-.211.81-.457 1.033a1.1 1.1 0 0 1-.479.255m.75-.18c.254.1.494.275.698.526q.046-.215.132-.399.105-.22.258-.386a1.6 1.6 0 0 1-.404-.24 2 2 0 0 1-.297-.305 1.73 1.73 0 0 1-.386.805M7.05 65.763c.28.05.548.195.766.43.197.214.353.502.442.862.098.396.114.88.012 1.446.102-.566.28-1.014.503-1.352.207-.312.453-.53.716-.662.283-.14.585-.18.879-.127a1.36 1.36 0 0 1-.772-.437 1.96 1.96 0 0 1-.44-.898c-.09-.406-.099-.9.005-1.477-.104.577-.287 1.038-.518 1.388a2 2 0 0 1-.728.686 1.35 1.35 0 0 1-.866.14m1.229.217q.2.255.33.583a2.2 2.2 0 0 1 .522-.436 2.3 2.3 0 0 1-.331-.597q-.241.274-.521.45m13.76 20.748a4.3 4.3 0 0 1 1.661.807 4.1 4.1 0 0 1 1.508 2.61c.103.651.077 1.383-.117 2.19.195-.809.498-1.476.878-2.01.66-.928 1.55-1.46 2.509-1.645a4.4 4.4 0 0 1 1.882.055 4.26 4.26 0 0 1-1.69-.826c-.761-.619-1.309-1.524-1.469-2.679-.092-.666-.055-1.415.143-2.24-.198.823-.51 1.505-.9 2.055-.679.956-1.594 1.514-2.56 1.716-.61.127-1.24.112-1.845-.033m2.532.604a4.8 4.8 0 0 1 1.215 2.057 4.7 4.7 0 0 1 1.027-.842q.473-.285.983-.448a4.7 4.7 0 0 1-.663-.864 5 5 0 0 1-.52-1.234 5 5 0 0 1-1.026.854 4.8 4.8 0 0 1-1.015.478m-.575-71.068a2.1 2.1 0 0 1 1.308-.246c.453.056.933.247 1.402.597.497.37.983.92 1.413 1.678-.43-.757-.66-1.45-.73-2.063-.069-.587.01-1.1.2-1.521a2.14 2.14 0 0 1 .902-.995c-.388.22-.84.31-1.32.245-.465-.063-.955-.271-1.435-.646-.498-.389-.986-.957-1.423-1.729.438.773.673 1.487.747 2.12.071.602-.004 1.13-.19 1.561a2.06 2.06 0 0 1-.874.999m1.64-.937c.334.07.67.195.998.376q.006-.195.03-.383.05-.36.163-.68a3.5 3.5 0 0 1-.672-.221 4 4 0 0 1-.34-.173 3.6 3.6 0 0 1-.178 1.08m2.832-8.959c.352-.2.78-.274 1.234-.192.313.057.638.189.96.406.468.315.928.811 1.33 1.521-.402-.71-.6-1.353-.638-1.913a2.4 2.4 0 0 1 .14-1.043 1.84 1.84 0 0 1 .816-.959 1.8 1.8 0 0 1-1.242.19 2.6 2.6 0 0 1-.99-.441c-.468-.332-.93-.846-1.34-1.57.41.724.613 1.388.654 1.965a2.6 2.6 0 0 1-.133 1.074c-.157.431-.435.76-.791.962m1.538-.879q.312.08.62.23a3.2 3.2 0 0 1 .125-.662 3 3 0 0 1-.63-.24q-.022.353-.114.672M62.01 88.262a.9.9 0 0 1 .473.165c.215.149.397.396.499.744.069.236.101.519.083.847.018-.328.08-.605.172-.832.137-.337.343-.564.578-.687a.95.95 0 0 1 .496-.106.9.9 0 0 1-.478-.169c-.219-.154-.398-.412-.496-.773a2.7 2.7 0 0 1-.077-.866 2.7 2.7 0 0 1-.178.854c-.14.346-.35.582-.584.71a.9.9 0 0 1-.488.112m.711.038c.164.14.303.327.404.558q.08-.138.176-.252.134-.155.292-.26a1.4 1.4 0 0 1-.259-.299 2 2 0 0 1-.144-.274 1.56 1.56 0 0 1-.469.527M81.44 73.42a1.46 1.46 0 0 1 .89-.158c.33.042.679.188 1.017.457.333.264.654.646.937 1.166-.282-.52-.433-.994-.479-1.414-.047-.433.018-.806.166-1.109a1.5 1.5 0 0 1 .631-.659 1.44 1.44 0 0 1-.897.157c-.338-.047-.694-.205-1.04-.492-.332-.276-.655-.672-.942-1.201.287.53.441 1.019.489 1.452.049.445-.014.83-.16 1.139a1.43 1.43 0 0 1-.611.661m1.126-.616q.374.081.738.296a3 3 0 0 1 .028-.3q.04-.26.13-.489a2.4 2.4 0 0 1-.486-.167 3 3 0 0 1-.263-.142 2.5 2.5 0 0 1-.147.802m6.813-9.691a2.2 2.2 0 0 1 1.36.067c.478.176.95.514 1.362 1.034.398.502.74 1.174.979 2.033-.238-.858-.3-1.607-.226-2.24.077-.665.303-1.201.63-1.6a2.26 2.26 0 0 1 1.15-.752 2.2 2.2 0 0 1-1.37-.07c-.49-.186-.967-.545-1.383-1.094-.395-.521-.734-1.212-.977-2.087.243.876.304 1.647.23 2.3-.079.683-.306 1.237-.63 1.647a2.17 2.17 0 0 1-1.124.762m1.861-.522c.353.165.692.4 1.005.7q.061-.231.146-.446.15-.373.363-.684a3.6 3.6 0 0 1-.666-.415 4 4 0 0 1-.35-.31q-.166.651-.498 1.155m-.879 16.059c.257-.165.567-.252.904-.243.394.01.824.152 1.25.457.364.26.725.64 1.056 1.157-.33-.516-.53-.999-.62-1.434-.106-.518-.06-.97.1-1.335.134-.304.347-.548.615-.72a1.57 1.57 0 0 1-.913.244c-.403-.014-.842-.171-1.277-.497-.365-.273-.728-.665-1.066-1.192.338.527.541 1.024.634 1.474.11.53.067.995-.089 1.368a1.55 1.55 0 0 1-.594.72m1.118-.72c.308.036.623.136.933.3a3 3 0 0 1 .003-.4q.024-.309.116-.583a2.5 2.5 0 0 1-.583-.148 3 3 0 0 1-.364-.17c.026.36-.01.697-.105 1M78.38 86.859a1.53 1.53 0 0 1 .906.173c.326.172.63.464.867.886.215.382.376.87.45 1.47-.074-.6-.043-1.11.065-1.532.122-.473.341-.834.62-1.08.246-.217.539-.346.85-.384a1.5 1.5 0 0 1-.914-.177c-.332-.18-.637-.487-.874-.93-.21-.394-.368-.894-.444-1.506.076.612.043 1.138-.068 1.573-.125.486-.347.859-.625 1.114a1.5 1.5 0 0 1-.832.393m1.3-.165c.24.155.462.362.655.618q.07-.169.159-.32.146-.252.332-.447a2.5 2.5 0 0 1-.432-.364 3 3 0 0 1-.229-.275q-.187.46-.485.787" />
    <path
        d="M81.115 86.109c.08.065.176.122.315.181l10.245-7.785a.7.7 0 0 0-.26-.045l-10.103 7.62 1.684-12.541a.5.5 0 0 0-.223-.099zm10.928-9.549a.56.56 0 0 0 .27.103l-.481-12.703a.8.8 0 0 0-.253-.214zm-8.36-4.761a.74.74 0 0 0 .381.033l7.426-8.163c-.072-.06-.12-.117-.206-.139zM64.297 88.367l15.019-1.29a1.2 1.2 0 0 0-.346-.15l-15.155 1.26c.108.067.266.162.482.18M14.133 18.378l10.362-2.613a.74.74 0 0 0 .195-.267l-10.188 2.608c-.105.043-.31.15-.369.272m13.175-4.446 2.858-7.565a.5.5 0 0 0-.223-.1l-2.91 7.613a.7.7 0 0 0 .275.052" />
</svg>
